G04 (created by PCBNEW-RS274X (2012-jan-04)-stable) date lun 03 giu 2013 23:00:55 CEST*
G01*
G70*
G90*
%MOIN*%
G04 Gerber Fmt 3.4, Leading zero omitted, Abs format*
%FSLAX34Y34*%
G04 APERTURE LIST*
%ADD10C,0.006000*%
%ADD11C,0.005200*%
%ADD12C,0.015000*%
%ADD13C,0.039400*%
%ADD14C,0.007900*%
%ADD15R,0.020000X0.045000*%
%ADD16R,0.025000X0.045000*%
%ADD17R,0.045000X0.025000*%
%ADD18R,0.078700X0.017700*%
%ADD19R,0.017700X0.078700*%
%ADD20R,0.039400X0.027600*%
%ADD21R,0.036000X0.036000*%
%ADD22R,0.027600X0.039400*%
%ADD23R,0.055000X0.055000*%
%ADD24C,0.055000*%
%ADD25R,0.060000X0.060000*%
%ADD26C,0.060000*%
%ADD27R,0.060000X0.080000*%
%ADD28R,0.035000X0.055000*%
%ADD29R,0.055000X0.035000*%
%ADD30C,0.066000*%
%ADD31R,0.013800X0.027600*%
%ADD32R,0.027600X0.013800*%
%ADD33R,0.021700X0.078700*%
%ADD34R,0.065000X0.132900*%
%ADD35R,0.039400X0.141700*%
%ADD36R,1.141800X0.039400*%
%ADD37C,0.039400*%
%ADD38R,0.094500X0.063000*%
%ADD39R,0.059100X0.078700*%
%ADD40R,0.041300X0.015700*%
%ADD41R,0.020400X0.157500*%
%ADD42C,0.209400*%
%ADD43R,0.020400X0.020400*%
%ADD44C,0.035000*%
%ADD45C,0.008000*%
%ADD46C,0.010000*%
G04 APERTURE END LIST*
G54D10*
G54D11*
X11468Y-25361D02*
X11370Y-25361D01*
X11370Y-24955D01*
X11625Y-25091D02*
X11625Y-25361D01*
X11537Y-25091D02*
X11537Y-25303D01*
X11547Y-25342D01*
X11566Y-25361D01*
X11596Y-25361D01*
X11616Y-25342D01*
X11625Y-25323D01*
X11841Y-25323D02*
X11831Y-25342D01*
X11802Y-25361D01*
X11782Y-25361D01*
X11752Y-25342D01*
X11733Y-25303D01*
X11723Y-25265D01*
X11713Y-25187D01*
X11713Y-25129D01*
X11723Y-25052D01*
X11733Y-25013D01*
X11752Y-24975D01*
X11782Y-24955D01*
X11802Y-24955D01*
X11831Y-24975D01*
X11841Y-24994D01*
X12017Y-25361D02*
X12017Y-25149D01*
X12008Y-25110D01*
X11988Y-25091D01*
X11949Y-25091D01*
X11929Y-25110D01*
X12017Y-25342D02*
X11998Y-25361D01*
X11949Y-25361D01*
X11929Y-25342D01*
X11919Y-25303D01*
X11919Y-25265D01*
X11929Y-25226D01*
X11949Y-25207D01*
X11998Y-25207D01*
X12017Y-25187D01*
X12115Y-25361D02*
X12115Y-25091D01*
X12115Y-25168D02*
X12125Y-25129D01*
X12135Y-25110D01*
X12154Y-25091D01*
X12174Y-25091D01*
X12331Y-25361D02*
X12331Y-24955D01*
X12331Y-25342D02*
X12312Y-25361D01*
X12272Y-25361D01*
X12253Y-25342D01*
X12243Y-25323D01*
X12233Y-25284D01*
X12233Y-25168D01*
X12243Y-25129D01*
X12253Y-25110D01*
X12272Y-25091D01*
X12312Y-25091D01*
X12331Y-25110D01*
X12429Y-25361D02*
X12429Y-25091D01*
X12429Y-24955D02*
X12419Y-24975D01*
X12429Y-24994D01*
X12439Y-24975D01*
X12429Y-24955D01*
X12429Y-24994D01*
X12556Y-25361D02*
X12537Y-25342D01*
X12527Y-25323D01*
X12517Y-25284D01*
X12517Y-25168D01*
X12527Y-25129D01*
X12537Y-25110D01*
X12556Y-25091D01*
X12586Y-25091D01*
X12606Y-25110D01*
X12615Y-25129D01*
X12625Y-25168D01*
X12625Y-25284D01*
X12615Y-25323D01*
X12606Y-25342D01*
X12586Y-25361D01*
X12556Y-25361D01*
G54D12*
X08697Y-00842D02*
X08894Y-00803D01*
X08894Y-00803D02*
X08658Y-00803D01*
X08658Y-00803D02*
X08894Y-01039D01*
X08894Y-01039D02*
X08697Y-01039D01*
X08697Y-01039D02*
X08933Y-00842D01*
X08422Y-01039D02*
X08658Y-01039D01*
X08658Y-01039D02*
X08658Y-00803D01*
X08658Y-00803D02*
X08500Y-00803D01*
X08500Y-00803D02*
X08422Y-01000D01*
X08422Y-01000D02*
X08579Y-00921D01*
X09366Y-02141D02*
X09366Y-01039D01*
X09248Y-01118D02*
X09248Y-02102D01*
X09130Y-02102D02*
X09130Y-01000D01*
G54D13*
X09760Y-04228D02*
X09760Y-03598D01*
G54D14*
X08500Y-00764D02*
X08107Y-01157D01*
X08107Y-01157D02*
X08500Y-00882D01*
X08500Y-00882D02*
X08225Y-01157D01*
X08225Y-01157D02*
X08461Y-01000D01*
X08461Y-01000D02*
X08382Y-01157D01*
X08382Y-01157D02*
X08500Y-01000D01*
X10036Y-02693D02*
X09327Y-02102D01*
X09327Y-02102D02*
X09091Y-02102D01*
X09091Y-02102D02*
X09563Y-02771D01*
X09563Y-02771D02*
X09918Y-02693D01*
X09918Y-02693D02*
X09209Y-02102D01*
X09209Y-02102D02*
X09170Y-02102D01*
X09170Y-02102D02*
X09603Y-02732D01*
X09603Y-02732D02*
X09800Y-02653D01*
X09800Y-02653D02*
X09288Y-02260D01*
X09288Y-02260D02*
X09642Y-02653D01*
X09642Y-02653D02*
X09721Y-02614D01*
X09721Y-02614D02*
X09603Y-02535D01*
G54D12*
X18878Y-27160D02*
X19178Y-27160D01*
X19178Y-27160D02*
X19178Y-27260D01*
X19178Y-27260D02*
X17078Y-27260D01*
X18928Y-26410D02*
X18928Y-26360D01*
X18928Y-26310D02*
X19228Y-26310D01*
X19228Y-26310D02*
X19228Y-26410D01*
X19228Y-26410D02*
X18928Y-26410D01*
X17678Y-25960D02*
X17428Y-25960D01*
X17428Y-25960D02*
X17428Y-25860D01*
X17428Y-25860D02*
X17728Y-25860D01*
X17728Y-26810D02*
X17428Y-26810D01*
X17428Y-26810D02*
X17428Y-26710D01*
X17428Y-26710D02*
X17728Y-26710D01*
X19528Y-26010D02*
X19478Y-25960D01*
X19478Y-25960D02*
X17678Y-25960D01*
X17678Y-25960D02*
X17678Y-25860D01*
X17678Y-25860D02*
X19528Y-25860D01*
X18878Y-26310D02*
X17128Y-26310D01*
X17128Y-26310D02*
X17128Y-26410D01*
X17128Y-26410D02*
X18928Y-26410D01*
X18928Y-26410D02*
X18928Y-26310D01*
X19428Y-26710D02*
X17728Y-26710D01*
X17728Y-26710D02*
X17728Y-26810D01*
X17728Y-26810D02*
X19428Y-26810D01*
X18878Y-27210D02*
X17078Y-27210D01*
X17078Y-27210D02*
X17078Y-27160D01*
X17078Y-27160D02*
X18878Y-27160D01*
X10322Y-25876D02*
X10022Y-25876D01*
X10022Y-25876D02*
X10022Y-25776D01*
X10022Y-25776D02*
X12122Y-25776D01*
X10272Y-26626D02*
X10272Y-26676D01*
X10272Y-26726D02*
X09972Y-26726D01*
X09972Y-26726D02*
X09972Y-26626D01*
X09972Y-26626D02*
X10272Y-26626D01*
X11522Y-27076D02*
X11772Y-27076D01*
X11772Y-27076D02*
X11772Y-27176D01*
X11772Y-27176D02*
X11472Y-27176D01*
X11472Y-26226D02*
X11772Y-26226D01*
X11772Y-26226D02*
X11772Y-26326D01*
X11772Y-26326D02*
X11472Y-26326D01*
X09672Y-27026D02*
X09722Y-27076D01*
X09722Y-27076D02*
X11522Y-27076D01*
X11522Y-27076D02*
X11522Y-27176D01*
X11522Y-27176D02*
X09672Y-27176D01*
X10322Y-26726D02*
X12072Y-26726D01*
X12072Y-26726D02*
X12072Y-26626D01*
X12072Y-26626D02*
X10272Y-26626D01*
X10272Y-26626D02*
X10272Y-26726D01*
X09772Y-26326D02*
X11472Y-26326D01*
X11472Y-26326D02*
X11472Y-26226D01*
X11472Y-26226D02*
X09772Y-26226D01*
X10322Y-25826D02*
X12122Y-25826D01*
X12122Y-25826D02*
X12122Y-25876D01*
X12122Y-25876D02*
X10322Y-25876D01*
X23539Y-25307D02*
X23503Y-25669D01*
X23398Y-26018D01*
X23227Y-26339D01*
X22997Y-26621D01*
X22716Y-26853D01*
X22396Y-27027D01*
X22048Y-27134D01*
X21686Y-27172D01*
X21324Y-27139D01*
X20974Y-27037D01*
X20652Y-26868D01*
X20368Y-26640D01*
X20134Y-26361D01*
X19958Y-26042D01*
X19848Y-25694D01*
X19808Y-25333D01*
X19838Y-24971D01*
X19939Y-24621D01*
X20105Y-24297D01*
X20331Y-24011D01*
X20609Y-23775D01*
X20926Y-23598D01*
X21273Y-23485D01*
X21634Y-23442D01*
X21997Y-23470D01*
X22347Y-23568D01*
X22672Y-23732D01*
X22959Y-23956D01*
X23197Y-24232D01*
X23377Y-24549D01*
X23492Y-24894D01*
X23538Y-25255D01*
X23539Y-25307D01*
X09350Y-25240D02*
X09314Y-25602D01*
X09209Y-25951D01*
X09038Y-26272D01*
X08808Y-26554D01*
X08527Y-26786D01*
X08207Y-26960D01*
X07859Y-27067D01*
X07497Y-27105D01*
X07135Y-27072D01*
X06785Y-26970D01*
X06463Y-26801D01*
X06179Y-26573D01*
X05945Y-26294D01*
X05769Y-25975D01*
X05659Y-25627D01*
X05619Y-25266D01*
X05649Y-24904D01*
X05750Y-24554D01*
X05916Y-24230D01*
X06142Y-23944D01*
X06420Y-23708D01*
X06737Y-23531D01*
X07084Y-23418D01*
X07445Y-23375D01*
X07808Y-23403D01*
X08158Y-23501D01*
X08483Y-23665D01*
X08770Y-23889D01*
X09008Y-24165D01*
X09188Y-24482D01*
X09303Y-24827D01*
X09349Y-25188D01*
X09350Y-25240D01*
G54D15*
X07283Y-16534D03*
X07783Y-16534D03*
X08283Y-16534D03*
X08783Y-16534D03*
X09283Y-16534D03*
X09783Y-16534D03*
X10283Y-16534D03*
X10283Y-14434D03*
X09783Y-14434D03*
X09283Y-14434D03*
X08783Y-14434D03*
X08283Y-14434D03*
X07783Y-14434D03*
X07283Y-14434D03*
G54D16*
X09733Y-13584D03*
X10333Y-13584D03*
X07933Y-12484D03*
X07333Y-12484D03*
G54D17*
X06233Y-14284D03*
X06233Y-14884D03*
G54D16*
X08483Y-12484D03*
X09083Y-12484D03*
G54D18*
X14187Y-18627D03*
X14187Y-18312D03*
X14187Y-17997D03*
X14187Y-17682D03*
X14187Y-17367D03*
X14187Y-17052D03*
X14187Y-16737D03*
X14187Y-16422D03*
X17953Y-16424D03*
X17953Y-18634D03*
X17953Y-18314D03*
X17953Y-17994D03*
X17953Y-17684D03*
X17953Y-17364D03*
X17953Y-17054D03*
X17953Y-16734D03*
G54D19*
X14971Y-15634D03*
X15285Y-15634D03*
X15601Y-15634D03*
X15915Y-15634D03*
X16231Y-15634D03*
X16545Y-15634D03*
X16861Y-15634D03*
X17175Y-15634D03*
X14973Y-19414D03*
X15283Y-19414D03*
X15603Y-19414D03*
X15913Y-19414D03*
X16223Y-19414D03*
X16543Y-19414D03*
X16863Y-19414D03*
X17183Y-19414D03*
G54D16*
X07333Y-18684D03*
X07933Y-18684D03*
G54D17*
X12083Y-13034D03*
X12083Y-13634D03*
G54D16*
X08583Y-18684D03*
X09183Y-18684D03*
G54D17*
X06233Y-16284D03*
X06233Y-15684D03*
X12033Y-11784D03*
X12033Y-12384D03*
X11983Y-16834D03*
X11983Y-16234D03*
X11383Y-16234D03*
X11383Y-16834D03*
X18283Y-13834D03*
X18283Y-13234D03*
X15058Y-22809D03*
X15058Y-23409D03*
X14110Y-23414D03*
X14110Y-22814D03*
G54D20*
X16983Y-22759D03*
X16983Y-23134D03*
X16983Y-23509D03*
X15983Y-23509D03*
X15983Y-23134D03*
X15983Y-22759D03*
G54D21*
X18988Y-21368D03*
X19688Y-21368D03*
X19338Y-22168D03*
G54D22*
X06333Y-18084D03*
X05958Y-17084D03*
X06708Y-17084D03*
X09683Y-20484D03*
X09308Y-19484D03*
X10058Y-19484D03*
X07583Y-20734D03*
X07208Y-19734D03*
X07958Y-19734D03*
G54D17*
X10433Y-17884D03*
X10433Y-17284D03*
G54D23*
X06333Y-19984D03*
G54D24*
X06333Y-18984D03*
G54D23*
X19083Y-13634D03*
G54D24*
X20083Y-13634D03*
X21083Y-13634D03*
X22083Y-13634D03*
X23083Y-13634D03*
G54D16*
X18933Y-15984D03*
X18333Y-15984D03*
X19783Y-16934D03*
X19183Y-16934D03*
G54D25*
X06383Y-08284D03*
G54D26*
X06383Y-07284D03*
G54D27*
X14633Y-10484D03*
X15933Y-10484D03*
G54D28*
X22208Y-17934D03*
X21458Y-17934D03*
X15508Y-11384D03*
X14758Y-11384D03*
G54D29*
X17533Y-06059D03*
X17533Y-05309D03*
X11433Y-15509D03*
X11433Y-14759D03*
X09133Y-17309D03*
X09133Y-18059D03*
X18383Y-06059D03*
X18383Y-05309D03*
G54D16*
X18461Y-21886D03*
X17861Y-21886D03*
X13983Y-11384D03*
X13383Y-11384D03*
G54D17*
X16733Y-05434D03*
X16733Y-06034D03*
X12733Y-11784D03*
X12733Y-11184D03*
G54D16*
X12983Y-10534D03*
X13583Y-10534D03*
G54D17*
X19696Y-05881D03*
X19696Y-06481D03*
G54D23*
X02586Y-08743D03*
G54D24*
X02586Y-05743D03*
G54D23*
X01786Y-05743D03*
G54D24*
X01786Y-08743D03*
G54D23*
X02586Y-10682D03*
G54D24*
X02586Y-13682D03*
G54D23*
X01786Y-13682D03*
G54D24*
X01786Y-10682D03*
G54D29*
X08633Y-20459D03*
X08633Y-19709D03*
G54D28*
X08108Y-13434D03*
X07358Y-13434D03*
X10508Y-12484D03*
X09758Y-12484D03*
G54D29*
X07333Y-17309D03*
X07333Y-18059D03*
X08233Y-17309D03*
X08233Y-18059D03*
X12956Y-16649D03*
X12956Y-17399D03*
G54D28*
X19958Y-17584D03*
X19208Y-17584D03*
G54D29*
X11233Y-13209D03*
X11233Y-13959D03*
X06633Y-13159D03*
X06633Y-12409D03*
G54D28*
X17991Y-08032D03*
X18741Y-08032D03*
G54D30*
X06732Y-04563D03*
X06732Y-05563D03*
G54D23*
X02145Y-09708D03*
G54D24*
X03145Y-09708D03*
G54D31*
X21927Y-16665D03*
X21730Y-16665D03*
X21533Y-16665D03*
X21336Y-16665D03*
X21139Y-16665D03*
G54D32*
X21002Y-16331D03*
X21002Y-16134D03*
X21002Y-15937D03*
G54D31*
X21139Y-15603D03*
X21336Y-15603D03*
X21533Y-15603D03*
X21730Y-15603D03*
X21927Y-15603D03*
G54D32*
X22064Y-15937D03*
X22064Y-16134D03*
X22064Y-16331D03*
G54D33*
X10193Y-04582D03*
X10626Y-04582D03*
X12240Y-04582D03*
X12674Y-04582D03*
X13540Y-04582D03*
X13973Y-04582D03*
X14406Y-04582D03*
X14839Y-04582D03*
X13107Y-04582D03*
X11059Y-04582D03*
X09760Y-04582D03*
X09327Y-04582D03*
X09327Y-09386D03*
X09760Y-09386D03*
X10193Y-09386D03*
X10626Y-09386D03*
X11059Y-09386D03*
X12242Y-09386D03*
X12675Y-09386D03*
X13108Y-09386D03*
X13541Y-09386D03*
X13974Y-09386D03*
X14406Y-09386D03*
X14839Y-09386D03*
G54D34*
X09760Y-03323D03*
G54D35*
X08264Y-01827D03*
G54D36*
X14563Y-00921D03*
G54D37*
X16779Y-14536D03*
X17283Y-14534D03*
G54D16*
X16744Y-08784D03*
X16144Y-08784D03*
X16740Y-09386D03*
X16140Y-09386D03*
G54D25*
X11083Y-20984D03*
G54D26*
X12083Y-20984D03*
X13083Y-20984D03*
X14083Y-20984D03*
X15083Y-20984D03*
X16083Y-20984D03*
X17083Y-20984D03*
X18083Y-20984D03*
G54D17*
X12877Y-19080D03*
X12877Y-18480D03*
G54D25*
X00790Y-09279D03*
G54D26*
X00790Y-10279D03*
G54D38*
X23047Y-03047D03*
X23047Y-07791D03*
X21354Y-07791D03*
X21354Y-03067D03*
G54D39*
X20527Y-06354D03*
X20527Y-04504D03*
G54D40*
X21197Y-05429D03*
X21197Y-05685D03*
X21197Y-05173D03*
X21197Y-04917D03*
X21197Y-05941D03*
G54D41*
X17070Y-26528D03*
X19511Y-26528D03*
X12130Y-26508D03*
X09689Y-26508D03*
G54D42*
X21692Y-25323D03*
G54D43*
X21673Y-23407D03*
X21673Y-27207D03*
G54D42*
X07484Y-25240D03*
G54D43*
X07484Y-23340D03*
X07484Y-27140D03*
G54D23*
X18673Y-25028D03*
X18692Y-23020D03*
X22255Y-23020D03*
X06503Y-22941D03*
X10086Y-24949D03*
X10066Y-22941D03*
G54D44*
X19783Y-19134D03*
X11233Y-11334D03*
X09233Y-20084D03*
X12169Y-17941D03*
X11492Y-23803D03*
X12834Y-17902D03*
X10583Y-20034D03*
X13283Y-13034D03*
X18533Y-19134D03*
X17133Y-14034D03*
X14633Y-14734D03*
X12683Y-14334D03*
X12183Y-17484D03*
X15833Y-18684D03*
X12633Y-12884D03*
X13483Y-16384D03*
X06783Y-16184D03*
X06733Y-15234D03*
X16333Y-16684D03*
X21433Y-18584D03*
X20263Y-27043D03*
X06733Y-17634D03*
X08614Y-04595D03*
X18683Y-17284D03*
X09086Y-26925D03*
X21183Y-15034D03*
X15883Y-05234D03*
X19333Y-15984D03*
X13283Y-17884D03*
X21233Y-17084D03*
X05866Y-23504D03*
X08233Y-19184D03*
X12033Y-14434D03*
X16083Y-11334D03*
X20483Y-17734D03*
X13031Y-16024D03*
X08283Y-02634D03*
X19649Y-04559D03*
X11383Y-17534D03*
X09783Y-18384D03*
X09433Y-10184D03*
X13033Y-13584D03*
X16161Y-24043D03*
X17183Y-13234D03*
X10583Y-19484D03*
X08783Y-13834D03*
X13483Y-16834D03*
X09983Y-05334D03*
X23232Y-23484D03*
X06783Y-18534D03*
X17483Y-20134D03*
X13883Y-19034D03*
X19066Y-20721D03*
X16783Y-18584D03*
X10759Y-25000D03*
X07484Y-25240D03*
X07472Y-10445D03*
X05783Y-11563D03*
X17413Y-07685D03*
X11133Y-12534D03*
X09283Y-13684D03*
X21692Y-25323D03*
X18023Y-25040D03*
X08833Y-13184D03*
X06833Y-14434D03*
X06383Y-13734D03*
X18233Y-14284D03*
X17833Y-10934D03*
X18633Y-10384D03*
X19952Y-11693D03*
X19114Y-11473D03*
X16539Y-10248D03*
X17413Y-11709D03*
X18291Y-11579D03*
X16483Y-22734D03*
X17883Y-09184D03*
X20833Y-14784D03*
X16433Y-14884D03*
X21933Y-12434D03*
X18783Y-18634D03*
X20483Y-17184D03*
X19870Y-22315D03*
X15933Y-16334D03*
X17775Y-08681D03*
X20483Y-21434D03*
X19383Y-09684D03*
X20533Y-18284D03*
X17437Y-22394D03*
X20483Y-15834D03*
X16333Y-18634D03*
X16933Y-20184D03*
X18358Y-11122D03*
X17673Y-11354D03*
X20972Y-11524D03*
X19330Y-11103D03*
X17196Y-09614D03*
X16653Y-04665D03*
X07833Y-11584D03*
X09133Y-06434D03*
X18169Y-22433D03*
X17374Y-21969D03*
X19483Y-18284D03*
X08003Y-22965D03*
X19383Y-16434D03*
X20874Y-23004D03*
X13043Y-21961D03*
X10122Y-23646D03*
X11724Y-22874D03*
X18614Y-23854D03*
X16083Y-06034D03*
X15933Y-17634D03*
X13533Y-22584D03*
X12822Y-12264D03*
X19842Y-07492D03*
X14334Y-11886D03*
X12685Y-15386D03*
X19354Y-08374D03*
X20492Y-05453D03*
X19220Y-06059D03*
X17333Y-11034D03*
X18283Y-10084D03*
G54D45*
X15083Y-20984D02*
X15083Y-20584D01*
X15603Y-20064D02*
X15603Y-19414D01*
X15083Y-20584D02*
X15603Y-20064D01*
X15913Y-20814D02*
X16083Y-20984D01*
X15913Y-19414D02*
X15913Y-20814D01*
X17333Y-16234D02*
X18183Y-15384D01*
X15736Y-16737D02*
X16033Y-17034D01*
X21333Y-17384D02*
X21533Y-17184D01*
X16033Y-17034D02*
X16383Y-17034D01*
X21133Y-17384D02*
X21333Y-17384D01*
X21533Y-17184D02*
X21533Y-16665D01*
X19133Y-15384D02*
X21133Y-17384D01*
X17183Y-16234D02*
X17333Y-16234D01*
X14187Y-16737D02*
X15736Y-16737D01*
X18183Y-15384D02*
X19133Y-15384D01*
X16383Y-17034D02*
X17183Y-16234D01*
X15283Y-19984D02*
X14283Y-20984D01*
X14283Y-20984D02*
X14083Y-20984D01*
X15283Y-19414D02*
X15283Y-19984D01*
X14973Y-19414D02*
X14653Y-19414D01*
X14653Y-19414D02*
X13083Y-20984D01*
X16223Y-20024D02*
X16223Y-19414D01*
X17083Y-20984D02*
X17083Y-20884D01*
X17083Y-20884D02*
X16223Y-20024D01*
X08783Y-16959D02*
X09133Y-17309D01*
X18933Y-18234D02*
X19133Y-18434D01*
X18603Y-18314D02*
X18683Y-18234D01*
X21927Y-15603D02*
X22452Y-15603D01*
X09308Y-19484D02*
X09308Y-20009D01*
X19083Y-13634D02*
X18733Y-13284D01*
X19133Y-18434D02*
X19133Y-18884D01*
X22530Y-16331D02*
X22064Y-16331D01*
X17953Y-18314D02*
X18603Y-18314D01*
X18683Y-18234D02*
X18933Y-18234D01*
X18333Y-13284D02*
X18283Y-13234D01*
X22533Y-15684D02*
X22533Y-16084D01*
X12956Y-17399D02*
X12956Y-17780D01*
X18883Y-19134D02*
X18533Y-19134D01*
X09308Y-20009D02*
X09233Y-20084D01*
X22452Y-15603D02*
X22533Y-15684D01*
X22483Y-16134D02*
X22064Y-16134D01*
X08783Y-16534D02*
X08783Y-16959D01*
X12956Y-17780D02*
X12834Y-17902D01*
X12169Y-17941D02*
X12177Y-17933D01*
X22533Y-16084D02*
X22533Y-16334D01*
X18733Y-13284D02*
X18333Y-13284D01*
X22533Y-16084D02*
X22483Y-16134D01*
X19133Y-18884D02*
X18883Y-19134D01*
X22530Y-16331D02*
X22533Y-16334D01*
X17283Y-14184D02*
X17133Y-14034D01*
X17283Y-15526D02*
X17175Y-15634D01*
X13333Y-14734D02*
X13033Y-14434D01*
X17283Y-14534D02*
X17283Y-14184D01*
X13033Y-14134D02*
X12858Y-13959D01*
X13033Y-14434D02*
X13033Y-14134D01*
X17283Y-14534D02*
X17283Y-15526D01*
X12858Y-13959D02*
X11233Y-13959D01*
X10283Y-13634D02*
X10333Y-13584D01*
X10858Y-13584D02*
X11233Y-13959D01*
X10333Y-13584D02*
X10858Y-13584D01*
X14633Y-14734D02*
X13333Y-14734D01*
X10283Y-14434D02*
X10283Y-13634D01*
X12083Y-13034D02*
X12083Y-12434D01*
X12183Y-17484D02*
X12383Y-17284D01*
X12633Y-12884D02*
X12133Y-12384D01*
X12383Y-14634D02*
X12683Y-14334D01*
X17953Y-17994D02*
X16523Y-17994D01*
X16523Y-17994D02*
X15833Y-18684D01*
X12383Y-17284D02*
X12383Y-14634D01*
X12083Y-12434D02*
X12033Y-12384D01*
X12133Y-12384D02*
X12033Y-12384D01*
X13483Y-16384D02*
X13521Y-16422D01*
X13521Y-16422D02*
X14187Y-16422D01*
X16861Y-14618D02*
X16779Y-14536D01*
X16861Y-15634D02*
X16861Y-16156D01*
X06483Y-16534D02*
X06233Y-16284D01*
X16861Y-15634D02*
X16861Y-14618D01*
X07283Y-16534D02*
X06483Y-16534D01*
X06683Y-16284D02*
X06233Y-16284D01*
X06233Y-14884D02*
X06383Y-14884D01*
X06383Y-14884D02*
X06733Y-15234D01*
X06783Y-16184D02*
X06683Y-16284D01*
X16861Y-16156D02*
X16333Y-16684D01*
X21673Y-23407D02*
X21789Y-23407D01*
X13701Y-17052D02*
X13483Y-16834D01*
X07158Y-18059D02*
X06733Y-17634D01*
X21673Y-27207D02*
X20427Y-27207D01*
X12983Y-13634D02*
X13033Y-13584D01*
X21458Y-18559D02*
X21433Y-18584D01*
X20427Y-27207D02*
X20263Y-27043D01*
X06708Y-17609D02*
X06733Y-17634D01*
X21789Y-23407D02*
X21866Y-23484D01*
X07484Y-23340D02*
X06987Y-23340D01*
X19958Y-17584D02*
X19958Y-17109D01*
G54D13*
X12956Y-16649D02*
X12956Y-16099D01*
G54D45*
X15983Y-23509D02*
X16008Y-23509D01*
X15508Y-11384D02*
X16033Y-11384D01*
X17533Y-06059D02*
X17458Y-06059D01*
X20263Y-05173D02*
X19649Y-04559D01*
X21139Y-15603D02*
X21139Y-15078D01*
X08871Y-27140D02*
X09086Y-26925D01*
X14187Y-17052D02*
X13701Y-17052D01*
X13283Y-17834D02*
X13283Y-17884D01*
X09327Y-10078D02*
X09327Y-09386D01*
X07333Y-18059D02*
X07258Y-18059D01*
X06823Y-23504D02*
X05866Y-23504D01*
X14839Y-09390D02*
X15933Y-10484D01*
X08783Y-14434D02*
X09283Y-14434D01*
X17133Y-05734D02*
X16383Y-05734D01*
G54D13*
X12956Y-16099D02*
X13031Y-16024D01*
G54D45*
X21139Y-15078D02*
X21183Y-15034D01*
X14187Y-17682D02*
X13435Y-17682D01*
X12083Y-13634D02*
X12983Y-13634D01*
X21866Y-23484D02*
X23232Y-23484D01*
X20333Y-17584D02*
X20483Y-17734D01*
X10058Y-19484D02*
X10583Y-19484D01*
X16383Y-05734D02*
X15883Y-05234D01*
X09327Y-04378D02*
X09327Y-04582D01*
X11708Y-14759D02*
X11433Y-14759D01*
X07258Y-18059D02*
X06783Y-18534D01*
X09133Y-18059D02*
X09458Y-18059D01*
X19783Y-16934D02*
X19783Y-16434D01*
X19958Y-17584D02*
X20333Y-17584D01*
X06708Y-17609D02*
X06708Y-17084D01*
X15983Y-23134D02*
X15983Y-23509D01*
X21336Y-16981D02*
X21233Y-17084D01*
X21197Y-05173D02*
X20263Y-05173D01*
X15983Y-23509D02*
X15983Y-23865D01*
X16033Y-11384D02*
X16083Y-11334D01*
X06987Y-23340D02*
X06823Y-23504D01*
X18603Y-17364D02*
X18683Y-17284D01*
X19958Y-17109D02*
X19783Y-16934D01*
X09458Y-18059D02*
X09783Y-18384D01*
X19783Y-16434D02*
X19333Y-15984D01*
X07484Y-27140D02*
X08871Y-27140D01*
X15983Y-23865D02*
X16161Y-24043D01*
X09327Y-04582D02*
X09327Y-05076D01*
X11383Y-16834D02*
X11383Y-17534D01*
X08627Y-04582D02*
X08614Y-04595D01*
X09433Y-10184D02*
X09327Y-10078D01*
X09327Y-05076D02*
X09585Y-05334D01*
X17458Y-06059D02*
X17133Y-05734D01*
X08783Y-14434D02*
X08783Y-13834D01*
X16983Y-23134D02*
X15983Y-23134D01*
X10193Y-05124D02*
X10193Y-04582D01*
X08264Y-02615D02*
X08283Y-02634D01*
X08233Y-18059D02*
X08233Y-19184D01*
X08264Y-02615D02*
X08264Y-01827D01*
X15933Y-10959D02*
X15508Y-11384D01*
X08283Y-14434D02*
X08783Y-14434D01*
X17953Y-17364D02*
X18603Y-17364D01*
X15933Y-10484D02*
X15933Y-10959D01*
X13435Y-17682D02*
X13283Y-17834D01*
X19333Y-15984D02*
X18933Y-15984D01*
X21336Y-16665D02*
X21336Y-16981D01*
X09327Y-04582D02*
X08627Y-04582D01*
X12033Y-14434D02*
X11708Y-14759D01*
X07333Y-18059D02*
X07158Y-18059D01*
X09585Y-05334D02*
X09983Y-05334D01*
X14839Y-09386D02*
X14839Y-09390D01*
X21458Y-17934D02*
X21458Y-18559D01*
X10193Y-05124D02*
X09983Y-05334D01*
X17483Y-20134D02*
X17183Y-19834D01*
X17183Y-19834D02*
X17183Y-19414D01*
X19688Y-21368D02*
X19688Y-21343D01*
X14187Y-18730D02*
X13883Y-19034D01*
X14187Y-18627D02*
X14187Y-18730D01*
X19688Y-21343D02*
X19066Y-20721D01*
X16783Y-18584D02*
X16863Y-18664D01*
X16863Y-18664D02*
X16863Y-19414D01*
X19058Y-17584D02*
X18983Y-17584D01*
X18983Y-17584D02*
X18683Y-17584D01*
X19208Y-17584D02*
X18983Y-17584D01*
X18583Y-17684D02*
X17953Y-17684D01*
X18683Y-17584D02*
X18583Y-17684D01*
X09689Y-25346D02*
X10086Y-24949D01*
X10086Y-24949D02*
X10708Y-24949D01*
X06775Y-25240D02*
X06484Y-24949D01*
X07484Y-25240D02*
X06775Y-25240D01*
X06775Y-25240D02*
X06484Y-24949D01*
X06484Y-24949D02*
X07484Y-25240D01*
X09689Y-26508D02*
X09689Y-25346D01*
X10759Y-25000D02*
X10708Y-24949D01*
X07460Y-10433D02*
X07472Y-10445D01*
X06913Y-10433D02*
X07460Y-10433D01*
X05783Y-11563D02*
X06913Y-10433D01*
X15657Y-08587D02*
X13385Y-08587D01*
X13108Y-08864D02*
X13108Y-09386D01*
X13385Y-08587D02*
X13108Y-08864D01*
X15854Y-08784D02*
X15657Y-08587D01*
X16144Y-08784D02*
X15854Y-08784D01*
X12983Y-10534D02*
X12983Y-10934D01*
X12983Y-10934D02*
X12733Y-11184D01*
X13583Y-10534D02*
X13633Y-10534D01*
X13633Y-10534D02*
X13974Y-10193D01*
X13974Y-10193D02*
X13974Y-09386D01*
X14110Y-24528D02*
X12130Y-26508D01*
X14110Y-23414D02*
X14110Y-24528D01*
X15058Y-23409D02*
X15058Y-24516D01*
X15058Y-24516D02*
X17070Y-26528D01*
X08608Y-17684D02*
X08233Y-17309D01*
X09633Y-17684D02*
X08608Y-17684D01*
X08583Y-18684D02*
X08583Y-18484D01*
X09833Y-17884D02*
X09633Y-17684D01*
X10433Y-17884D02*
X09833Y-17884D01*
X08583Y-18484D02*
X08683Y-18384D01*
X08233Y-16584D02*
X08283Y-16534D01*
X08233Y-17309D02*
X08233Y-16584D01*
X08683Y-18384D02*
X08683Y-17759D01*
X08683Y-17759D02*
X08233Y-17309D01*
X17991Y-08032D02*
X17760Y-08032D01*
X17760Y-08032D02*
X17413Y-07685D01*
X06233Y-14284D02*
X06508Y-14284D01*
X06633Y-12409D02*
X06633Y-12434D01*
X06508Y-14284D02*
X07358Y-13434D01*
X06633Y-12434D02*
X07358Y-13159D01*
X07358Y-13159D02*
X07358Y-13434D01*
X10283Y-17284D02*
X10433Y-17284D01*
X09783Y-16534D02*
X09783Y-16784D01*
X09783Y-16784D02*
X10283Y-17284D01*
X10433Y-16984D02*
X10283Y-16834D01*
X10433Y-17284D02*
X10433Y-16984D01*
X10283Y-16834D02*
X10283Y-16534D01*
X07208Y-19534D02*
X07233Y-19509D01*
X07083Y-19734D02*
X06333Y-18984D01*
X06333Y-18084D02*
X06333Y-18984D01*
X07233Y-19484D02*
X07233Y-19509D01*
X07233Y-19509D02*
X07208Y-19534D01*
X08608Y-19734D02*
X08633Y-19709D01*
X07333Y-18684D02*
X07333Y-19409D01*
X07208Y-19734D02*
X07958Y-19734D01*
X07958Y-19734D02*
X08608Y-19734D01*
X07208Y-19734D02*
X07208Y-19534D01*
X07233Y-19509D02*
X07233Y-19484D01*
X07208Y-19734D02*
X07083Y-19734D01*
X07333Y-19409D02*
X07233Y-19509D01*
X11233Y-13209D02*
X10758Y-13209D01*
X10758Y-13209D02*
X10533Y-12984D01*
X10258Y-12984D02*
X09758Y-12484D01*
X09083Y-12484D02*
X09758Y-12484D01*
X10533Y-12984D02*
X10258Y-12984D01*
X09733Y-14384D02*
X09783Y-14434D01*
X11083Y-12484D02*
X11133Y-12534D01*
X10508Y-12484D02*
X11083Y-12484D01*
X09283Y-13684D02*
X09383Y-13584D01*
X09383Y-13584D02*
X09733Y-13584D01*
X09733Y-13584D02*
X09733Y-14384D01*
X07333Y-12659D02*
X08108Y-13434D01*
X07783Y-13759D02*
X08108Y-13434D01*
X07333Y-12484D02*
X07333Y-12659D01*
X07783Y-14434D02*
X07783Y-13759D01*
X07933Y-18684D02*
X07933Y-18484D01*
X07783Y-17759D02*
X07333Y-17309D01*
X07783Y-16284D02*
X07783Y-16534D01*
X06233Y-15684D02*
X07183Y-15684D01*
X07183Y-15684D02*
X07783Y-16284D01*
X07783Y-16859D02*
X07333Y-17309D01*
X07783Y-18334D02*
X07783Y-17759D01*
X07933Y-18484D02*
X07783Y-18334D01*
X07783Y-16534D02*
X07783Y-16859D01*
X15952Y-09386D02*
X16140Y-09386D01*
X15357Y-08791D02*
X15952Y-09386D01*
X13712Y-08791D02*
X15357Y-08791D01*
X13541Y-08962D02*
X13712Y-08791D01*
X13541Y-09386D02*
X13541Y-08962D01*
X19429Y-26446D02*
X19511Y-26528D01*
X18673Y-25028D02*
X19058Y-25028D01*
X19058Y-25028D02*
X19429Y-25399D01*
X18023Y-25040D02*
X18035Y-25028D01*
X19429Y-25399D02*
X19429Y-26446D01*
X18673Y-25028D02*
X18035Y-25028D01*
X19338Y-22168D02*
X18907Y-22168D01*
X18758Y-22183D02*
X18461Y-21886D01*
X18907Y-22168D02*
X18892Y-22183D01*
X18892Y-22183D02*
X18758Y-22183D01*
X19341Y-22183D02*
X18758Y-22183D01*
X17861Y-21886D02*
X17861Y-21206D01*
X17861Y-21206D02*
X18083Y-20984D01*
X08633Y-20459D02*
X08633Y-20334D01*
X09683Y-19184D02*
X09683Y-20484D01*
X09183Y-18684D02*
X09683Y-19184D01*
X07433Y-20734D02*
X06683Y-19984D01*
X07858Y-20459D02*
X07583Y-20734D01*
X09658Y-20459D02*
X09683Y-20484D01*
X08633Y-20459D02*
X07858Y-20459D01*
X06683Y-19984D02*
X06333Y-19984D01*
X08633Y-20459D02*
X09658Y-20459D01*
X07583Y-20734D02*
X07433Y-20734D01*
X14406Y-10057D02*
X14406Y-09386D01*
X14758Y-11384D02*
X14758Y-10609D01*
X14758Y-10609D02*
X14633Y-10484D01*
X14633Y-10284D02*
X14406Y-10057D01*
X13983Y-11384D02*
X14758Y-11384D01*
X14633Y-10484D02*
X14633Y-10284D01*
X06633Y-13159D02*
X06633Y-13484D01*
X08833Y-13184D02*
X08483Y-12934D01*
X06633Y-13484D02*
X06383Y-13734D01*
X08483Y-12484D02*
X07933Y-12484D01*
X08483Y-12934D02*
X08483Y-12484D01*
X06833Y-14434D02*
X07283Y-14434D01*
X17833Y-10934D02*
X17833Y-11084D01*
X17533Y-13584D02*
X16383Y-13584D01*
X17983Y-11534D02*
X16383Y-13134D01*
X16383Y-13134D02*
X16383Y-13584D01*
X17983Y-11234D02*
X17983Y-11534D01*
X15915Y-14816D02*
X15883Y-14784D01*
X17833Y-11084D02*
X17983Y-11234D01*
X18757Y-10260D02*
X18757Y-08048D01*
X18758Y-10259D02*
X18757Y-10260D01*
X18233Y-14284D02*
X17533Y-13584D01*
X16333Y-14334D02*
X15883Y-14784D01*
X16383Y-13584D02*
X16333Y-13584D01*
X15915Y-15634D02*
X15915Y-14816D01*
X18757Y-10260D02*
X18633Y-10384D01*
X18757Y-08048D02*
X18741Y-08032D01*
X16333Y-13584D02*
X16333Y-14334D01*
X18233Y-13884D02*
X18283Y-13834D01*
X18233Y-14284D02*
X18233Y-13884D01*
X18291Y-11579D02*
X18275Y-11579D01*
X16803Y-10248D02*
X16539Y-10248D01*
X19952Y-11693D02*
X20083Y-11824D01*
X17602Y-09752D02*
X17291Y-10063D01*
X19008Y-11579D02*
X18291Y-11579D01*
X20083Y-13634D02*
X20083Y-11824D01*
X19114Y-11473D02*
X19008Y-11579D01*
X17602Y-09343D02*
X17602Y-09752D01*
X17043Y-08784D02*
X17602Y-09343D01*
X16744Y-08784D02*
X17043Y-08784D01*
X17291Y-10063D02*
X16988Y-10063D01*
X16988Y-10063D02*
X16803Y-10248D01*
X15601Y-13521D02*
X17413Y-11709D01*
X15601Y-15634D02*
X15601Y-13521D01*
X21583Y-12784D02*
X21933Y-12434D01*
X21583Y-15134D02*
X21583Y-14484D01*
X20933Y-14784D02*
X21183Y-14534D01*
X16231Y-15086D02*
X16433Y-14884D01*
X21336Y-15381D02*
X21583Y-15134D01*
X21583Y-13234D02*
X21583Y-14434D01*
X21483Y-14534D02*
X21583Y-14634D01*
X21583Y-14434D02*
X21483Y-14534D01*
X21583Y-13234D02*
X21583Y-12784D01*
X12675Y-08942D02*
X13233Y-08384D01*
X21583Y-14634D02*
X21583Y-15134D01*
X13233Y-08384D02*
X17083Y-08384D01*
X20833Y-14784D02*
X20933Y-14784D01*
X21583Y-13234D02*
X21583Y-14434D01*
X16231Y-15634D02*
X16231Y-15086D01*
X21183Y-14534D02*
X21483Y-14534D01*
X21336Y-15381D02*
X21336Y-15603D01*
X16458Y-22759D02*
X15983Y-22759D01*
X21583Y-15134D02*
X21336Y-15381D01*
X21336Y-15603D02*
X21336Y-15381D01*
X16483Y-22734D02*
X16458Y-22759D01*
X12675Y-08942D02*
X12675Y-09386D01*
X17083Y-08384D02*
X17883Y-09184D01*
X18783Y-18634D02*
X17953Y-18634D01*
X20483Y-14084D02*
X20583Y-13984D01*
X20583Y-10884D02*
X19383Y-09684D01*
X20783Y-18034D02*
X20533Y-18284D01*
X16545Y-16072D02*
X16283Y-16334D01*
X17102Y-08181D02*
X17275Y-08181D01*
X17072Y-22759D02*
X16983Y-22759D01*
X16283Y-16334D02*
X15933Y-16334D01*
X20483Y-15834D02*
X20586Y-15937D01*
X20483Y-15834D02*
X20483Y-14084D01*
X20583Y-13984D02*
X20583Y-10884D01*
X17102Y-08181D02*
X12783Y-08184D01*
X12783Y-08184D02*
X12242Y-08725D01*
X12242Y-08725D02*
X12242Y-09386D01*
X20483Y-21702D02*
X19870Y-22315D01*
X20586Y-15937D02*
X21002Y-15937D01*
X20783Y-17484D02*
X20783Y-18034D01*
X20783Y-17484D02*
X20483Y-17184D01*
X16545Y-15634D02*
X16545Y-16072D01*
X17437Y-22394D02*
X17072Y-22759D01*
X17275Y-08181D02*
X17775Y-08681D01*
X20483Y-21434D02*
X20483Y-21702D01*
X16543Y-18844D02*
X16543Y-19414D01*
X16543Y-19414D02*
X16543Y-19794D01*
X16333Y-18634D02*
X16543Y-18844D01*
X16543Y-19794D02*
X16933Y-20184D01*
X18358Y-11122D02*
X18377Y-11103D01*
X18377Y-11103D02*
X19330Y-11103D01*
X21083Y-13634D02*
X21083Y-11635D01*
X21083Y-11635D02*
X20972Y-11524D01*
X17649Y-11378D02*
X17319Y-11378D01*
X15285Y-13412D02*
X15285Y-15634D01*
X17673Y-11354D02*
X17649Y-11378D01*
X16740Y-09386D02*
X16968Y-09386D01*
X17319Y-11378D02*
X15285Y-13412D01*
X16968Y-09386D02*
X17196Y-09614D01*
G54D13*
X17533Y-05309D02*
X18383Y-05309D01*
X18383Y-05309D02*
X19769Y-05309D01*
G54D45*
X20338Y-05819D02*
X19854Y-05335D01*
X19854Y-05335D02*
X19795Y-05335D01*
G54D13*
X16783Y-05434D02*
X16908Y-05309D01*
X16908Y-05309D02*
X17533Y-05309D01*
G54D45*
X21197Y-05941D02*
X20987Y-05941D01*
G54D13*
X16733Y-05434D02*
X16783Y-05434D01*
G54D45*
X20996Y-05941D02*
X20874Y-05819D01*
X20996Y-05941D02*
X21197Y-05941D01*
X20874Y-05819D02*
X20338Y-05819D01*
G54D13*
X19769Y-05309D02*
X19795Y-05335D01*
X16653Y-04665D02*
X17297Y-05309D01*
X17297Y-05309D02*
X17533Y-05309D01*
G54D45*
X11433Y-15509D02*
X11433Y-16184D01*
X11983Y-16234D02*
X11383Y-16234D01*
X09858Y-15509D02*
X11433Y-15509D01*
X09283Y-16534D02*
X09283Y-16084D01*
X11433Y-16184D02*
X11383Y-16234D01*
X09283Y-16084D02*
X09858Y-15509D01*
X08033Y-11784D02*
X07833Y-11584D01*
X12033Y-11784D02*
X12733Y-11784D01*
X12033Y-11784D02*
X08033Y-11784D01*
X06383Y-07984D02*
X07033Y-07334D01*
X09133Y-06434D02*
X08233Y-07334D01*
X08233Y-07334D02*
X07033Y-07334D01*
X06383Y-08284D02*
X06383Y-07984D01*
X18933Y-19484D02*
X18733Y-19484D01*
X18692Y-22956D02*
X18169Y-22433D01*
X10066Y-22941D02*
X11657Y-22941D01*
X13520Y-21484D02*
X13533Y-21484D01*
X17374Y-21969D02*
X17359Y-21984D01*
X19483Y-18284D02*
X19383Y-18384D01*
X18733Y-19484D02*
X17583Y-20634D01*
X17583Y-21334D02*
X16933Y-21984D01*
X17583Y-20634D02*
X17583Y-21334D01*
X17953Y-16734D02*
X18433Y-16734D01*
X06503Y-22941D02*
X07979Y-22941D01*
X10066Y-23590D02*
X10066Y-22941D01*
X18692Y-23776D02*
X18692Y-23020D01*
X22255Y-23020D02*
X20890Y-23020D01*
X07979Y-22941D02*
X08003Y-22965D01*
X11657Y-22941D02*
X11724Y-22874D01*
X17359Y-21984D02*
X16933Y-21984D01*
X16933Y-21984D02*
X16033Y-21984D01*
X19383Y-18384D02*
X19383Y-19034D01*
X18433Y-16734D02*
X18733Y-16434D01*
X13033Y-21984D02*
X13533Y-21484D01*
X18733Y-16434D02*
X19483Y-16434D01*
X20890Y-23020D02*
X20874Y-23004D01*
X18692Y-23020D02*
X18692Y-22956D01*
X10122Y-23646D02*
X10066Y-23590D01*
X19483Y-16434D02*
X19383Y-16434D01*
X15533Y-21484D02*
X16033Y-21984D01*
X13043Y-21961D02*
X13520Y-21484D01*
X19383Y-19034D02*
X18933Y-19484D01*
X18614Y-23854D02*
X18692Y-23776D01*
X13533Y-21484D02*
X15533Y-21484D01*
G54D13*
X16733Y-06034D02*
X16083Y-06034D01*
G54D45*
X18333Y-16044D02*
X17953Y-16424D01*
X15058Y-22809D02*
X14908Y-22809D01*
X18333Y-15984D02*
X18333Y-16044D01*
X18283Y-16434D02*
X18283Y-15984D01*
X16233Y-17334D02*
X16533Y-17334D01*
X17443Y-16424D02*
X17953Y-16424D01*
X14583Y-22484D02*
X13633Y-22484D01*
X15933Y-17634D02*
X16233Y-17334D01*
X16533Y-17334D02*
X17443Y-16424D01*
X14908Y-22809D02*
X14583Y-22484D01*
X13633Y-22484D02*
X13533Y-22584D01*
X17953Y-16424D02*
X18283Y-16434D01*
X19842Y-07492D02*
X19354Y-07980D01*
X14334Y-11886D02*
X13956Y-12264D01*
X12515Y-18158D02*
X12515Y-15556D01*
X12877Y-18520D02*
X12515Y-18158D01*
X13956Y-12264D02*
X12822Y-12264D01*
X21197Y-05685D02*
X20724Y-05685D01*
X12685Y-15386D02*
X12689Y-15390D01*
X19354Y-07980D02*
X19354Y-08374D01*
X20724Y-05685D02*
X20492Y-05453D01*
X12515Y-15556D02*
X12685Y-15386D01*
X12689Y-15390D02*
X12696Y-15390D01*
X13045Y-18312D02*
X12877Y-18480D01*
X14187Y-18312D02*
X13045Y-18312D01*
X12877Y-18480D02*
X12877Y-18520D01*
X18833Y-16934D02*
X19183Y-16934D01*
X18733Y-16934D02*
X18533Y-16934D01*
X18413Y-17054D02*
X17953Y-17054D01*
X13721Y-22937D02*
X13236Y-22937D01*
X18883Y-16934D02*
X18833Y-16934D01*
X18833Y-16934D02*
X18733Y-16934D01*
X13844Y-22814D02*
X13721Y-22937D01*
X13236Y-22937D02*
X13133Y-22834D01*
X18533Y-16934D02*
X18413Y-17054D01*
X14110Y-22814D02*
X13844Y-22814D01*
X15033Y-18634D02*
X13433Y-20234D01*
X13433Y-20234D02*
X13133Y-20234D01*
X15483Y-18634D02*
X15033Y-18634D01*
X13133Y-20234D02*
X12583Y-20784D01*
X17063Y-17054D02*
X15483Y-18634D01*
X12583Y-20784D02*
X12583Y-22284D01*
X12583Y-22284D02*
X13133Y-22834D01*
X17063Y-17054D02*
X17953Y-17054D01*
X18383Y-09934D02*
X18383Y-06059D01*
X19220Y-06059D02*
X19189Y-06087D01*
X19189Y-06087D02*
X19220Y-06059D01*
X18383Y-06059D02*
X18785Y-06059D01*
X18785Y-06059D02*
X19220Y-06059D01*
X15021Y-13346D02*
X17333Y-11034D01*
X14971Y-15634D02*
X14971Y-13346D01*
X14971Y-13346D02*
X15021Y-13346D01*
X18283Y-10084D02*
X18383Y-09984D01*
X18383Y-09984D02*
X18383Y-09934D01*
X19696Y-05881D02*
X19395Y-05881D01*
X19395Y-05881D02*
X19220Y-06059D01*
G54D10*
G36*
X16129Y-17203D02*
X16113Y-17214D01*
X16111Y-17216D01*
X15995Y-17331D01*
X15994Y-17331D01*
X15873Y-17331D01*
X15762Y-17377D01*
X15676Y-17462D01*
X15630Y-17573D01*
X15630Y-17694D01*
X15676Y-17805D01*
X15761Y-17891D01*
X15872Y-17937D01*
X15940Y-17937D01*
X15412Y-18465D01*
X15033Y-18465D01*
X15032Y-18465D01*
X14968Y-18478D01*
X14913Y-18514D01*
X14911Y-18516D01*
X14709Y-18718D01*
X14709Y-18690D01*
X14709Y-18514D01*
X14690Y-18469D01*
X14709Y-18426D01*
X14709Y-18375D01*
X14709Y-18300D01*
X14721Y-18296D01*
X14791Y-18226D01*
X14829Y-18135D01*
X14829Y-18102D01*
X14768Y-18041D01*
X14237Y-18041D01*
X14237Y-18047D01*
X14137Y-18047D01*
X14137Y-18041D01*
X14137Y-17953D01*
X14137Y-17947D01*
X14237Y-17947D01*
X14237Y-17953D01*
X14768Y-17953D01*
X14829Y-17892D01*
X14829Y-17859D01*
X14791Y-17768D01*
X14721Y-17698D01*
X14709Y-17693D01*
X14709Y-17670D01*
X14721Y-17666D01*
X14791Y-17596D01*
X14829Y-17505D01*
X14829Y-17472D01*
X14768Y-17411D01*
X14237Y-17411D01*
X14237Y-17417D01*
X14137Y-17417D01*
X14137Y-17411D01*
X13606Y-17411D01*
X13545Y-17472D01*
X13545Y-17505D01*
X13548Y-17513D01*
X13480Y-17513D01*
X13481Y-17511D01*
X13419Y-17449D01*
X13006Y-17449D01*
X13006Y-17760D01*
X12980Y-17823D01*
X12980Y-17944D01*
X13026Y-18055D01*
X13111Y-18141D01*
X13115Y-18143D01*
X13045Y-18143D01*
X12980Y-18156D01*
X12925Y-18192D01*
X12923Y-18194D01*
X12891Y-18226D01*
X12822Y-18226D01*
X12684Y-18087D01*
X12684Y-17823D01*
X12730Y-17823D01*
X12844Y-17824D01*
X12906Y-17762D01*
X12906Y-17499D01*
X12906Y-17449D01*
X12906Y-17349D01*
X13006Y-17349D01*
X13056Y-17349D01*
X13419Y-17349D01*
X13481Y-17287D01*
X13480Y-17175D01*
X13464Y-17137D01*
X13543Y-17137D01*
X13545Y-17135D01*
X13572Y-17162D01*
X13545Y-17229D01*
X13545Y-17262D01*
X13606Y-17323D01*
X14137Y-17323D01*
X14137Y-17317D01*
X14237Y-17317D01*
X14237Y-17323D01*
X14768Y-17323D01*
X14829Y-17262D01*
X14829Y-17229D01*
X14791Y-17138D01*
X14721Y-17068D01*
X14709Y-17063D01*
X14709Y-16939D01*
X14695Y-16906D01*
X15665Y-16906D01*
X15911Y-17151D01*
X15913Y-17154D01*
X15968Y-17190D01*
X15969Y-17190D01*
X15979Y-17192D01*
X16033Y-17204D01*
X16033Y-17203D01*
X16037Y-17203D01*
X16129Y-17203D01*
X16129Y-17203D01*
G37*
G54D46*
X16129Y-17203D02*
X16113Y-17214D01*
X16111Y-17216D01*
X15995Y-17331D01*
X15994Y-17331D01*
X15873Y-17331D01*
X15762Y-17377D01*
X15676Y-17462D01*
X15630Y-17573D01*
X15630Y-17694D01*
X15676Y-17805D01*
X15761Y-17891D01*
X15872Y-17937D01*
X15940Y-17937D01*
X15412Y-18465D01*
X15033Y-18465D01*
X15032Y-18465D01*
X14968Y-18478D01*
X14913Y-18514D01*
X14911Y-18516D01*
X14709Y-18718D01*
X14709Y-18690D01*
X14709Y-18514D01*
X14690Y-18469D01*
X14709Y-18426D01*
X14709Y-18375D01*
X14709Y-18300D01*
X14721Y-18296D01*
X14791Y-18226D01*
X14829Y-18135D01*
X14829Y-18102D01*
X14768Y-18041D01*
X14237Y-18041D01*
X14237Y-18047D01*
X14137Y-18047D01*
X14137Y-18041D01*
X14137Y-17953D01*
X14137Y-17947D01*
X14237Y-17947D01*
X14237Y-17953D01*
X14768Y-17953D01*
X14829Y-17892D01*
X14829Y-17859D01*
X14791Y-17768D01*
X14721Y-17698D01*
X14709Y-17693D01*
X14709Y-17670D01*
X14721Y-17666D01*
X14791Y-17596D01*
X14829Y-17505D01*
X14829Y-17472D01*
X14768Y-17411D01*
X14237Y-17411D01*
X14237Y-17417D01*
X14137Y-17417D01*
X14137Y-17411D01*
X13606Y-17411D01*
X13545Y-17472D01*
X13545Y-17505D01*
X13548Y-17513D01*
X13480Y-17513D01*
X13481Y-17511D01*
X13419Y-17449D01*
X13006Y-17449D01*
X13006Y-17760D01*
X12980Y-17823D01*
X12980Y-17944D01*
X13026Y-18055D01*
X13111Y-18141D01*
X13115Y-18143D01*
X13045Y-18143D01*
X12980Y-18156D01*
X12925Y-18192D01*
X12923Y-18194D01*
X12891Y-18226D01*
X12822Y-18226D01*
X12684Y-18087D01*
X12684Y-17823D01*
X12730Y-17823D01*
X12844Y-17824D01*
X12906Y-17762D01*
X12906Y-17499D01*
X12906Y-17449D01*
X12906Y-17349D01*
X13006Y-17349D01*
X13056Y-17349D01*
X13419Y-17349D01*
X13481Y-17287D01*
X13480Y-17175D01*
X13464Y-17137D01*
X13543Y-17137D01*
X13545Y-17135D01*
X13572Y-17162D01*
X13545Y-17229D01*
X13545Y-17262D01*
X13606Y-17323D01*
X14137Y-17323D01*
X14137Y-17317D01*
X14237Y-17317D01*
X14237Y-17323D01*
X14768Y-17323D01*
X14829Y-17262D01*
X14829Y-17229D01*
X14791Y-17138D01*
X14721Y-17068D01*
X14709Y-17063D01*
X14709Y-16939D01*
X14695Y-16906D01*
X15665Y-16906D01*
X15911Y-17151D01*
X15913Y-17154D01*
X15968Y-17190D01*
X15969Y-17190D01*
X15979Y-17192D01*
X16033Y-17204D01*
X16033Y-17203D01*
X16037Y-17203D01*
X16129Y-17203D01*
G54D10*
G36*
X19406Y-17988D02*
X19312Y-18027D01*
X19226Y-18112D01*
X19180Y-18223D01*
X19180Y-18344D01*
X19214Y-18426D01*
X19214Y-18963D01*
X19086Y-19091D01*
X19086Y-18695D01*
X19086Y-18574D01*
X19040Y-18463D01*
X18955Y-18377D01*
X18844Y-18331D01*
X18723Y-18331D01*
X18612Y-18377D01*
X18595Y-18393D01*
X18582Y-18406D01*
X18534Y-18358D01*
X18003Y-18358D01*
X18003Y-18364D01*
X17903Y-18364D01*
X17903Y-18358D01*
X17372Y-18358D01*
X17311Y-18419D01*
X17311Y-18452D01*
X17349Y-18543D01*
X17419Y-18613D01*
X17431Y-18617D01*
X17431Y-18747D01*
X17450Y-18794D01*
X17486Y-18831D01*
X17534Y-18851D01*
X17585Y-18851D01*
X18371Y-18851D01*
X18418Y-18832D01*
X18447Y-18803D01*
X18525Y-18803D01*
X18526Y-18805D01*
X18611Y-18891D01*
X18722Y-18937D01*
X18843Y-18937D01*
X18954Y-18891D01*
X19040Y-18806D01*
X19086Y-18695D01*
X19086Y-19091D01*
X18862Y-19315D01*
X18733Y-19315D01*
X18668Y-19328D01*
X18613Y-19364D01*
X18611Y-19366D01*
X17786Y-20191D01*
X17786Y-20074D01*
X17740Y-19963D01*
X17655Y-19877D01*
X17544Y-19831D01*
X17423Y-19831D01*
X17420Y-19831D01*
X17400Y-19811D01*
X17400Y-19782D01*
X17400Y-18996D01*
X17381Y-18949D01*
X17345Y-18912D01*
X17297Y-18892D01*
X17246Y-18892D01*
X17070Y-18892D01*
X17032Y-18907D01*
X17032Y-18763D01*
X17040Y-18756D01*
X17086Y-18645D01*
X17086Y-18524D01*
X17040Y-18413D01*
X16955Y-18327D01*
X16844Y-18281D01*
X16723Y-18281D01*
X16612Y-18327D01*
X16532Y-18405D01*
X16505Y-18377D01*
X16416Y-18340D01*
X16593Y-18163D01*
X17316Y-18163D01*
X17311Y-18176D01*
X17311Y-18209D01*
X17372Y-18270D01*
X17903Y-18270D01*
X17903Y-18264D01*
X18003Y-18264D01*
X18003Y-18270D01*
X18534Y-18270D01*
X18595Y-18209D01*
X18595Y-18176D01*
X18557Y-18085D01*
X18487Y-18015D01*
X18475Y-18010D01*
X18475Y-17881D01*
X18463Y-17853D01*
X18578Y-17853D01*
X18583Y-17854D01*
X18583Y-17853D01*
X18636Y-17842D01*
X18647Y-17840D01*
X18648Y-17840D01*
X18703Y-17804D01*
X18753Y-17753D01*
X18904Y-17753D01*
X18904Y-17884D01*
X18923Y-17931D01*
X18959Y-17968D01*
X19007Y-17988D01*
X19058Y-17988D01*
X19406Y-17988D01*
X19406Y-17988D01*
G37*
G54D46*
X19406Y-17988D02*
X19312Y-18027D01*
X19226Y-18112D01*
X19180Y-18223D01*
X19180Y-18344D01*
X19214Y-18426D01*
X19214Y-18963D01*
X19086Y-19091D01*
X19086Y-18695D01*
X19086Y-18574D01*
X19040Y-18463D01*
X18955Y-18377D01*
X18844Y-18331D01*
X18723Y-18331D01*
X18612Y-18377D01*
X18595Y-18393D01*
X18582Y-18406D01*
X18534Y-18358D01*
X18003Y-18358D01*
X18003Y-18364D01*
X17903Y-18364D01*
X17903Y-18358D01*
X17372Y-18358D01*
X17311Y-18419D01*
X17311Y-18452D01*
X17349Y-18543D01*
X17419Y-18613D01*
X17431Y-18617D01*
X17431Y-18747D01*
X17450Y-18794D01*
X17486Y-18831D01*
X17534Y-18851D01*
X17585Y-18851D01*
X18371Y-18851D01*
X18418Y-18832D01*
X18447Y-18803D01*
X18525Y-18803D01*
X18526Y-18805D01*
X18611Y-18891D01*
X18722Y-18937D01*
X18843Y-18937D01*
X18954Y-18891D01*
X19040Y-18806D01*
X19086Y-18695D01*
X19086Y-19091D01*
X18862Y-19315D01*
X18733Y-19315D01*
X18668Y-19328D01*
X18613Y-19364D01*
X18611Y-19366D01*
X17786Y-20191D01*
X17786Y-20074D01*
X17740Y-19963D01*
X17655Y-19877D01*
X17544Y-19831D01*
X17423Y-19831D01*
X17420Y-19831D01*
X17400Y-19811D01*
X17400Y-19782D01*
X17400Y-18996D01*
X17381Y-18949D01*
X17345Y-18912D01*
X17297Y-18892D01*
X17246Y-18892D01*
X17070Y-18892D01*
X17032Y-18907D01*
X17032Y-18763D01*
X17040Y-18756D01*
X17086Y-18645D01*
X17086Y-18524D01*
X17040Y-18413D01*
X16955Y-18327D01*
X16844Y-18281D01*
X16723Y-18281D01*
X16612Y-18327D01*
X16532Y-18405D01*
X16505Y-18377D01*
X16416Y-18340D01*
X16593Y-18163D01*
X17316Y-18163D01*
X17311Y-18176D01*
X17311Y-18209D01*
X17372Y-18270D01*
X17903Y-18270D01*
X17903Y-18264D01*
X18003Y-18264D01*
X18003Y-18270D01*
X18534Y-18270D01*
X18595Y-18209D01*
X18595Y-18176D01*
X18557Y-18085D01*
X18487Y-18015D01*
X18475Y-18010D01*
X18475Y-17881D01*
X18463Y-17853D01*
X18578Y-17853D01*
X18583Y-17854D01*
X18583Y-17853D01*
X18636Y-17842D01*
X18647Y-17840D01*
X18648Y-17840D01*
X18703Y-17804D01*
X18753Y-17753D01*
X18904Y-17753D01*
X18904Y-17884D01*
X18923Y-17931D01*
X18959Y-17968D01*
X19007Y-17988D01*
X19058Y-17988D01*
X19406Y-17988D01*
G54D10*
G36*
X23618Y-22324D02*
X23486Y-22324D01*
X23486Y-13714D01*
X23486Y-13554D01*
X23425Y-13406D01*
X23311Y-13292D01*
X23163Y-13231D01*
X23003Y-13231D01*
X22855Y-13292D01*
X22741Y-13406D01*
X22680Y-13554D01*
X22680Y-13714D01*
X22741Y-13862D01*
X22855Y-13976D01*
X23003Y-14037D01*
X23163Y-14037D01*
X23311Y-13976D01*
X23425Y-13862D01*
X23486Y-13714D01*
X23486Y-22324D01*
X22905Y-22327D01*
X22913Y-22230D01*
X22912Y-22227D01*
X22913Y-22227D01*
X22904Y-22151D01*
X22904Y-22148D01*
X22890Y-22106D01*
X22890Y-21024D01*
X22890Y-20944D01*
X22869Y-20838D01*
X22868Y-20837D01*
X22850Y-20795D01*
X22838Y-20765D01*
X22838Y-20764D01*
X22779Y-20677D01*
X22778Y-20675D01*
X22750Y-20647D01*
X22723Y-20620D01*
X22721Y-20619D01*
X22634Y-20560D01*
X22633Y-20559D01*
X22633Y-18046D01*
X22633Y-17822D01*
X22632Y-17708D01*
X22632Y-17609D01*
X22594Y-17518D01*
X22524Y-17448D01*
X22432Y-17410D01*
X22320Y-17409D01*
X22258Y-17471D01*
X22258Y-17884D01*
X22571Y-17884D01*
X22633Y-17822D01*
X22633Y-18046D01*
X22571Y-17984D01*
X22258Y-17984D01*
X22258Y-18397D01*
X22320Y-18459D01*
X22432Y-18458D01*
X22524Y-18420D01*
X22594Y-18350D01*
X22632Y-18259D01*
X22632Y-18160D01*
X22633Y-18046D01*
X22633Y-20559D01*
X22611Y-20551D01*
X22560Y-20529D01*
X22454Y-20508D01*
X22374Y-20508D01*
X22268Y-20529D01*
X22225Y-20547D01*
X22194Y-20560D01*
X22158Y-20584D01*
X22158Y-18397D01*
X22158Y-17984D01*
X22158Y-17884D01*
X22158Y-17471D01*
X22096Y-17409D01*
X21984Y-17410D01*
X21892Y-17448D01*
X21822Y-17518D01*
X21784Y-17609D01*
X21784Y-17708D01*
X21783Y-17822D01*
X21845Y-17884D01*
X22158Y-17884D01*
X22158Y-17984D01*
X21845Y-17984D01*
X21783Y-18046D01*
X21784Y-18160D01*
X21784Y-18259D01*
X21822Y-18350D01*
X21892Y-18420D01*
X21984Y-18458D01*
X22096Y-18459D01*
X22158Y-18397D01*
X22158Y-20584D01*
X22105Y-20620D01*
X22077Y-20647D01*
X22050Y-20675D01*
X21990Y-20764D01*
X21981Y-20786D01*
X21959Y-20838D01*
X21938Y-20944D01*
X21938Y-21024D01*
X21959Y-21130D01*
X21981Y-21181D01*
X21990Y-21204D01*
X22049Y-21291D01*
X22050Y-21293D01*
X22077Y-21320D01*
X22105Y-21348D01*
X22107Y-21349D01*
X22194Y-21408D01*
X22195Y-21408D01*
X22225Y-21420D01*
X22267Y-21438D01*
X22268Y-21439D01*
X22374Y-21460D01*
X22454Y-21460D01*
X22560Y-21439D01*
X22560Y-21438D01*
X22611Y-21416D01*
X22633Y-21408D01*
X22634Y-21408D01*
X22721Y-21349D01*
X22723Y-21348D01*
X22750Y-21320D01*
X22778Y-21293D01*
X22779Y-21291D01*
X22838Y-21204D01*
X22838Y-21203D01*
X22850Y-21173D01*
X22868Y-21131D01*
X22869Y-21130D01*
X22890Y-21024D01*
X22890Y-22106D01*
X22869Y-22045D01*
X22869Y-22043D01*
X22840Y-21993D01*
X22830Y-21975D01*
X22829Y-21974D01*
X22759Y-21890D01*
X22709Y-21851D01*
X22696Y-21841D01*
X22695Y-21840D01*
X22596Y-21789D01*
X22519Y-21768D01*
X22407Y-21759D01*
X22405Y-21759D01*
X22326Y-21768D01*
X22221Y-21803D01*
X22171Y-21831D01*
X22153Y-21842D01*
X22068Y-21913D01*
X22029Y-21963D01*
X22018Y-21977D01*
X21967Y-22076D01*
X21946Y-22153D01*
X21937Y-22265D01*
X21937Y-22266D01*
X21944Y-22331D01*
X20860Y-22336D01*
X18617Y-24569D01*
X17430Y-24571D01*
X17430Y-23621D01*
X17368Y-23559D01*
X17033Y-23559D01*
X17033Y-23835D01*
X17095Y-23897D01*
X17131Y-23896D01*
X17230Y-23896D01*
X17321Y-23858D01*
X17391Y-23788D01*
X17429Y-23696D01*
X17430Y-23621D01*
X17430Y-24571D01*
X16933Y-24572D01*
X16933Y-23835D01*
X16933Y-23559D01*
X16598Y-23559D01*
X16536Y-23621D01*
X16537Y-23696D01*
X16575Y-23788D01*
X16645Y-23858D01*
X16736Y-23896D01*
X16835Y-23896D01*
X16871Y-23897D01*
X16933Y-23835D01*
X16933Y-24572D01*
X15358Y-24576D01*
X15227Y-24445D01*
X15227Y-23663D01*
X15308Y-23663D01*
X15355Y-23644D01*
X15392Y-23608D01*
X15412Y-23560D01*
X15412Y-23509D01*
X15412Y-23259D01*
X15393Y-23212D01*
X15357Y-23175D01*
X15309Y-23155D01*
X15258Y-23155D01*
X14808Y-23155D01*
X14761Y-23174D01*
X14724Y-23210D01*
X14704Y-23258D01*
X14704Y-23309D01*
X14704Y-23559D01*
X14723Y-23606D01*
X14759Y-23643D01*
X14807Y-23663D01*
X14858Y-23663D01*
X14889Y-23663D01*
X14889Y-24511D01*
X14888Y-24516D01*
X14899Y-24569D01*
X14901Y-24577D01*
X14268Y-24579D01*
X14279Y-24528D01*
X14280Y-24528D01*
X14279Y-24523D01*
X14279Y-23668D01*
X14360Y-23668D01*
X14407Y-23649D01*
X14444Y-23613D01*
X14464Y-23565D01*
X14464Y-23514D01*
X14464Y-23264D01*
X14445Y-23217D01*
X14409Y-23180D01*
X14361Y-23160D01*
X14310Y-23160D01*
X13860Y-23160D01*
X13813Y-23179D01*
X13776Y-23215D01*
X13756Y-23263D01*
X13756Y-23314D01*
X13756Y-23564D01*
X13775Y-23611D01*
X13811Y-23648D01*
X13859Y-23668D01*
X13910Y-23668D01*
X13941Y-23668D01*
X13941Y-24457D01*
X13818Y-24580D01*
X12318Y-24584D01*
X10719Y-23110D01*
X11531Y-23110D01*
X11552Y-23131D01*
X11663Y-23177D01*
X11784Y-23177D01*
X11895Y-23131D01*
X11981Y-23046D01*
X12027Y-22935D01*
X12027Y-22814D01*
X11981Y-22703D01*
X11896Y-22617D01*
X11785Y-22571D01*
X11664Y-22571D01*
X11633Y-22583D01*
X11633Y-21096D01*
X11633Y-20872D01*
X11632Y-20733D01*
X11632Y-20634D01*
X11594Y-20543D01*
X11524Y-20473D01*
X11432Y-20435D01*
X11195Y-20434D01*
X11133Y-20496D01*
X11133Y-20934D01*
X11571Y-20934D01*
X11633Y-20872D01*
X11633Y-21096D01*
X11571Y-21034D01*
X11133Y-21034D01*
X11133Y-21472D01*
X11195Y-21534D01*
X11432Y-21533D01*
X11524Y-21495D01*
X11594Y-21425D01*
X11632Y-21334D01*
X11632Y-21235D01*
X11633Y-21096D01*
X11633Y-22583D01*
X11553Y-22617D01*
X11467Y-22702D01*
X11437Y-22772D01*
X11033Y-22772D01*
X11033Y-21472D01*
X11033Y-21034D01*
X11033Y-20934D01*
X11033Y-20496D01*
X10971Y-20434D01*
X10734Y-20435D01*
X10642Y-20473D01*
X10572Y-20543D01*
X10534Y-20634D01*
X10534Y-20733D01*
X10533Y-20872D01*
X10595Y-20934D01*
X11033Y-20934D01*
X11033Y-21034D01*
X10595Y-21034D01*
X10533Y-21096D01*
X10534Y-21235D01*
X10534Y-21334D01*
X10572Y-21425D01*
X10642Y-21495D01*
X10734Y-21533D01*
X10971Y-21534D01*
X11033Y-21472D01*
X11033Y-22772D01*
X10470Y-22772D01*
X10470Y-22641D01*
X10451Y-22594D01*
X10415Y-22557D01*
X10367Y-22537D01*
X10316Y-22537D01*
X10098Y-22537D01*
X09991Y-22438D01*
X07196Y-22445D01*
X07216Y-22400D01*
X07239Y-22285D01*
X07240Y-22285D01*
X07240Y-22206D01*
X07231Y-22154D01*
X07231Y-21011D01*
X07225Y-20903D01*
X07215Y-20868D01*
X07205Y-20825D01*
X07158Y-20728D01*
X07157Y-20727D01*
X07110Y-20664D01*
X07109Y-20663D01*
X07029Y-20592D01*
X07028Y-20591D01*
X07014Y-20583D01*
X06960Y-20551D01*
X06857Y-20515D01*
X06814Y-20509D01*
X06778Y-20504D01*
X06670Y-20510D01*
X06635Y-20519D01*
X06592Y-20530D01*
X06495Y-20577D01*
X06431Y-20625D01*
X06430Y-20625D01*
X06430Y-20626D01*
X06358Y-20707D01*
X06350Y-20721D01*
X06318Y-20775D01*
X06282Y-20878D01*
X06277Y-20917D01*
X06271Y-20956D01*
X06277Y-21065D01*
X06287Y-21103D01*
X06297Y-21142D01*
X06344Y-21240D01*
X06345Y-21241D01*
X06360Y-21261D01*
X06392Y-21303D01*
X06393Y-21305D01*
X06473Y-21376D01*
X06542Y-21417D01*
X06644Y-21453D01*
X06686Y-21458D01*
X06723Y-21464D01*
X06723Y-21463D01*
X06832Y-21458D01*
X06832Y-21457D01*
X06870Y-21447D01*
X06909Y-21438D01*
X06909Y-21437D01*
X07007Y-21391D01*
X07008Y-21390D01*
X07028Y-21375D01*
X07070Y-21343D01*
X07072Y-21342D01*
X07143Y-21262D01*
X07183Y-21193D01*
X07184Y-21193D01*
X07220Y-21091D01*
X07225Y-21045D01*
X07230Y-21012D01*
X07231Y-21011D01*
X07231Y-22154D01*
X07220Y-22092D01*
X07219Y-22091D01*
X07201Y-22047D01*
X07190Y-22018D01*
X07190Y-22017D01*
X07126Y-21919D01*
X07125Y-21918D01*
X07070Y-21862D01*
X07069Y-21861D01*
X06973Y-21795D01*
X06929Y-21777D01*
X06899Y-21764D01*
X06785Y-21740D01*
X06706Y-21740D01*
X06705Y-21740D01*
X06704Y-21740D01*
X06592Y-21760D01*
X06547Y-21778D01*
X06517Y-21790D01*
X06419Y-21854D01*
X06362Y-21910D01*
X06361Y-21910D01*
X06361Y-21911D01*
X06295Y-22007D01*
X06277Y-22050D01*
X06264Y-22081D01*
X06240Y-22195D01*
X06240Y-22233D01*
X06239Y-22273D01*
X06260Y-22388D01*
X06273Y-22419D01*
X06283Y-22447D01*
X05613Y-22449D01*
X05613Y-17426D01*
X05679Y-17492D01*
X05771Y-17530D01*
X05846Y-17531D01*
X05908Y-17469D01*
X05908Y-17184D01*
X05908Y-17134D01*
X05908Y-17034D01*
X05908Y-16984D01*
X05908Y-16699D01*
X05846Y-16637D01*
X05771Y-16638D01*
X05679Y-16676D01*
X05613Y-16742D01*
X05613Y-14724D01*
X05621Y-14685D01*
X05605Y-14607D01*
X05561Y-14541D01*
X05495Y-14497D01*
X05417Y-14481D01*
X05400Y-14481D01*
X05404Y-13970D01*
X05462Y-13932D01*
X05506Y-13866D01*
X05522Y-13788D01*
X05522Y-11724D01*
X05526Y-11734D01*
X05611Y-11820D01*
X05722Y-11866D01*
X05843Y-11866D01*
X05954Y-11820D01*
X06040Y-11735D01*
X06086Y-11624D01*
X06086Y-11503D01*
X06085Y-11500D01*
X06983Y-10602D01*
X07209Y-10602D01*
X07215Y-10616D01*
X07300Y-10702D01*
X07411Y-10748D01*
X07532Y-10748D01*
X07643Y-10702D01*
X07729Y-10617D01*
X07775Y-10506D01*
X07775Y-10385D01*
X07729Y-10274D01*
X07644Y-10188D01*
X07533Y-10142D01*
X07412Y-10142D01*
X07301Y-10188D01*
X07224Y-10264D01*
X06917Y-10264D01*
X06913Y-10263D01*
X06859Y-10274D01*
X06848Y-10277D01*
X06793Y-10313D01*
X06791Y-10315D01*
X05845Y-11260D01*
X05844Y-11260D01*
X05723Y-11260D01*
X05612Y-11306D01*
X05526Y-11391D01*
X05522Y-11400D01*
X05522Y-05563D01*
X05506Y-05485D01*
X05464Y-05422D01*
X05465Y-05203D01*
X05542Y-05188D01*
X05608Y-05144D01*
X05652Y-05078D01*
X05668Y-05000D01*
X05668Y-04425D01*
X06293Y-04424D01*
X06274Y-04472D01*
X06274Y-04654D01*
X06344Y-04822D01*
X06472Y-04951D01*
X06641Y-05021D01*
X06823Y-05021D01*
X06991Y-04951D01*
X07120Y-04823D01*
X07190Y-04654D01*
X07190Y-04472D01*
X07169Y-04423D01*
X08357Y-04422D01*
X08357Y-04423D01*
X08311Y-04534D01*
X08311Y-04655D01*
X08357Y-04766D01*
X08442Y-04852D01*
X08553Y-04898D01*
X08674Y-04898D01*
X08785Y-04852D01*
X08871Y-04767D01*
X08877Y-04751D01*
X09090Y-04751D01*
X09090Y-05000D01*
X09109Y-05047D01*
X09145Y-05084D01*
X09160Y-05090D01*
X09168Y-05129D01*
X09171Y-05141D01*
X09207Y-05196D01*
X09463Y-05451D01*
X09465Y-05454D01*
X09520Y-05490D01*
X09584Y-05503D01*
X09584Y-05502D01*
X09585Y-05503D01*
X09725Y-05503D01*
X09726Y-05505D01*
X09811Y-05591D01*
X09922Y-05637D01*
X10043Y-05637D01*
X10154Y-05591D01*
X10240Y-05506D01*
X10286Y-05395D01*
X10286Y-05274D01*
X10284Y-05271D01*
X10310Y-05245D01*
X10312Y-05244D01*
X10313Y-05244D01*
X10349Y-05189D01*
X10362Y-05125D01*
X10361Y-05124D01*
X10362Y-05124D01*
X10362Y-05089D01*
X10373Y-05085D01*
X10409Y-05049D01*
X10410Y-05049D01*
X10444Y-05084D01*
X10492Y-05104D01*
X10543Y-05104D01*
X10759Y-05104D01*
X10806Y-05085D01*
X10842Y-05049D01*
X10843Y-05049D01*
X10877Y-05084D01*
X10925Y-05104D01*
X10976Y-05104D01*
X11192Y-05104D01*
X11239Y-05085D01*
X11276Y-05049D01*
X11296Y-05001D01*
X11296Y-04950D01*
X11296Y-04418D01*
X12003Y-04417D01*
X12003Y-05000D01*
X12022Y-05047D01*
X12058Y-05084D01*
X12106Y-05104D01*
X12157Y-05104D01*
X12373Y-05104D01*
X12420Y-05085D01*
X12457Y-05049D01*
X12492Y-05084D01*
X12540Y-05104D01*
X12591Y-05104D01*
X12807Y-05104D01*
X12854Y-05085D01*
X12890Y-05049D01*
X12891Y-05049D01*
X12925Y-05084D01*
X12973Y-05104D01*
X13024Y-05104D01*
X13240Y-05104D01*
X13287Y-05085D01*
X13323Y-05049D01*
X13324Y-05049D01*
X13358Y-05084D01*
X13406Y-05104D01*
X13457Y-05104D01*
X13673Y-05104D01*
X13720Y-05085D01*
X13756Y-05049D01*
X13757Y-05049D01*
X13791Y-05084D01*
X13839Y-05104D01*
X13890Y-05104D01*
X14106Y-05104D01*
X14153Y-05085D01*
X14189Y-05049D01*
X14190Y-05049D01*
X14224Y-05084D01*
X14272Y-05104D01*
X14323Y-05104D01*
X14539Y-05104D01*
X14586Y-05085D01*
X14622Y-05049D01*
X14623Y-05049D01*
X14657Y-05084D01*
X14705Y-05104D01*
X14756Y-05104D01*
X14972Y-05104D01*
X15019Y-05085D01*
X15056Y-05049D01*
X15076Y-05001D01*
X15076Y-04950D01*
X15076Y-04413D01*
X16364Y-04412D01*
X16365Y-04520D01*
X16352Y-04541D01*
X16326Y-04665D01*
X16352Y-04789D01*
X16369Y-04815D01*
X16377Y-05489D01*
X16185Y-05296D01*
X16186Y-05295D01*
X16186Y-05174D01*
X16140Y-05063D01*
X16055Y-04977D01*
X15944Y-04931D01*
X15823Y-04931D01*
X15712Y-04977D01*
X15626Y-05062D01*
X15580Y-05173D01*
X15580Y-05294D01*
X15626Y-05405D01*
X15711Y-05491D01*
X15822Y-05537D01*
X15943Y-05537D01*
X15945Y-05536D01*
X16117Y-05708D01*
X16083Y-05708D01*
X15958Y-05733D01*
X15852Y-05803D01*
X15782Y-05909D01*
X15757Y-06034D01*
X15782Y-06159D01*
X15852Y-06265D01*
X15958Y-06335D01*
X16083Y-06360D01*
X16733Y-06360D01*
X16858Y-06335D01*
X16929Y-06288D01*
X16983Y-06288D01*
X17030Y-06269D01*
X17067Y-06233D01*
X17087Y-06185D01*
X17087Y-06134D01*
X17087Y-06099D01*
X17129Y-06099D01*
X17129Y-06259D01*
X17148Y-06306D01*
X17184Y-06343D01*
X17232Y-06363D01*
X17283Y-06363D01*
X17833Y-06363D01*
X17880Y-06344D01*
X17917Y-06308D01*
X17937Y-06260D01*
X17937Y-06209D01*
X17937Y-06106D01*
X17979Y-06106D01*
X17979Y-06259D01*
X17998Y-06306D01*
X18034Y-06343D01*
X18082Y-06363D01*
X18133Y-06363D01*
X18214Y-06363D01*
X18214Y-07637D01*
X18192Y-07628D01*
X18141Y-07628D01*
X17791Y-07628D01*
X17744Y-07647D01*
X17716Y-07674D01*
X17716Y-07625D01*
X17670Y-07514D01*
X17585Y-07428D01*
X17474Y-07382D01*
X17353Y-07382D01*
X17242Y-07428D01*
X17156Y-07513D01*
X17110Y-07624D01*
X17110Y-07745D01*
X17156Y-07856D01*
X17241Y-07942D01*
X17352Y-07988D01*
X17473Y-07988D01*
X17475Y-07986D01*
X17638Y-08149D01*
X17640Y-08152D01*
X17687Y-08182D01*
X17687Y-08332D01*
X17701Y-08368D01*
X17395Y-08061D01*
X17340Y-08025D01*
X17328Y-08022D01*
X17275Y-08011D01*
X17270Y-08012D01*
X17102Y-08012D01*
X17087Y-08015D01*
X12787Y-08015D01*
X12783Y-08014D01*
X12729Y-08025D01*
X12718Y-08028D01*
X12663Y-08064D01*
X12661Y-08066D01*
X12122Y-08605D01*
X12086Y-08660D01*
X12083Y-08671D01*
X12072Y-08725D01*
X12073Y-08729D01*
X12073Y-08878D01*
X12062Y-08883D01*
X12025Y-08919D01*
X12005Y-08967D01*
X12005Y-09018D01*
X12005Y-09804D01*
X12024Y-09851D01*
X12060Y-09888D01*
X12108Y-09908D01*
X12159Y-09908D01*
X12375Y-09908D01*
X12422Y-09889D01*
X12458Y-09853D01*
X12459Y-09853D01*
X12493Y-09888D01*
X12541Y-09908D01*
X12592Y-09908D01*
X12808Y-09908D01*
X12855Y-09889D01*
X12891Y-09853D01*
X12892Y-09853D01*
X12926Y-09888D01*
X12974Y-09908D01*
X13025Y-09908D01*
X13241Y-09908D01*
X13288Y-09889D01*
X13324Y-09853D01*
X13325Y-09853D01*
X13359Y-09888D01*
X13407Y-09908D01*
X13458Y-09908D01*
X13674Y-09908D01*
X13721Y-09889D01*
X13757Y-09853D01*
X13758Y-09853D01*
X13792Y-09888D01*
X13805Y-09893D01*
X13805Y-10122D01*
X13743Y-10184D01*
X13734Y-10180D01*
X13683Y-10180D01*
X13433Y-10180D01*
X13386Y-10199D01*
X13349Y-10235D01*
X13329Y-10283D01*
X13329Y-10334D01*
X13329Y-10784D01*
X13348Y-10831D01*
X13384Y-10868D01*
X13432Y-10888D01*
X13483Y-10888D01*
X13733Y-10888D01*
X13780Y-10869D01*
X13817Y-10833D01*
X13837Y-10785D01*
X13837Y-10734D01*
X13837Y-10569D01*
X14091Y-10314D01*
X14093Y-10313D01*
X14094Y-10313D01*
X14130Y-10258D01*
X14143Y-10193D01*
X14144Y-10193D01*
X14143Y-10188D01*
X14143Y-09893D01*
X14154Y-09889D01*
X14190Y-09853D01*
X14224Y-09888D01*
X14237Y-09893D01*
X14237Y-09997D01*
X14224Y-10010D01*
X14204Y-10058D01*
X14204Y-10109D01*
X14204Y-10909D01*
X14223Y-10956D01*
X14259Y-10993D01*
X14307Y-11013D01*
X14358Y-11013D01*
X14496Y-11013D01*
X14474Y-11035D01*
X14454Y-11083D01*
X14454Y-11134D01*
X14454Y-11215D01*
X14237Y-11215D01*
X14237Y-11134D01*
X14218Y-11087D01*
X14182Y-11050D01*
X14134Y-11030D01*
X14083Y-11030D01*
X13833Y-11030D01*
X13786Y-11049D01*
X13749Y-11085D01*
X13747Y-11087D01*
X13719Y-11018D01*
X13649Y-10948D01*
X13557Y-10910D01*
X13495Y-10909D01*
X13433Y-10971D01*
X13433Y-11284D01*
X13433Y-11334D01*
X13433Y-11434D01*
X13433Y-11484D01*
X13433Y-11797D01*
X13495Y-11859D01*
X13557Y-11858D01*
X13649Y-11820D01*
X13719Y-11750D01*
X13747Y-11680D01*
X13748Y-11681D01*
X13784Y-11718D01*
X13832Y-11738D01*
X13883Y-11738D01*
X14067Y-11738D01*
X14031Y-11825D01*
X14031Y-11946D01*
X14032Y-11948D01*
X13885Y-12095D01*
X13079Y-12095D01*
X13079Y-12093D01*
X13012Y-12025D01*
X13030Y-12019D01*
X13067Y-11983D01*
X13087Y-11935D01*
X13087Y-11884D01*
X13087Y-11790D01*
X13117Y-11820D01*
X13209Y-11858D01*
X13271Y-11859D01*
X13333Y-11797D01*
X13333Y-11484D01*
X13333Y-11434D01*
X13333Y-11334D01*
X13333Y-11284D01*
X13333Y-10971D01*
X13271Y-10909D01*
X13209Y-10910D01*
X13152Y-10933D01*
X13152Y-10880D01*
X13180Y-10869D01*
X13217Y-10833D01*
X13237Y-10785D01*
X13237Y-10734D01*
X13237Y-10284D01*
X13218Y-10237D01*
X13182Y-10200D01*
X13134Y-10180D01*
X13083Y-10180D01*
X12833Y-10180D01*
X12786Y-10199D01*
X12749Y-10235D01*
X12729Y-10283D01*
X12729Y-10334D01*
X12729Y-10784D01*
X12748Y-10831D01*
X12784Y-10868D01*
X12802Y-10875D01*
X12747Y-10930D01*
X12483Y-10930D01*
X12436Y-10949D01*
X12399Y-10985D01*
X12379Y-11033D01*
X12379Y-11084D01*
X12379Y-11334D01*
X12398Y-11381D01*
X12434Y-11418D01*
X12482Y-11438D01*
X12533Y-11438D01*
X12983Y-11438D01*
X13008Y-11427D01*
X13008Y-11484D01*
X13020Y-11484D01*
X13008Y-11496D01*
X13008Y-11540D01*
X12984Y-11530D01*
X12933Y-11530D01*
X12483Y-11530D01*
X12436Y-11549D01*
X12399Y-11585D01*
X12386Y-11615D01*
X12379Y-11615D01*
X12368Y-11587D01*
X12332Y-11550D01*
X12284Y-11530D01*
X12233Y-11530D01*
X11783Y-11530D01*
X11736Y-11549D01*
X11699Y-11585D01*
X11686Y-11615D01*
X11296Y-11615D01*
X11296Y-09805D01*
X11296Y-09754D01*
X11296Y-08968D01*
X11277Y-08921D01*
X11241Y-08884D01*
X11193Y-08864D01*
X11142Y-08864D01*
X10926Y-08864D01*
X10879Y-08883D01*
X10842Y-08918D01*
X10808Y-08884D01*
X10760Y-08864D01*
X10709Y-08864D01*
X10493Y-08864D01*
X10446Y-08883D01*
X10409Y-08918D01*
X10375Y-08884D01*
X10327Y-08864D01*
X10276Y-08864D01*
X10060Y-08864D01*
X10013Y-08883D01*
X09976Y-08918D01*
X09942Y-08884D01*
X09894Y-08864D01*
X09843Y-08864D01*
X09627Y-08864D01*
X09580Y-08883D01*
X09543Y-08918D01*
X09509Y-08884D01*
X09461Y-08864D01*
X09436Y-08864D01*
X09436Y-06495D01*
X09436Y-06374D01*
X09390Y-06263D01*
X09305Y-06177D01*
X09194Y-06131D01*
X09073Y-06131D01*
X08962Y-06177D01*
X08876Y-06262D01*
X08830Y-06373D01*
X08830Y-06494D01*
X08831Y-06496D01*
X08162Y-07165D01*
X07190Y-07165D01*
X07190Y-05654D01*
X07190Y-05472D01*
X07120Y-05304D01*
X06992Y-05175D01*
X06823Y-05105D01*
X06641Y-05105D01*
X06473Y-05175D01*
X06344Y-05303D01*
X06274Y-05472D01*
X06274Y-05654D01*
X06344Y-05822D01*
X06472Y-05951D01*
X06641Y-06021D01*
X06823Y-06021D01*
X06991Y-05951D01*
X07120Y-05823D01*
X07190Y-05654D01*
X07190Y-07165D01*
X07037Y-07165D01*
X07033Y-07164D01*
X06968Y-07178D01*
X06913Y-07214D01*
X06911Y-07216D01*
X06812Y-07315D01*
X06812Y-07199D01*
X06747Y-07041D01*
X06626Y-06921D01*
X06469Y-06855D01*
X06298Y-06855D01*
X06140Y-06920D01*
X06020Y-07041D01*
X05954Y-07198D01*
X05954Y-07369D01*
X06019Y-07527D01*
X06140Y-07647D01*
X06297Y-07713D01*
X06414Y-07713D01*
X06272Y-07855D01*
X06058Y-07855D01*
X06011Y-07874D01*
X05974Y-07910D01*
X05954Y-07958D01*
X05954Y-08009D01*
X05954Y-08609D01*
X05973Y-08656D01*
X06009Y-08693D01*
X06057Y-08713D01*
X06108Y-08713D01*
X06708Y-08713D01*
X06755Y-08694D01*
X06792Y-08658D01*
X06812Y-08610D01*
X06812Y-08559D01*
X06812Y-07959D01*
X06793Y-07912D01*
X06757Y-07875D01*
X06739Y-07867D01*
X07103Y-07503D01*
X08228Y-07503D01*
X08233Y-07504D01*
X08233Y-07503D01*
X08286Y-07492D01*
X08297Y-07490D01*
X08298Y-07490D01*
X08353Y-07454D01*
X09070Y-06736D01*
X09072Y-06737D01*
X09193Y-06737D01*
X09304Y-06691D01*
X09390Y-06606D01*
X09436Y-06495D01*
X09436Y-08864D01*
X09410Y-08864D01*
X09194Y-08864D01*
X09147Y-08883D01*
X09110Y-08919D01*
X09090Y-08967D01*
X09090Y-09018D01*
X09090Y-09804D01*
X09109Y-09851D01*
X09145Y-09888D01*
X09158Y-09893D01*
X09158Y-10055D01*
X09130Y-10123D01*
X09130Y-10244D01*
X09176Y-10355D01*
X09261Y-10441D01*
X09372Y-10487D01*
X09493Y-10487D01*
X09604Y-10441D01*
X09690Y-10356D01*
X09736Y-10245D01*
X09736Y-10124D01*
X09690Y-10013D01*
X09605Y-09927D01*
X09508Y-09887D01*
X09543Y-09853D01*
X09544Y-09853D01*
X09578Y-09888D01*
X09626Y-09908D01*
X09677Y-09908D01*
X09893Y-09908D01*
X09940Y-09889D01*
X09976Y-09853D01*
X09977Y-09853D01*
X10011Y-09888D01*
X10059Y-09908D01*
X10110Y-09908D01*
X10326Y-09908D01*
X10373Y-09889D01*
X10409Y-09853D01*
X10410Y-09853D01*
X10444Y-09888D01*
X10492Y-09908D01*
X10543Y-09908D01*
X10759Y-09908D01*
X10806Y-09889D01*
X10842Y-09853D01*
X10843Y-09853D01*
X10877Y-09888D01*
X10925Y-09908D01*
X10976Y-09908D01*
X11192Y-09908D01*
X11239Y-09889D01*
X11276Y-09853D01*
X11296Y-09805D01*
X11296Y-11615D01*
X08136Y-11615D01*
X08136Y-11524D01*
X08090Y-11413D01*
X08005Y-11327D01*
X07894Y-11281D01*
X07773Y-11281D01*
X07662Y-11327D01*
X07576Y-11412D01*
X07530Y-11523D01*
X07530Y-11644D01*
X07576Y-11755D01*
X07661Y-11841D01*
X07772Y-11887D01*
X07893Y-11887D01*
X07895Y-11885D01*
X07911Y-11901D01*
X07913Y-11904D01*
X07968Y-11940D01*
X08032Y-11953D01*
X08032Y-11952D01*
X08033Y-11953D01*
X11686Y-11953D01*
X11698Y-11981D01*
X11734Y-12018D01*
X11782Y-12038D01*
X11833Y-12038D01*
X12283Y-12038D01*
X12330Y-12019D01*
X12367Y-11983D01*
X12379Y-11953D01*
X12386Y-11953D01*
X12398Y-11981D01*
X12434Y-12018D01*
X12482Y-12038D01*
X12533Y-12038D01*
X12619Y-12038D01*
X12565Y-12092D01*
X12519Y-12203D01*
X12519Y-12324D01*
X12565Y-12435D01*
X12650Y-12521D01*
X12761Y-12567D01*
X12882Y-12567D01*
X12993Y-12521D01*
X13079Y-12436D01*
X13080Y-12433D01*
X13951Y-12433D01*
X13956Y-12434D01*
X13956Y-12433D01*
X14009Y-12422D01*
X14020Y-12420D01*
X14021Y-12420D01*
X14076Y-12384D01*
X14271Y-12188D01*
X14273Y-12189D01*
X14394Y-12189D01*
X14505Y-12143D01*
X14591Y-12058D01*
X14637Y-11947D01*
X14637Y-11826D01*
X14621Y-11788D01*
X14958Y-11788D01*
X15005Y-11769D01*
X15042Y-11733D01*
X15062Y-11685D01*
X15062Y-11634D01*
X15062Y-11084D01*
X15043Y-11037D01*
X15007Y-11000D01*
X14998Y-10996D01*
X15005Y-10994D01*
X15042Y-10958D01*
X15062Y-10910D01*
X15062Y-10859D01*
X15062Y-10059D01*
X15043Y-10012D01*
X15007Y-09975D01*
X14959Y-09955D01*
X14908Y-09955D01*
X14575Y-09955D01*
X14575Y-09893D01*
X14586Y-09889D01*
X14622Y-09853D01*
X14623Y-09853D01*
X14657Y-09888D01*
X14705Y-09908D01*
X14756Y-09908D01*
X14972Y-09908D01*
X15019Y-09889D01*
X15056Y-09853D01*
X15057Y-09848D01*
X15504Y-10294D01*
X15504Y-10909D01*
X15523Y-10956D01*
X15546Y-10980D01*
X15308Y-10980D01*
X15261Y-10999D01*
X15224Y-11035D01*
X15204Y-11083D01*
X15204Y-11134D01*
X15204Y-11684D01*
X15223Y-11731D01*
X15259Y-11768D01*
X15307Y-11788D01*
X15358Y-11788D01*
X15708Y-11788D01*
X15755Y-11769D01*
X15792Y-11733D01*
X15812Y-11685D01*
X15812Y-11634D01*
X15812Y-11553D01*
X15873Y-11553D01*
X15911Y-11591D01*
X16022Y-11637D01*
X16143Y-11637D01*
X16254Y-11591D01*
X16340Y-11506D01*
X16386Y-11395D01*
X16386Y-11274D01*
X16340Y-11163D01*
X16255Y-11077D01*
X16144Y-11031D01*
X16084Y-11031D01*
X16089Y-11024D01*
X16089Y-11023D01*
X16091Y-11013D01*
X16258Y-11013D01*
X16305Y-10994D01*
X16342Y-10958D01*
X16362Y-10910D01*
X16362Y-10859D01*
X16362Y-10499D01*
X16367Y-10505D01*
X16478Y-10551D01*
X16599Y-10551D01*
X16710Y-10505D01*
X16796Y-10420D01*
X16797Y-10417D01*
X16798Y-10417D01*
X16803Y-10418D01*
X16803Y-10417D01*
X16856Y-10406D01*
X16867Y-10404D01*
X16868Y-10404D01*
X16923Y-10368D01*
X17058Y-10232D01*
X17286Y-10232D01*
X17291Y-10233D01*
X17291Y-10232D01*
X17344Y-10221D01*
X17355Y-10219D01*
X17356Y-10219D01*
X17411Y-10183D01*
X17719Y-09873D01*
X17721Y-09872D01*
X17722Y-09872D01*
X17758Y-09817D01*
X17771Y-09753D01*
X17770Y-09752D01*
X17771Y-09752D01*
X17771Y-09465D01*
X17822Y-09487D01*
X17943Y-09487D01*
X18054Y-09441D01*
X18140Y-09356D01*
X18186Y-09245D01*
X18186Y-09124D01*
X18140Y-09013D01*
X18055Y-08927D01*
X17986Y-08898D01*
X18032Y-08853D01*
X18078Y-08742D01*
X18078Y-08621D01*
X18032Y-08510D01*
X17958Y-08436D01*
X18191Y-08436D01*
X18214Y-08426D01*
X18214Y-09784D01*
X18112Y-09827D01*
X18026Y-09912D01*
X17980Y-10023D01*
X17980Y-10144D01*
X18026Y-10255D01*
X18111Y-10341D01*
X18222Y-10387D01*
X18330Y-10387D01*
X18330Y-10444D01*
X18376Y-10555D01*
X18461Y-10641D01*
X18572Y-10687D01*
X18693Y-10687D01*
X18804Y-10641D01*
X18890Y-10556D01*
X18936Y-10445D01*
X18936Y-10324D01*
X18921Y-10288D01*
X18926Y-10260D01*
X18927Y-10259D01*
X18926Y-10254D01*
X18926Y-08436D01*
X18941Y-08436D01*
X18988Y-08417D01*
X19025Y-08381D01*
X19045Y-08333D01*
X19045Y-08282D01*
X19045Y-07732D01*
X19026Y-07685D01*
X18990Y-07648D01*
X18942Y-07628D01*
X18891Y-07628D01*
X18552Y-07628D01*
X18552Y-06363D01*
X18683Y-06363D01*
X18730Y-06344D01*
X18767Y-06308D01*
X18787Y-06260D01*
X18787Y-06228D01*
X18962Y-06228D01*
X18963Y-06230D01*
X19048Y-06316D01*
X19159Y-06362D01*
X19221Y-06362D01*
X19221Y-06369D01*
X19283Y-06431D01*
X19596Y-06431D01*
X19646Y-06431D01*
X19746Y-06431D01*
X19746Y-06531D01*
X19746Y-06581D01*
X19746Y-06794D01*
X19808Y-06856D01*
X19872Y-06855D01*
X19971Y-06855D01*
X20062Y-06817D01*
X20104Y-06774D01*
X20122Y-06819D01*
X20158Y-06856D01*
X20206Y-06876D01*
X20257Y-06876D01*
X20398Y-06876D01*
X20398Y-07511D01*
X20753Y-07508D01*
X20753Y-08131D01*
X20772Y-08178D01*
X20808Y-08215D01*
X20856Y-08235D01*
X20907Y-08235D01*
X21467Y-08235D01*
X21483Y-12534D01*
X21593Y-12534D01*
X21463Y-12664D01*
X21427Y-12719D01*
X21424Y-12730D01*
X21413Y-12784D01*
X21414Y-12788D01*
X21414Y-13234D01*
X21414Y-13395D01*
X21311Y-13292D01*
X21252Y-13267D01*
X21252Y-11640D01*
X21275Y-11585D01*
X21275Y-11464D01*
X21229Y-11353D01*
X21144Y-11267D01*
X21033Y-11221D01*
X20912Y-11221D01*
X20801Y-11267D01*
X20752Y-11315D01*
X20752Y-10888D01*
X20752Y-10884D01*
X20753Y-10884D01*
X20741Y-10830D01*
X20739Y-10820D01*
X20739Y-10819D01*
X20703Y-10764D01*
X20700Y-10762D01*
X20145Y-10206D01*
X20145Y-07553D01*
X20145Y-07432D01*
X20099Y-07321D01*
X20014Y-07235D01*
X19903Y-07189D01*
X19782Y-07189D01*
X19671Y-07235D01*
X19646Y-07259D01*
X19646Y-06794D01*
X19646Y-06531D01*
X19283Y-06531D01*
X19221Y-06593D01*
X19222Y-06655D01*
X19260Y-06747D01*
X19330Y-06817D01*
X19421Y-06855D01*
X19520Y-06855D01*
X19584Y-06856D01*
X19646Y-06794D01*
X19646Y-07259D01*
X19585Y-07320D01*
X19539Y-07431D01*
X19539Y-07552D01*
X19540Y-07554D01*
X19234Y-07860D01*
X19198Y-07915D01*
X19195Y-07926D01*
X19184Y-07980D01*
X19185Y-07984D01*
X19185Y-08116D01*
X19183Y-08117D01*
X19097Y-08202D01*
X19051Y-08313D01*
X19051Y-08434D01*
X19097Y-08545D01*
X19182Y-08631D01*
X19293Y-08677D01*
X19414Y-08677D01*
X19525Y-08631D01*
X19611Y-08546D01*
X19657Y-08435D01*
X19657Y-08314D01*
X19611Y-08203D01*
X19526Y-08117D01*
X19523Y-08115D01*
X19523Y-08050D01*
X19779Y-07794D01*
X19781Y-07795D01*
X19902Y-07795D01*
X20013Y-07749D01*
X20099Y-07664D01*
X20145Y-07553D01*
X20145Y-10206D01*
X19685Y-09746D01*
X19686Y-09745D01*
X19686Y-09624D01*
X19640Y-09513D01*
X19555Y-09427D01*
X19444Y-09381D01*
X19323Y-09381D01*
X19212Y-09427D01*
X19126Y-09512D01*
X19080Y-09623D01*
X19080Y-09744D01*
X19126Y-09855D01*
X19211Y-09941D01*
X19322Y-09987D01*
X19443Y-09987D01*
X19445Y-09986D01*
X20414Y-10954D01*
X20414Y-13395D01*
X20311Y-13292D01*
X20252Y-13267D01*
X20252Y-11828D01*
X20252Y-11824D01*
X20253Y-11824D01*
X20243Y-11781D01*
X20255Y-11754D01*
X20255Y-11633D01*
X20209Y-11522D01*
X20124Y-11436D01*
X20013Y-11390D01*
X19892Y-11390D01*
X19781Y-11436D01*
X19695Y-11521D01*
X19649Y-11632D01*
X19649Y-11753D01*
X19695Y-11864D01*
X19780Y-11950D01*
X19891Y-11996D01*
X19914Y-11996D01*
X19914Y-13267D01*
X19855Y-13292D01*
X19741Y-13406D01*
X19680Y-13554D01*
X19680Y-13714D01*
X19741Y-13862D01*
X19855Y-13976D01*
X20003Y-14037D01*
X20163Y-14037D01*
X20311Y-13976D01*
X20414Y-13873D01*
X20414Y-13913D01*
X20363Y-13964D01*
X20327Y-14019D01*
X20324Y-14030D01*
X20313Y-14084D01*
X20314Y-14088D01*
X20314Y-15576D01*
X20312Y-15577D01*
X20226Y-15662D01*
X20180Y-15773D01*
X20180Y-15894D01*
X20226Y-16005D01*
X20311Y-16091D01*
X20422Y-16137D01*
X20543Y-16137D01*
X20617Y-16106D01*
X20735Y-16106D01*
X20735Y-16228D01*
X20736Y-16232D01*
X20735Y-16236D01*
X20735Y-16287D01*
X20735Y-16425D01*
X20754Y-16472D01*
X20790Y-16509D01*
X20838Y-16529D01*
X20889Y-16529D01*
X20941Y-16529D01*
X20941Y-16552D01*
X20941Y-16828D01*
X20960Y-16875D01*
X20986Y-16901D01*
X20976Y-16912D01*
X20953Y-16965D01*
X19608Y-15619D01*
X19608Y-13746D01*
X19608Y-13522D01*
X19607Y-13408D01*
X19607Y-13309D01*
X19569Y-13218D01*
X19499Y-13148D01*
X19407Y-13110D01*
X19195Y-13109D01*
X19133Y-13171D01*
X19133Y-13584D01*
X19546Y-13584D01*
X19608Y-13522D01*
X19608Y-13746D01*
X19546Y-13684D01*
X19133Y-13684D01*
X19133Y-14097D01*
X19195Y-14159D01*
X19407Y-14158D01*
X19499Y-14120D01*
X19569Y-14050D01*
X19607Y-13959D01*
X19607Y-13860D01*
X19608Y-13746D01*
X19608Y-15619D01*
X19253Y-15264D01*
X19198Y-15228D01*
X19186Y-15225D01*
X19133Y-15214D01*
X19128Y-15215D01*
X18187Y-15215D01*
X18183Y-15214D01*
X18129Y-15225D01*
X18118Y-15228D01*
X18063Y-15264D01*
X18061Y-15266D01*
X17392Y-15935D01*
X17392Y-15656D01*
X17400Y-15647D01*
X17402Y-15646D01*
X17403Y-15646D01*
X17439Y-15591D01*
X17452Y-15527D01*
X17451Y-15526D01*
X17452Y-15526D01*
X17452Y-14817D01*
X17467Y-14811D01*
X17559Y-14719D01*
X17609Y-14600D01*
X17609Y-14470D01*
X17560Y-14350D01*
X17468Y-14258D01*
X17452Y-14251D01*
X17452Y-14188D01*
X17452Y-14184D01*
X17453Y-14184D01*
X17441Y-14130D01*
X17439Y-14120D01*
X17439Y-14119D01*
X17431Y-14106D01*
X17436Y-14095D01*
X17436Y-13974D01*
X17390Y-13863D01*
X17305Y-13777D01*
X17247Y-13753D01*
X17462Y-13753D01*
X17930Y-14221D01*
X17930Y-14223D01*
X17930Y-14344D01*
X17976Y-14455D01*
X18061Y-14541D01*
X18172Y-14587D01*
X18293Y-14587D01*
X18404Y-14541D01*
X18490Y-14456D01*
X18536Y-14345D01*
X18536Y-14224D01*
X18490Y-14113D01*
X18465Y-14088D01*
X18533Y-14088D01*
X18580Y-14069D01*
X18598Y-14051D01*
X18667Y-14120D01*
X18759Y-14158D01*
X18971Y-14159D01*
X19033Y-14097D01*
X19033Y-13734D01*
X19033Y-13684D01*
X19033Y-13584D01*
X19033Y-13534D01*
X19033Y-13171D01*
X18971Y-13109D01*
X18759Y-13110D01*
X18757Y-13110D01*
X18757Y-13060D01*
X18719Y-12968D01*
X18649Y-12898D01*
X18558Y-12860D01*
X18459Y-12860D01*
X18395Y-12859D01*
X18333Y-12921D01*
X18333Y-13134D01*
X18333Y-13184D01*
X18333Y-13284D01*
X18233Y-13284D01*
X18233Y-13184D01*
X18233Y-12921D01*
X18171Y-12859D01*
X18107Y-12860D01*
X18008Y-12860D01*
X17917Y-12898D01*
X17847Y-12968D01*
X17809Y-13060D01*
X17808Y-13122D01*
X17870Y-13184D01*
X18233Y-13184D01*
X18233Y-13284D01*
X18183Y-13284D01*
X17870Y-13284D01*
X17808Y-13346D01*
X17809Y-13408D01*
X17847Y-13500D01*
X17917Y-13570D01*
X17986Y-13598D01*
X17986Y-13599D01*
X17949Y-13635D01*
X17929Y-13683D01*
X17929Y-13734D01*
X17929Y-13740D01*
X17653Y-13464D01*
X17598Y-13428D01*
X17586Y-13425D01*
X17533Y-13414D01*
X17528Y-13415D01*
X17430Y-13415D01*
X17440Y-13406D01*
X17486Y-13295D01*
X17486Y-13174D01*
X17440Y-13063D01*
X17355Y-12977D01*
X17244Y-12931D01*
X17123Y-12931D01*
X17012Y-12977D01*
X16926Y-13062D01*
X16880Y-13173D01*
X16880Y-13294D01*
X16926Y-13405D01*
X16935Y-13415D01*
X16552Y-13415D01*
X16552Y-13204D01*
X18025Y-11730D01*
X18034Y-11750D01*
X18119Y-11836D01*
X18230Y-11882D01*
X18351Y-11882D01*
X18462Y-11836D01*
X18548Y-11751D01*
X18549Y-11748D01*
X18985Y-11748D01*
X19053Y-11776D01*
X19174Y-11776D01*
X19285Y-11730D01*
X19371Y-11645D01*
X19417Y-11534D01*
X19417Y-11413D01*
X19410Y-11397D01*
X19501Y-11360D01*
X19587Y-11275D01*
X19633Y-11164D01*
X19633Y-11043D01*
X19587Y-10932D01*
X19502Y-10846D01*
X19391Y-10800D01*
X19270Y-10800D01*
X19159Y-10846D01*
X19073Y-10931D01*
X19071Y-10934D01*
X18598Y-10934D01*
X18530Y-10865D01*
X18419Y-10819D01*
X18298Y-10819D01*
X18187Y-10865D01*
X18136Y-10915D01*
X18136Y-10874D01*
X18090Y-10763D01*
X18005Y-10677D01*
X17894Y-10631D01*
X17773Y-10631D01*
X17662Y-10677D01*
X17576Y-10762D01*
X17550Y-10823D01*
X17505Y-10777D01*
X17394Y-10731D01*
X17273Y-10731D01*
X17162Y-10777D01*
X17076Y-10862D01*
X17030Y-10973D01*
X17030Y-11094D01*
X17031Y-11096D01*
X14944Y-13182D01*
X14906Y-13190D01*
X14851Y-13226D01*
X14815Y-13281D01*
X14802Y-13346D01*
X14802Y-14475D01*
X14694Y-14431D01*
X14573Y-14431D01*
X14462Y-14477D01*
X14376Y-14562D01*
X14374Y-14565D01*
X13403Y-14565D01*
X13202Y-14363D01*
X13202Y-14134D01*
X13189Y-14069D01*
X13153Y-14014D01*
X13150Y-14012D01*
X13025Y-13887D01*
X13093Y-13887D01*
X13204Y-13841D01*
X13290Y-13756D01*
X13336Y-13645D01*
X13336Y-13524D01*
X13290Y-13413D01*
X13205Y-13327D01*
X13094Y-13281D01*
X12973Y-13281D01*
X12936Y-13296D01*
X12936Y-12945D01*
X12936Y-12824D01*
X12890Y-12713D01*
X12805Y-12627D01*
X12694Y-12581D01*
X12573Y-12581D01*
X12570Y-12582D01*
X12387Y-12398D01*
X12387Y-12234D01*
X12368Y-12187D01*
X12332Y-12150D01*
X12284Y-12130D01*
X12233Y-12130D01*
X11783Y-12130D01*
X11736Y-12149D01*
X11699Y-12185D01*
X11679Y-12233D01*
X11679Y-12284D01*
X11679Y-12534D01*
X11698Y-12581D01*
X11734Y-12618D01*
X11782Y-12638D01*
X11833Y-12638D01*
X11914Y-12638D01*
X11914Y-12780D01*
X11833Y-12780D01*
X11786Y-12799D01*
X11749Y-12835D01*
X11729Y-12883D01*
X11729Y-12934D01*
X11729Y-13184D01*
X11748Y-13231D01*
X11784Y-13268D01*
X11832Y-13288D01*
X11883Y-13288D01*
X12333Y-13288D01*
X12380Y-13269D01*
X12417Y-13233D01*
X12437Y-13185D01*
X12437Y-13134D01*
X12437Y-13116D01*
X12461Y-13141D01*
X12572Y-13187D01*
X12693Y-13187D01*
X12804Y-13141D01*
X12890Y-13056D01*
X12936Y-12945D01*
X12936Y-13296D01*
X12862Y-13327D01*
X12776Y-13412D01*
X12754Y-13465D01*
X12429Y-13465D01*
X12418Y-13437D01*
X12382Y-13400D01*
X12334Y-13380D01*
X12283Y-13380D01*
X11833Y-13380D01*
X11786Y-13399D01*
X11749Y-13435D01*
X11729Y-13483D01*
X11729Y-13534D01*
X11729Y-13784D01*
X11731Y-13790D01*
X11637Y-13790D01*
X11637Y-13759D01*
X11618Y-13712D01*
X11582Y-13675D01*
X11534Y-13655D01*
X11483Y-13655D01*
X11168Y-13655D01*
X11026Y-13513D01*
X11533Y-13513D01*
X11580Y-13494D01*
X11617Y-13458D01*
X11637Y-13410D01*
X11637Y-13359D01*
X11637Y-13009D01*
X11618Y-12962D01*
X11582Y-12925D01*
X11534Y-12905D01*
X11483Y-12905D01*
X10933Y-12905D01*
X10886Y-12924D01*
X10849Y-12960D01*
X10829Y-13008D01*
X10829Y-13040D01*
X10828Y-13040D01*
X10676Y-12888D01*
X10708Y-12888D01*
X10755Y-12869D01*
X10792Y-12833D01*
X10812Y-12785D01*
X10812Y-12734D01*
X10812Y-12653D01*
X10854Y-12653D01*
X10876Y-12705D01*
X10961Y-12791D01*
X11072Y-12837D01*
X11193Y-12837D01*
X11304Y-12791D01*
X11390Y-12706D01*
X11436Y-12595D01*
X11436Y-12474D01*
X11390Y-12363D01*
X11305Y-12277D01*
X11194Y-12231D01*
X11073Y-12231D01*
X10962Y-12277D01*
X10923Y-12315D01*
X10812Y-12315D01*
X10812Y-12184D01*
X10793Y-12137D01*
X10757Y-12100D01*
X10709Y-12080D01*
X10658Y-12080D01*
X10308Y-12080D01*
X10261Y-12099D01*
X10224Y-12135D01*
X10204Y-12183D01*
X10204Y-12234D01*
X10204Y-12690D01*
X10062Y-12548D01*
X10062Y-12184D01*
X10043Y-12137D01*
X10007Y-12100D01*
X09959Y-12080D01*
X09908Y-12080D01*
X09558Y-12080D01*
X09511Y-12099D01*
X09474Y-12135D01*
X09454Y-12183D01*
X09454Y-12234D01*
X09454Y-12315D01*
X09337Y-12315D01*
X09337Y-12234D01*
X09318Y-12187D01*
X09282Y-12150D01*
X09234Y-12130D01*
X09183Y-12130D01*
X08933Y-12130D01*
X08886Y-12149D01*
X08849Y-12185D01*
X08829Y-12233D01*
X08829Y-12284D01*
X08829Y-12734D01*
X08848Y-12781D01*
X08884Y-12818D01*
X08932Y-12838D01*
X08983Y-12838D01*
X09233Y-12838D01*
X09280Y-12819D01*
X09317Y-12783D01*
X09337Y-12735D01*
X09337Y-12684D01*
X09337Y-12653D01*
X09454Y-12653D01*
X09454Y-12784D01*
X09473Y-12831D01*
X09509Y-12868D01*
X09557Y-12888D01*
X09608Y-12888D01*
X09922Y-12888D01*
X10136Y-13101D01*
X10138Y-13104D01*
X10193Y-13140D01*
X10194Y-13140D01*
X10204Y-13142D01*
X10258Y-13154D01*
X10258Y-13153D01*
X10262Y-13153D01*
X10462Y-13153D01*
X10636Y-13326D01*
X10638Y-13329D01*
X10693Y-13365D01*
X10694Y-13365D01*
X10704Y-13367D01*
X10758Y-13379D01*
X10758Y-13378D01*
X10762Y-13378D01*
X10829Y-13378D01*
X10829Y-13409D01*
X10831Y-13415D01*
X10587Y-13415D01*
X10587Y-13334D01*
X10568Y-13287D01*
X10532Y-13250D01*
X10484Y-13230D01*
X10433Y-13230D01*
X10183Y-13230D01*
X10136Y-13249D01*
X10099Y-13285D01*
X10079Y-13333D01*
X10079Y-13384D01*
X10079Y-13834D01*
X10098Y-13881D01*
X10114Y-13897D01*
X10114Y-14097D01*
X10111Y-14099D01*
X10074Y-14135D01*
X10054Y-14183D01*
X10054Y-14234D01*
X10054Y-14684D01*
X10073Y-14731D01*
X10109Y-14768D01*
X10157Y-14788D01*
X10208Y-14788D01*
X10408Y-14788D01*
X10455Y-14769D01*
X10492Y-14733D01*
X10512Y-14685D01*
X10512Y-14634D01*
X10512Y-14184D01*
X10493Y-14137D01*
X10457Y-14100D01*
X10452Y-14097D01*
X10452Y-13938D01*
X10483Y-13938D01*
X10530Y-13919D01*
X10567Y-13883D01*
X10587Y-13835D01*
X10587Y-13784D01*
X10587Y-13753D01*
X10787Y-13753D01*
X10829Y-13794D01*
X10829Y-13809D01*
X10829Y-14159D01*
X10848Y-14206D01*
X10884Y-14243D01*
X10932Y-14263D01*
X10983Y-14263D01*
X11533Y-14263D01*
X11580Y-14244D01*
X11617Y-14208D01*
X11637Y-14160D01*
X11637Y-14128D01*
X12460Y-14128D01*
X12426Y-14162D01*
X12380Y-14273D01*
X12380Y-14394D01*
X12380Y-14396D01*
X12336Y-14441D01*
X12336Y-14374D01*
X12290Y-14263D01*
X12205Y-14177D01*
X12094Y-14131D01*
X11973Y-14131D01*
X11862Y-14177D01*
X11776Y-14262D01*
X11730Y-14373D01*
X11730Y-14455D01*
X11683Y-14455D01*
X11133Y-14455D01*
X11086Y-14474D01*
X11049Y-14510D01*
X11029Y-14558D01*
X11029Y-14609D01*
X11029Y-14959D01*
X11048Y-15006D01*
X11084Y-15043D01*
X11132Y-15063D01*
X11183Y-15063D01*
X11733Y-15063D01*
X11780Y-15044D01*
X11817Y-15008D01*
X11837Y-14960D01*
X11837Y-14909D01*
X11837Y-14869D01*
X11970Y-14736D01*
X11972Y-14737D01*
X12093Y-14737D01*
X12204Y-14691D01*
X12214Y-14681D01*
X12214Y-15980D01*
X12183Y-15980D01*
X11733Y-15980D01*
X11686Y-15999D01*
X11683Y-16001D01*
X11682Y-16000D01*
X11634Y-15980D01*
X11602Y-15980D01*
X11602Y-15813D01*
X11733Y-15813D01*
X11780Y-15794D01*
X11817Y-15758D01*
X11837Y-15710D01*
X11837Y-15659D01*
X11837Y-15309D01*
X11818Y-15262D01*
X11782Y-15225D01*
X11734Y-15205D01*
X11683Y-15205D01*
X11133Y-15205D01*
X11086Y-15224D01*
X11049Y-15260D01*
X11029Y-15308D01*
X11029Y-15340D01*
X10012Y-15340D01*
X10012Y-14685D01*
X10012Y-14634D01*
X10012Y-14184D01*
X09993Y-14137D01*
X09957Y-14100D01*
X09909Y-14080D01*
X09902Y-14080D01*
X09902Y-13930D01*
X09930Y-13919D01*
X09967Y-13883D01*
X09987Y-13835D01*
X09987Y-13784D01*
X09987Y-13334D01*
X09968Y-13287D01*
X09932Y-13250D01*
X09884Y-13230D01*
X09833Y-13230D01*
X09583Y-13230D01*
X09536Y-13249D01*
X09499Y-13285D01*
X09479Y-13333D01*
X09479Y-13384D01*
X09479Y-13415D01*
X09426Y-13415D01*
X09344Y-13381D01*
X09223Y-13381D01*
X09136Y-13417D01*
X09136Y-13245D01*
X09136Y-13124D01*
X09090Y-13013D01*
X09005Y-12927D01*
X08894Y-12881D01*
X08773Y-12881D01*
X08726Y-12900D01*
X08652Y-12846D01*
X08652Y-12830D01*
X08680Y-12819D01*
X08717Y-12783D01*
X08737Y-12735D01*
X08737Y-12684D01*
X08737Y-12234D01*
X08718Y-12187D01*
X08682Y-12150D01*
X08634Y-12130D01*
X08583Y-12130D01*
X08333Y-12130D01*
X08286Y-12149D01*
X08249Y-12185D01*
X08229Y-12233D01*
X08229Y-12284D01*
X08229Y-12315D01*
X08187Y-12315D01*
X08187Y-12234D01*
X08168Y-12187D01*
X08132Y-12150D01*
X08084Y-12130D01*
X08033Y-12130D01*
X07783Y-12130D01*
X07736Y-12149D01*
X07699Y-12185D01*
X07679Y-12233D01*
X07679Y-12284D01*
X07679Y-12734D01*
X07698Y-12781D01*
X07734Y-12818D01*
X07782Y-12838D01*
X07833Y-12838D01*
X08083Y-12838D01*
X08130Y-12819D01*
X08167Y-12783D01*
X08187Y-12735D01*
X08187Y-12684D01*
X08187Y-12653D01*
X08229Y-12653D01*
X08229Y-12734D01*
X08248Y-12781D01*
X08284Y-12818D01*
X08314Y-12830D01*
X08314Y-12934D01*
X08316Y-12946D01*
X08316Y-12962D01*
X08323Y-12982D01*
X08327Y-12999D01*
X08333Y-13009D01*
X08339Y-13023D01*
X08351Y-13036D01*
X08363Y-13054D01*
X08376Y-13062D01*
X08385Y-13072D01*
X08530Y-13175D01*
X08530Y-13244D01*
X08576Y-13355D01*
X08661Y-13441D01*
X08772Y-13487D01*
X08893Y-13487D01*
X09004Y-13441D01*
X09090Y-13356D01*
X09136Y-13245D01*
X09136Y-13417D01*
X09112Y-13427D01*
X09026Y-13512D01*
X08986Y-13608D01*
X08955Y-13577D01*
X08844Y-13531D01*
X08723Y-13531D01*
X08612Y-13577D01*
X08526Y-13662D01*
X08480Y-13773D01*
X08480Y-13894D01*
X08526Y-14005D01*
X08611Y-14091D01*
X08614Y-14092D01*
X08614Y-14097D01*
X08611Y-14099D01*
X08574Y-14135D01*
X08554Y-14183D01*
X08554Y-14234D01*
X08554Y-14265D01*
X08512Y-14265D01*
X08512Y-14184D01*
X08493Y-14137D01*
X08457Y-14100D01*
X08412Y-14081D01*
X08412Y-13735D01*
X08412Y-13684D01*
X08412Y-13134D01*
X08393Y-13087D01*
X08357Y-13050D01*
X08309Y-13030D01*
X08258Y-13030D01*
X07943Y-13030D01*
X07587Y-12673D01*
X07587Y-12234D01*
X07568Y-12187D01*
X07532Y-12150D01*
X07484Y-12130D01*
X07433Y-12130D01*
X07183Y-12130D01*
X07136Y-12149D01*
X07099Y-12185D01*
X07079Y-12233D01*
X07079Y-12284D01*
X07079Y-12640D01*
X07037Y-12598D01*
X07037Y-12559D01*
X07037Y-12209D01*
X07018Y-12162D01*
X06982Y-12125D01*
X06934Y-12105D01*
X06883Y-12105D01*
X06333Y-12105D01*
X06286Y-12124D01*
X06249Y-12160D01*
X06229Y-12208D01*
X06229Y-12259D01*
X06229Y-12609D01*
X06248Y-12656D01*
X06284Y-12693D01*
X06332Y-12713D01*
X06383Y-12713D01*
X06672Y-12713D01*
X06814Y-12855D01*
X06333Y-12855D01*
X06286Y-12874D01*
X06249Y-12910D01*
X06229Y-12958D01*
X06229Y-13009D01*
X06229Y-13359D01*
X06248Y-13406D01*
X06284Y-13443D01*
X06289Y-13445D01*
X06212Y-13477D01*
X06126Y-13562D01*
X06080Y-13673D01*
X06080Y-13794D01*
X06126Y-13905D01*
X06211Y-13991D01*
X06305Y-14030D01*
X05983Y-14030D01*
X05936Y-14049D01*
X05899Y-14085D01*
X05879Y-14133D01*
X05879Y-14184D01*
X05879Y-14434D01*
X05898Y-14481D01*
X05934Y-14518D01*
X05982Y-14538D01*
X06033Y-14538D01*
X06483Y-14538D01*
X06530Y-14519D01*
X06537Y-14511D01*
X06576Y-14605D01*
X06661Y-14691D01*
X06772Y-14737D01*
X06893Y-14737D01*
X07004Y-14691D01*
X07054Y-14641D01*
X07054Y-14684D01*
X07073Y-14731D01*
X07109Y-14768D01*
X07157Y-14788D01*
X07208Y-14788D01*
X07408Y-14788D01*
X07455Y-14769D01*
X07492Y-14733D01*
X07512Y-14685D01*
X07512Y-14634D01*
X07512Y-14184D01*
X07493Y-14137D01*
X07457Y-14100D01*
X07409Y-14080D01*
X07358Y-14080D01*
X07158Y-14080D01*
X07111Y-14099D01*
X07074Y-14135D01*
X07054Y-14183D01*
X07054Y-14226D01*
X07005Y-14177D01*
X06898Y-14132D01*
X07193Y-13838D01*
X07208Y-13838D01*
X07558Y-13838D01*
X07605Y-13819D01*
X07614Y-13810D01*
X07614Y-14097D01*
X07611Y-14099D01*
X07574Y-14135D01*
X07554Y-14183D01*
X07554Y-14234D01*
X07554Y-14684D01*
X07573Y-14731D01*
X07609Y-14768D01*
X07657Y-14788D01*
X07708Y-14788D01*
X07908Y-14788D01*
X07955Y-14769D01*
X07992Y-14733D01*
X08012Y-14685D01*
X08012Y-14634D01*
X08012Y-14184D01*
X07993Y-14137D01*
X07957Y-14100D01*
X07952Y-14097D01*
X07952Y-13838D01*
X07958Y-13838D01*
X08308Y-13838D01*
X08355Y-13819D01*
X08392Y-13783D01*
X08412Y-13735D01*
X08412Y-14081D01*
X08409Y-14080D01*
X08358Y-14080D01*
X08158Y-14080D01*
X08111Y-14099D01*
X08074Y-14135D01*
X08054Y-14183D01*
X08054Y-14234D01*
X08054Y-14684D01*
X08073Y-14731D01*
X08109Y-14768D01*
X08157Y-14788D01*
X08208Y-14788D01*
X08408Y-14788D01*
X08455Y-14769D01*
X08492Y-14733D01*
X08512Y-14685D01*
X08512Y-14634D01*
X08512Y-14603D01*
X08554Y-14603D01*
X08554Y-14684D01*
X08573Y-14731D01*
X08609Y-14768D01*
X08657Y-14788D01*
X08708Y-14788D01*
X08908Y-14788D01*
X08955Y-14769D01*
X08992Y-14733D01*
X09012Y-14685D01*
X09012Y-14634D01*
X09012Y-14603D01*
X09054Y-14603D01*
X09054Y-14684D01*
X09073Y-14731D01*
X09109Y-14768D01*
X09157Y-14788D01*
X09208Y-14788D01*
X09408Y-14788D01*
X09455Y-14769D01*
X09492Y-14733D01*
X09512Y-14685D01*
X09512Y-14634D01*
X09512Y-14184D01*
X09493Y-14137D01*
X09457Y-14100D01*
X09409Y-14080D01*
X09358Y-14080D01*
X09158Y-14080D01*
X09111Y-14099D01*
X09074Y-14135D01*
X09054Y-14183D01*
X09054Y-14234D01*
X09054Y-14265D01*
X09012Y-14265D01*
X09012Y-14184D01*
X08993Y-14137D01*
X08957Y-14100D01*
X08952Y-14097D01*
X08952Y-14091D01*
X08954Y-14091D01*
X09040Y-14006D01*
X09079Y-13909D01*
X09111Y-13941D01*
X09222Y-13987D01*
X09343Y-13987D01*
X09454Y-13941D01*
X09506Y-13889D01*
X09534Y-13918D01*
X09564Y-13930D01*
X09564Y-14159D01*
X09554Y-14183D01*
X09554Y-14234D01*
X09554Y-14684D01*
X09573Y-14731D01*
X09609Y-14768D01*
X09657Y-14788D01*
X09708Y-14788D01*
X09908Y-14788D01*
X09955Y-14769D01*
X09992Y-14733D01*
X10012Y-14685D01*
X10012Y-15340D01*
X09862Y-15340D01*
X09858Y-15339D01*
X09804Y-15350D01*
X09793Y-15353D01*
X09738Y-15389D01*
X09736Y-15391D01*
X09163Y-15964D01*
X09127Y-16019D01*
X09124Y-16030D01*
X09113Y-16084D01*
X09114Y-16088D01*
X09114Y-16197D01*
X09111Y-16199D01*
X09108Y-16201D01*
X09094Y-16168D01*
X09024Y-16098D01*
X08932Y-16060D01*
X08895Y-16059D01*
X08833Y-16121D01*
X08833Y-16434D01*
X08833Y-16484D01*
X08833Y-16584D01*
X08733Y-16584D01*
X08733Y-16484D01*
X08733Y-16434D01*
X08733Y-16121D01*
X08671Y-16059D01*
X08634Y-16060D01*
X08542Y-16098D01*
X08472Y-16168D01*
X08458Y-16201D01*
X08457Y-16200D01*
X08409Y-16180D01*
X08358Y-16180D01*
X08158Y-16180D01*
X08111Y-16199D01*
X08074Y-16235D01*
X08054Y-16283D01*
X08054Y-16334D01*
X08054Y-16784D01*
X08064Y-16808D01*
X08064Y-17005D01*
X07933Y-17005D01*
X07886Y-17024D01*
X07849Y-17060D01*
X07829Y-17108D01*
X07829Y-17159D01*
X07829Y-17509D01*
X07848Y-17556D01*
X07884Y-17593D01*
X07932Y-17613D01*
X07983Y-17613D01*
X08297Y-17613D01*
X08439Y-17755D01*
X07951Y-17755D01*
X07939Y-17694D01*
X07903Y-17639D01*
X07900Y-17637D01*
X07737Y-17473D01*
X07737Y-17459D01*
X07737Y-17144D01*
X07900Y-16980D01*
X07902Y-16979D01*
X07903Y-16979D01*
X07939Y-16924D01*
X07949Y-16871D01*
X07955Y-16869D01*
X07992Y-16833D01*
X08012Y-16785D01*
X08012Y-16734D01*
X08012Y-16284D01*
X07993Y-16237D01*
X07957Y-16200D01*
X07915Y-16182D01*
X07914Y-16182D01*
X07903Y-16164D01*
X07900Y-16162D01*
X07303Y-15564D01*
X07248Y-15528D01*
X07236Y-15525D01*
X07183Y-15514D01*
X07178Y-15515D01*
X06846Y-15515D01*
X06904Y-15491D01*
X06990Y-15406D01*
X07036Y-15295D01*
X07036Y-15174D01*
X06990Y-15063D01*
X06905Y-14977D01*
X06794Y-14931D01*
X06673Y-14931D01*
X06670Y-14932D01*
X06587Y-14848D01*
X06587Y-14734D01*
X06568Y-14687D01*
X06532Y-14650D01*
X06484Y-14630D01*
X06433Y-14630D01*
X05983Y-14630D01*
X05936Y-14649D01*
X05899Y-14685D01*
X05879Y-14733D01*
X05879Y-14784D01*
X05879Y-15034D01*
X05898Y-15081D01*
X05934Y-15118D01*
X05982Y-15138D01*
X06033Y-15138D01*
X06397Y-15138D01*
X06430Y-15171D01*
X06430Y-15173D01*
X06430Y-15294D01*
X06476Y-15405D01*
X06512Y-15441D01*
X06484Y-15430D01*
X06433Y-15430D01*
X05983Y-15430D01*
X05936Y-15449D01*
X05899Y-15485D01*
X05879Y-15533D01*
X05879Y-15584D01*
X05879Y-15834D01*
X05898Y-15881D01*
X05934Y-15918D01*
X05982Y-15938D01*
X06033Y-15938D01*
X06483Y-15938D01*
X06530Y-15919D01*
X06567Y-15883D01*
X06579Y-15853D01*
X07112Y-15853D01*
X07554Y-16294D01*
X07554Y-16334D01*
X07554Y-16784D01*
X07572Y-16830D01*
X07512Y-16890D01*
X07512Y-16785D01*
X07512Y-16734D01*
X07512Y-16284D01*
X07493Y-16237D01*
X07457Y-16200D01*
X07409Y-16180D01*
X07358Y-16180D01*
X07158Y-16180D01*
X07111Y-16199D01*
X07086Y-16223D01*
X07086Y-16124D01*
X07040Y-16013D01*
X06955Y-15927D01*
X06844Y-15881D01*
X06723Y-15881D01*
X06612Y-15927D01*
X06526Y-16012D01*
X06513Y-16042D01*
X06484Y-16030D01*
X06433Y-16030D01*
X05983Y-16030D01*
X05936Y-16049D01*
X05899Y-16085D01*
X05879Y-16133D01*
X05879Y-16184D01*
X05879Y-16434D01*
X05898Y-16481D01*
X05934Y-16518D01*
X05982Y-16538D01*
X06033Y-16538D01*
X06247Y-16538D01*
X06361Y-16651D01*
X06363Y-16654D01*
X06418Y-16690D01*
X06483Y-16703D01*
X07054Y-16703D01*
X07054Y-16784D01*
X07073Y-16831D01*
X07109Y-16868D01*
X07157Y-16888D01*
X07208Y-16888D01*
X07408Y-16888D01*
X07455Y-16869D01*
X07492Y-16833D01*
X07512Y-16785D01*
X07512Y-16890D01*
X07397Y-17005D01*
X07033Y-17005D01*
X06986Y-17024D01*
X06975Y-17034D01*
X06975Y-16862D01*
X06956Y-16815D01*
X06920Y-16778D01*
X06872Y-16758D01*
X06821Y-16758D01*
X06545Y-16758D01*
X06498Y-16777D01*
X06461Y-16813D01*
X06441Y-16861D01*
X06441Y-16912D01*
X06441Y-17306D01*
X06460Y-17353D01*
X06496Y-17390D01*
X06533Y-17405D01*
X06476Y-17462D01*
X06430Y-17573D01*
X06430Y-17694D01*
X06456Y-17758D01*
X06446Y-17758D01*
X06346Y-17758D01*
X06346Y-17196D01*
X06346Y-16972D01*
X06345Y-16936D01*
X06345Y-16837D01*
X06307Y-16746D01*
X06237Y-16676D01*
X06145Y-16638D01*
X06070Y-16637D01*
X06008Y-16699D01*
X06008Y-17034D01*
X06284Y-17034D01*
X06346Y-16972D01*
X06346Y-17196D01*
X06284Y-17134D01*
X06008Y-17134D01*
X06008Y-17469D01*
X06070Y-17531D01*
X06145Y-17530D01*
X06237Y-17492D01*
X06307Y-17422D01*
X06345Y-17331D01*
X06345Y-17232D01*
X06346Y-17196D01*
X06346Y-17758D01*
X06170Y-17758D01*
X06123Y-17777D01*
X06086Y-17813D01*
X06066Y-17861D01*
X06066Y-17912D01*
X06066Y-18306D01*
X06085Y-18353D01*
X06121Y-18390D01*
X06164Y-18407D01*
X06164Y-18617D01*
X06105Y-18642D01*
X05991Y-18756D01*
X05930Y-18904D01*
X05930Y-19064D01*
X05991Y-19212D01*
X06105Y-19326D01*
X06253Y-19387D01*
X06413Y-19387D01*
X06472Y-19362D01*
X06941Y-19831D01*
X06941Y-19956D01*
X06960Y-20003D01*
X06996Y-20040D01*
X07044Y-20060D01*
X07095Y-20060D01*
X07371Y-20060D01*
X07418Y-20041D01*
X07455Y-20005D01*
X07475Y-19957D01*
X07475Y-19906D01*
X07475Y-19903D01*
X07691Y-19903D01*
X07691Y-19956D01*
X07710Y-20003D01*
X07746Y-20040D01*
X07794Y-20060D01*
X07845Y-20060D01*
X08121Y-20060D01*
X08168Y-20041D01*
X08205Y-20005D01*
X08225Y-19957D01*
X08225Y-19906D01*
X08225Y-19903D01*
X08229Y-19903D01*
X08229Y-19909D01*
X08248Y-19956D01*
X08284Y-19993D01*
X08332Y-20013D01*
X08383Y-20013D01*
X08933Y-20013D01*
X08980Y-19994D01*
X09017Y-19958D01*
X09037Y-19910D01*
X09037Y-19895D01*
X09121Y-19930D01*
X09196Y-19931D01*
X09258Y-19869D01*
X09258Y-19584D01*
X09258Y-19534D01*
X09258Y-19434D01*
X09358Y-19434D01*
X09358Y-19534D01*
X09358Y-19584D01*
X09358Y-19869D01*
X09420Y-19931D01*
X09495Y-19930D01*
X09514Y-19922D01*
X09514Y-20160D01*
X09473Y-20177D01*
X09436Y-20213D01*
X09416Y-20261D01*
X09416Y-20290D01*
X09037Y-20290D01*
X09037Y-20259D01*
X09018Y-20212D01*
X08982Y-20175D01*
X08934Y-20155D01*
X08883Y-20155D01*
X08333Y-20155D01*
X08286Y-20174D01*
X08249Y-20210D01*
X08229Y-20258D01*
X08229Y-20290D01*
X07858Y-20290D01*
X07857Y-20290D01*
X07793Y-20303D01*
X07738Y-20339D01*
X07736Y-20341D01*
X07669Y-20408D01*
X07420Y-20408D01*
X07373Y-20427D01*
X07369Y-20430D01*
X06803Y-19864D01*
X06748Y-19828D01*
X06737Y-19825D01*
X06737Y-19684D01*
X06718Y-19637D01*
X06682Y-19600D01*
X06634Y-19580D01*
X06583Y-19580D01*
X06033Y-19580D01*
X05986Y-19599D01*
X05949Y-19635D01*
X05929Y-19683D01*
X05929Y-19734D01*
X05929Y-20284D01*
X05948Y-20331D01*
X05984Y-20368D01*
X06032Y-20388D01*
X06083Y-20388D01*
X06633Y-20388D01*
X06680Y-20369D01*
X06717Y-20333D01*
X06737Y-20285D01*
X06737Y-20277D01*
X07311Y-20851D01*
X07313Y-20854D01*
X07316Y-20855D01*
X07316Y-20956D01*
X07335Y-21003D01*
X07371Y-21040D01*
X07419Y-21060D01*
X07470Y-21060D01*
X07746Y-21060D01*
X07793Y-21041D01*
X07830Y-21005D01*
X07850Y-20957D01*
X07850Y-20906D01*
X07850Y-20706D01*
X07928Y-20628D01*
X08229Y-20628D01*
X08229Y-20659D01*
X08248Y-20706D01*
X08284Y-20743D01*
X08332Y-20763D01*
X08383Y-20763D01*
X08933Y-20763D01*
X08980Y-20744D01*
X09017Y-20708D01*
X09037Y-20660D01*
X09037Y-20628D01*
X09416Y-20628D01*
X09416Y-20706D01*
X09435Y-20753D01*
X09471Y-20790D01*
X09519Y-20810D01*
X09570Y-20810D01*
X09846Y-20810D01*
X09893Y-20791D01*
X09930Y-20755D01*
X09950Y-20707D01*
X09950Y-20656D01*
X09950Y-20262D01*
X09931Y-20215D01*
X09895Y-20178D01*
X09852Y-20160D01*
X09852Y-19792D01*
X09894Y-19810D01*
X09945Y-19810D01*
X10221Y-19810D01*
X10268Y-19791D01*
X10305Y-19755D01*
X10325Y-19707D01*
X10325Y-19656D01*
X10325Y-19653D01*
X10326Y-19655D01*
X10411Y-19741D01*
X10522Y-19787D01*
X10643Y-19787D01*
X10754Y-19741D01*
X10840Y-19656D01*
X10886Y-19545D01*
X10886Y-19424D01*
X10840Y-19313D01*
X10755Y-19227D01*
X10644Y-19181D01*
X10523Y-19181D01*
X10412Y-19227D01*
X10326Y-19312D01*
X10325Y-19314D01*
X10325Y-19262D01*
X10306Y-19215D01*
X10270Y-19178D01*
X10222Y-19158D01*
X10171Y-19158D01*
X09895Y-19158D01*
X09851Y-19175D01*
X09841Y-19130D01*
X09839Y-19120D01*
X09839Y-19119D01*
X09803Y-19064D01*
X09800Y-19062D01*
X09437Y-18698D01*
X09437Y-18434D01*
X09418Y-18387D01*
X09394Y-18363D01*
X09433Y-18363D01*
X09480Y-18344D01*
X09480Y-18444D01*
X09526Y-18555D01*
X09611Y-18641D01*
X09722Y-18687D01*
X09843Y-18687D01*
X09954Y-18641D01*
X10040Y-18556D01*
X10086Y-18445D01*
X10086Y-18324D01*
X10040Y-18213D01*
X09955Y-18127D01*
X09844Y-18081D01*
X09723Y-18081D01*
X09720Y-18082D01*
X09578Y-17939D01*
X09537Y-17912D01*
X09537Y-17859D01*
X09534Y-17853D01*
X09562Y-17853D01*
X09711Y-18001D01*
X09713Y-18004D01*
X09768Y-18040D01*
X09832Y-18053D01*
X09832Y-18052D01*
X09833Y-18053D01*
X10086Y-18053D01*
X10098Y-18081D01*
X10134Y-18118D01*
X10182Y-18138D01*
X10233Y-18138D01*
X10683Y-18138D01*
X10730Y-18119D01*
X10767Y-18083D01*
X10787Y-18035D01*
X10787Y-17984D01*
X10787Y-17734D01*
X10787Y-17435D01*
X10787Y-17384D01*
X10787Y-17134D01*
X10768Y-17087D01*
X10732Y-17050D01*
X10684Y-17030D01*
X10633Y-17030D01*
X10602Y-17030D01*
X10602Y-16988D01*
X10602Y-16984D01*
X10603Y-16984D01*
X10591Y-16930D01*
X10589Y-16920D01*
X10589Y-16919D01*
X10553Y-16864D01*
X10550Y-16862D01*
X10500Y-16812D01*
X10512Y-16785D01*
X10512Y-16734D01*
X10512Y-16284D01*
X10493Y-16237D01*
X10457Y-16200D01*
X10409Y-16180D01*
X10358Y-16180D01*
X10158Y-16180D01*
X10111Y-16199D01*
X10074Y-16235D01*
X10054Y-16283D01*
X10054Y-16334D01*
X10054Y-16784D01*
X10073Y-16831D01*
X10109Y-16868D01*
X10121Y-16873D01*
X10124Y-16885D01*
X10012Y-16773D01*
X10012Y-16734D01*
X10012Y-16284D01*
X09993Y-16237D01*
X09957Y-16200D01*
X09909Y-16180D01*
X09858Y-16180D01*
X09658Y-16180D01*
X09611Y-16199D01*
X09574Y-16235D01*
X09554Y-16283D01*
X09554Y-16334D01*
X09554Y-16784D01*
X09573Y-16831D01*
X09609Y-16868D01*
X09650Y-16885D01*
X09651Y-16885D01*
X09663Y-16904D01*
X10079Y-17319D01*
X10079Y-17434D01*
X10098Y-17481D01*
X10134Y-17518D01*
X10182Y-17538D01*
X10233Y-17538D01*
X10683Y-17538D01*
X10730Y-17519D01*
X10767Y-17483D01*
X10787Y-17435D01*
X10787Y-17734D01*
X10768Y-17687D01*
X10732Y-17650D01*
X10684Y-17630D01*
X10633Y-17630D01*
X10183Y-17630D01*
X10136Y-17649D01*
X10099Y-17685D01*
X10086Y-17715D01*
X09903Y-17715D01*
X09753Y-17564D01*
X09698Y-17528D01*
X09686Y-17525D01*
X09657Y-17519D01*
X09658Y-17421D01*
X09596Y-17359D01*
X09233Y-17359D01*
X09183Y-17359D01*
X09083Y-17359D01*
X09083Y-17259D01*
X09083Y-17209D01*
X09083Y-16946D01*
X09065Y-16928D01*
X09094Y-16900D01*
X09107Y-16866D01*
X09109Y-16868D01*
X09157Y-16888D01*
X09208Y-16888D01*
X09241Y-16888D01*
X09183Y-16946D01*
X09183Y-17259D01*
X09596Y-17259D01*
X09658Y-17197D01*
X09657Y-17085D01*
X09619Y-16993D01*
X09549Y-16923D01*
X09458Y-16885D01*
X09415Y-16885D01*
X09455Y-16869D01*
X09492Y-16833D01*
X09512Y-16785D01*
X09512Y-16734D01*
X09512Y-16284D01*
X09493Y-16237D01*
X09457Y-16200D01*
X09452Y-16197D01*
X09452Y-16154D01*
X09928Y-15678D01*
X11029Y-15678D01*
X11029Y-15709D01*
X11048Y-15756D01*
X11084Y-15793D01*
X11132Y-15813D01*
X11183Y-15813D01*
X11264Y-15813D01*
X11264Y-15980D01*
X11133Y-15980D01*
X11086Y-15999D01*
X11049Y-16035D01*
X11029Y-16083D01*
X11029Y-16134D01*
X11029Y-16384D01*
X11048Y-16431D01*
X11084Y-16468D01*
X11132Y-16488D01*
X11183Y-16488D01*
X11633Y-16488D01*
X11680Y-16469D01*
X11682Y-16466D01*
X11684Y-16468D01*
X11686Y-16469D01*
X11617Y-16498D01*
X11547Y-16568D01*
X11542Y-16580D01*
X11133Y-16580D01*
X11086Y-16599D01*
X11049Y-16635D01*
X11029Y-16683D01*
X11029Y-16734D01*
X11029Y-16984D01*
X11048Y-17031D01*
X11084Y-17068D01*
X11132Y-17088D01*
X11183Y-17088D01*
X11214Y-17088D01*
X11214Y-17276D01*
X11212Y-17277D01*
X11126Y-17362D01*
X11080Y-17473D01*
X11080Y-17594D01*
X11126Y-17705D01*
X11211Y-17791D01*
X11322Y-17837D01*
X11443Y-17837D01*
X11554Y-17791D01*
X11640Y-17706D01*
X11686Y-17595D01*
X11686Y-17474D01*
X11640Y-17363D01*
X11555Y-17277D01*
X11552Y-17275D01*
X11552Y-17105D01*
X11617Y-17170D01*
X11708Y-17208D01*
X11807Y-17208D01*
X11871Y-17209D01*
X11933Y-17147D01*
X11933Y-16934D01*
X11933Y-16884D01*
X11933Y-16784D01*
X12033Y-16784D01*
X12033Y-16884D01*
X12033Y-16934D01*
X12033Y-17147D01*
X12083Y-17197D01*
X12012Y-17227D01*
X11926Y-17312D01*
X11880Y-17423D01*
X11880Y-17544D01*
X11926Y-17655D01*
X12011Y-17741D01*
X12122Y-17787D01*
X12243Y-17787D01*
X12346Y-17744D01*
X12346Y-18153D01*
X12345Y-18158D01*
X12356Y-18211D01*
X12359Y-18223D01*
X12395Y-18278D01*
X12523Y-18405D01*
X12523Y-18630D01*
X12542Y-18677D01*
X12578Y-18714D01*
X12580Y-18715D01*
X12511Y-18744D01*
X12441Y-18814D01*
X12403Y-18906D01*
X12402Y-18968D01*
X12464Y-19030D01*
X12777Y-19030D01*
X12827Y-19030D01*
X12927Y-19030D01*
X12977Y-19030D01*
X13290Y-19030D01*
X13352Y-18968D01*
X13351Y-18906D01*
X13313Y-18814D01*
X13243Y-18744D01*
X13174Y-18715D01*
X13211Y-18679D01*
X13231Y-18631D01*
X13231Y-18580D01*
X13231Y-18481D01*
X13678Y-18481D01*
X13665Y-18513D01*
X13665Y-18564D01*
X13665Y-18740D01*
X13684Y-18787D01*
X13692Y-18796D01*
X13626Y-18862D01*
X13580Y-18973D01*
X13580Y-19094D01*
X13626Y-19205D01*
X13711Y-19291D01*
X13822Y-19337D01*
X13943Y-19337D01*
X14054Y-19291D01*
X14140Y-19206D01*
X14186Y-19095D01*
X14186Y-18974D01*
X14184Y-18971D01*
X14304Y-18851D01*
X14306Y-18850D01*
X14307Y-18850D01*
X14310Y-18844D01*
X14583Y-18844D01*
X13362Y-20065D01*
X13352Y-20065D01*
X13352Y-19192D01*
X13290Y-19130D01*
X12927Y-19130D01*
X12927Y-19393D01*
X12989Y-19455D01*
X13053Y-19454D01*
X13152Y-19454D01*
X13243Y-19416D01*
X13313Y-19346D01*
X13351Y-19254D01*
X13352Y-19192D01*
X13352Y-20065D01*
X13133Y-20065D01*
X13132Y-20065D01*
X13068Y-20078D01*
X13013Y-20114D01*
X13011Y-20116D01*
X12827Y-20300D01*
X12827Y-19393D01*
X12827Y-19130D01*
X12464Y-19130D01*
X12402Y-19192D01*
X12403Y-19254D01*
X12441Y-19346D01*
X12511Y-19416D01*
X12602Y-19454D01*
X12701Y-19454D01*
X12765Y-19455D01*
X12827Y-19393D01*
X12827Y-20300D01*
X12463Y-20664D01*
X12427Y-20719D01*
X12426Y-20720D01*
X12326Y-20621D01*
X12169Y-20555D01*
X11998Y-20555D01*
X11840Y-20620D01*
X11720Y-20741D01*
X11654Y-20898D01*
X11654Y-21069D01*
X11719Y-21227D01*
X11840Y-21347D01*
X11997Y-21413D01*
X12168Y-21413D01*
X12326Y-21348D01*
X12414Y-21259D01*
X12414Y-22279D01*
X12413Y-22284D01*
X12424Y-22337D01*
X12427Y-22349D01*
X12463Y-22404D01*
X13011Y-22951D01*
X13013Y-22954D01*
X13114Y-23054D01*
X13116Y-23057D01*
X13171Y-23093D01*
X13236Y-23106D01*
X13716Y-23106D01*
X13721Y-23107D01*
X13721Y-23106D01*
X13774Y-23095D01*
X13785Y-23093D01*
X13786Y-23093D01*
X13837Y-23059D01*
X13859Y-23068D01*
X13910Y-23068D01*
X14360Y-23068D01*
X14407Y-23049D01*
X14444Y-23013D01*
X14464Y-22965D01*
X14464Y-22914D01*
X14464Y-22664D01*
X14459Y-22653D01*
X14512Y-22653D01*
X14704Y-22844D01*
X14704Y-22959D01*
X14723Y-23006D01*
X14759Y-23043D01*
X14807Y-23063D01*
X14858Y-23063D01*
X15308Y-23063D01*
X15355Y-23044D01*
X15392Y-23008D01*
X15412Y-22960D01*
X15412Y-22909D01*
X15412Y-22659D01*
X15393Y-22612D01*
X15357Y-22575D01*
X15309Y-22555D01*
X15258Y-22555D01*
X14893Y-22555D01*
X14703Y-22364D01*
X14648Y-22328D01*
X14636Y-22325D01*
X14583Y-22314D01*
X14578Y-22315D01*
X13676Y-22315D01*
X13594Y-22281D01*
X13473Y-22281D01*
X13362Y-22327D01*
X13276Y-22412D01*
X13230Y-22523D01*
X13230Y-22644D01*
X13263Y-22724D01*
X13253Y-22714D01*
X13250Y-22712D01*
X12752Y-22213D01*
X12752Y-22049D01*
X12786Y-22132D01*
X12871Y-22218D01*
X12982Y-22264D01*
X13103Y-22264D01*
X13214Y-22218D01*
X13300Y-22133D01*
X13346Y-22022D01*
X13346Y-21910D01*
X13603Y-21653D01*
X15462Y-21653D01*
X15911Y-22101D01*
X15913Y-22104D01*
X15968Y-22140D01*
X15969Y-22140D01*
X15979Y-22142D01*
X16033Y-22154D01*
X16033Y-22153D01*
X16037Y-22153D01*
X16928Y-22153D01*
X16933Y-22154D01*
X16933Y-22153D01*
X16937Y-22153D01*
X17129Y-22153D01*
X17189Y-22212D01*
X17180Y-22222D01*
X17134Y-22333D01*
X17134Y-22454D01*
X17135Y-22456D01*
X17099Y-22492D01*
X16761Y-22492D01*
X16714Y-22511D01*
X16701Y-22523D01*
X16655Y-22477D01*
X16544Y-22431D01*
X16423Y-22431D01*
X16312Y-22477D01*
X16265Y-22523D01*
X16254Y-22512D01*
X16206Y-22492D01*
X16155Y-22492D01*
X15761Y-22492D01*
X15714Y-22511D01*
X15677Y-22547D01*
X15657Y-22595D01*
X15657Y-22646D01*
X15657Y-22922D01*
X15666Y-22946D01*
X15657Y-22970D01*
X15657Y-23021D01*
X15657Y-23297D01*
X15666Y-23321D01*
X15657Y-23345D01*
X15657Y-23396D01*
X15657Y-23672D01*
X15676Y-23719D01*
X15712Y-23756D01*
X15760Y-23776D01*
X15811Y-23776D01*
X15814Y-23776D01*
X15814Y-23860D01*
X15813Y-23865D01*
X15824Y-23918D01*
X15827Y-23930D01*
X15859Y-23979D01*
X15858Y-23982D01*
X15858Y-24103D01*
X15904Y-24214D01*
X15989Y-24300D01*
X16100Y-24346D01*
X16221Y-24346D01*
X16332Y-24300D01*
X16418Y-24215D01*
X16464Y-24104D01*
X16464Y-23983D01*
X16418Y-23872D01*
X16333Y-23786D01*
X16255Y-23753D01*
X16289Y-23721D01*
X16309Y-23673D01*
X16309Y-23622D01*
X16309Y-23346D01*
X16299Y-23321D01*
X16306Y-23303D01*
X16544Y-23303D01*
X16537Y-23322D01*
X16536Y-23397D01*
X16598Y-23459D01*
X16883Y-23459D01*
X16933Y-23459D01*
X17033Y-23459D01*
X17083Y-23459D01*
X17368Y-23459D01*
X17430Y-23397D01*
X17429Y-23322D01*
X17391Y-23230D01*
X17321Y-23160D01*
X17309Y-23154D01*
X17309Y-22971D01*
X17299Y-22946D01*
X17309Y-22923D01*
X17309Y-22872D01*
X17309Y-22761D01*
X17374Y-22696D01*
X17376Y-22697D01*
X17497Y-22697D01*
X17608Y-22651D01*
X17694Y-22566D01*
X17740Y-22455D01*
X17740Y-22334D01*
X17699Y-22235D01*
X17710Y-22240D01*
X17761Y-22240D01*
X17933Y-22240D01*
X17912Y-22261D01*
X17866Y-22372D01*
X17866Y-22493D01*
X17912Y-22604D01*
X17997Y-22690D01*
X18108Y-22736D01*
X18229Y-22736D01*
X18231Y-22735D01*
X18288Y-22791D01*
X18288Y-23320D01*
X18307Y-23367D01*
X18343Y-23404D01*
X18391Y-23424D01*
X18442Y-23424D01*
X18523Y-23424D01*
X18523Y-23563D01*
X18443Y-23597D01*
X18357Y-23682D01*
X18311Y-23793D01*
X18311Y-23914D01*
X18357Y-24025D01*
X18442Y-24111D01*
X18553Y-24157D01*
X18674Y-24157D01*
X18785Y-24111D01*
X18871Y-24026D01*
X18917Y-23915D01*
X18917Y-23794D01*
X18871Y-23683D01*
X18861Y-23672D01*
X18861Y-23424D01*
X18992Y-23424D01*
X19039Y-23405D01*
X19076Y-23369D01*
X19096Y-23321D01*
X19096Y-23270D01*
X19096Y-22720D01*
X19077Y-22673D01*
X19041Y-22636D01*
X18993Y-22616D01*
X18942Y-22616D01*
X18591Y-22616D01*
X18471Y-22495D01*
X18472Y-22494D01*
X18472Y-22373D01*
X18426Y-22262D01*
X18404Y-22240D01*
X18575Y-22240D01*
X18636Y-22300D01*
X18638Y-22303D01*
X18693Y-22339D01*
X18694Y-22339D01*
X18704Y-22341D01*
X18758Y-22353D01*
X18758Y-22352D01*
X18762Y-22352D01*
X18887Y-22352D01*
X18892Y-22353D01*
X18892Y-22352D01*
X18896Y-22352D01*
X19029Y-22352D01*
X19029Y-22373D01*
X19048Y-22420D01*
X19084Y-22457D01*
X19132Y-22477D01*
X19183Y-22477D01*
X19543Y-22477D01*
X19590Y-22458D01*
X19598Y-22450D01*
X19613Y-22486D01*
X19698Y-22572D01*
X19809Y-22618D01*
X19930Y-22618D01*
X20041Y-22572D01*
X20127Y-22487D01*
X20173Y-22376D01*
X20173Y-22255D01*
X20172Y-22252D01*
X20600Y-21823D01*
X20602Y-21822D01*
X20603Y-21822D01*
X20639Y-21767D01*
X20652Y-21703D01*
X20651Y-21702D01*
X20652Y-21702D01*
X20652Y-21691D01*
X20654Y-21691D01*
X20740Y-21606D01*
X20786Y-21495D01*
X20786Y-21374D01*
X20740Y-21263D01*
X20655Y-21177D01*
X20544Y-21131D01*
X20423Y-21131D01*
X20312Y-21177D01*
X20226Y-21262D01*
X20180Y-21373D01*
X20180Y-21494D01*
X20226Y-21605D01*
X20283Y-21662D01*
X19997Y-21947D01*
X19997Y-21574D01*
X19997Y-21523D01*
X19997Y-21163D01*
X19978Y-21116D01*
X19942Y-21079D01*
X19894Y-21059D01*
X19843Y-21059D01*
X19643Y-21059D01*
X19368Y-20783D01*
X19369Y-20782D01*
X19369Y-20661D01*
X19323Y-20550D01*
X19238Y-20464D01*
X19127Y-20418D01*
X19006Y-20418D01*
X18895Y-20464D01*
X18809Y-20549D01*
X18763Y-20660D01*
X18763Y-20781D01*
X18809Y-20892D01*
X18854Y-20938D01*
X18759Y-20939D01*
X18667Y-20977D01*
X18597Y-21047D01*
X18559Y-21138D01*
X18559Y-21237D01*
X18558Y-21256D01*
X18620Y-21318D01*
X18888Y-21318D01*
X18938Y-21318D01*
X19038Y-21318D01*
X19038Y-21418D01*
X19038Y-21468D01*
X19038Y-21736D01*
X19100Y-21798D01*
X19217Y-21797D01*
X19309Y-21759D01*
X19379Y-21689D01*
X19404Y-21627D01*
X19434Y-21657D01*
X19482Y-21677D01*
X19533Y-21677D01*
X19893Y-21677D01*
X19940Y-21658D01*
X19977Y-21622D01*
X19997Y-21574D01*
X19997Y-21947D01*
X19932Y-22012D01*
X19931Y-22012D01*
X19810Y-22012D01*
X19699Y-22058D01*
X19647Y-22109D01*
X19647Y-21963D01*
X19628Y-21916D01*
X19592Y-21879D01*
X19544Y-21859D01*
X19493Y-21859D01*
X19133Y-21859D01*
X19086Y-21878D01*
X19049Y-21914D01*
X19029Y-21962D01*
X19029Y-21999D01*
X18911Y-21999D01*
X18907Y-21998D01*
X18853Y-22009D01*
X18842Y-22012D01*
X18838Y-22014D01*
X18828Y-22014D01*
X18715Y-21900D01*
X18715Y-21778D01*
X18759Y-21797D01*
X18876Y-21798D01*
X18938Y-21736D01*
X18938Y-21418D01*
X18620Y-21418D01*
X18558Y-21480D01*
X18559Y-21499D01*
X18559Y-21532D01*
X18311Y-21532D01*
X18264Y-21551D01*
X18227Y-21587D01*
X18207Y-21635D01*
X18207Y-21686D01*
X18207Y-22130D01*
X18115Y-22130D01*
X18115Y-22086D01*
X18115Y-21636D01*
X18096Y-21589D01*
X18060Y-21552D01*
X18030Y-21539D01*
X18030Y-21413D01*
X18168Y-21413D01*
X18326Y-21348D01*
X18446Y-21227D01*
X18512Y-21070D01*
X18512Y-20899D01*
X18447Y-20741D01*
X18326Y-20621D01*
X18169Y-20555D01*
X17998Y-20555D01*
X17840Y-20620D01*
X17752Y-20708D01*
X17752Y-20704D01*
X18803Y-19653D01*
X18928Y-19653D01*
X18933Y-19654D01*
X18933Y-19653D01*
X18986Y-19642D01*
X18997Y-19640D01*
X18998Y-19640D01*
X19053Y-19604D01*
X19500Y-19155D01*
X19502Y-19154D01*
X19503Y-19154D01*
X19539Y-19099D01*
X19552Y-19034D01*
X19552Y-18583D01*
X19654Y-18541D01*
X19740Y-18456D01*
X19786Y-18345D01*
X19786Y-18224D01*
X19740Y-18113D01*
X19655Y-18027D01*
X19544Y-17981D01*
X19425Y-17981D01*
X19455Y-17969D01*
X19492Y-17933D01*
X19512Y-17885D01*
X19512Y-17834D01*
X19512Y-17284D01*
X19493Y-17237D01*
X19457Y-17200D01*
X19434Y-17190D01*
X19437Y-17185D01*
X19437Y-17134D01*
X19437Y-16737D01*
X19443Y-16737D01*
X19529Y-16701D01*
X19529Y-16734D01*
X19529Y-17184D01*
X19548Y-17231D01*
X19584Y-17268D01*
X19632Y-17288D01*
X19654Y-17288D01*
X19654Y-17334D01*
X19654Y-17884D01*
X19673Y-17931D01*
X19709Y-17968D01*
X19757Y-17988D01*
X19808Y-17988D01*
X20158Y-17988D01*
X20205Y-17969D01*
X20242Y-17933D01*
X20245Y-17924D01*
X20311Y-17991D01*
X20379Y-18019D01*
X20362Y-18027D01*
X20276Y-18112D01*
X20230Y-18223D01*
X20230Y-18344D01*
X20276Y-18455D01*
X20361Y-18541D01*
X20472Y-18587D01*
X20593Y-18587D01*
X20704Y-18541D01*
X20790Y-18456D01*
X20836Y-18345D01*
X20836Y-18224D01*
X20834Y-18221D01*
X20900Y-18155D01*
X20902Y-18154D01*
X20903Y-18154D01*
X20939Y-18099D01*
X20952Y-18034D01*
X20952Y-17488D01*
X20952Y-17484D01*
X20953Y-17484D01*
X20941Y-17431D01*
X21011Y-17501D01*
X21013Y-17504D01*
X21068Y-17540D01*
X21133Y-17553D01*
X21206Y-17553D01*
X21174Y-17585D01*
X21154Y-17633D01*
X21154Y-17684D01*
X21154Y-18234D01*
X21173Y-18281D01*
X21209Y-18318D01*
X21252Y-18336D01*
X21176Y-18412D01*
X21130Y-18523D01*
X21130Y-18644D01*
X21176Y-18755D01*
X21261Y-18841D01*
X21372Y-18887D01*
X21493Y-18887D01*
X21604Y-18841D01*
X21690Y-18756D01*
X21736Y-18645D01*
X21736Y-18524D01*
X21690Y-18413D01*
X21627Y-18349D01*
X21627Y-18338D01*
X21658Y-18338D01*
X21705Y-18319D01*
X21742Y-18283D01*
X21762Y-18235D01*
X21762Y-18184D01*
X21762Y-17634D01*
X21743Y-17587D01*
X21707Y-17550D01*
X21659Y-17530D01*
X21608Y-17530D01*
X21413Y-17530D01*
X21453Y-17504D01*
X21650Y-17305D01*
X21652Y-17304D01*
X21653Y-17304D01*
X21689Y-17249D01*
X21702Y-17185D01*
X21701Y-17184D01*
X21702Y-17184D01*
X21702Y-16932D01*
X21824Y-16932D01*
X21828Y-16930D01*
X21832Y-16932D01*
X21883Y-16932D01*
X22021Y-16932D01*
X22068Y-16913D01*
X22105Y-16877D01*
X22125Y-16829D01*
X22125Y-16778D01*
X22125Y-16650D01*
X22164Y-16650D01*
X22164Y-16638D01*
X22175Y-16649D01*
X22252Y-16649D01*
X22343Y-16611D01*
X22413Y-16541D01*
X22451Y-16449D01*
X22452Y-16427D01*
X22391Y-16366D01*
X22413Y-16344D01*
X22451Y-16252D01*
X22451Y-16235D01*
X22452Y-16235D01*
X22451Y-16232D01*
X22452Y-16230D01*
X22451Y-16229D01*
X22451Y-16213D01*
X22413Y-16121D01*
X22391Y-16099D01*
X22452Y-16038D01*
X22451Y-16016D01*
X22413Y-15924D01*
X22343Y-15854D01*
X22331Y-15848D01*
X22331Y-15843D01*
X22312Y-15796D01*
X22276Y-15759D01*
X22245Y-15746D01*
X22246Y-15715D01*
X22246Y-15491D01*
X22245Y-15416D01*
X22207Y-15324D01*
X22137Y-15254D01*
X22046Y-15216D01*
X22022Y-15216D01*
X21961Y-15277D01*
X21961Y-15553D01*
X22184Y-15553D01*
X22246Y-15491D01*
X22246Y-15715D01*
X22184Y-15653D01*
X22027Y-15653D01*
X21961Y-15653D01*
X21928Y-15653D01*
X21928Y-15440D01*
X21909Y-15393D01*
X21893Y-15376D01*
X21893Y-15277D01*
X21832Y-15216D01*
X21808Y-15216D01*
X21717Y-15254D01*
X21647Y-15324D01*
X21642Y-15336D01*
X21636Y-15336D01*
X21631Y-15337D01*
X21628Y-15336D01*
X21620Y-15336D01*
X21700Y-15255D01*
X21702Y-15254D01*
X21703Y-15254D01*
X21739Y-15199D01*
X21752Y-15134D01*
X21752Y-14634D01*
X21752Y-14484D01*
X21747Y-14459D01*
X21752Y-14434D01*
X21752Y-13873D01*
X21855Y-13976D01*
X22003Y-14037D01*
X22163Y-14037D01*
X22311Y-13976D01*
X22425Y-13862D01*
X22486Y-13714D01*
X22486Y-13554D01*
X22425Y-13406D01*
X22311Y-13292D01*
X22163Y-13231D01*
X22003Y-13231D01*
X21855Y-13292D01*
X21752Y-13395D01*
X21752Y-13234D01*
X21752Y-12854D01*
X21870Y-12736D01*
X21872Y-12737D01*
X21993Y-12737D01*
X22104Y-12691D01*
X22190Y-12606D01*
X22219Y-12535D01*
X23618Y-12537D01*
X23618Y-22324D01*
X23618Y-22324D01*
G37*
G54D46*
X23618Y-22324D02*
X23486Y-22324D01*
X23486Y-13714D01*
X23486Y-13554D01*
X23425Y-13406D01*
X23311Y-13292D01*
X23163Y-13231D01*
X23003Y-13231D01*
X22855Y-13292D01*
X22741Y-13406D01*
X22680Y-13554D01*
X22680Y-13714D01*
X22741Y-13862D01*
X22855Y-13976D01*
X23003Y-14037D01*
X23163Y-14037D01*
X23311Y-13976D01*
X23425Y-13862D01*
X23486Y-13714D01*
X23486Y-22324D01*
X22905Y-22327D01*
X22913Y-22230D01*
X22912Y-22227D01*
X22913Y-22227D01*
X22904Y-22151D01*
X22904Y-22148D01*
X22890Y-22106D01*
X22890Y-21024D01*
X22890Y-20944D01*
X22869Y-20838D01*
X22868Y-20837D01*
X22850Y-20795D01*
X22838Y-20765D01*
X22838Y-20764D01*
X22779Y-20677D01*
X22778Y-20675D01*
X22750Y-20647D01*
X22723Y-20620D01*
X22721Y-20619D01*
X22634Y-20560D01*
X22633Y-20559D01*
X22633Y-18046D01*
X22633Y-17822D01*
X22632Y-17708D01*
X22632Y-17609D01*
X22594Y-17518D01*
X22524Y-17448D01*
X22432Y-17410D01*
X22320Y-17409D01*
X22258Y-17471D01*
X22258Y-17884D01*
X22571Y-17884D01*
X22633Y-17822D01*
X22633Y-18046D01*
X22571Y-17984D01*
X22258Y-17984D01*
X22258Y-18397D01*
X22320Y-18459D01*
X22432Y-18458D01*
X22524Y-18420D01*
X22594Y-18350D01*
X22632Y-18259D01*
X22632Y-18160D01*
X22633Y-18046D01*
X22633Y-20559D01*
X22611Y-20551D01*
X22560Y-20529D01*
X22454Y-20508D01*
X22374Y-20508D01*
X22268Y-20529D01*
X22225Y-20547D01*
X22194Y-20560D01*
X22158Y-20584D01*
X22158Y-18397D01*
X22158Y-17984D01*
X22158Y-17884D01*
X22158Y-17471D01*
X22096Y-17409D01*
X21984Y-17410D01*
X21892Y-17448D01*
X21822Y-17518D01*
X21784Y-17609D01*
X21784Y-17708D01*
X21783Y-17822D01*
X21845Y-17884D01*
X22158Y-17884D01*
X22158Y-17984D01*
X21845Y-17984D01*
X21783Y-18046D01*
X21784Y-18160D01*
X21784Y-18259D01*
X21822Y-18350D01*
X21892Y-18420D01*
X21984Y-18458D01*
X22096Y-18459D01*
X22158Y-18397D01*
X22158Y-20584D01*
X22105Y-20620D01*
X22077Y-20647D01*
X22050Y-20675D01*
X21990Y-20764D01*
X21981Y-20786D01*
X21959Y-20838D01*
X21938Y-20944D01*
X21938Y-21024D01*
X21959Y-21130D01*
X21981Y-21181D01*
X21990Y-21204D01*
X22049Y-21291D01*
X22050Y-21293D01*
X22077Y-21320D01*
X22105Y-21348D01*
X22107Y-21349D01*
X22194Y-21408D01*
X22195Y-21408D01*
X22225Y-21420D01*
X22267Y-21438D01*
X22268Y-21439D01*
X22374Y-21460D01*
X22454Y-21460D01*
X22560Y-21439D01*
X22560Y-21438D01*
X22611Y-21416D01*
X22633Y-21408D01*
X22634Y-21408D01*
X22721Y-21349D01*
X22723Y-21348D01*
X22750Y-21320D01*
X22778Y-21293D01*
X22779Y-21291D01*
X22838Y-21204D01*
X22838Y-21203D01*
X22850Y-21173D01*
X22868Y-21131D01*
X22869Y-21130D01*
X22890Y-21024D01*
X22890Y-22106D01*
X22869Y-22045D01*
X22869Y-22043D01*
X22840Y-21993D01*
X22830Y-21975D01*
X22829Y-21974D01*
X22759Y-21890D01*
X22709Y-21851D01*
X22696Y-21841D01*
X22695Y-21840D01*
X22596Y-21789D01*
X22519Y-21768D01*
X22407Y-21759D01*
X22405Y-21759D01*
X22326Y-21768D01*
X22221Y-21803D01*
X22171Y-21831D01*
X22153Y-21842D01*
X22068Y-21913D01*
X22029Y-21963D01*
X22018Y-21977D01*
X21967Y-22076D01*
X21946Y-22153D01*
X21937Y-22265D01*
X21937Y-22266D01*
X21944Y-22331D01*
X20860Y-22336D01*
X18617Y-24569D01*
X17430Y-24571D01*
X17430Y-23621D01*
X17368Y-23559D01*
X17033Y-23559D01*
X17033Y-23835D01*
X17095Y-23897D01*
X17131Y-23896D01*
X17230Y-23896D01*
X17321Y-23858D01*
X17391Y-23788D01*
X17429Y-23696D01*
X17430Y-23621D01*
X17430Y-24571D01*
X16933Y-24572D01*
X16933Y-23835D01*
X16933Y-23559D01*
X16598Y-23559D01*
X16536Y-23621D01*
X16537Y-23696D01*
X16575Y-23788D01*
X16645Y-23858D01*
X16736Y-23896D01*
X16835Y-23896D01*
X16871Y-23897D01*
X16933Y-23835D01*
X16933Y-24572D01*
X15358Y-24576D01*
X15227Y-24445D01*
X15227Y-23663D01*
X15308Y-23663D01*
X15355Y-23644D01*
X15392Y-23608D01*
X15412Y-23560D01*
X15412Y-23509D01*
X15412Y-23259D01*
X15393Y-23212D01*
X15357Y-23175D01*
X15309Y-23155D01*
X15258Y-23155D01*
X14808Y-23155D01*
X14761Y-23174D01*
X14724Y-23210D01*
X14704Y-23258D01*
X14704Y-23309D01*
X14704Y-23559D01*
X14723Y-23606D01*
X14759Y-23643D01*
X14807Y-23663D01*
X14858Y-23663D01*
X14889Y-23663D01*
X14889Y-24511D01*
X14888Y-24516D01*
X14899Y-24569D01*
X14901Y-24577D01*
X14268Y-24579D01*
X14279Y-24528D01*
X14280Y-24528D01*
X14279Y-24523D01*
X14279Y-23668D01*
X14360Y-23668D01*
X14407Y-23649D01*
X14444Y-23613D01*
X14464Y-23565D01*
X14464Y-23514D01*
X14464Y-23264D01*
X14445Y-23217D01*
X14409Y-23180D01*
X14361Y-23160D01*
X14310Y-23160D01*
X13860Y-23160D01*
X13813Y-23179D01*
X13776Y-23215D01*
X13756Y-23263D01*
X13756Y-23314D01*
X13756Y-23564D01*
X13775Y-23611D01*
X13811Y-23648D01*
X13859Y-23668D01*
X13910Y-23668D01*
X13941Y-23668D01*
X13941Y-24457D01*
X13818Y-24580D01*
X12318Y-24584D01*
X10719Y-23110D01*
X11531Y-23110D01*
X11552Y-23131D01*
X11663Y-23177D01*
X11784Y-23177D01*
X11895Y-23131D01*
X11981Y-23046D01*
X12027Y-22935D01*
X12027Y-22814D01*
X11981Y-22703D01*
X11896Y-22617D01*
X11785Y-22571D01*
X11664Y-22571D01*
X11633Y-22583D01*
X11633Y-21096D01*
X11633Y-20872D01*
X11632Y-20733D01*
X11632Y-20634D01*
X11594Y-20543D01*
X11524Y-20473D01*
X11432Y-20435D01*
X11195Y-20434D01*
X11133Y-20496D01*
X11133Y-20934D01*
X11571Y-20934D01*
X11633Y-20872D01*
X11633Y-21096D01*
X11571Y-21034D01*
X11133Y-21034D01*
X11133Y-21472D01*
X11195Y-21534D01*
X11432Y-21533D01*
X11524Y-21495D01*
X11594Y-21425D01*
X11632Y-21334D01*
X11632Y-21235D01*
X11633Y-21096D01*
X11633Y-22583D01*
X11553Y-22617D01*
X11467Y-22702D01*
X11437Y-22772D01*
X11033Y-22772D01*
X11033Y-21472D01*
X11033Y-21034D01*
X11033Y-20934D01*
X11033Y-20496D01*
X10971Y-20434D01*
X10734Y-20435D01*
X10642Y-20473D01*
X10572Y-20543D01*
X10534Y-20634D01*
X10534Y-20733D01*
X10533Y-20872D01*
X10595Y-20934D01*
X11033Y-20934D01*
X11033Y-21034D01*
X10595Y-21034D01*
X10533Y-21096D01*
X10534Y-21235D01*
X10534Y-21334D01*
X10572Y-21425D01*
X10642Y-21495D01*
X10734Y-21533D01*
X10971Y-21534D01*
X11033Y-21472D01*
X11033Y-22772D01*
X10470Y-22772D01*
X10470Y-22641D01*
X10451Y-22594D01*
X10415Y-22557D01*
X10367Y-22537D01*
X10316Y-22537D01*
X10098Y-22537D01*
X09991Y-22438D01*
X07196Y-22445D01*
X07216Y-22400D01*
X07239Y-22285D01*
X07240Y-22285D01*
X07240Y-22206D01*
X07231Y-22154D01*
X07231Y-21011D01*
X07225Y-20903D01*
X07215Y-20868D01*
X07205Y-20825D01*
X07158Y-20728D01*
X07157Y-20727D01*
X07110Y-20664D01*
X07109Y-20663D01*
X07029Y-20592D01*
X07028Y-20591D01*
X07014Y-20583D01*
X06960Y-20551D01*
X06857Y-20515D01*
X06814Y-20509D01*
X06778Y-20504D01*
X06670Y-20510D01*
X06635Y-20519D01*
X06592Y-20530D01*
X06495Y-20577D01*
X06431Y-20625D01*
X06430Y-20625D01*
X06430Y-20626D01*
X06358Y-20707D01*
X06350Y-20721D01*
X06318Y-20775D01*
X06282Y-20878D01*
X06277Y-20917D01*
X06271Y-20956D01*
X06277Y-21065D01*
X06287Y-21103D01*
X06297Y-21142D01*
X06344Y-21240D01*
X06345Y-21241D01*
X06360Y-21261D01*
X06392Y-21303D01*
X06393Y-21305D01*
X06473Y-21376D01*
X06542Y-21417D01*
X06644Y-21453D01*
X06686Y-21458D01*
X06723Y-21464D01*
X06723Y-21463D01*
X06832Y-21458D01*
X06832Y-21457D01*
X06870Y-21447D01*
X06909Y-21438D01*
X06909Y-21437D01*
X07007Y-21391D01*
X07008Y-21390D01*
X07028Y-21375D01*
X07070Y-21343D01*
X07072Y-21342D01*
X07143Y-21262D01*
X07183Y-21193D01*
X07184Y-21193D01*
X07220Y-21091D01*
X07225Y-21045D01*
X07230Y-21012D01*
X07231Y-21011D01*
X07231Y-22154D01*
X07220Y-22092D01*
X07219Y-22091D01*
X07201Y-22047D01*
X07190Y-22018D01*
X07190Y-22017D01*
X07126Y-21919D01*
X07125Y-21918D01*
X07070Y-21862D01*
X07069Y-21861D01*
X06973Y-21795D01*
X06929Y-21777D01*
X06899Y-21764D01*
X06785Y-21740D01*
X06706Y-21740D01*
X06705Y-21740D01*
X06704Y-21740D01*
X06592Y-21760D01*
X06547Y-21778D01*
X06517Y-21790D01*
X06419Y-21854D01*
X06362Y-21910D01*
X06361Y-21910D01*
X06361Y-21911D01*
X06295Y-22007D01*
X06277Y-22050D01*
X06264Y-22081D01*
X06240Y-22195D01*
X06240Y-22233D01*
X06239Y-22273D01*
X06260Y-22388D01*
X06273Y-22419D01*
X06283Y-22447D01*
X05613Y-22449D01*
X05613Y-17426D01*
X05679Y-17492D01*
X05771Y-17530D01*
X05846Y-17531D01*
X05908Y-17469D01*
X05908Y-17184D01*
X05908Y-17134D01*
X05908Y-17034D01*
X05908Y-16984D01*
X05908Y-16699D01*
X05846Y-16637D01*
X05771Y-16638D01*
X05679Y-16676D01*
X05613Y-16742D01*
X05613Y-14724D01*
X05621Y-14685D01*
X05605Y-14607D01*
X05561Y-14541D01*
X05495Y-14497D01*
X05417Y-14481D01*
X05400Y-14481D01*
X05404Y-13970D01*
X05462Y-13932D01*
X05506Y-13866D01*
X05522Y-13788D01*
X05522Y-11724D01*
X05526Y-11734D01*
X05611Y-11820D01*
X05722Y-11866D01*
X05843Y-11866D01*
X05954Y-11820D01*
X06040Y-11735D01*
X06086Y-11624D01*
X06086Y-11503D01*
X06085Y-11500D01*
X06983Y-10602D01*
X07209Y-10602D01*
X07215Y-10616D01*
X07300Y-10702D01*
X07411Y-10748D01*
X07532Y-10748D01*
X07643Y-10702D01*
X07729Y-10617D01*
X07775Y-10506D01*
X07775Y-10385D01*
X07729Y-10274D01*
X07644Y-10188D01*
X07533Y-10142D01*
X07412Y-10142D01*
X07301Y-10188D01*
X07224Y-10264D01*
X06917Y-10264D01*
X06913Y-10263D01*
X06859Y-10274D01*
X06848Y-10277D01*
X06793Y-10313D01*
X06791Y-10315D01*
X05845Y-11260D01*
X05844Y-11260D01*
X05723Y-11260D01*
X05612Y-11306D01*
X05526Y-11391D01*
X05522Y-11400D01*
X05522Y-05563D01*
X05506Y-05485D01*
X05464Y-05422D01*
X05465Y-05203D01*
X05542Y-05188D01*
X05608Y-05144D01*
X05652Y-05078D01*
X05668Y-05000D01*
X05668Y-04425D01*
X06293Y-04424D01*
X06274Y-04472D01*
X06274Y-04654D01*
X06344Y-04822D01*
X06472Y-04951D01*
X06641Y-05021D01*
X06823Y-05021D01*
X06991Y-04951D01*
X07120Y-04823D01*
X07190Y-04654D01*
X07190Y-04472D01*
X07169Y-04423D01*
X08357Y-04422D01*
X08357Y-04423D01*
X08311Y-04534D01*
X08311Y-04655D01*
X08357Y-04766D01*
X08442Y-04852D01*
X08553Y-04898D01*
X08674Y-04898D01*
X08785Y-04852D01*
X08871Y-04767D01*
X08877Y-04751D01*
X09090Y-04751D01*
X09090Y-05000D01*
X09109Y-05047D01*
X09145Y-05084D01*
X09160Y-05090D01*
X09168Y-05129D01*
X09171Y-05141D01*
X09207Y-05196D01*
X09463Y-05451D01*
X09465Y-05454D01*
X09520Y-05490D01*
X09584Y-05503D01*
X09584Y-05502D01*
X09585Y-05503D01*
X09725Y-05503D01*
X09726Y-05505D01*
X09811Y-05591D01*
X09922Y-05637D01*
X10043Y-05637D01*
X10154Y-05591D01*
X10240Y-05506D01*
X10286Y-05395D01*
X10286Y-05274D01*
X10284Y-05271D01*
X10310Y-05245D01*
X10312Y-05244D01*
X10313Y-05244D01*
X10349Y-05189D01*
X10362Y-05125D01*
X10361Y-05124D01*
X10362Y-05124D01*
X10362Y-05089D01*
X10373Y-05085D01*
X10409Y-05049D01*
X10410Y-05049D01*
X10444Y-05084D01*
X10492Y-05104D01*
X10543Y-05104D01*
X10759Y-05104D01*
X10806Y-05085D01*
X10842Y-05049D01*
X10843Y-05049D01*
X10877Y-05084D01*
X10925Y-05104D01*
X10976Y-05104D01*
X11192Y-05104D01*
X11239Y-05085D01*
X11276Y-05049D01*
X11296Y-05001D01*
X11296Y-04950D01*
X11296Y-04418D01*
X12003Y-04417D01*
X12003Y-05000D01*
X12022Y-05047D01*
X12058Y-05084D01*
X12106Y-05104D01*
X12157Y-05104D01*
X12373Y-05104D01*
X12420Y-05085D01*
X12457Y-05049D01*
X12492Y-05084D01*
X12540Y-05104D01*
X12591Y-05104D01*
X12807Y-05104D01*
X12854Y-05085D01*
X12890Y-05049D01*
X12891Y-05049D01*
X12925Y-05084D01*
X12973Y-05104D01*
X13024Y-05104D01*
X13240Y-05104D01*
X13287Y-05085D01*
X13323Y-05049D01*
X13324Y-05049D01*
X13358Y-05084D01*
X13406Y-05104D01*
X13457Y-05104D01*
X13673Y-05104D01*
X13720Y-05085D01*
X13756Y-05049D01*
X13757Y-05049D01*
X13791Y-05084D01*
X13839Y-05104D01*
X13890Y-05104D01*
X14106Y-05104D01*
X14153Y-05085D01*
X14189Y-05049D01*
X14190Y-05049D01*
X14224Y-05084D01*
X14272Y-05104D01*
X14323Y-05104D01*
X14539Y-05104D01*
X14586Y-05085D01*
X14622Y-05049D01*
X14623Y-05049D01*
X14657Y-05084D01*
X14705Y-05104D01*
X14756Y-05104D01*
X14972Y-05104D01*
X15019Y-05085D01*
X15056Y-05049D01*
X15076Y-05001D01*
X15076Y-04950D01*
X15076Y-04413D01*
X16364Y-04412D01*
X16365Y-04520D01*
X16352Y-04541D01*
X16326Y-04665D01*
X16352Y-04789D01*
X16369Y-04815D01*
X16377Y-05489D01*
X16185Y-05296D01*
X16186Y-05295D01*
X16186Y-05174D01*
X16140Y-05063D01*
X16055Y-04977D01*
X15944Y-04931D01*
X15823Y-04931D01*
X15712Y-04977D01*
X15626Y-05062D01*
X15580Y-05173D01*
X15580Y-05294D01*
X15626Y-05405D01*
X15711Y-05491D01*
X15822Y-05537D01*
X15943Y-05537D01*
X15945Y-05536D01*
X16117Y-05708D01*
X16083Y-05708D01*
X15958Y-05733D01*
X15852Y-05803D01*
X15782Y-05909D01*
X15757Y-06034D01*
X15782Y-06159D01*
X15852Y-06265D01*
X15958Y-06335D01*
X16083Y-06360D01*
X16733Y-06360D01*
X16858Y-06335D01*
X16929Y-06288D01*
X16983Y-06288D01*
X17030Y-06269D01*
X17067Y-06233D01*
X17087Y-06185D01*
X17087Y-06134D01*
X17087Y-06099D01*
X17129Y-06099D01*
X17129Y-06259D01*
X17148Y-06306D01*
X17184Y-06343D01*
X17232Y-06363D01*
X17283Y-06363D01*
X17833Y-06363D01*
X17880Y-06344D01*
X17917Y-06308D01*
X17937Y-06260D01*
X17937Y-06209D01*
X17937Y-06106D01*
X17979Y-06106D01*
X17979Y-06259D01*
X17998Y-06306D01*
X18034Y-06343D01*
X18082Y-06363D01*
X18133Y-06363D01*
X18214Y-06363D01*
X18214Y-07637D01*
X18192Y-07628D01*
X18141Y-07628D01*
X17791Y-07628D01*
X17744Y-07647D01*
X17716Y-07674D01*
X17716Y-07625D01*
X17670Y-07514D01*
X17585Y-07428D01*
X17474Y-07382D01*
X17353Y-07382D01*
X17242Y-07428D01*
X17156Y-07513D01*
X17110Y-07624D01*
X17110Y-07745D01*
X17156Y-07856D01*
X17241Y-07942D01*
X17352Y-07988D01*
X17473Y-07988D01*
X17475Y-07986D01*
X17638Y-08149D01*
X17640Y-08152D01*
X17687Y-08182D01*
X17687Y-08332D01*
X17701Y-08368D01*
X17395Y-08061D01*
X17340Y-08025D01*
X17328Y-08022D01*
X17275Y-08011D01*
X17270Y-08012D01*
X17102Y-08012D01*
X17087Y-08015D01*
X12787Y-08015D01*
X12783Y-08014D01*
X12729Y-08025D01*
X12718Y-08028D01*
X12663Y-08064D01*
X12661Y-08066D01*
X12122Y-08605D01*
X12086Y-08660D01*
X12083Y-08671D01*
X12072Y-08725D01*
X12073Y-08729D01*
X12073Y-08878D01*
X12062Y-08883D01*
X12025Y-08919D01*
X12005Y-08967D01*
X12005Y-09018D01*
X12005Y-09804D01*
X12024Y-09851D01*
X12060Y-09888D01*
X12108Y-09908D01*
X12159Y-09908D01*
X12375Y-09908D01*
X12422Y-09889D01*
X12458Y-09853D01*
X12459Y-09853D01*
X12493Y-09888D01*
X12541Y-09908D01*
X12592Y-09908D01*
X12808Y-09908D01*
X12855Y-09889D01*
X12891Y-09853D01*
X12892Y-09853D01*
X12926Y-09888D01*
X12974Y-09908D01*
X13025Y-09908D01*
X13241Y-09908D01*
X13288Y-09889D01*
X13324Y-09853D01*
X13325Y-09853D01*
X13359Y-09888D01*
X13407Y-09908D01*
X13458Y-09908D01*
X13674Y-09908D01*
X13721Y-09889D01*
X13757Y-09853D01*
X13758Y-09853D01*
X13792Y-09888D01*
X13805Y-09893D01*
X13805Y-10122D01*
X13743Y-10184D01*
X13734Y-10180D01*
X13683Y-10180D01*
X13433Y-10180D01*
X13386Y-10199D01*
X13349Y-10235D01*
X13329Y-10283D01*
X13329Y-10334D01*
X13329Y-10784D01*
X13348Y-10831D01*
X13384Y-10868D01*
X13432Y-10888D01*
X13483Y-10888D01*
X13733Y-10888D01*
X13780Y-10869D01*
X13817Y-10833D01*
X13837Y-10785D01*
X13837Y-10734D01*
X13837Y-10569D01*
X14091Y-10314D01*
X14093Y-10313D01*
X14094Y-10313D01*
X14130Y-10258D01*
X14143Y-10193D01*
X14144Y-10193D01*
X14143Y-10188D01*
X14143Y-09893D01*
X14154Y-09889D01*
X14190Y-09853D01*
X14224Y-09888D01*
X14237Y-09893D01*
X14237Y-09997D01*
X14224Y-10010D01*
X14204Y-10058D01*
X14204Y-10109D01*
X14204Y-10909D01*
X14223Y-10956D01*
X14259Y-10993D01*
X14307Y-11013D01*
X14358Y-11013D01*
X14496Y-11013D01*
X14474Y-11035D01*
X14454Y-11083D01*
X14454Y-11134D01*
X14454Y-11215D01*
X14237Y-11215D01*
X14237Y-11134D01*
X14218Y-11087D01*
X14182Y-11050D01*
X14134Y-11030D01*
X14083Y-11030D01*
X13833Y-11030D01*
X13786Y-11049D01*
X13749Y-11085D01*
X13747Y-11087D01*
X13719Y-11018D01*
X13649Y-10948D01*
X13557Y-10910D01*
X13495Y-10909D01*
X13433Y-10971D01*
X13433Y-11284D01*
X13433Y-11334D01*
X13433Y-11434D01*
X13433Y-11484D01*
X13433Y-11797D01*
X13495Y-11859D01*
X13557Y-11858D01*
X13649Y-11820D01*
X13719Y-11750D01*
X13747Y-11680D01*
X13748Y-11681D01*
X13784Y-11718D01*
X13832Y-11738D01*
X13883Y-11738D01*
X14067Y-11738D01*
X14031Y-11825D01*
X14031Y-11946D01*
X14032Y-11948D01*
X13885Y-12095D01*
X13079Y-12095D01*
X13079Y-12093D01*
X13012Y-12025D01*
X13030Y-12019D01*
X13067Y-11983D01*
X13087Y-11935D01*
X13087Y-11884D01*
X13087Y-11790D01*
X13117Y-11820D01*
X13209Y-11858D01*
X13271Y-11859D01*
X13333Y-11797D01*
X13333Y-11484D01*
X13333Y-11434D01*
X13333Y-11334D01*
X13333Y-11284D01*
X13333Y-10971D01*
X13271Y-10909D01*
X13209Y-10910D01*
X13152Y-10933D01*
X13152Y-10880D01*
X13180Y-10869D01*
X13217Y-10833D01*
X13237Y-10785D01*
X13237Y-10734D01*
X13237Y-10284D01*
X13218Y-10237D01*
X13182Y-10200D01*
X13134Y-10180D01*
X13083Y-10180D01*
X12833Y-10180D01*
X12786Y-10199D01*
X12749Y-10235D01*
X12729Y-10283D01*
X12729Y-10334D01*
X12729Y-10784D01*
X12748Y-10831D01*
X12784Y-10868D01*
X12802Y-10875D01*
X12747Y-10930D01*
X12483Y-10930D01*
X12436Y-10949D01*
X12399Y-10985D01*
X12379Y-11033D01*
X12379Y-11084D01*
X12379Y-11334D01*
X12398Y-11381D01*
X12434Y-11418D01*
X12482Y-11438D01*
X12533Y-11438D01*
X12983Y-11438D01*
X13008Y-11427D01*
X13008Y-11484D01*
X13020Y-11484D01*
X13008Y-11496D01*
X13008Y-11540D01*
X12984Y-11530D01*
X12933Y-11530D01*
X12483Y-11530D01*
X12436Y-11549D01*
X12399Y-11585D01*
X12386Y-11615D01*
X12379Y-11615D01*
X12368Y-11587D01*
X12332Y-11550D01*
X12284Y-11530D01*
X12233Y-11530D01*
X11783Y-11530D01*
X11736Y-11549D01*
X11699Y-11585D01*
X11686Y-11615D01*
X11296Y-11615D01*
X11296Y-09805D01*
X11296Y-09754D01*
X11296Y-08968D01*
X11277Y-08921D01*
X11241Y-08884D01*
X11193Y-08864D01*
X11142Y-08864D01*
X10926Y-08864D01*
X10879Y-08883D01*
X10842Y-08918D01*
X10808Y-08884D01*
X10760Y-08864D01*
X10709Y-08864D01*
X10493Y-08864D01*
X10446Y-08883D01*
X10409Y-08918D01*
X10375Y-08884D01*
X10327Y-08864D01*
X10276Y-08864D01*
X10060Y-08864D01*
X10013Y-08883D01*
X09976Y-08918D01*
X09942Y-08884D01*
X09894Y-08864D01*
X09843Y-08864D01*
X09627Y-08864D01*
X09580Y-08883D01*
X09543Y-08918D01*
X09509Y-08884D01*
X09461Y-08864D01*
X09436Y-08864D01*
X09436Y-06495D01*
X09436Y-06374D01*
X09390Y-06263D01*
X09305Y-06177D01*
X09194Y-06131D01*
X09073Y-06131D01*
X08962Y-06177D01*
X08876Y-06262D01*
X08830Y-06373D01*
X08830Y-06494D01*
X08831Y-06496D01*
X08162Y-07165D01*
X07190Y-07165D01*
X07190Y-05654D01*
X07190Y-05472D01*
X07120Y-05304D01*
X06992Y-05175D01*
X06823Y-05105D01*
X06641Y-05105D01*
X06473Y-05175D01*
X06344Y-05303D01*
X06274Y-05472D01*
X06274Y-05654D01*
X06344Y-05822D01*
X06472Y-05951D01*
X06641Y-06021D01*
X06823Y-06021D01*
X06991Y-05951D01*
X07120Y-05823D01*
X07190Y-05654D01*
X07190Y-07165D01*
X07037Y-07165D01*
X07033Y-07164D01*
X06968Y-07178D01*
X06913Y-07214D01*
X06911Y-07216D01*
X06812Y-07315D01*
X06812Y-07199D01*
X06747Y-07041D01*
X06626Y-06921D01*
X06469Y-06855D01*
X06298Y-06855D01*
X06140Y-06920D01*
X06020Y-07041D01*
X05954Y-07198D01*
X05954Y-07369D01*
X06019Y-07527D01*
X06140Y-07647D01*
X06297Y-07713D01*
X06414Y-07713D01*
X06272Y-07855D01*
X06058Y-07855D01*
X06011Y-07874D01*
X05974Y-07910D01*
X05954Y-07958D01*
X05954Y-08009D01*
X05954Y-08609D01*
X05973Y-08656D01*
X06009Y-08693D01*
X06057Y-08713D01*
X06108Y-08713D01*
X06708Y-08713D01*
X06755Y-08694D01*
X06792Y-08658D01*
X06812Y-08610D01*
X06812Y-08559D01*
X06812Y-07959D01*
X06793Y-07912D01*
X06757Y-07875D01*
X06739Y-07867D01*
X07103Y-07503D01*
X08228Y-07503D01*
X08233Y-07504D01*
X08233Y-07503D01*
X08286Y-07492D01*
X08297Y-07490D01*
X08298Y-07490D01*
X08353Y-07454D01*
X09070Y-06736D01*
X09072Y-06737D01*
X09193Y-06737D01*
X09304Y-06691D01*
X09390Y-06606D01*
X09436Y-06495D01*
X09436Y-08864D01*
X09410Y-08864D01*
X09194Y-08864D01*
X09147Y-08883D01*
X09110Y-08919D01*
X09090Y-08967D01*
X09090Y-09018D01*
X09090Y-09804D01*
X09109Y-09851D01*
X09145Y-09888D01*
X09158Y-09893D01*
X09158Y-10055D01*
X09130Y-10123D01*
X09130Y-10244D01*
X09176Y-10355D01*
X09261Y-10441D01*
X09372Y-10487D01*
X09493Y-10487D01*
X09604Y-10441D01*
X09690Y-10356D01*
X09736Y-10245D01*
X09736Y-10124D01*
X09690Y-10013D01*
X09605Y-09927D01*
X09508Y-09887D01*
X09543Y-09853D01*
X09544Y-09853D01*
X09578Y-09888D01*
X09626Y-09908D01*
X09677Y-09908D01*
X09893Y-09908D01*
X09940Y-09889D01*
X09976Y-09853D01*
X09977Y-09853D01*
X10011Y-09888D01*
X10059Y-09908D01*
X10110Y-09908D01*
X10326Y-09908D01*
X10373Y-09889D01*
X10409Y-09853D01*
X10410Y-09853D01*
X10444Y-09888D01*
X10492Y-09908D01*
X10543Y-09908D01*
X10759Y-09908D01*
X10806Y-09889D01*
X10842Y-09853D01*
X10843Y-09853D01*
X10877Y-09888D01*
X10925Y-09908D01*
X10976Y-09908D01*
X11192Y-09908D01*
X11239Y-09889D01*
X11276Y-09853D01*
X11296Y-09805D01*
X11296Y-11615D01*
X08136Y-11615D01*
X08136Y-11524D01*
X08090Y-11413D01*
X08005Y-11327D01*
X07894Y-11281D01*
X07773Y-11281D01*
X07662Y-11327D01*
X07576Y-11412D01*
X07530Y-11523D01*
X07530Y-11644D01*
X07576Y-11755D01*
X07661Y-11841D01*
X07772Y-11887D01*
X07893Y-11887D01*
X07895Y-11885D01*
X07911Y-11901D01*
X07913Y-11904D01*
X07968Y-11940D01*
X08032Y-11953D01*
X08032Y-11952D01*
X08033Y-11953D01*
X11686Y-11953D01*
X11698Y-11981D01*
X11734Y-12018D01*
X11782Y-12038D01*
X11833Y-12038D01*
X12283Y-12038D01*
X12330Y-12019D01*
X12367Y-11983D01*
X12379Y-11953D01*
X12386Y-11953D01*
X12398Y-11981D01*
X12434Y-12018D01*
X12482Y-12038D01*
X12533Y-12038D01*
X12619Y-12038D01*
X12565Y-12092D01*
X12519Y-12203D01*
X12519Y-12324D01*
X12565Y-12435D01*
X12650Y-12521D01*
X12761Y-12567D01*
X12882Y-12567D01*
X12993Y-12521D01*
X13079Y-12436D01*
X13080Y-12433D01*
X13951Y-12433D01*
X13956Y-12434D01*
X13956Y-12433D01*
X14009Y-12422D01*
X14020Y-12420D01*
X14021Y-12420D01*
X14076Y-12384D01*
X14271Y-12188D01*
X14273Y-12189D01*
X14394Y-12189D01*
X14505Y-12143D01*
X14591Y-12058D01*
X14637Y-11947D01*
X14637Y-11826D01*
X14621Y-11788D01*
X14958Y-11788D01*
X15005Y-11769D01*
X15042Y-11733D01*
X15062Y-11685D01*
X15062Y-11634D01*
X15062Y-11084D01*
X15043Y-11037D01*
X15007Y-11000D01*
X14998Y-10996D01*
X15005Y-10994D01*
X15042Y-10958D01*
X15062Y-10910D01*
X15062Y-10859D01*
X15062Y-10059D01*
X15043Y-10012D01*
X15007Y-09975D01*
X14959Y-09955D01*
X14908Y-09955D01*
X14575Y-09955D01*
X14575Y-09893D01*
X14586Y-09889D01*
X14622Y-09853D01*
X14623Y-09853D01*
X14657Y-09888D01*
X14705Y-09908D01*
X14756Y-09908D01*
X14972Y-09908D01*
X15019Y-09889D01*
X15056Y-09853D01*
X15057Y-09848D01*
X15504Y-10294D01*
X15504Y-10909D01*
X15523Y-10956D01*
X15546Y-10980D01*
X15308Y-10980D01*
X15261Y-10999D01*
X15224Y-11035D01*
X15204Y-11083D01*
X15204Y-11134D01*
X15204Y-11684D01*
X15223Y-11731D01*
X15259Y-11768D01*
X15307Y-11788D01*
X15358Y-11788D01*
X15708Y-11788D01*
X15755Y-11769D01*
X15792Y-11733D01*
X15812Y-11685D01*
X15812Y-11634D01*
X15812Y-11553D01*
X15873Y-11553D01*
X15911Y-11591D01*
X16022Y-11637D01*
X16143Y-11637D01*
X16254Y-11591D01*
X16340Y-11506D01*
X16386Y-11395D01*
X16386Y-11274D01*
X16340Y-11163D01*
X16255Y-11077D01*
X16144Y-11031D01*
X16084Y-11031D01*
X16089Y-11024D01*
X16089Y-11023D01*
X16091Y-11013D01*
X16258Y-11013D01*
X16305Y-10994D01*
X16342Y-10958D01*
X16362Y-10910D01*
X16362Y-10859D01*
X16362Y-10499D01*
X16367Y-10505D01*
X16478Y-10551D01*
X16599Y-10551D01*
X16710Y-10505D01*
X16796Y-10420D01*
X16797Y-10417D01*
X16798Y-10417D01*
X16803Y-10418D01*
X16803Y-10417D01*
X16856Y-10406D01*
X16867Y-10404D01*
X16868Y-10404D01*
X16923Y-10368D01*
X17058Y-10232D01*
X17286Y-10232D01*
X17291Y-10233D01*
X17291Y-10232D01*
X17344Y-10221D01*
X17355Y-10219D01*
X17356Y-10219D01*
X17411Y-10183D01*
X17719Y-09873D01*
X17721Y-09872D01*
X17722Y-09872D01*
X17758Y-09817D01*
X17771Y-09753D01*
X17770Y-09752D01*
X17771Y-09752D01*
X17771Y-09465D01*
X17822Y-09487D01*
X17943Y-09487D01*
X18054Y-09441D01*
X18140Y-09356D01*
X18186Y-09245D01*
X18186Y-09124D01*
X18140Y-09013D01*
X18055Y-08927D01*
X17986Y-08898D01*
X18032Y-08853D01*
X18078Y-08742D01*
X18078Y-08621D01*
X18032Y-08510D01*
X17958Y-08436D01*
X18191Y-08436D01*
X18214Y-08426D01*
X18214Y-09784D01*
X18112Y-09827D01*
X18026Y-09912D01*
X17980Y-10023D01*
X17980Y-10144D01*
X18026Y-10255D01*
X18111Y-10341D01*
X18222Y-10387D01*
X18330Y-10387D01*
X18330Y-10444D01*
X18376Y-10555D01*
X18461Y-10641D01*
X18572Y-10687D01*
X18693Y-10687D01*
X18804Y-10641D01*
X18890Y-10556D01*
X18936Y-10445D01*
X18936Y-10324D01*
X18921Y-10288D01*
X18926Y-10260D01*
X18927Y-10259D01*
X18926Y-10254D01*
X18926Y-08436D01*
X18941Y-08436D01*
X18988Y-08417D01*
X19025Y-08381D01*
X19045Y-08333D01*
X19045Y-08282D01*
X19045Y-07732D01*
X19026Y-07685D01*
X18990Y-07648D01*
X18942Y-07628D01*
X18891Y-07628D01*
X18552Y-07628D01*
X18552Y-06363D01*
X18683Y-06363D01*
X18730Y-06344D01*
X18767Y-06308D01*
X18787Y-06260D01*
X18787Y-06228D01*
X18962Y-06228D01*
X18963Y-06230D01*
X19048Y-06316D01*
X19159Y-06362D01*
X19221Y-06362D01*
X19221Y-06369D01*
X19283Y-06431D01*
X19596Y-06431D01*
X19646Y-06431D01*
X19746Y-06431D01*
X19746Y-06531D01*
X19746Y-06581D01*
X19746Y-06794D01*
X19808Y-06856D01*
X19872Y-06855D01*
X19971Y-06855D01*
X20062Y-06817D01*
X20104Y-06774D01*
X20122Y-06819D01*
X20158Y-06856D01*
X20206Y-06876D01*
X20257Y-06876D01*
X20398Y-06876D01*
X20398Y-07511D01*
X20753Y-07508D01*
X20753Y-08131D01*
X20772Y-08178D01*
X20808Y-08215D01*
X20856Y-08235D01*
X20907Y-08235D01*
X21467Y-08235D01*
X21483Y-12534D01*
X21593Y-12534D01*
X21463Y-12664D01*
X21427Y-12719D01*
X21424Y-12730D01*
X21413Y-12784D01*
X21414Y-12788D01*
X21414Y-13234D01*
X21414Y-13395D01*
X21311Y-13292D01*
X21252Y-13267D01*
X21252Y-11640D01*
X21275Y-11585D01*
X21275Y-11464D01*
X21229Y-11353D01*
X21144Y-11267D01*
X21033Y-11221D01*
X20912Y-11221D01*
X20801Y-11267D01*
X20752Y-11315D01*
X20752Y-10888D01*
X20752Y-10884D01*
X20753Y-10884D01*
X20741Y-10830D01*
X20739Y-10820D01*
X20739Y-10819D01*
X20703Y-10764D01*
X20700Y-10762D01*
X20145Y-10206D01*
X20145Y-07553D01*
X20145Y-07432D01*
X20099Y-07321D01*
X20014Y-07235D01*
X19903Y-07189D01*
X19782Y-07189D01*
X19671Y-07235D01*
X19646Y-07259D01*
X19646Y-06794D01*
X19646Y-06531D01*
X19283Y-06531D01*
X19221Y-06593D01*
X19222Y-06655D01*
X19260Y-06747D01*
X19330Y-06817D01*
X19421Y-06855D01*
X19520Y-06855D01*
X19584Y-06856D01*
X19646Y-06794D01*
X19646Y-07259D01*
X19585Y-07320D01*
X19539Y-07431D01*
X19539Y-07552D01*
X19540Y-07554D01*
X19234Y-07860D01*
X19198Y-07915D01*
X19195Y-07926D01*
X19184Y-07980D01*
X19185Y-07984D01*
X19185Y-08116D01*
X19183Y-08117D01*
X19097Y-08202D01*
X19051Y-08313D01*
X19051Y-08434D01*
X19097Y-08545D01*
X19182Y-08631D01*
X19293Y-08677D01*
X19414Y-08677D01*
X19525Y-08631D01*
X19611Y-08546D01*
X19657Y-08435D01*
X19657Y-08314D01*
X19611Y-08203D01*
X19526Y-08117D01*
X19523Y-08115D01*
X19523Y-08050D01*
X19779Y-07794D01*
X19781Y-07795D01*
X19902Y-07795D01*
X20013Y-07749D01*
X20099Y-07664D01*
X20145Y-07553D01*
X20145Y-10206D01*
X19685Y-09746D01*
X19686Y-09745D01*
X19686Y-09624D01*
X19640Y-09513D01*
X19555Y-09427D01*
X19444Y-09381D01*
X19323Y-09381D01*
X19212Y-09427D01*
X19126Y-09512D01*
X19080Y-09623D01*
X19080Y-09744D01*
X19126Y-09855D01*
X19211Y-09941D01*
X19322Y-09987D01*
X19443Y-09987D01*
X19445Y-09986D01*
X20414Y-10954D01*
X20414Y-13395D01*
X20311Y-13292D01*
X20252Y-13267D01*
X20252Y-11828D01*
X20252Y-11824D01*
X20253Y-11824D01*
X20243Y-11781D01*
X20255Y-11754D01*
X20255Y-11633D01*
X20209Y-11522D01*
X20124Y-11436D01*
X20013Y-11390D01*
X19892Y-11390D01*
X19781Y-11436D01*
X19695Y-11521D01*
X19649Y-11632D01*
X19649Y-11753D01*
X19695Y-11864D01*
X19780Y-11950D01*
X19891Y-11996D01*
X19914Y-11996D01*
X19914Y-13267D01*
X19855Y-13292D01*
X19741Y-13406D01*
X19680Y-13554D01*
X19680Y-13714D01*
X19741Y-13862D01*
X19855Y-13976D01*
X20003Y-14037D01*
X20163Y-14037D01*
X20311Y-13976D01*
X20414Y-13873D01*
X20414Y-13913D01*
X20363Y-13964D01*
X20327Y-14019D01*
X20324Y-14030D01*
X20313Y-14084D01*
X20314Y-14088D01*
X20314Y-15576D01*
X20312Y-15577D01*
X20226Y-15662D01*
X20180Y-15773D01*
X20180Y-15894D01*
X20226Y-16005D01*
X20311Y-16091D01*
X20422Y-16137D01*
X20543Y-16137D01*
X20617Y-16106D01*
X20735Y-16106D01*
X20735Y-16228D01*
X20736Y-16232D01*
X20735Y-16236D01*
X20735Y-16287D01*
X20735Y-16425D01*
X20754Y-16472D01*
X20790Y-16509D01*
X20838Y-16529D01*
X20889Y-16529D01*
X20941Y-16529D01*
X20941Y-16552D01*
X20941Y-16828D01*
X20960Y-16875D01*
X20986Y-16901D01*
X20976Y-16912D01*
X20953Y-16965D01*
X19608Y-15619D01*
X19608Y-13746D01*
X19608Y-13522D01*
X19607Y-13408D01*
X19607Y-13309D01*
X19569Y-13218D01*
X19499Y-13148D01*
X19407Y-13110D01*
X19195Y-13109D01*
X19133Y-13171D01*
X19133Y-13584D01*
X19546Y-13584D01*
X19608Y-13522D01*
X19608Y-13746D01*
X19546Y-13684D01*
X19133Y-13684D01*
X19133Y-14097D01*
X19195Y-14159D01*
X19407Y-14158D01*
X19499Y-14120D01*
X19569Y-14050D01*
X19607Y-13959D01*
X19607Y-13860D01*
X19608Y-13746D01*
X19608Y-15619D01*
X19253Y-15264D01*
X19198Y-15228D01*
X19186Y-15225D01*
X19133Y-15214D01*
X19128Y-15215D01*
X18187Y-15215D01*
X18183Y-15214D01*
X18129Y-15225D01*
X18118Y-15228D01*
X18063Y-15264D01*
X18061Y-15266D01*
X17392Y-15935D01*
X17392Y-15656D01*
X17400Y-15647D01*
X17402Y-15646D01*
X17403Y-15646D01*
X17439Y-15591D01*
X17452Y-15527D01*
X17451Y-15526D01*
X17452Y-15526D01*
X17452Y-14817D01*
X17467Y-14811D01*
X17559Y-14719D01*
X17609Y-14600D01*
X17609Y-14470D01*
X17560Y-14350D01*
X17468Y-14258D01*
X17452Y-14251D01*
X17452Y-14188D01*
X17452Y-14184D01*
X17453Y-14184D01*
X17441Y-14130D01*
X17439Y-14120D01*
X17439Y-14119D01*
X17431Y-14106D01*
X17436Y-14095D01*
X17436Y-13974D01*
X17390Y-13863D01*
X17305Y-13777D01*
X17247Y-13753D01*
X17462Y-13753D01*
X17930Y-14221D01*
X17930Y-14223D01*
X17930Y-14344D01*
X17976Y-14455D01*
X18061Y-14541D01*
X18172Y-14587D01*
X18293Y-14587D01*
X18404Y-14541D01*
X18490Y-14456D01*
X18536Y-14345D01*
X18536Y-14224D01*
X18490Y-14113D01*
X18465Y-14088D01*
X18533Y-14088D01*
X18580Y-14069D01*
X18598Y-14051D01*
X18667Y-14120D01*
X18759Y-14158D01*
X18971Y-14159D01*
X19033Y-14097D01*
X19033Y-13734D01*
X19033Y-13684D01*
X19033Y-13584D01*
X19033Y-13534D01*
X19033Y-13171D01*
X18971Y-13109D01*
X18759Y-13110D01*
X18757Y-13110D01*
X18757Y-13060D01*
X18719Y-12968D01*
X18649Y-12898D01*
X18558Y-12860D01*
X18459Y-12860D01*
X18395Y-12859D01*
X18333Y-12921D01*
X18333Y-13134D01*
X18333Y-13184D01*
X18333Y-13284D01*
X18233Y-13284D01*
X18233Y-13184D01*
X18233Y-12921D01*
X18171Y-12859D01*
X18107Y-12860D01*
X18008Y-12860D01*
X17917Y-12898D01*
X17847Y-12968D01*
X17809Y-13060D01*
X17808Y-13122D01*
X17870Y-13184D01*
X18233Y-13184D01*
X18233Y-13284D01*
X18183Y-13284D01*
X17870Y-13284D01*
X17808Y-13346D01*
X17809Y-13408D01*
X17847Y-13500D01*
X17917Y-13570D01*
X17986Y-13598D01*
X17986Y-13599D01*
X17949Y-13635D01*
X17929Y-13683D01*
X17929Y-13734D01*
X17929Y-13740D01*
X17653Y-13464D01*
X17598Y-13428D01*
X17586Y-13425D01*
X17533Y-13414D01*
X17528Y-13415D01*
X17430Y-13415D01*
X17440Y-13406D01*
X17486Y-13295D01*
X17486Y-13174D01*
X17440Y-13063D01*
X17355Y-12977D01*
X17244Y-12931D01*
X17123Y-12931D01*
X17012Y-12977D01*
X16926Y-13062D01*
X16880Y-13173D01*
X16880Y-13294D01*
X16926Y-13405D01*
X16935Y-13415D01*
X16552Y-13415D01*
X16552Y-13204D01*
X18025Y-11730D01*
X18034Y-11750D01*
X18119Y-11836D01*
X18230Y-11882D01*
X18351Y-11882D01*
X18462Y-11836D01*
X18548Y-11751D01*
X18549Y-11748D01*
X18985Y-11748D01*
X19053Y-11776D01*
X19174Y-11776D01*
X19285Y-11730D01*
X19371Y-11645D01*
X19417Y-11534D01*
X19417Y-11413D01*
X19410Y-11397D01*
X19501Y-11360D01*
X19587Y-11275D01*
X19633Y-11164D01*
X19633Y-11043D01*
X19587Y-10932D01*
X19502Y-10846D01*
X19391Y-10800D01*
X19270Y-10800D01*
X19159Y-10846D01*
X19073Y-10931D01*
X19071Y-10934D01*
X18598Y-10934D01*
X18530Y-10865D01*
X18419Y-10819D01*
X18298Y-10819D01*
X18187Y-10865D01*
X18136Y-10915D01*
X18136Y-10874D01*
X18090Y-10763D01*
X18005Y-10677D01*
X17894Y-10631D01*
X17773Y-10631D01*
X17662Y-10677D01*
X17576Y-10762D01*
X17550Y-10823D01*
X17505Y-10777D01*
X17394Y-10731D01*
X17273Y-10731D01*
X17162Y-10777D01*
X17076Y-10862D01*
X17030Y-10973D01*
X17030Y-11094D01*
X17031Y-11096D01*
X14944Y-13182D01*
X14906Y-13190D01*
X14851Y-13226D01*
X14815Y-13281D01*
X14802Y-13346D01*
X14802Y-14475D01*
X14694Y-14431D01*
X14573Y-14431D01*
X14462Y-14477D01*
X14376Y-14562D01*
X14374Y-14565D01*
X13403Y-14565D01*
X13202Y-14363D01*
X13202Y-14134D01*
X13189Y-14069D01*
X13153Y-14014D01*
X13150Y-14012D01*
X13025Y-13887D01*
X13093Y-13887D01*
X13204Y-13841D01*
X13290Y-13756D01*
X13336Y-13645D01*
X13336Y-13524D01*
X13290Y-13413D01*
X13205Y-13327D01*
X13094Y-13281D01*
X12973Y-13281D01*
X12936Y-13296D01*
X12936Y-12945D01*
X12936Y-12824D01*
X12890Y-12713D01*
X12805Y-12627D01*
X12694Y-12581D01*
X12573Y-12581D01*
X12570Y-12582D01*
X12387Y-12398D01*
X12387Y-12234D01*
X12368Y-12187D01*
X12332Y-12150D01*
X12284Y-12130D01*
X12233Y-12130D01*
X11783Y-12130D01*
X11736Y-12149D01*
X11699Y-12185D01*
X11679Y-12233D01*
X11679Y-12284D01*
X11679Y-12534D01*
X11698Y-12581D01*
X11734Y-12618D01*
X11782Y-12638D01*
X11833Y-12638D01*
X11914Y-12638D01*
X11914Y-12780D01*
X11833Y-12780D01*
X11786Y-12799D01*
X11749Y-12835D01*
X11729Y-12883D01*
X11729Y-12934D01*
X11729Y-13184D01*
X11748Y-13231D01*
X11784Y-13268D01*
X11832Y-13288D01*
X11883Y-13288D01*
X12333Y-13288D01*
X12380Y-13269D01*
X12417Y-13233D01*
X12437Y-13185D01*
X12437Y-13134D01*
X12437Y-13116D01*
X12461Y-13141D01*
X12572Y-13187D01*
X12693Y-13187D01*
X12804Y-13141D01*
X12890Y-13056D01*
X12936Y-12945D01*
X12936Y-13296D01*
X12862Y-13327D01*
X12776Y-13412D01*
X12754Y-13465D01*
X12429Y-13465D01*
X12418Y-13437D01*
X12382Y-13400D01*
X12334Y-13380D01*
X12283Y-13380D01*
X11833Y-13380D01*
X11786Y-13399D01*
X11749Y-13435D01*
X11729Y-13483D01*
X11729Y-13534D01*
X11729Y-13784D01*
X11731Y-13790D01*
X11637Y-13790D01*
X11637Y-13759D01*
X11618Y-13712D01*
X11582Y-13675D01*
X11534Y-13655D01*
X11483Y-13655D01*
X11168Y-13655D01*
X11026Y-13513D01*
X11533Y-13513D01*
X11580Y-13494D01*
X11617Y-13458D01*
X11637Y-13410D01*
X11637Y-13359D01*
X11637Y-13009D01*
X11618Y-12962D01*
X11582Y-12925D01*
X11534Y-12905D01*
X11483Y-12905D01*
X10933Y-12905D01*
X10886Y-12924D01*
X10849Y-12960D01*
X10829Y-13008D01*
X10829Y-13040D01*
X10828Y-13040D01*
X10676Y-12888D01*
X10708Y-12888D01*
X10755Y-12869D01*
X10792Y-12833D01*
X10812Y-12785D01*
X10812Y-12734D01*
X10812Y-12653D01*
X10854Y-12653D01*
X10876Y-12705D01*
X10961Y-12791D01*
X11072Y-12837D01*
X11193Y-12837D01*
X11304Y-12791D01*
X11390Y-12706D01*
X11436Y-12595D01*
X11436Y-12474D01*
X11390Y-12363D01*
X11305Y-12277D01*
X11194Y-12231D01*
X11073Y-12231D01*
X10962Y-12277D01*
X10923Y-12315D01*
X10812Y-12315D01*
X10812Y-12184D01*
X10793Y-12137D01*
X10757Y-12100D01*
X10709Y-12080D01*
X10658Y-12080D01*
X10308Y-12080D01*
X10261Y-12099D01*
X10224Y-12135D01*
X10204Y-12183D01*
X10204Y-12234D01*
X10204Y-12690D01*
X10062Y-12548D01*
X10062Y-12184D01*
X10043Y-12137D01*
X10007Y-12100D01*
X09959Y-12080D01*
X09908Y-12080D01*
X09558Y-12080D01*
X09511Y-12099D01*
X09474Y-12135D01*
X09454Y-12183D01*
X09454Y-12234D01*
X09454Y-12315D01*
X09337Y-12315D01*
X09337Y-12234D01*
X09318Y-12187D01*
X09282Y-12150D01*
X09234Y-12130D01*
X09183Y-12130D01*
X08933Y-12130D01*
X08886Y-12149D01*
X08849Y-12185D01*
X08829Y-12233D01*
X08829Y-12284D01*
X08829Y-12734D01*
X08848Y-12781D01*
X08884Y-12818D01*
X08932Y-12838D01*
X08983Y-12838D01*
X09233Y-12838D01*
X09280Y-12819D01*
X09317Y-12783D01*
X09337Y-12735D01*
X09337Y-12684D01*
X09337Y-12653D01*
X09454Y-12653D01*
X09454Y-12784D01*
X09473Y-12831D01*
X09509Y-12868D01*
X09557Y-12888D01*
X09608Y-12888D01*
X09922Y-12888D01*
X10136Y-13101D01*
X10138Y-13104D01*
X10193Y-13140D01*
X10194Y-13140D01*
X10204Y-13142D01*
X10258Y-13154D01*
X10258Y-13153D01*
X10262Y-13153D01*
X10462Y-13153D01*
X10636Y-13326D01*
X10638Y-13329D01*
X10693Y-13365D01*
X10694Y-13365D01*
X10704Y-13367D01*
X10758Y-13379D01*
X10758Y-13378D01*
X10762Y-13378D01*
X10829Y-13378D01*
X10829Y-13409D01*
X10831Y-13415D01*
X10587Y-13415D01*
X10587Y-13334D01*
X10568Y-13287D01*
X10532Y-13250D01*
X10484Y-13230D01*
X10433Y-13230D01*
X10183Y-13230D01*
X10136Y-13249D01*
X10099Y-13285D01*
X10079Y-13333D01*
X10079Y-13384D01*
X10079Y-13834D01*
X10098Y-13881D01*
X10114Y-13897D01*
X10114Y-14097D01*
X10111Y-14099D01*
X10074Y-14135D01*
X10054Y-14183D01*
X10054Y-14234D01*
X10054Y-14684D01*
X10073Y-14731D01*
X10109Y-14768D01*
X10157Y-14788D01*
X10208Y-14788D01*
X10408Y-14788D01*
X10455Y-14769D01*
X10492Y-14733D01*
X10512Y-14685D01*
X10512Y-14634D01*
X10512Y-14184D01*
X10493Y-14137D01*
X10457Y-14100D01*
X10452Y-14097D01*
X10452Y-13938D01*
X10483Y-13938D01*
X10530Y-13919D01*
X10567Y-13883D01*
X10587Y-13835D01*
X10587Y-13784D01*
X10587Y-13753D01*
X10787Y-13753D01*
X10829Y-13794D01*
X10829Y-13809D01*
X10829Y-14159D01*
X10848Y-14206D01*
X10884Y-14243D01*
X10932Y-14263D01*
X10983Y-14263D01*
X11533Y-14263D01*
X11580Y-14244D01*
X11617Y-14208D01*
X11637Y-14160D01*
X11637Y-14128D01*
X12460Y-14128D01*
X12426Y-14162D01*
X12380Y-14273D01*
X12380Y-14394D01*
X12380Y-14396D01*
X12336Y-14441D01*
X12336Y-14374D01*
X12290Y-14263D01*
X12205Y-14177D01*
X12094Y-14131D01*
X11973Y-14131D01*
X11862Y-14177D01*
X11776Y-14262D01*
X11730Y-14373D01*
X11730Y-14455D01*
X11683Y-14455D01*
X11133Y-14455D01*
X11086Y-14474D01*
X11049Y-14510D01*
X11029Y-14558D01*
X11029Y-14609D01*
X11029Y-14959D01*
X11048Y-15006D01*
X11084Y-15043D01*
X11132Y-15063D01*
X11183Y-15063D01*
X11733Y-15063D01*
X11780Y-15044D01*
X11817Y-15008D01*
X11837Y-14960D01*
X11837Y-14909D01*
X11837Y-14869D01*
X11970Y-14736D01*
X11972Y-14737D01*
X12093Y-14737D01*
X12204Y-14691D01*
X12214Y-14681D01*
X12214Y-15980D01*
X12183Y-15980D01*
X11733Y-15980D01*
X11686Y-15999D01*
X11683Y-16001D01*
X11682Y-16000D01*
X11634Y-15980D01*
X11602Y-15980D01*
X11602Y-15813D01*
X11733Y-15813D01*
X11780Y-15794D01*
X11817Y-15758D01*
X11837Y-15710D01*
X11837Y-15659D01*
X11837Y-15309D01*
X11818Y-15262D01*
X11782Y-15225D01*
X11734Y-15205D01*
X11683Y-15205D01*
X11133Y-15205D01*
X11086Y-15224D01*
X11049Y-15260D01*
X11029Y-15308D01*
X11029Y-15340D01*
X10012Y-15340D01*
X10012Y-14685D01*
X10012Y-14634D01*
X10012Y-14184D01*
X09993Y-14137D01*
X09957Y-14100D01*
X09909Y-14080D01*
X09902Y-14080D01*
X09902Y-13930D01*
X09930Y-13919D01*
X09967Y-13883D01*
X09987Y-13835D01*
X09987Y-13784D01*
X09987Y-13334D01*
X09968Y-13287D01*
X09932Y-13250D01*
X09884Y-13230D01*
X09833Y-13230D01*
X09583Y-13230D01*
X09536Y-13249D01*
X09499Y-13285D01*
X09479Y-13333D01*
X09479Y-13384D01*
X09479Y-13415D01*
X09426Y-13415D01*
X09344Y-13381D01*
X09223Y-13381D01*
X09136Y-13417D01*
X09136Y-13245D01*
X09136Y-13124D01*
X09090Y-13013D01*
X09005Y-12927D01*
X08894Y-12881D01*
X08773Y-12881D01*
X08726Y-12900D01*
X08652Y-12846D01*
X08652Y-12830D01*
X08680Y-12819D01*
X08717Y-12783D01*
X08737Y-12735D01*
X08737Y-12684D01*
X08737Y-12234D01*
X08718Y-12187D01*
X08682Y-12150D01*
X08634Y-12130D01*
X08583Y-12130D01*
X08333Y-12130D01*
X08286Y-12149D01*
X08249Y-12185D01*
X08229Y-12233D01*
X08229Y-12284D01*
X08229Y-12315D01*
X08187Y-12315D01*
X08187Y-12234D01*
X08168Y-12187D01*
X08132Y-12150D01*
X08084Y-12130D01*
X08033Y-12130D01*
X07783Y-12130D01*
X07736Y-12149D01*
X07699Y-12185D01*
X07679Y-12233D01*
X07679Y-12284D01*
X07679Y-12734D01*
X07698Y-12781D01*
X07734Y-12818D01*
X07782Y-12838D01*
X07833Y-12838D01*
X08083Y-12838D01*
X08130Y-12819D01*
X08167Y-12783D01*
X08187Y-12735D01*
X08187Y-12684D01*
X08187Y-12653D01*
X08229Y-12653D01*
X08229Y-12734D01*
X08248Y-12781D01*
X08284Y-12818D01*
X08314Y-12830D01*
X08314Y-12934D01*
X08316Y-12946D01*
X08316Y-12962D01*
X08323Y-12982D01*
X08327Y-12999D01*
X08333Y-13009D01*
X08339Y-13023D01*
X08351Y-13036D01*
X08363Y-13054D01*
X08376Y-13062D01*
X08385Y-13072D01*
X08530Y-13175D01*
X08530Y-13244D01*
X08576Y-13355D01*
X08661Y-13441D01*
X08772Y-13487D01*
X08893Y-13487D01*
X09004Y-13441D01*
X09090Y-13356D01*
X09136Y-13245D01*
X09136Y-13417D01*
X09112Y-13427D01*
X09026Y-13512D01*
X08986Y-13608D01*
X08955Y-13577D01*
X08844Y-13531D01*
X08723Y-13531D01*
X08612Y-13577D01*
X08526Y-13662D01*
X08480Y-13773D01*
X08480Y-13894D01*
X08526Y-14005D01*
X08611Y-14091D01*
X08614Y-14092D01*
X08614Y-14097D01*
X08611Y-14099D01*
X08574Y-14135D01*
X08554Y-14183D01*
X08554Y-14234D01*
X08554Y-14265D01*
X08512Y-14265D01*
X08512Y-14184D01*
X08493Y-14137D01*
X08457Y-14100D01*
X08412Y-14081D01*
X08412Y-13735D01*
X08412Y-13684D01*
X08412Y-13134D01*
X08393Y-13087D01*
X08357Y-13050D01*
X08309Y-13030D01*
X08258Y-13030D01*
X07943Y-13030D01*
X07587Y-12673D01*
X07587Y-12234D01*
X07568Y-12187D01*
X07532Y-12150D01*
X07484Y-12130D01*
X07433Y-12130D01*
X07183Y-12130D01*
X07136Y-12149D01*
X07099Y-12185D01*
X07079Y-12233D01*
X07079Y-12284D01*
X07079Y-12640D01*
X07037Y-12598D01*
X07037Y-12559D01*
X07037Y-12209D01*
X07018Y-12162D01*
X06982Y-12125D01*
X06934Y-12105D01*
X06883Y-12105D01*
X06333Y-12105D01*
X06286Y-12124D01*
X06249Y-12160D01*
X06229Y-12208D01*
X06229Y-12259D01*
X06229Y-12609D01*
X06248Y-12656D01*
X06284Y-12693D01*
X06332Y-12713D01*
X06383Y-12713D01*
X06672Y-12713D01*
X06814Y-12855D01*
X06333Y-12855D01*
X06286Y-12874D01*
X06249Y-12910D01*
X06229Y-12958D01*
X06229Y-13009D01*
X06229Y-13359D01*
X06248Y-13406D01*
X06284Y-13443D01*
X06289Y-13445D01*
X06212Y-13477D01*
X06126Y-13562D01*
X06080Y-13673D01*
X06080Y-13794D01*
X06126Y-13905D01*
X06211Y-13991D01*
X06305Y-14030D01*
X05983Y-14030D01*
X05936Y-14049D01*
X05899Y-14085D01*
X05879Y-14133D01*
X05879Y-14184D01*
X05879Y-14434D01*
X05898Y-14481D01*
X05934Y-14518D01*
X05982Y-14538D01*
X06033Y-14538D01*
X06483Y-14538D01*
X06530Y-14519D01*
X06537Y-14511D01*
X06576Y-14605D01*
X06661Y-14691D01*
X06772Y-14737D01*
X06893Y-14737D01*
X07004Y-14691D01*
X07054Y-14641D01*
X07054Y-14684D01*
X07073Y-14731D01*
X07109Y-14768D01*
X07157Y-14788D01*
X07208Y-14788D01*
X07408Y-14788D01*
X07455Y-14769D01*
X07492Y-14733D01*
X07512Y-14685D01*
X07512Y-14634D01*
X07512Y-14184D01*
X07493Y-14137D01*
X07457Y-14100D01*
X07409Y-14080D01*
X07358Y-14080D01*
X07158Y-14080D01*
X07111Y-14099D01*
X07074Y-14135D01*
X07054Y-14183D01*
X07054Y-14226D01*
X07005Y-14177D01*
X06898Y-14132D01*
X07193Y-13838D01*
X07208Y-13838D01*
X07558Y-13838D01*
X07605Y-13819D01*
X07614Y-13810D01*
X07614Y-14097D01*
X07611Y-14099D01*
X07574Y-14135D01*
X07554Y-14183D01*
X07554Y-14234D01*
X07554Y-14684D01*
X07573Y-14731D01*
X07609Y-14768D01*
X07657Y-14788D01*
X07708Y-14788D01*
X07908Y-14788D01*
X07955Y-14769D01*
X07992Y-14733D01*
X08012Y-14685D01*
X08012Y-14634D01*
X08012Y-14184D01*
X07993Y-14137D01*
X07957Y-14100D01*
X07952Y-14097D01*
X07952Y-13838D01*
X07958Y-13838D01*
X08308Y-13838D01*
X08355Y-13819D01*
X08392Y-13783D01*
X08412Y-13735D01*
X08412Y-14081D01*
X08409Y-14080D01*
X08358Y-14080D01*
X08158Y-14080D01*
X08111Y-14099D01*
X08074Y-14135D01*
X08054Y-14183D01*
X08054Y-14234D01*
X08054Y-14684D01*
X08073Y-14731D01*
X08109Y-14768D01*
X08157Y-14788D01*
X08208Y-14788D01*
X08408Y-14788D01*
X08455Y-14769D01*
X08492Y-14733D01*
X08512Y-14685D01*
X08512Y-14634D01*
X08512Y-14603D01*
X08554Y-14603D01*
X08554Y-14684D01*
X08573Y-14731D01*
X08609Y-14768D01*
X08657Y-14788D01*
X08708Y-14788D01*
X08908Y-14788D01*
X08955Y-14769D01*
X08992Y-14733D01*
X09012Y-14685D01*
X09012Y-14634D01*
X09012Y-14603D01*
X09054Y-14603D01*
X09054Y-14684D01*
X09073Y-14731D01*
X09109Y-14768D01*
X09157Y-14788D01*
X09208Y-14788D01*
X09408Y-14788D01*
X09455Y-14769D01*
X09492Y-14733D01*
X09512Y-14685D01*
X09512Y-14634D01*
X09512Y-14184D01*
X09493Y-14137D01*
X09457Y-14100D01*
X09409Y-14080D01*
X09358Y-14080D01*
X09158Y-14080D01*
X09111Y-14099D01*
X09074Y-14135D01*
X09054Y-14183D01*
X09054Y-14234D01*
X09054Y-14265D01*
X09012Y-14265D01*
X09012Y-14184D01*
X08993Y-14137D01*
X08957Y-14100D01*
X08952Y-14097D01*
X08952Y-14091D01*
X08954Y-14091D01*
X09040Y-14006D01*
X09079Y-13909D01*
X09111Y-13941D01*
X09222Y-13987D01*
X09343Y-13987D01*
X09454Y-13941D01*
X09506Y-13889D01*
X09534Y-13918D01*
X09564Y-13930D01*
X09564Y-14159D01*
X09554Y-14183D01*
X09554Y-14234D01*
X09554Y-14684D01*
X09573Y-14731D01*
X09609Y-14768D01*
X09657Y-14788D01*
X09708Y-14788D01*
X09908Y-14788D01*
X09955Y-14769D01*
X09992Y-14733D01*
X10012Y-14685D01*
X10012Y-15340D01*
X09862Y-15340D01*
X09858Y-15339D01*
X09804Y-15350D01*
X09793Y-15353D01*
X09738Y-15389D01*
X09736Y-15391D01*
X09163Y-15964D01*
X09127Y-16019D01*
X09124Y-16030D01*
X09113Y-16084D01*
X09114Y-16088D01*
X09114Y-16197D01*
X09111Y-16199D01*
X09108Y-16201D01*
X09094Y-16168D01*
X09024Y-16098D01*
X08932Y-16060D01*
X08895Y-16059D01*
X08833Y-16121D01*
X08833Y-16434D01*
X08833Y-16484D01*
X08833Y-16584D01*
X08733Y-16584D01*
X08733Y-16484D01*
X08733Y-16434D01*
X08733Y-16121D01*
X08671Y-16059D01*
X08634Y-16060D01*
X08542Y-16098D01*
X08472Y-16168D01*
X08458Y-16201D01*
X08457Y-16200D01*
X08409Y-16180D01*
X08358Y-16180D01*
X08158Y-16180D01*
X08111Y-16199D01*
X08074Y-16235D01*
X08054Y-16283D01*
X08054Y-16334D01*
X08054Y-16784D01*
X08064Y-16808D01*
X08064Y-17005D01*
X07933Y-17005D01*
X07886Y-17024D01*
X07849Y-17060D01*
X07829Y-17108D01*
X07829Y-17159D01*
X07829Y-17509D01*
X07848Y-17556D01*
X07884Y-17593D01*
X07932Y-17613D01*
X07983Y-17613D01*
X08297Y-17613D01*
X08439Y-17755D01*
X07951Y-17755D01*
X07939Y-17694D01*
X07903Y-17639D01*
X07900Y-17637D01*
X07737Y-17473D01*
X07737Y-17459D01*
X07737Y-17144D01*
X07900Y-16980D01*
X07902Y-16979D01*
X07903Y-16979D01*
X07939Y-16924D01*
X07949Y-16871D01*
X07955Y-16869D01*
X07992Y-16833D01*
X08012Y-16785D01*
X08012Y-16734D01*
X08012Y-16284D01*
X07993Y-16237D01*
X07957Y-16200D01*
X07915Y-16182D01*
X07914Y-16182D01*
X07903Y-16164D01*
X07900Y-16162D01*
X07303Y-15564D01*
X07248Y-15528D01*
X07236Y-15525D01*
X07183Y-15514D01*
X07178Y-15515D01*
X06846Y-15515D01*
X06904Y-15491D01*
X06990Y-15406D01*
X07036Y-15295D01*
X07036Y-15174D01*
X06990Y-15063D01*
X06905Y-14977D01*
X06794Y-14931D01*
X06673Y-14931D01*
X06670Y-14932D01*
X06587Y-14848D01*
X06587Y-14734D01*
X06568Y-14687D01*
X06532Y-14650D01*
X06484Y-14630D01*
X06433Y-14630D01*
X05983Y-14630D01*
X05936Y-14649D01*
X05899Y-14685D01*
X05879Y-14733D01*
X05879Y-14784D01*
X05879Y-15034D01*
X05898Y-15081D01*
X05934Y-15118D01*
X05982Y-15138D01*
X06033Y-15138D01*
X06397Y-15138D01*
X06430Y-15171D01*
X06430Y-15173D01*
X06430Y-15294D01*
X06476Y-15405D01*
X06512Y-15441D01*
X06484Y-15430D01*
X06433Y-15430D01*
X05983Y-15430D01*
X05936Y-15449D01*
X05899Y-15485D01*
X05879Y-15533D01*
X05879Y-15584D01*
X05879Y-15834D01*
X05898Y-15881D01*
X05934Y-15918D01*
X05982Y-15938D01*
X06033Y-15938D01*
X06483Y-15938D01*
X06530Y-15919D01*
X06567Y-15883D01*
X06579Y-15853D01*
X07112Y-15853D01*
X07554Y-16294D01*
X07554Y-16334D01*
X07554Y-16784D01*
X07572Y-16830D01*
X07512Y-16890D01*
X07512Y-16785D01*
X07512Y-16734D01*
X07512Y-16284D01*
X07493Y-16237D01*
X07457Y-16200D01*
X07409Y-16180D01*
X07358Y-16180D01*
X07158Y-16180D01*
X07111Y-16199D01*
X07086Y-16223D01*
X07086Y-16124D01*
X07040Y-16013D01*
X06955Y-15927D01*
X06844Y-15881D01*
X06723Y-15881D01*
X06612Y-15927D01*
X06526Y-16012D01*
X06513Y-16042D01*
X06484Y-16030D01*
X06433Y-16030D01*
X05983Y-16030D01*
X05936Y-16049D01*
X05899Y-16085D01*
X05879Y-16133D01*
X05879Y-16184D01*
X05879Y-16434D01*
X05898Y-16481D01*
X05934Y-16518D01*
X05982Y-16538D01*
X06033Y-16538D01*
X06247Y-16538D01*
X06361Y-16651D01*
X06363Y-16654D01*
X06418Y-16690D01*
X06483Y-16703D01*
X07054Y-16703D01*
X07054Y-16784D01*
X07073Y-16831D01*
X07109Y-16868D01*
X07157Y-16888D01*
X07208Y-16888D01*
X07408Y-16888D01*
X07455Y-16869D01*
X07492Y-16833D01*
X07512Y-16785D01*
X07512Y-16890D01*
X07397Y-17005D01*
X07033Y-17005D01*
X06986Y-17024D01*
X06975Y-17034D01*
X06975Y-16862D01*
X06956Y-16815D01*
X06920Y-16778D01*
X06872Y-16758D01*
X06821Y-16758D01*
X06545Y-16758D01*
X06498Y-16777D01*
X06461Y-16813D01*
X06441Y-16861D01*
X06441Y-16912D01*
X06441Y-17306D01*
X06460Y-17353D01*
X06496Y-17390D01*
X06533Y-17405D01*
X06476Y-17462D01*
X06430Y-17573D01*
X06430Y-17694D01*
X06456Y-17758D01*
X06446Y-17758D01*
X06346Y-17758D01*
X06346Y-17196D01*
X06346Y-16972D01*
X06345Y-16936D01*
X06345Y-16837D01*
X06307Y-16746D01*
X06237Y-16676D01*
X06145Y-16638D01*
X06070Y-16637D01*
X06008Y-16699D01*
X06008Y-17034D01*
X06284Y-17034D01*
X06346Y-16972D01*
X06346Y-17196D01*
X06284Y-17134D01*
X06008Y-17134D01*
X06008Y-17469D01*
X06070Y-17531D01*
X06145Y-17530D01*
X06237Y-17492D01*
X06307Y-17422D01*
X06345Y-17331D01*
X06345Y-17232D01*
X06346Y-17196D01*
X06346Y-17758D01*
X06170Y-17758D01*
X06123Y-17777D01*
X06086Y-17813D01*
X06066Y-17861D01*
X06066Y-17912D01*
X06066Y-18306D01*
X06085Y-18353D01*
X06121Y-18390D01*
X06164Y-18407D01*
X06164Y-18617D01*
X06105Y-18642D01*
X05991Y-18756D01*
X05930Y-18904D01*
X05930Y-19064D01*
X05991Y-19212D01*
X06105Y-19326D01*
X06253Y-19387D01*
X06413Y-19387D01*
X06472Y-19362D01*
X06941Y-19831D01*
X06941Y-19956D01*
X06960Y-20003D01*
X06996Y-20040D01*
X07044Y-20060D01*
X07095Y-20060D01*
X07371Y-20060D01*
X07418Y-20041D01*
X07455Y-20005D01*
X07475Y-19957D01*
X07475Y-19906D01*
X07475Y-19903D01*
X07691Y-19903D01*
X07691Y-19956D01*
X07710Y-20003D01*
X07746Y-20040D01*
X07794Y-20060D01*
X07845Y-20060D01*
X08121Y-20060D01*
X08168Y-20041D01*
X08205Y-20005D01*
X08225Y-19957D01*
X08225Y-19906D01*
X08225Y-19903D01*
X08229Y-19903D01*
X08229Y-19909D01*
X08248Y-19956D01*
X08284Y-19993D01*
X08332Y-20013D01*
X08383Y-20013D01*
X08933Y-20013D01*
X08980Y-19994D01*
X09017Y-19958D01*
X09037Y-19910D01*
X09037Y-19895D01*
X09121Y-19930D01*
X09196Y-19931D01*
X09258Y-19869D01*
X09258Y-19584D01*
X09258Y-19534D01*
X09258Y-19434D01*
X09358Y-19434D01*
X09358Y-19534D01*
X09358Y-19584D01*
X09358Y-19869D01*
X09420Y-19931D01*
X09495Y-19930D01*
X09514Y-19922D01*
X09514Y-20160D01*
X09473Y-20177D01*
X09436Y-20213D01*
X09416Y-20261D01*
X09416Y-20290D01*
X09037Y-20290D01*
X09037Y-20259D01*
X09018Y-20212D01*
X08982Y-20175D01*
X08934Y-20155D01*
X08883Y-20155D01*
X08333Y-20155D01*
X08286Y-20174D01*
X08249Y-20210D01*
X08229Y-20258D01*
X08229Y-20290D01*
X07858Y-20290D01*
X07857Y-20290D01*
X07793Y-20303D01*
X07738Y-20339D01*
X07736Y-20341D01*
X07669Y-20408D01*
X07420Y-20408D01*
X07373Y-20427D01*
X07369Y-20430D01*
X06803Y-19864D01*
X06748Y-19828D01*
X06737Y-19825D01*
X06737Y-19684D01*
X06718Y-19637D01*
X06682Y-19600D01*
X06634Y-19580D01*
X06583Y-19580D01*
X06033Y-19580D01*
X05986Y-19599D01*
X05949Y-19635D01*
X05929Y-19683D01*
X05929Y-19734D01*
X05929Y-20284D01*
X05948Y-20331D01*
X05984Y-20368D01*
X06032Y-20388D01*
X06083Y-20388D01*
X06633Y-20388D01*
X06680Y-20369D01*
X06717Y-20333D01*
X06737Y-20285D01*
X06737Y-20277D01*
X07311Y-20851D01*
X07313Y-20854D01*
X07316Y-20855D01*
X07316Y-20956D01*
X07335Y-21003D01*
X07371Y-21040D01*
X07419Y-21060D01*
X07470Y-21060D01*
X07746Y-21060D01*
X07793Y-21041D01*
X07830Y-21005D01*
X07850Y-20957D01*
X07850Y-20906D01*
X07850Y-20706D01*
X07928Y-20628D01*
X08229Y-20628D01*
X08229Y-20659D01*
X08248Y-20706D01*
X08284Y-20743D01*
X08332Y-20763D01*
X08383Y-20763D01*
X08933Y-20763D01*
X08980Y-20744D01*
X09017Y-20708D01*
X09037Y-20660D01*
X09037Y-20628D01*
X09416Y-20628D01*
X09416Y-20706D01*
X09435Y-20753D01*
X09471Y-20790D01*
X09519Y-20810D01*
X09570Y-20810D01*
X09846Y-20810D01*
X09893Y-20791D01*
X09930Y-20755D01*
X09950Y-20707D01*
X09950Y-20656D01*
X09950Y-20262D01*
X09931Y-20215D01*
X09895Y-20178D01*
X09852Y-20160D01*
X09852Y-19792D01*
X09894Y-19810D01*
X09945Y-19810D01*
X10221Y-19810D01*
X10268Y-19791D01*
X10305Y-19755D01*
X10325Y-19707D01*
X10325Y-19656D01*
X10325Y-19653D01*
X10326Y-19655D01*
X10411Y-19741D01*
X10522Y-19787D01*
X10643Y-19787D01*
X10754Y-19741D01*
X10840Y-19656D01*
X10886Y-19545D01*
X10886Y-19424D01*
X10840Y-19313D01*
X10755Y-19227D01*
X10644Y-19181D01*
X10523Y-19181D01*
X10412Y-19227D01*
X10326Y-19312D01*
X10325Y-19314D01*
X10325Y-19262D01*
X10306Y-19215D01*
X10270Y-19178D01*
X10222Y-19158D01*
X10171Y-19158D01*
X09895Y-19158D01*
X09851Y-19175D01*
X09841Y-19130D01*
X09839Y-19120D01*
X09839Y-19119D01*
X09803Y-19064D01*
X09800Y-19062D01*
X09437Y-18698D01*
X09437Y-18434D01*
X09418Y-18387D01*
X09394Y-18363D01*
X09433Y-18363D01*
X09480Y-18344D01*
X09480Y-18444D01*
X09526Y-18555D01*
X09611Y-18641D01*
X09722Y-18687D01*
X09843Y-18687D01*
X09954Y-18641D01*
X10040Y-18556D01*
X10086Y-18445D01*
X10086Y-18324D01*
X10040Y-18213D01*
X09955Y-18127D01*
X09844Y-18081D01*
X09723Y-18081D01*
X09720Y-18082D01*
X09578Y-17939D01*
X09537Y-17912D01*
X09537Y-17859D01*
X09534Y-17853D01*
X09562Y-17853D01*
X09711Y-18001D01*
X09713Y-18004D01*
X09768Y-18040D01*
X09832Y-18053D01*
X09832Y-18052D01*
X09833Y-18053D01*
X10086Y-18053D01*
X10098Y-18081D01*
X10134Y-18118D01*
X10182Y-18138D01*
X10233Y-18138D01*
X10683Y-18138D01*
X10730Y-18119D01*
X10767Y-18083D01*
X10787Y-18035D01*
X10787Y-17984D01*
X10787Y-17734D01*
X10787Y-17435D01*
X10787Y-17384D01*
X10787Y-17134D01*
X10768Y-17087D01*
X10732Y-17050D01*
X10684Y-17030D01*
X10633Y-17030D01*
X10602Y-17030D01*
X10602Y-16988D01*
X10602Y-16984D01*
X10603Y-16984D01*
X10591Y-16930D01*
X10589Y-16920D01*
X10589Y-16919D01*
X10553Y-16864D01*
X10550Y-16862D01*
X10500Y-16812D01*
X10512Y-16785D01*
X10512Y-16734D01*
X10512Y-16284D01*
X10493Y-16237D01*
X10457Y-16200D01*
X10409Y-16180D01*
X10358Y-16180D01*
X10158Y-16180D01*
X10111Y-16199D01*
X10074Y-16235D01*
X10054Y-16283D01*
X10054Y-16334D01*
X10054Y-16784D01*
X10073Y-16831D01*
X10109Y-16868D01*
X10121Y-16873D01*
X10124Y-16885D01*
X10012Y-16773D01*
X10012Y-16734D01*
X10012Y-16284D01*
X09993Y-16237D01*
X09957Y-16200D01*
X09909Y-16180D01*
X09858Y-16180D01*
X09658Y-16180D01*
X09611Y-16199D01*
X09574Y-16235D01*
X09554Y-16283D01*
X09554Y-16334D01*
X09554Y-16784D01*
X09573Y-16831D01*
X09609Y-16868D01*
X09650Y-16885D01*
X09651Y-16885D01*
X09663Y-16904D01*
X10079Y-17319D01*
X10079Y-17434D01*
X10098Y-17481D01*
X10134Y-17518D01*
X10182Y-17538D01*
X10233Y-17538D01*
X10683Y-17538D01*
X10730Y-17519D01*
X10767Y-17483D01*
X10787Y-17435D01*
X10787Y-17734D01*
X10768Y-17687D01*
X10732Y-17650D01*
X10684Y-17630D01*
X10633Y-17630D01*
X10183Y-17630D01*
X10136Y-17649D01*
X10099Y-17685D01*
X10086Y-17715D01*
X09903Y-17715D01*
X09753Y-17564D01*
X09698Y-17528D01*
X09686Y-17525D01*
X09657Y-17519D01*
X09658Y-17421D01*
X09596Y-17359D01*
X09233Y-17359D01*
X09183Y-17359D01*
X09083Y-17359D01*
X09083Y-17259D01*
X09083Y-17209D01*
X09083Y-16946D01*
X09065Y-16928D01*
X09094Y-16900D01*
X09107Y-16866D01*
X09109Y-16868D01*
X09157Y-16888D01*
X09208Y-16888D01*
X09241Y-16888D01*
X09183Y-16946D01*
X09183Y-17259D01*
X09596Y-17259D01*
X09658Y-17197D01*
X09657Y-17085D01*
X09619Y-16993D01*
X09549Y-16923D01*
X09458Y-16885D01*
X09415Y-16885D01*
X09455Y-16869D01*
X09492Y-16833D01*
X09512Y-16785D01*
X09512Y-16734D01*
X09512Y-16284D01*
X09493Y-16237D01*
X09457Y-16200D01*
X09452Y-16197D01*
X09452Y-16154D01*
X09928Y-15678D01*
X11029Y-15678D01*
X11029Y-15709D01*
X11048Y-15756D01*
X11084Y-15793D01*
X11132Y-15813D01*
X11183Y-15813D01*
X11264Y-15813D01*
X11264Y-15980D01*
X11133Y-15980D01*
X11086Y-15999D01*
X11049Y-16035D01*
X11029Y-16083D01*
X11029Y-16134D01*
X11029Y-16384D01*
X11048Y-16431D01*
X11084Y-16468D01*
X11132Y-16488D01*
X11183Y-16488D01*
X11633Y-16488D01*
X11680Y-16469D01*
X11682Y-16466D01*
X11684Y-16468D01*
X11686Y-16469D01*
X11617Y-16498D01*
X11547Y-16568D01*
X11542Y-16580D01*
X11133Y-16580D01*
X11086Y-16599D01*
X11049Y-16635D01*
X11029Y-16683D01*
X11029Y-16734D01*
X11029Y-16984D01*
X11048Y-17031D01*
X11084Y-17068D01*
X11132Y-17088D01*
X11183Y-17088D01*
X11214Y-17088D01*
X11214Y-17276D01*
X11212Y-17277D01*
X11126Y-17362D01*
X11080Y-17473D01*
X11080Y-17594D01*
X11126Y-17705D01*
X11211Y-17791D01*
X11322Y-17837D01*
X11443Y-17837D01*
X11554Y-17791D01*
X11640Y-17706D01*
X11686Y-17595D01*
X11686Y-17474D01*
X11640Y-17363D01*
X11555Y-17277D01*
X11552Y-17275D01*
X11552Y-17105D01*
X11617Y-17170D01*
X11708Y-17208D01*
X11807Y-17208D01*
X11871Y-17209D01*
X11933Y-17147D01*
X11933Y-16934D01*
X11933Y-16884D01*
X11933Y-16784D01*
X12033Y-16784D01*
X12033Y-16884D01*
X12033Y-16934D01*
X12033Y-17147D01*
X12083Y-17197D01*
X12012Y-17227D01*
X11926Y-17312D01*
X11880Y-17423D01*
X11880Y-17544D01*
X11926Y-17655D01*
X12011Y-17741D01*
X12122Y-17787D01*
X12243Y-17787D01*
X12346Y-17744D01*
X12346Y-18153D01*
X12345Y-18158D01*
X12356Y-18211D01*
X12359Y-18223D01*
X12395Y-18278D01*
X12523Y-18405D01*
X12523Y-18630D01*
X12542Y-18677D01*
X12578Y-18714D01*
X12580Y-18715D01*
X12511Y-18744D01*
X12441Y-18814D01*
X12403Y-18906D01*
X12402Y-18968D01*
X12464Y-19030D01*
X12777Y-19030D01*
X12827Y-19030D01*
X12927Y-19030D01*
X12977Y-19030D01*
X13290Y-19030D01*
X13352Y-18968D01*
X13351Y-18906D01*
X13313Y-18814D01*
X13243Y-18744D01*
X13174Y-18715D01*
X13211Y-18679D01*
X13231Y-18631D01*
X13231Y-18580D01*
X13231Y-18481D01*
X13678Y-18481D01*
X13665Y-18513D01*
X13665Y-18564D01*
X13665Y-18740D01*
X13684Y-18787D01*
X13692Y-18796D01*
X13626Y-18862D01*
X13580Y-18973D01*
X13580Y-19094D01*
X13626Y-19205D01*
X13711Y-19291D01*
X13822Y-19337D01*
X13943Y-19337D01*
X14054Y-19291D01*
X14140Y-19206D01*
X14186Y-19095D01*
X14186Y-18974D01*
X14184Y-18971D01*
X14304Y-18851D01*
X14306Y-18850D01*
X14307Y-18850D01*
X14310Y-18844D01*
X14583Y-18844D01*
X13362Y-20065D01*
X13352Y-20065D01*
X13352Y-19192D01*
X13290Y-19130D01*
X12927Y-19130D01*
X12927Y-19393D01*
X12989Y-19455D01*
X13053Y-19454D01*
X13152Y-19454D01*
X13243Y-19416D01*
X13313Y-19346D01*
X13351Y-19254D01*
X13352Y-19192D01*
X13352Y-20065D01*
X13133Y-20065D01*
X13132Y-20065D01*
X13068Y-20078D01*
X13013Y-20114D01*
X13011Y-20116D01*
X12827Y-20300D01*
X12827Y-19393D01*
X12827Y-19130D01*
X12464Y-19130D01*
X12402Y-19192D01*
X12403Y-19254D01*
X12441Y-19346D01*
X12511Y-19416D01*
X12602Y-19454D01*
X12701Y-19454D01*
X12765Y-19455D01*
X12827Y-19393D01*
X12827Y-20300D01*
X12463Y-20664D01*
X12427Y-20719D01*
X12426Y-20720D01*
X12326Y-20621D01*
X12169Y-20555D01*
X11998Y-20555D01*
X11840Y-20620D01*
X11720Y-20741D01*
X11654Y-20898D01*
X11654Y-21069D01*
X11719Y-21227D01*
X11840Y-21347D01*
X11997Y-21413D01*
X12168Y-21413D01*
X12326Y-21348D01*
X12414Y-21259D01*
X12414Y-22279D01*
X12413Y-22284D01*
X12424Y-22337D01*
X12427Y-22349D01*
X12463Y-22404D01*
X13011Y-22951D01*
X13013Y-22954D01*
X13114Y-23054D01*
X13116Y-23057D01*
X13171Y-23093D01*
X13236Y-23106D01*
X13716Y-23106D01*
X13721Y-23107D01*
X13721Y-23106D01*
X13774Y-23095D01*
X13785Y-23093D01*
X13786Y-23093D01*
X13837Y-23059D01*
X13859Y-23068D01*
X13910Y-23068D01*
X14360Y-23068D01*
X14407Y-23049D01*
X14444Y-23013D01*
X14464Y-22965D01*
X14464Y-22914D01*
X14464Y-22664D01*
X14459Y-22653D01*
X14512Y-22653D01*
X14704Y-22844D01*
X14704Y-22959D01*
X14723Y-23006D01*
X14759Y-23043D01*
X14807Y-23063D01*
X14858Y-23063D01*
X15308Y-23063D01*
X15355Y-23044D01*
X15392Y-23008D01*
X15412Y-22960D01*
X15412Y-22909D01*
X15412Y-22659D01*
X15393Y-22612D01*
X15357Y-22575D01*
X15309Y-22555D01*
X15258Y-22555D01*
X14893Y-22555D01*
X14703Y-22364D01*
X14648Y-22328D01*
X14636Y-22325D01*
X14583Y-22314D01*
X14578Y-22315D01*
X13676Y-22315D01*
X13594Y-22281D01*
X13473Y-22281D01*
X13362Y-22327D01*
X13276Y-22412D01*
X13230Y-22523D01*
X13230Y-22644D01*
X13263Y-22724D01*
X13253Y-22714D01*
X13250Y-22712D01*
X12752Y-22213D01*
X12752Y-22049D01*
X12786Y-22132D01*
X12871Y-22218D01*
X12982Y-22264D01*
X13103Y-22264D01*
X13214Y-22218D01*
X13300Y-22133D01*
X13346Y-22022D01*
X13346Y-21910D01*
X13603Y-21653D01*
X15462Y-21653D01*
X15911Y-22101D01*
X15913Y-22104D01*
X15968Y-22140D01*
X15969Y-22140D01*
X15979Y-22142D01*
X16033Y-22154D01*
X16033Y-22153D01*
X16037Y-22153D01*
X16928Y-22153D01*
X16933Y-22154D01*
X16933Y-22153D01*
X16937Y-22153D01*
X17129Y-22153D01*
X17189Y-22212D01*
X17180Y-22222D01*
X17134Y-22333D01*
X17134Y-22454D01*
X17135Y-22456D01*
X17099Y-22492D01*
X16761Y-22492D01*
X16714Y-22511D01*
X16701Y-22523D01*
X16655Y-22477D01*
X16544Y-22431D01*
X16423Y-22431D01*
X16312Y-22477D01*
X16265Y-22523D01*
X16254Y-22512D01*
X16206Y-22492D01*
X16155Y-22492D01*
X15761Y-22492D01*
X15714Y-22511D01*
X15677Y-22547D01*
X15657Y-22595D01*
X15657Y-22646D01*
X15657Y-22922D01*
X15666Y-22946D01*
X15657Y-22970D01*
X15657Y-23021D01*
X15657Y-23297D01*
X15666Y-23321D01*
X15657Y-23345D01*
X15657Y-23396D01*
X15657Y-23672D01*
X15676Y-23719D01*
X15712Y-23756D01*
X15760Y-23776D01*
X15811Y-23776D01*
X15814Y-23776D01*
X15814Y-23860D01*
X15813Y-23865D01*
X15824Y-23918D01*
X15827Y-23930D01*
X15859Y-23979D01*
X15858Y-23982D01*
X15858Y-24103D01*
X15904Y-24214D01*
X15989Y-24300D01*
X16100Y-24346D01*
X16221Y-24346D01*
X16332Y-24300D01*
X16418Y-24215D01*
X16464Y-24104D01*
X16464Y-23983D01*
X16418Y-23872D01*
X16333Y-23786D01*
X16255Y-23753D01*
X16289Y-23721D01*
X16309Y-23673D01*
X16309Y-23622D01*
X16309Y-23346D01*
X16299Y-23321D01*
X16306Y-23303D01*
X16544Y-23303D01*
X16537Y-23322D01*
X16536Y-23397D01*
X16598Y-23459D01*
X16883Y-23459D01*
X16933Y-23459D01*
X17033Y-23459D01*
X17083Y-23459D01*
X17368Y-23459D01*
X17430Y-23397D01*
X17429Y-23322D01*
X17391Y-23230D01*
X17321Y-23160D01*
X17309Y-23154D01*
X17309Y-22971D01*
X17299Y-22946D01*
X17309Y-22923D01*
X17309Y-22872D01*
X17309Y-22761D01*
X17374Y-22696D01*
X17376Y-22697D01*
X17497Y-22697D01*
X17608Y-22651D01*
X17694Y-22566D01*
X17740Y-22455D01*
X17740Y-22334D01*
X17699Y-22235D01*
X17710Y-22240D01*
X17761Y-22240D01*
X17933Y-22240D01*
X17912Y-22261D01*
X17866Y-22372D01*
X17866Y-22493D01*
X17912Y-22604D01*
X17997Y-22690D01*
X18108Y-22736D01*
X18229Y-22736D01*
X18231Y-22735D01*
X18288Y-22791D01*
X18288Y-23320D01*
X18307Y-23367D01*
X18343Y-23404D01*
X18391Y-23424D01*
X18442Y-23424D01*
X18523Y-23424D01*
X18523Y-23563D01*
X18443Y-23597D01*
X18357Y-23682D01*
X18311Y-23793D01*
X18311Y-23914D01*
X18357Y-24025D01*
X18442Y-24111D01*
X18553Y-24157D01*
X18674Y-24157D01*
X18785Y-24111D01*
X18871Y-24026D01*
X18917Y-23915D01*
X18917Y-23794D01*
X18871Y-23683D01*
X18861Y-23672D01*
X18861Y-23424D01*
X18992Y-23424D01*
X19039Y-23405D01*
X19076Y-23369D01*
X19096Y-23321D01*
X19096Y-23270D01*
X19096Y-22720D01*
X19077Y-22673D01*
X19041Y-22636D01*
X18993Y-22616D01*
X18942Y-22616D01*
X18591Y-22616D01*
X18471Y-22495D01*
X18472Y-22494D01*
X18472Y-22373D01*
X18426Y-22262D01*
X18404Y-22240D01*
X18575Y-22240D01*
X18636Y-22300D01*
X18638Y-22303D01*
X18693Y-22339D01*
X18694Y-22339D01*
X18704Y-22341D01*
X18758Y-22353D01*
X18758Y-22352D01*
X18762Y-22352D01*
X18887Y-22352D01*
X18892Y-22353D01*
X18892Y-22352D01*
X18896Y-22352D01*
X19029Y-22352D01*
X19029Y-22373D01*
X19048Y-22420D01*
X19084Y-22457D01*
X19132Y-22477D01*
X19183Y-22477D01*
X19543Y-22477D01*
X19590Y-22458D01*
X19598Y-22450D01*
X19613Y-22486D01*
X19698Y-22572D01*
X19809Y-22618D01*
X19930Y-22618D01*
X20041Y-22572D01*
X20127Y-22487D01*
X20173Y-22376D01*
X20173Y-22255D01*
X20172Y-22252D01*
X20600Y-21823D01*
X20602Y-21822D01*
X20603Y-21822D01*
X20639Y-21767D01*
X20652Y-21703D01*
X20651Y-21702D01*
X20652Y-21702D01*
X20652Y-21691D01*
X20654Y-21691D01*
X20740Y-21606D01*
X20786Y-21495D01*
X20786Y-21374D01*
X20740Y-21263D01*
X20655Y-21177D01*
X20544Y-21131D01*
X20423Y-21131D01*
X20312Y-21177D01*
X20226Y-21262D01*
X20180Y-21373D01*
X20180Y-21494D01*
X20226Y-21605D01*
X20283Y-21662D01*
X19997Y-21947D01*
X19997Y-21574D01*
X19997Y-21523D01*
X19997Y-21163D01*
X19978Y-21116D01*
X19942Y-21079D01*
X19894Y-21059D01*
X19843Y-21059D01*
X19643Y-21059D01*
X19368Y-20783D01*
X19369Y-20782D01*
X19369Y-20661D01*
X19323Y-20550D01*
X19238Y-20464D01*
X19127Y-20418D01*
X19006Y-20418D01*
X18895Y-20464D01*
X18809Y-20549D01*
X18763Y-20660D01*
X18763Y-20781D01*
X18809Y-20892D01*
X18854Y-20938D01*
X18759Y-20939D01*
X18667Y-20977D01*
X18597Y-21047D01*
X18559Y-21138D01*
X18559Y-21237D01*
X18558Y-21256D01*
X18620Y-21318D01*
X18888Y-21318D01*
X18938Y-21318D01*
X19038Y-21318D01*
X19038Y-21418D01*
X19038Y-21468D01*
X19038Y-21736D01*
X19100Y-21798D01*
X19217Y-21797D01*
X19309Y-21759D01*
X19379Y-21689D01*
X19404Y-21627D01*
X19434Y-21657D01*
X19482Y-21677D01*
X19533Y-21677D01*
X19893Y-21677D01*
X19940Y-21658D01*
X19977Y-21622D01*
X19997Y-21574D01*
X19997Y-21947D01*
X19932Y-22012D01*
X19931Y-22012D01*
X19810Y-22012D01*
X19699Y-22058D01*
X19647Y-22109D01*
X19647Y-21963D01*
X19628Y-21916D01*
X19592Y-21879D01*
X19544Y-21859D01*
X19493Y-21859D01*
X19133Y-21859D01*
X19086Y-21878D01*
X19049Y-21914D01*
X19029Y-21962D01*
X19029Y-21999D01*
X18911Y-21999D01*
X18907Y-21998D01*
X18853Y-22009D01*
X18842Y-22012D01*
X18838Y-22014D01*
X18828Y-22014D01*
X18715Y-21900D01*
X18715Y-21778D01*
X18759Y-21797D01*
X18876Y-21798D01*
X18938Y-21736D01*
X18938Y-21418D01*
X18620Y-21418D01*
X18558Y-21480D01*
X18559Y-21499D01*
X18559Y-21532D01*
X18311Y-21532D01*
X18264Y-21551D01*
X18227Y-21587D01*
X18207Y-21635D01*
X18207Y-21686D01*
X18207Y-22130D01*
X18115Y-22130D01*
X18115Y-22086D01*
X18115Y-21636D01*
X18096Y-21589D01*
X18060Y-21552D01*
X18030Y-21539D01*
X18030Y-21413D01*
X18168Y-21413D01*
X18326Y-21348D01*
X18446Y-21227D01*
X18512Y-21070D01*
X18512Y-20899D01*
X18447Y-20741D01*
X18326Y-20621D01*
X18169Y-20555D01*
X17998Y-20555D01*
X17840Y-20620D01*
X17752Y-20708D01*
X17752Y-20704D01*
X18803Y-19653D01*
X18928Y-19653D01*
X18933Y-19654D01*
X18933Y-19653D01*
X18986Y-19642D01*
X18997Y-19640D01*
X18998Y-19640D01*
X19053Y-19604D01*
X19500Y-19155D01*
X19502Y-19154D01*
X19503Y-19154D01*
X19539Y-19099D01*
X19552Y-19034D01*
X19552Y-18583D01*
X19654Y-18541D01*
X19740Y-18456D01*
X19786Y-18345D01*
X19786Y-18224D01*
X19740Y-18113D01*
X19655Y-18027D01*
X19544Y-17981D01*
X19425Y-17981D01*
X19455Y-17969D01*
X19492Y-17933D01*
X19512Y-17885D01*
X19512Y-17834D01*
X19512Y-17284D01*
X19493Y-17237D01*
X19457Y-17200D01*
X19434Y-17190D01*
X19437Y-17185D01*
X19437Y-17134D01*
X19437Y-16737D01*
X19443Y-16737D01*
X19529Y-16701D01*
X19529Y-16734D01*
X19529Y-17184D01*
X19548Y-17231D01*
X19584Y-17268D01*
X19632Y-17288D01*
X19654Y-17288D01*
X19654Y-17334D01*
X19654Y-17884D01*
X19673Y-17931D01*
X19709Y-17968D01*
X19757Y-17988D01*
X19808Y-17988D01*
X20158Y-17988D01*
X20205Y-17969D01*
X20242Y-17933D01*
X20245Y-17924D01*
X20311Y-17991D01*
X20379Y-18019D01*
X20362Y-18027D01*
X20276Y-18112D01*
X20230Y-18223D01*
X20230Y-18344D01*
X20276Y-18455D01*
X20361Y-18541D01*
X20472Y-18587D01*
X20593Y-18587D01*
X20704Y-18541D01*
X20790Y-18456D01*
X20836Y-18345D01*
X20836Y-18224D01*
X20834Y-18221D01*
X20900Y-18155D01*
X20902Y-18154D01*
X20903Y-18154D01*
X20939Y-18099D01*
X20952Y-18034D01*
X20952Y-17488D01*
X20952Y-17484D01*
X20953Y-17484D01*
X20941Y-17431D01*
X21011Y-17501D01*
X21013Y-17504D01*
X21068Y-17540D01*
X21133Y-17553D01*
X21206Y-17553D01*
X21174Y-17585D01*
X21154Y-17633D01*
X21154Y-17684D01*
X21154Y-18234D01*
X21173Y-18281D01*
X21209Y-18318D01*
X21252Y-18336D01*
X21176Y-18412D01*
X21130Y-18523D01*
X21130Y-18644D01*
X21176Y-18755D01*
X21261Y-18841D01*
X21372Y-18887D01*
X21493Y-18887D01*
X21604Y-18841D01*
X21690Y-18756D01*
X21736Y-18645D01*
X21736Y-18524D01*
X21690Y-18413D01*
X21627Y-18349D01*
X21627Y-18338D01*
X21658Y-18338D01*
X21705Y-18319D01*
X21742Y-18283D01*
X21762Y-18235D01*
X21762Y-18184D01*
X21762Y-17634D01*
X21743Y-17587D01*
X21707Y-17550D01*
X21659Y-17530D01*
X21608Y-17530D01*
X21413Y-17530D01*
X21453Y-17504D01*
X21650Y-17305D01*
X21652Y-17304D01*
X21653Y-17304D01*
X21689Y-17249D01*
X21702Y-17185D01*
X21701Y-17184D01*
X21702Y-17184D01*
X21702Y-16932D01*
X21824Y-16932D01*
X21828Y-16930D01*
X21832Y-16932D01*
X21883Y-16932D01*
X22021Y-16932D01*
X22068Y-16913D01*
X22105Y-16877D01*
X22125Y-16829D01*
X22125Y-16778D01*
X22125Y-16650D01*
X22164Y-16650D01*
X22164Y-16638D01*
X22175Y-16649D01*
X22252Y-16649D01*
X22343Y-16611D01*
X22413Y-16541D01*
X22451Y-16449D01*
X22452Y-16427D01*
X22391Y-16366D01*
X22413Y-16344D01*
X22451Y-16252D01*
X22451Y-16235D01*
X22452Y-16235D01*
X22451Y-16232D01*
X22452Y-16230D01*
X22451Y-16229D01*
X22451Y-16213D01*
X22413Y-16121D01*
X22391Y-16099D01*
X22452Y-16038D01*
X22451Y-16016D01*
X22413Y-15924D01*
X22343Y-15854D01*
X22331Y-15848D01*
X22331Y-15843D01*
X22312Y-15796D01*
X22276Y-15759D01*
X22245Y-15746D01*
X22246Y-15715D01*
X22246Y-15491D01*
X22245Y-15416D01*
X22207Y-15324D01*
X22137Y-15254D01*
X22046Y-15216D01*
X22022Y-15216D01*
X21961Y-15277D01*
X21961Y-15553D01*
X22184Y-15553D01*
X22246Y-15491D01*
X22246Y-15715D01*
X22184Y-15653D01*
X22027Y-15653D01*
X21961Y-15653D01*
X21928Y-15653D01*
X21928Y-15440D01*
X21909Y-15393D01*
X21893Y-15376D01*
X21893Y-15277D01*
X21832Y-15216D01*
X21808Y-15216D01*
X21717Y-15254D01*
X21647Y-15324D01*
X21642Y-15336D01*
X21636Y-15336D01*
X21631Y-15337D01*
X21628Y-15336D01*
X21620Y-15336D01*
X21700Y-15255D01*
X21702Y-15254D01*
X21703Y-15254D01*
X21739Y-15199D01*
X21752Y-15134D01*
X21752Y-14634D01*
X21752Y-14484D01*
X21747Y-14459D01*
X21752Y-14434D01*
X21752Y-13873D01*
X21855Y-13976D01*
X22003Y-14037D01*
X22163Y-14037D01*
X22311Y-13976D01*
X22425Y-13862D01*
X22486Y-13714D01*
X22486Y-13554D01*
X22425Y-13406D01*
X22311Y-13292D01*
X22163Y-13231D01*
X22003Y-13231D01*
X21855Y-13292D01*
X21752Y-13395D01*
X21752Y-13234D01*
X21752Y-12854D01*
X21870Y-12736D01*
X21872Y-12737D01*
X21993Y-12737D01*
X22104Y-12691D01*
X22190Y-12606D01*
X22219Y-12535D01*
X23618Y-12537D01*
X23618Y-22324D01*
G54D10*
G36*
X20645Y-05832D02*
X20506Y-05832D01*
X20111Y-05810D01*
X20050Y-05751D01*
X20050Y-05731D01*
X20031Y-05684D01*
X19995Y-05647D01*
X19947Y-05627D01*
X19919Y-05627D01*
X19851Y-05561D01*
X19579Y-05226D01*
X18908Y-05218D01*
X18908Y-05209D01*
X18895Y-05209D01*
X18908Y-05197D01*
X18907Y-05085D01*
X18869Y-04993D01*
X18799Y-04923D01*
X18708Y-04885D01*
X18609Y-04885D01*
X18495Y-04884D01*
X18433Y-04946D01*
X18433Y-05209D01*
X18433Y-05214D01*
X18333Y-05213D01*
X18333Y-05209D01*
X18333Y-04946D01*
X18271Y-04884D01*
X18157Y-04885D01*
X18058Y-04885D01*
X17967Y-04923D01*
X17958Y-04932D01*
X17949Y-04923D01*
X17858Y-04885D01*
X17759Y-04885D01*
X17645Y-04884D01*
X17583Y-04946D01*
X17583Y-05205D01*
X17483Y-05204D01*
X17483Y-04946D01*
X17421Y-04884D01*
X17307Y-04885D01*
X17208Y-04885D01*
X17117Y-04923D01*
X17047Y-04993D01*
X17017Y-05064D01*
X17008Y-05060D01*
X16941Y-05060D01*
X16922Y-04412D01*
X19381Y-04412D01*
X19346Y-04498D01*
X19346Y-04619D01*
X19392Y-04730D01*
X19477Y-04816D01*
X19588Y-04862D01*
X19709Y-04862D01*
X19711Y-04861D01*
X20141Y-05290D01*
X20143Y-05293D01*
X20198Y-05329D01*
X20213Y-05332D01*
X20189Y-05392D01*
X20189Y-05513D01*
X20235Y-05624D01*
X20320Y-05710D01*
X20431Y-05756D01*
X20552Y-05756D01*
X20554Y-05754D01*
X20602Y-05802D01*
X20604Y-05805D01*
X20645Y-05832D01*
X20645Y-05832D01*
G37*
G54D46*
X20645Y-05832D02*
X20506Y-05832D01*
X20111Y-05810D01*
X20050Y-05751D01*
X20050Y-05731D01*
X20031Y-05684D01*
X19995Y-05647D01*
X19947Y-05627D01*
X19919Y-05627D01*
X19851Y-05561D01*
X19579Y-05226D01*
X18908Y-05218D01*
X18908Y-05209D01*
X18895Y-05209D01*
X18908Y-05197D01*
X18907Y-05085D01*
X18869Y-04993D01*
X18799Y-04923D01*
X18708Y-04885D01*
X18609Y-04885D01*
X18495Y-04884D01*
X18433Y-04946D01*
X18433Y-05209D01*
X18433Y-05214D01*
X18333Y-05213D01*
X18333Y-05209D01*
X18333Y-04946D01*
X18271Y-04884D01*
X18157Y-04885D01*
X18058Y-04885D01*
X17967Y-04923D01*
X17958Y-04932D01*
X17949Y-04923D01*
X17858Y-04885D01*
X17759Y-04885D01*
X17645Y-04884D01*
X17583Y-04946D01*
X17583Y-05205D01*
X17483Y-05204D01*
X17483Y-04946D01*
X17421Y-04884D01*
X17307Y-04885D01*
X17208Y-04885D01*
X17117Y-04923D01*
X17047Y-04993D01*
X17017Y-05064D01*
X17008Y-05060D01*
X16941Y-05060D01*
X16922Y-04412D01*
X19381Y-04412D01*
X19346Y-04498D01*
X19346Y-04619D01*
X19392Y-04730D01*
X19477Y-04816D01*
X19588Y-04862D01*
X19709Y-04862D01*
X19711Y-04861D01*
X20141Y-05290D01*
X20143Y-05293D01*
X20198Y-05329D01*
X20213Y-05332D01*
X20189Y-05392D01*
X20189Y-05513D01*
X20235Y-05624D01*
X20320Y-05710D01*
X20431Y-05756D01*
X20552Y-05756D01*
X20554Y-05754D01*
X20602Y-05802D01*
X20604Y-05805D01*
X20645Y-05832D01*
M02*
