G04 (created by PCBNEW-RS274X (2012-jan-04)-stable) date lun 03 giu 2013 23:00:55 CEST*
G01*
G70*
G90*
%MOIN*%
G04 Gerber Fmt 3.4, Leading zero omitted, Abs format*
%FSLAX34Y34*%
G04 APERTURE LIST*
%ADD10C,0.006000*%
%ADD11R,0.040000X0.065000*%
%ADD12R,0.045000X0.065000*%
%ADD13R,0.065000X0.045000*%
%ADD14R,0.098700X0.037700*%
%ADD15R,0.037700X0.098700*%
%ADD16R,0.059400X0.047600*%
%ADD17R,0.056000X0.056000*%
%ADD18R,0.047600X0.059400*%
%ADD19R,0.075000X0.075000*%
%ADD20C,0.075000*%
%ADD21R,0.080000X0.080000*%
%ADD22C,0.080000*%
%ADD23R,0.080000X0.100000*%
%ADD24R,0.055000X0.075000*%
%ADD25R,0.075000X0.055000*%
%ADD26C,0.086000*%
%ADD27R,0.033800X0.047600*%
%ADD28R,0.047600X0.033800*%
%ADD29R,0.041700X0.098700*%
%ADD30C,0.059400*%
%ADD31R,0.114500X0.083000*%
%ADD32R,0.079100X0.098700*%
%ADD33R,0.061300X0.035700*%
G04 APERTURE END LIST*
G54D10*
G54D11*
X07283Y-16534D03*
X07783Y-16534D03*
X08283Y-16534D03*
X08783Y-16534D03*
X09283Y-16534D03*
X09783Y-16534D03*
X10283Y-16534D03*
X10283Y-14434D03*
X09783Y-14434D03*
X09283Y-14434D03*
X08783Y-14434D03*
X08283Y-14434D03*
X07783Y-14434D03*
X07283Y-14434D03*
G54D12*
X09733Y-13584D03*
X10333Y-13584D03*
X07933Y-12484D03*
X07333Y-12484D03*
G54D13*
X06233Y-14284D03*
X06233Y-14884D03*
G54D12*
X08483Y-12484D03*
X09083Y-12484D03*
G54D14*
X14187Y-18627D03*
X14187Y-18312D03*
X14187Y-17997D03*
X14187Y-17682D03*
X14187Y-17367D03*
X14187Y-17052D03*
X14187Y-16737D03*
X14187Y-16422D03*
X17953Y-16424D03*
X17953Y-18634D03*
X17953Y-18314D03*
X17953Y-17994D03*
X17953Y-17684D03*
X17953Y-17364D03*
X17953Y-17054D03*
X17953Y-16734D03*
G54D15*
X14971Y-15634D03*
X15285Y-15634D03*
X15601Y-15634D03*
X15915Y-15634D03*
X16231Y-15634D03*
X16545Y-15634D03*
X16861Y-15634D03*
X17175Y-15634D03*
X14973Y-19414D03*
X15283Y-19414D03*
X15603Y-19414D03*
X15913Y-19414D03*
X16223Y-19414D03*
X16543Y-19414D03*
X16863Y-19414D03*
X17183Y-19414D03*
G54D12*
X07333Y-18684D03*
X07933Y-18684D03*
G54D13*
X12083Y-13034D03*
X12083Y-13634D03*
G54D12*
X08583Y-18684D03*
X09183Y-18684D03*
G54D13*
X06233Y-16284D03*
X06233Y-15684D03*
X12033Y-11784D03*
X12033Y-12384D03*
X11983Y-16834D03*
X11983Y-16234D03*
X11383Y-16234D03*
X11383Y-16834D03*
X18283Y-13834D03*
X18283Y-13234D03*
X15058Y-22809D03*
X15058Y-23409D03*
X14110Y-23414D03*
X14110Y-22814D03*
G54D16*
X16983Y-22759D03*
X16983Y-23134D03*
X16983Y-23509D03*
X15983Y-23509D03*
X15983Y-23134D03*
X15983Y-22759D03*
G54D17*
X18988Y-21368D03*
X19688Y-21368D03*
X19338Y-22168D03*
G54D18*
X06333Y-18084D03*
X05958Y-17084D03*
X06708Y-17084D03*
X09683Y-20484D03*
X09308Y-19484D03*
X10058Y-19484D03*
X07583Y-20734D03*
X07208Y-19734D03*
X07958Y-19734D03*
G54D13*
X10433Y-17884D03*
X10433Y-17284D03*
G54D19*
X06333Y-19984D03*
G54D20*
X06333Y-18984D03*
G54D19*
X19083Y-13634D03*
G54D20*
X20083Y-13634D03*
X21083Y-13634D03*
X22083Y-13634D03*
X23083Y-13634D03*
G54D12*
X18933Y-15984D03*
X18333Y-15984D03*
X19783Y-16934D03*
X19183Y-16934D03*
G54D21*
X06383Y-08284D03*
G54D22*
X06383Y-07284D03*
G54D23*
X14633Y-10484D03*
X15933Y-10484D03*
G54D24*
X22208Y-17934D03*
X21458Y-17934D03*
X15508Y-11384D03*
X14758Y-11384D03*
G54D25*
X17533Y-06059D03*
X17533Y-05309D03*
X11433Y-15509D03*
X11433Y-14759D03*
X09133Y-17309D03*
X09133Y-18059D03*
X18383Y-06059D03*
X18383Y-05309D03*
G54D12*
X18461Y-21886D03*
X17861Y-21886D03*
X13983Y-11384D03*
X13383Y-11384D03*
G54D13*
X16733Y-05434D03*
X16733Y-06034D03*
X12733Y-11784D03*
X12733Y-11184D03*
G54D12*
X12983Y-10534D03*
X13583Y-10534D03*
G54D13*
X19696Y-05881D03*
X19696Y-06481D03*
G54D19*
X02586Y-08743D03*
G54D20*
X02586Y-05743D03*
G54D19*
X01786Y-05743D03*
G54D20*
X01786Y-08743D03*
G54D19*
X02586Y-10682D03*
G54D20*
X02586Y-13682D03*
G54D19*
X01786Y-13682D03*
G54D20*
X01786Y-10682D03*
G54D25*
X08633Y-20459D03*
X08633Y-19709D03*
G54D24*
X08108Y-13434D03*
X07358Y-13434D03*
X10508Y-12484D03*
X09758Y-12484D03*
G54D25*
X07333Y-17309D03*
X07333Y-18059D03*
X08233Y-17309D03*
X08233Y-18059D03*
X12956Y-16649D03*
X12956Y-17399D03*
G54D24*
X19958Y-17584D03*
X19208Y-17584D03*
G54D25*
X11233Y-13209D03*
X11233Y-13959D03*
X06633Y-13159D03*
X06633Y-12409D03*
G54D24*
X17991Y-08032D03*
X18741Y-08032D03*
G54D26*
X06732Y-04563D03*
X06732Y-05563D03*
G54D19*
X02145Y-09708D03*
G54D20*
X03145Y-09708D03*
G54D27*
X21927Y-16665D03*
X21730Y-16665D03*
X21533Y-16665D03*
X21336Y-16665D03*
X21139Y-16665D03*
G54D28*
X21002Y-16331D03*
X21002Y-16134D03*
X21002Y-15937D03*
G54D27*
X21139Y-15603D03*
X21336Y-15603D03*
X21533Y-15603D03*
X21730Y-15603D03*
X21927Y-15603D03*
G54D28*
X22064Y-15937D03*
X22064Y-16134D03*
X22064Y-16331D03*
G54D29*
X10193Y-04582D03*
X10626Y-04582D03*
X12240Y-04582D03*
X12674Y-04582D03*
X13540Y-04582D03*
X13973Y-04582D03*
X14406Y-04582D03*
X14839Y-04582D03*
X13107Y-04582D03*
X11059Y-04582D03*
X09760Y-04582D03*
X09327Y-04582D03*
X09327Y-09386D03*
X09760Y-09386D03*
X10193Y-09386D03*
X10626Y-09386D03*
X11059Y-09386D03*
X12242Y-09386D03*
X12675Y-09386D03*
X13108Y-09386D03*
X13541Y-09386D03*
X13974Y-09386D03*
X14406Y-09386D03*
X14839Y-09386D03*
G54D30*
X16779Y-14536D03*
X17283Y-14534D03*
G54D12*
X16744Y-08784D03*
X16144Y-08784D03*
X16740Y-09386D03*
X16140Y-09386D03*
G54D21*
X11083Y-20984D03*
G54D22*
X12083Y-20984D03*
X13083Y-20984D03*
X14083Y-20984D03*
X15083Y-20984D03*
X16083Y-20984D03*
X17083Y-20984D03*
X18083Y-20984D03*
G54D13*
X12877Y-19080D03*
X12877Y-18480D03*
G54D21*
X00790Y-09279D03*
G54D22*
X00790Y-10279D03*
G54D31*
X23047Y-03047D03*
X23047Y-07791D03*
X21354Y-07791D03*
X21354Y-03067D03*
G54D32*
X20527Y-06354D03*
X20527Y-04504D03*
G54D33*
X21197Y-05429D03*
X21197Y-05685D03*
X21197Y-05173D03*
X21197Y-04917D03*
X21197Y-05941D03*
G54D19*
X18673Y-25028D03*
X18692Y-23020D03*
X22255Y-23020D03*
X06503Y-22941D03*
X10086Y-24949D03*
X10066Y-22941D03*
M02*
