G04 (created by PCBNEW-RS274X (2012-jan-04)-stable) date lun 03 giu 2013 23:00:55 CEST*
G01*
G70*
G90*
%MOIN*%
G04 Gerber Fmt 3.4, Leading zero omitted, Abs format*
%FSLAX34Y34*%
G04 APERTURE LIST*
%ADD10C,0.006000*%
%ADD11C,0.005200*%
%ADD12C,0.012000*%
%ADD13C,0.008000*%
%ADD14C,0.005000*%
%ADD15C,0.010000*%
%ADD16C,0.000400*%
%ADD17C,0.007900*%
%ADD18C,0.004500*%
%ADD19C,0.004900*%
%ADD20C,0.003000*%
%ADD21C,0.007500*%
%ADD22C,0.001600*%
%ADD23C,0.010700*%
%ADD24C,0.003500*%
%ADD25C,0.004100*%
G04 APERTURE END LIST*
G54D10*
G54D11*
X17681Y-28344D02*
X17583Y-28344D01*
X17583Y-28067D01*
X17838Y-28159D02*
X17838Y-28344D01*
X17750Y-28159D02*
X17750Y-28304D01*
X17760Y-28330D01*
X17779Y-28344D01*
X17809Y-28344D01*
X17829Y-28330D01*
X17838Y-28317D01*
X18024Y-28330D02*
X18005Y-28344D01*
X17965Y-28344D01*
X17946Y-28330D01*
X17936Y-28317D01*
X17926Y-28291D01*
X17926Y-28212D01*
X17936Y-28185D01*
X17946Y-28172D01*
X17965Y-28159D01*
X18005Y-28159D01*
X18024Y-28172D01*
X18201Y-28344D02*
X18201Y-28199D01*
X18192Y-28172D01*
X18172Y-28159D01*
X18133Y-28159D01*
X18113Y-28172D01*
X18201Y-28330D02*
X18182Y-28344D01*
X18133Y-28344D01*
X18113Y-28330D01*
X18103Y-28304D01*
X18103Y-28278D01*
X18113Y-28251D01*
X18133Y-28238D01*
X18182Y-28238D01*
X18201Y-28225D01*
X18456Y-28344D02*
X18456Y-28067D01*
X18554Y-28344D02*
X18554Y-28067D01*
X18672Y-28344D01*
X18672Y-28067D01*
X18888Y-28317D02*
X18878Y-28330D01*
X18849Y-28344D01*
X18829Y-28344D01*
X18799Y-28330D01*
X18780Y-28304D01*
X18770Y-28278D01*
X18760Y-28225D01*
X18760Y-28185D01*
X18770Y-28133D01*
X18780Y-28106D01*
X18799Y-28080D01*
X18829Y-28067D01*
X18849Y-28067D01*
X18878Y-28080D01*
X18888Y-28093D01*
X18966Y-28264D02*
X19064Y-28264D01*
X18947Y-28344D02*
X19015Y-28067D01*
X19084Y-28344D01*
X19271Y-28344D02*
X19202Y-28212D01*
X19153Y-28344D02*
X19153Y-28067D01*
X19232Y-28067D01*
X19251Y-28080D01*
X19261Y-28093D01*
X19271Y-28119D01*
X19271Y-28159D01*
X19261Y-28185D01*
X19251Y-28199D01*
X19232Y-28212D01*
X19153Y-28212D01*
X19428Y-28199D02*
X19457Y-28212D01*
X19467Y-28225D01*
X19477Y-28251D01*
X19477Y-28291D01*
X19467Y-28317D01*
X19457Y-28330D01*
X19438Y-28344D01*
X19359Y-28344D01*
X19359Y-28067D01*
X19428Y-28067D01*
X19447Y-28080D01*
X19457Y-28093D01*
X19467Y-28119D01*
X19467Y-28146D01*
X19457Y-28172D01*
X19447Y-28185D01*
X19428Y-28199D01*
X19359Y-28199D01*
X19604Y-28067D02*
X19644Y-28067D01*
X19663Y-28080D01*
X19683Y-28106D01*
X19693Y-28159D01*
X19693Y-28251D01*
X19683Y-28304D01*
X19663Y-28330D01*
X19644Y-28344D01*
X19604Y-28344D01*
X19585Y-28330D01*
X19565Y-28304D01*
X19555Y-28251D01*
X19555Y-28159D01*
X19565Y-28106D01*
X19585Y-28080D01*
X19604Y-28067D01*
X19781Y-28344D02*
X19781Y-28067D01*
X19899Y-28344D01*
X19899Y-28067D01*
X19997Y-28199D02*
X20066Y-28199D01*
X20095Y-28344D02*
X19997Y-28344D01*
X19997Y-28067D01*
X20095Y-28067D01*
G54D12*
X15828Y-02829D02*
X15971Y-03363D01*
X16113Y-02829D01*
X16656Y-03363D02*
X16313Y-03363D01*
X16485Y-03363D02*
X16485Y-02563D01*
X16428Y-02677D01*
X16370Y-02753D01*
X16313Y-02791D01*
X16913Y-03287D02*
X16941Y-03325D01*
X16913Y-03363D01*
X16884Y-03325D01*
X16913Y-03287D01*
X16913Y-03363D01*
X17313Y-02563D02*
X17370Y-02563D01*
X17427Y-02601D01*
X17456Y-02639D01*
X17485Y-02715D01*
X17513Y-02868D01*
X17513Y-03058D01*
X17485Y-03210D01*
X17456Y-03287D01*
X17427Y-03325D01*
X17370Y-03363D01*
X17313Y-03363D01*
X17256Y-03325D01*
X17227Y-03287D01*
X17199Y-03210D01*
X17170Y-03058D01*
X17170Y-02868D01*
X17199Y-02715D01*
X17227Y-02639D01*
X17256Y-02601D01*
X17313Y-02563D01*
X18198Y-02639D02*
X18227Y-02601D01*
X18284Y-02563D01*
X18427Y-02563D01*
X18484Y-02601D01*
X18513Y-02639D01*
X18541Y-02715D01*
X18541Y-02791D01*
X18513Y-02906D01*
X18170Y-03363D01*
X18541Y-03363D01*
X18912Y-02563D02*
X18969Y-02563D01*
X19026Y-02601D01*
X19055Y-02639D01*
X19084Y-02715D01*
X19112Y-02868D01*
X19112Y-03058D01*
X19084Y-03210D01*
X19055Y-03287D01*
X19026Y-03325D01*
X18969Y-03363D01*
X18912Y-03363D01*
X18855Y-03325D01*
X18826Y-03287D01*
X18798Y-03210D01*
X18769Y-03058D01*
X18769Y-02868D01*
X18798Y-02715D01*
X18826Y-02639D01*
X18855Y-02601D01*
X18912Y-02563D01*
X19683Y-03363D02*
X19340Y-03363D01*
X19512Y-03363D02*
X19512Y-02563D01*
X19455Y-02677D01*
X19397Y-02753D01*
X19340Y-02791D01*
X19883Y-02563D02*
X20254Y-02563D01*
X20054Y-02868D01*
X20140Y-02868D01*
X20197Y-02906D01*
X20226Y-02944D01*
X20254Y-03020D01*
X20254Y-03210D01*
X20226Y-03287D01*
X20197Y-03325D01*
X20140Y-03363D01*
X19968Y-03363D01*
X19911Y-03325D01*
X19883Y-03287D01*
X11130Y-02293D02*
X10844Y-02293D01*
X10844Y-01493D01*
X11587Y-01759D02*
X11587Y-02293D01*
X11330Y-01759D02*
X11330Y-02179D01*
X11358Y-02255D01*
X11416Y-02293D01*
X11501Y-02293D01*
X11558Y-02255D01*
X11587Y-02217D01*
X12216Y-02217D02*
X12187Y-02255D01*
X12101Y-02293D01*
X12044Y-02293D01*
X11959Y-02255D01*
X11901Y-02179D01*
X11873Y-02102D01*
X11844Y-01950D01*
X11844Y-01836D01*
X11873Y-01683D01*
X11901Y-01607D01*
X11959Y-01531D01*
X12044Y-01493D01*
X12101Y-01493D01*
X12187Y-01531D01*
X12216Y-01569D01*
X12730Y-02293D02*
X12730Y-01874D01*
X12701Y-01798D01*
X12644Y-01759D01*
X12530Y-01759D01*
X12473Y-01798D01*
X12730Y-02255D02*
X12673Y-02293D01*
X12530Y-02293D01*
X12473Y-02255D01*
X12444Y-02179D01*
X12444Y-02102D01*
X12473Y-02026D01*
X12530Y-01988D01*
X12673Y-01988D01*
X12730Y-01950D01*
X13016Y-02293D02*
X13016Y-01759D01*
X13016Y-01912D02*
X13044Y-01836D01*
X13073Y-01798D01*
X13130Y-01759D01*
X13187Y-01759D01*
X13644Y-02293D02*
X13644Y-01493D01*
X13644Y-02255D02*
X13587Y-02293D01*
X13473Y-02293D01*
X13415Y-02255D01*
X13387Y-02217D01*
X13358Y-02140D01*
X13358Y-01912D01*
X13387Y-01836D01*
X13415Y-01798D01*
X13473Y-01759D01*
X13587Y-01759D01*
X13644Y-01798D01*
X13930Y-02293D02*
X13930Y-01759D01*
X13930Y-01493D02*
X13901Y-01531D01*
X13930Y-01569D01*
X13958Y-01531D01*
X13930Y-01493D01*
X13930Y-01569D01*
X14302Y-02293D02*
X14244Y-02255D01*
X14216Y-02217D01*
X14187Y-02140D01*
X14187Y-01912D01*
X14216Y-01836D01*
X14244Y-01798D01*
X14302Y-01759D01*
X14387Y-01759D01*
X14444Y-01798D01*
X14473Y-01836D01*
X14502Y-01912D01*
X14502Y-02140D01*
X14473Y-02217D01*
X14444Y-02255D01*
X14387Y-02293D01*
X14302Y-02293D01*
X14759Y-01493D02*
X14759Y-02140D01*
X14787Y-02217D01*
X14816Y-02255D01*
X14873Y-02293D01*
X14987Y-02293D01*
X15045Y-02255D01*
X15073Y-02217D01*
X15102Y-02140D01*
X15102Y-01493D01*
X15388Y-02293D02*
X15388Y-01493D01*
X15731Y-02293D01*
X15731Y-01493D01*
X16131Y-01493D02*
X16245Y-01493D01*
X16303Y-01531D01*
X16360Y-01607D01*
X16388Y-01759D01*
X16388Y-02026D01*
X16360Y-02179D01*
X16303Y-02255D01*
X16245Y-02293D01*
X16131Y-02293D01*
X16074Y-02255D01*
X16017Y-02179D01*
X15988Y-02026D01*
X15988Y-01759D01*
X16017Y-01607D01*
X16074Y-01531D01*
X16131Y-01493D01*
X12580Y-28293D02*
X12294Y-28293D01*
X12294Y-27493D01*
X13037Y-27759D02*
X13037Y-28293D01*
X12780Y-27759D02*
X12780Y-28179D01*
X12808Y-28255D01*
X12866Y-28293D01*
X12951Y-28293D01*
X13008Y-28255D01*
X13037Y-28217D01*
X13666Y-28217D02*
X13637Y-28255D01*
X13551Y-28293D01*
X13494Y-28293D01*
X13409Y-28255D01*
X13351Y-28179D01*
X13323Y-28102D01*
X13294Y-27950D01*
X13294Y-27836D01*
X13323Y-27683D01*
X13351Y-27607D01*
X13409Y-27531D01*
X13494Y-27493D01*
X13551Y-27493D01*
X13637Y-27531D01*
X13666Y-27569D01*
X14180Y-28293D02*
X14180Y-27874D01*
X14151Y-27798D01*
X14094Y-27759D01*
X13980Y-27759D01*
X13923Y-27798D01*
X14180Y-28255D02*
X14123Y-28293D01*
X13980Y-28293D01*
X13923Y-28255D01*
X13894Y-28179D01*
X13894Y-28102D01*
X13923Y-28026D01*
X13980Y-27988D01*
X14123Y-27988D01*
X14180Y-27950D01*
X14466Y-28293D02*
X14466Y-27759D01*
X14466Y-27912D02*
X14494Y-27836D01*
X14523Y-27798D01*
X14580Y-27759D01*
X14637Y-27759D01*
X15094Y-28293D02*
X15094Y-27493D01*
X15094Y-28255D02*
X15037Y-28293D01*
X14923Y-28293D01*
X14865Y-28255D01*
X14837Y-28217D01*
X14808Y-28140D01*
X14808Y-27912D01*
X14837Y-27836D01*
X14865Y-27798D01*
X14923Y-27759D01*
X15037Y-27759D01*
X15094Y-27798D01*
X15380Y-28293D02*
X15380Y-27759D01*
X15380Y-27493D02*
X15351Y-27531D01*
X15380Y-27569D01*
X15408Y-27531D01*
X15380Y-27493D01*
X15380Y-27569D01*
X15752Y-28293D02*
X15694Y-28255D01*
X15666Y-28217D01*
X15637Y-28140D01*
X15637Y-27912D01*
X15666Y-27836D01*
X15694Y-27798D01*
X15752Y-27759D01*
X15837Y-27759D01*
X15894Y-27798D01*
X15923Y-27836D01*
X15952Y-27912D01*
X15952Y-28140D01*
X15923Y-28217D01*
X15894Y-28255D01*
X15837Y-28293D01*
X15752Y-28293D01*
X16209Y-28217D02*
X16237Y-28255D01*
X16209Y-28293D01*
X16180Y-28255D01*
X16209Y-28217D01*
X16209Y-28293D01*
X16495Y-28293D02*
X16495Y-27759D01*
X16495Y-27493D02*
X16466Y-27531D01*
X16495Y-27569D01*
X16523Y-27531D01*
X16495Y-27493D01*
X16495Y-27569D01*
X16695Y-27759D02*
X16924Y-27759D01*
X16781Y-27493D02*
X16781Y-28179D01*
X16809Y-28255D01*
X16867Y-28293D01*
X16924Y-28293D01*
G54D13*
X06883Y-14734D02*
X10683Y-14734D01*
X10683Y-14734D02*
X10683Y-16234D01*
X10683Y-16234D02*
X06883Y-16234D01*
X06883Y-16234D02*
X06883Y-14734D01*
X06883Y-15234D02*
X07183Y-15234D01*
X07183Y-15234D02*
X07183Y-15634D01*
X07183Y-15634D02*
X06883Y-15634D01*
G54D14*
X09583Y-13334D02*
X10483Y-13334D01*
X10483Y-13334D02*
X10483Y-13834D01*
X10483Y-13834D02*
X09583Y-13834D01*
X09583Y-13834D02*
X09583Y-13334D01*
X08083Y-12734D02*
X07183Y-12734D01*
X07183Y-12734D02*
X07183Y-12234D01*
X07183Y-12234D02*
X08083Y-12234D01*
X08083Y-12234D02*
X08083Y-12734D01*
X06483Y-14134D02*
X06483Y-15034D01*
X06483Y-15034D02*
X05983Y-15034D01*
X05983Y-15034D02*
X05983Y-14134D01*
X05983Y-14134D02*
X06483Y-14134D01*
X08333Y-12234D02*
X09233Y-12234D01*
X09233Y-12234D02*
X09233Y-12734D01*
X09233Y-12734D02*
X08333Y-12734D01*
X08333Y-12734D02*
X08333Y-12234D01*
G54D10*
X18063Y-18624D02*
X17613Y-18624D01*
X18063Y-16444D02*
X17623Y-16444D01*
X18063Y-18624D02*
X18063Y-16444D01*
X17183Y-19094D02*
X17183Y-19524D01*
X14973Y-19104D02*
X14973Y-19524D01*
X14963Y-19524D02*
X17183Y-19534D01*
X14983Y-15554D02*
X17153Y-15544D01*
X14553Y-16244D02*
X14553Y-19074D01*
X17163Y-15554D02*
X17163Y-15964D01*
X14803Y-16004D02*
X17583Y-16004D01*
X17603Y-19084D02*
X17603Y-16044D01*
X14553Y-19084D02*
X17553Y-19084D01*
X14103Y-16414D02*
X14103Y-18634D01*
X14103Y-18634D02*
X14553Y-18634D01*
X14557Y-16234D02*
X14787Y-16004D01*
X14105Y-16414D02*
X14557Y-16414D01*
X14983Y-16004D02*
X14983Y-15552D01*
X15153Y-16408D02*
X15149Y-16444D01*
X15138Y-16479D01*
X15121Y-16512D01*
X15098Y-16540D01*
X15070Y-16563D01*
X15037Y-16581D01*
X15002Y-16592D01*
X14966Y-16595D01*
X14930Y-16592D01*
X14895Y-16582D01*
X14863Y-16565D01*
X14834Y-16542D01*
X14810Y-16514D01*
X14793Y-16482D01*
X14782Y-16447D01*
X14778Y-16410D01*
X14781Y-16375D01*
X14791Y-16339D01*
X14807Y-16307D01*
X14830Y-16278D01*
X14858Y-16254D01*
X14890Y-16236D01*
X14925Y-16225D01*
X14962Y-16221D01*
X14997Y-16223D01*
X15032Y-16233D01*
X15065Y-16250D01*
X15094Y-16272D01*
X15118Y-16300D01*
X15136Y-16332D01*
X15148Y-16367D01*
X15152Y-16403D01*
X15153Y-16408D01*
G54D14*
X07183Y-18434D02*
X08083Y-18434D01*
X08083Y-18434D02*
X08083Y-18934D01*
X08083Y-18934D02*
X07183Y-18934D01*
X07183Y-18934D02*
X07183Y-18434D01*
X12333Y-12884D02*
X12333Y-13784D01*
X12333Y-13784D02*
X11833Y-13784D01*
X11833Y-13784D02*
X11833Y-12884D01*
X11833Y-12884D02*
X12333Y-12884D01*
X08433Y-18434D02*
X09333Y-18434D01*
X09333Y-18434D02*
X09333Y-18934D01*
X09333Y-18934D02*
X08433Y-18934D01*
X08433Y-18934D02*
X08433Y-18434D01*
X05983Y-16434D02*
X05983Y-15534D01*
X05983Y-15534D02*
X06483Y-15534D01*
X06483Y-15534D02*
X06483Y-16434D01*
X06483Y-16434D02*
X05983Y-16434D01*
X12283Y-11634D02*
X12283Y-12534D01*
X12283Y-12534D02*
X11783Y-12534D01*
X11783Y-12534D02*
X11783Y-11634D01*
X11783Y-11634D02*
X12283Y-11634D01*
X11733Y-16984D02*
X11733Y-16084D01*
X11733Y-16084D02*
X12233Y-16084D01*
X12233Y-16084D02*
X12233Y-16984D01*
X12233Y-16984D02*
X11733Y-16984D01*
X11633Y-16084D02*
X11633Y-16984D01*
X11633Y-16984D02*
X11133Y-16984D01*
X11133Y-16984D02*
X11133Y-16084D01*
X11133Y-16084D02*
X11633Y-16084D01*
X18033Y-13984D02*
X18033Y-13084D01*
X18033Y-13084D02*
X18533Y-13084D01*
X18533Y-13084D02*
X18533Y-13984D01*
X18533Y-13984D02*
X18033Y-13984D01*
X15308Y-22659D02*
X15308Y-23559D01*
X15308Y-23559D02*
X14808Y-23559D01*
X14808Y-23559D02*
X14808Y-22659D01*
X14808Y-22659D02*
X15308Y-22659D01*
X13860Y-23564D02*
X13860Y-22664D01*
X13860Y-22664D02*
X14360Y-22664D01*
X14360Y-22664D02*
X14360Y-23564D01*
X14360Y-23564D02*
X13860Y-23564D01*
X16183Y-22934D02*
X16383Y-22634D01*
X16183Y-23634D02*
X16183Y-22609D01*
X16183Y-22609D02*
X16783Y-22609D01*
X16783Y-22609D02*
X16783Y-23634D01*
X16783Y-23634D02*
X16183Y-23634D01*
X18738Y-21618D02*
X19938Y-21618D01*
X19938Y-21618D02*
X19938Y-21918D01*
X19938Y-21918D02*
X18738Y-21918D01*
X18738Y-21918D02*
X18738Y-21618D01*
X06533Y-17284D02*
X06833Y-17484D01*
X05833Y-17284D02*
X06858Y-17284D01*
X06858Y-17284D02*
X06858Y-17884D01*
X06858Y-17884D02*
X05833Y-17884D01*
X05833Y-17884D02*
X05833Y-17284D01*
X09883Y-19684D02*
X10183Y-19884D01*
X09183Y-19684D02*
X10208Y-19684D01*
X10208Y-19684D02*
X10208Y-20284D01*
X10208Y-20284D02*
X09183Y-20284D01*
X09183Y-20284D02*
X09183Y-19684D01*
X07783Y-19934D02*
X08083Y-20134D01*
X07083Y-19934D02*
X08108Y-19934D01*
X08108Y-19934D02*
X08108Y-20534D01*
X08108Y-20534D02*
X07083Y-20534D01*
X07083Y-20534D02*
X07083Y-19934D01*
X10183Y-18034D02*
X10183Y-17134D01*
X10183Y-17134D02*
X10683Y-17134D01*
X10683Y-17134D02*
X10683Y-18034D01*
X10683Y-18034D02*
X10183Y-18034D01*
G54D12*
X06833Y-20484D02*
X05833Y-20484D01*
X05833Y-20484D02*
X05833Y-18484D01*
X05833Y-18484D02*
X06833Y-18484D01*
X06833Y-18484D02*
X06833Y-20484D01*
X18583Y-14134D02*
X18583Y-13134D01*
X18583Y-13134D02*
X23583Y-13134D01*
X23583Y-13134D02*
X23583Y-14134D01*
X23583Y-14134D02*
X18583Y-14134D01*
X19583Y-14134D02*
X19583Y-13134D01*
G54D14*
X19083Y-16234D02*
X18183Y-16234D01*
X18183Y-16234D02*
X18183Y-15734D01*
X18183Y-15734D02*
X19083Y-15734D01*
X19083Y-15734D02*
X19083Y-16234D01*
X19933Y-17184D02*
X19033Y-17184D01*
X19033Y-17184D02*
X19033Y-16684D01*
X19033Y-16684D02*
X19933Y-16684D01*
X19933Y-16684D02*
X19933Y-17184D01*
X14283Y-10034D02*
X14183Y-10034D01*
X14183Y-10034D02*
X14183Y-10934D01*
X14183Y-10934D02*
X14283Y-10934D01*
X14283Y-10034D02*
X14283Y-10934D01*
X14283Y-10934D02*
X14933Y-10934D01*
X15633Y-10034D02*
X16283Y-10034D01*
X16283Y-10034D02*
X16283Y-10934D01*
X16283Y-10934D02*
X15633Y-10934D01*
X14933Y-10034D02*
X14283Y-10034D01*
X22533Y-17634D02*
X22532Y-17643D01*
X22529Y-17653D01*
X22524Y-17661D01*
X22518Y-17669D01*
X22510Y-17675D01*
X22502Y-17680D01*
X22493Y-17682D01*
X22483Y-17683D01*
X22474Y-17683D01*
X22465Y-17680D01*
X22456Y-17675D01*
X22449Y-17669D01*
X22442Y-17662D01*
X22438Y-17653D01*
X22435Y-17644D01*
X22434Y-17634D01*
X22434Y-17625D01*
X22437Y-17616D01*
X22441Y-17607D01*
X22448Y-17600D01*
X22455Y-17593D01*
X22463Y-17589D01*
X22473Y-17586D01*
X22482Y-17585D01*
X22491Y-17585D01*
X22501Y-17588D01*
X22509Y-17592D01*
X22517Y-17598D01*
X22523Y-17606D01*
X22528Y-17614D01*
X22531Y-17623D01*
X22532Y-17633D01*
X22533Y-17634D01*
X22033Y-17634D02*
X22433Y-17634D01*
X22433Y-17634D02*
X22433Y-18234D01*
X22433Y-18234D02*
X22033Y-18234D01*
X21633Y-18234D02*
X21233Y-18234D01*
X21233Y-18234D02*
X21233Y-17634D01*
X21233Y-17634D02*
X21633Y-17634D01*
X15833Y-11084D02*
X15832Y-11093D01*
X15829Y-11103D01*
X15824Y-11111D01*
X15818Y-11119D01*
X15810Y-11125D01*
X15802Y-11130D01*
X15793Y-11132D01*
X15783Y-11133D01*
X15774Y-11133D01*
X15765Y-11130D01*
X15756Y-11125D01*
X15749Y-11119D01*
X15742Y-11112D01*
X15738Y-11103D01*
X15735Y-11094D01*
X15734Y-11084D01*
X15734Y-11075D01*
X15737Y-11066D01*
X15741Y-11057D01*
X15748Y-11050D01*
X15755Y-11043D01*
X15763Y-11039D01*
X15773Y-11036D01*
X15782Y-11035D01*
X15791Y-11035D01*
X15801Y-11038D01*
X15809Y-11042D01*
X15817Y-11048D01*
X15823Y-11056D01*
X15828Y-11064D01*
X15831Y-11073D01*
X15832Y-11083D01*
X15833Y-11084D01*
X15333Y-11084D02*
X15733Y-11084D01*
X15733Y-11084D02*
X15733Y-11684D01*
X15733Y-11684D02*
X15333Y-11684D01*
X14933Y-11684D02*
X14533Y-11684D01*
X14533Y-11684D02*
X14533Y-11084D01*
X14533Y-11084D02*
X14933Y-11084D01*
X17883Y-06334D02*
X17882Y-06343D01*
X17879Y-06353D01*
X17874Y-06361D01*
X17868Y-06369D01*
X17860Y-06375D01*
X17852Y-06380D01*
X17843Y-06382D01*
X17833Y-06383D01*
X17824Y-06383D01*
X17815Y-06380D01*
X17806Y-06375D01*
X17799Y-06369D01*
X17792Y-06362D01*
X17788Y-06353D01*
X17785Y-06344D01*
X17784Y-06334D01*
X17784Y-06325D01*
X17787Y-06316D01*
X17791Y-06307D01*
X17798Y-06300D01*
X17805Y-06293D01*
X17813Y-06289D01*
X17823Y-06286D01*
X17832Y-06285D01*
X17841Y-06285D01*
X17851Y-06288D01*
X17859Y-06292D01*
X17867Y-06298D01*
X17873Y-06306D01*
X17878Y-06314D01*
X17881Y-06323D01*
X17882Y-06333D01*
X17883Y-06334D01*
X17833Y-05884D02*
X17833Y-06284D01*
X17833Y-06284D02*
X17233Y-06284D01*
X17233Y-06284D02*
X17233Y-05884D01*
X17233Y-05484D02*
X17233Y-05084D01*
X17233Y-05084D02*
X17833Y-05084D01*
X17833Y-05084D02*
X17833Y-05484D01*
X11783Y-15784D02*
X11782Y-15793D01*
X11779Y-15803D01*
X11774Y-15811D01*
X11768Y-15819D01*
X11760Y-15825D01*
X11752Y-15830D01*
X11743Y-15832D01*
X11733Y-15833D01*
X11724Y-15833D01*
X11715Y-15830D01*
X11706Y-15825D01*
X11699Y-15819D01*
X11692Y-15812D01*
X11688Y-15803D01*
X11685Y-15794D01*
X11684Y-15784D01*
X11684Y-15775D01*
X11687Y-15766D01*
X11691Y-15757D01*
X11698Y-15750D01*
X11705Y-15743D01*
X11713Y-15739D01*
X11723Y-15736D01*
X11732Y-15735D01*
X11741Y-15735D01*
X11751Y-15738D01*
X11759Y-15742D01*
X11767Y-15748D01*
X11773Y-15756D01*
X11778Y-15764D01*
X11781Y-15773D01*
X11782Y-15783D01*
X11783Y-15784D01*
X11733Y-15334D02*
X11733Y-15734D01*
X11733Y-15734D02*
X11133Y-15734D01*
X11133Y-15734D02*
X11133Y-15334D01*
X11133Y-14934D02*
X11133Y-14534D01*
X11133Y-14534D02*
X11733Y-14534D01*
X11733Y-14534D02*
X11733Y-14934D01*
X08883Y-17034D02*
X08882Y-17043D01*
X08879Y-17053D01*
X08874Y-17061D01*
X08868Y-17069D01*
X08860Y-17075D01*
X08852Y-17080D01*
X08843Y-17082D01*
X08833Y-17083D01*
X08824Y-17083D01*
X08815Y-17080D01*
X08806Y-17075D01*
X08799Y-17069D01*
X08792Y-17062D01*
X08788Y-17053D01*
X08785Y-17044D01*
X08784Y-17034D01*
X08784Y-17025D01*
X08787Y-17016D01*
X08791Y-17007D01*
X08798Y-17000D01*
X08805Y-16993D01*
X08813Y-16989D01*
X08823Y-16986D01*
X08832Y-16985D01*
X08841Y-16985D01*
X08851Y-16988D01*
X08859Y-16992D01*
X08867Y-16998D01*
X08873Y-17006D01*
X08878Y-17014D01*
X08881Y-17023D01*
X08882Y-17033D01*
X08883Y-17034D01*
X08833Y-17484D02*
X08833Y-17084D01*
X08833Y-17084D02*
X09433Y-17084D01*
X09433Y-17084D02*
X09433Y-17484D01*
X09433Y-17884D02*
X09433Y-18284D01*
X09433Y-18284D02*
X08833Y-18284D01*
X08833Y-18284D02*
X08833Y-17884D01*
X18733Y-06334D02*
X18732Y-06343D01*
X18729Y-06353D01*
X18724Y-06361D01*
X18718Y-06369D01*
X18710Y-06375D01*
X18702Y-06380D01*
X18693Y-06382D01*
X18683Y-06383D01*
X18674Y-06383D01*
X18665Y-06380D01*
X18656Y-06375D01*
X18649Y-06369D01*
X18642Y-06362D01*
X18638Y-06353D01*
X18635Y-06344D01*
X18634Y-06334D01*
X18634Y-06325D01*
X18637Y-06316D01*
X18641Y-06307D01*
X18648Y-06300D01*
X18655Y-06293D01*
X18663Y-06289D01*
X18673Y-06286D01*
X18682Y-06285D01*
X18691Y-06285D01*
X18701Y-06288D01*
X18709Y-06292D01*
X18717Y-06298D01*
X18723Y-06306D01*
X18728Y-06314D01*
X18731Y-06323D01*
X18732Y-06333D01*
X18733Y-06334D01*
X18683Y-05884D02*
X18683Y-06284D01*
X18683Y-06284D02*
X18083Y-06284D01*
X18083Y-06284D02*
X18083Y-05884D01*
X18083Y-05484D02*
X18083Y-05084D01*
X18083Y-05084D02*
X18683Y-05084D01*
X18683Y-05084D02*
X18683Y-05484D01*
X18611Y-22136D02*
X17711Y-22136D01*
X17711Y-22136D02*
X17711Y-21636D01*
X17711Y-21636D02*
X18611Y-21636D01*
X18611Y-21636D02*
X18611Y-22136D01*
X14133Y-11634D02*
X13233Y-11634D01*
X13233Y-11634D02*
X13233Y-11134D01*
X13233Y-11134D02*
X14133Y-11134D01*
X14133Y-11134D02*
X14133Y-11634D01*
X16983Y-05284D02*
X16983Y-06184D01*
X16983Y-06184D02*
X16483Y-06184D01*
X16483Y-06184D02*
X16483Y-05284D01*
X16483Y-05284D02*
X16983Y-05284D01*
X12483Y-11934D02*
X12483Y-11034D01*
X12483Y-11034D02*
X12983Y-11034D01*
X12983Y-11034D02*
X12983Y-11934D01*
X12983Y-11934D02*
X12483Y-11934D01*
X12833Y-10284D02*
X13733Y-10284D01*
X13733Y-10284D02*
X13733Y-10784D01*
X13733Y-10784D02*
X12833Y-10784D01*
X12833Y-10784D02*
X12833Y-10284D01*
X19946Y-05731D02*
X19946Y-06631D01*
X19946Y-06631D02*
X19446Y-06631D01*
X19446Y-06631D02*
X19446Y-05731D01*
X19446Y-05731D02*
X19946Y-05731D01*
G54D12*
X02586Y-08743D02*
X02586Y-08443D01*
X02586Y-08443D02*
X02986Y-08443D01*
X02986Y-08443D02*
X02986Y-06043D01*
X02986Y-06043D02*
X02586Y-06043D01*
X02586Y-06043D02*
X02586Y-05743D01*
X02586Y-06043D02*
X02186Y-06043D01*
X02186Y-06043D02*
X02186Y-08443D01*
X02186Y-08443D02*
X02586Y-08443D01*
X02986Y-08243D02*
X02186Y-08243D01*
X02186Y-08143D02*
X02986Y-08143D01*
X01786Y-05743D02*
X01786Y-06043D01*
X01786Y-06043D02*
X01386Y-06043D01*
X01386Y-06043D02*
X01386Y-08443D01*
X01386Y-08443D02*
X01786Y-08443D01*
X01786Y-08443D02*
X01786Y-08743D01*
X01786Y-08443D02*
X02186Y-08443D01*
X02186Y-08443D02*
X02186Y-06043D01*
X02186Y-06043D02*
X01786Y-06043D01*
X01386Y-06243D02*
X02186Y-06243D01*
X02186Y-06343D02*
X01386Y-06343D01*
X02586Y-10682D02*
X02586Y-10982D01*
X02586Y-10982D02*
X02186Y-10982D01*
X02186Y-10982D02*
X02186Y-13382D01*
X02186Y-13382D02*
X02586Y-13382D01*
X02586Y-13382D02*
X02586Y-13682D01*
X02586Y-13382D02*
X02986Y-13382D01*
X02986Y-13382D02*
X02986Y-10982D01*
X02986Y-10982D02*
X02586Y-10982D01*
X02186Y-11182D02*
X02986Y-11182D01*
X02986Y-11282D02*
X02186Y-11282D01*
X01786Y-13682D02*
X01786Y-13382D01*
X01786Y-13382D02*
X02186Y-13382D01*
X02186Y-13382D02*
X02186Y-10982D01*
X02186Y-10982D02*
X01786Y-10982D01*
X01786Y-10982D02*
X01786Y-10682D01*
X01786Y-10982D02*
X01386Y-10982D01*
X01386Y-10982D02*
X01386Y-13382D01*
X01386Y-13382D02*
X01786Y-13382D01*
X02186Y-13182D02*
X01386Y-13182D01*
X01386Y-13082D02*
X02186Y-13082D01*
G54D14*
X08983Y-20734D02*
X08982Y-20743D01*
X08979Y-20753D01*
X08974Y-20761D01*
X08968Y-20769D01*
X08960Y-20775D01*
X08952Y-20780D01*
X08943Y-20782D01*
X08933Y-20783D01*
X08924Y-20783D01*
X08915Y-20780D01*
X08906Y-20775D01*
X08899Y-20769D01*
X08892Y-20762D01*
X08888Y-20753D01*
X08885Y-20744D01*
X08884Y-20734D01*
X08884Y-20725D01*
X08887Y-20716D01*
X08891Y-20707D01*
X08898Y-20700D01*
X08905Y-20693D01*
X08913Y-20689D01*
X08923Y-20686D01*
X08932Y-20685D01*
X08941Y-20685D01*
X08951Y-20688D01*
X08959Y-20692D01*
X08967Y-20698D01*
X08973Y-20706D01*
X08978Y-20714D01*
X08981Y-20723D01*
X08982Y-20733D01*
X08983Y-20734D01*
X08933Y-20284D02*
X08933Y-20684D01*
X08933Y-20684D02*
X08333Y-20684D01*
X08333Y-20684D02*
X08333Y-20284D01*
X08333Y-19884D02*
X08333Y-19484D01*
X08333Y-19484D02*
X08933Y-19484D01*
X08933Y-19484D02*
X08933Y-19884D01*
X08433Y-13134D02*
X08432Y-13143D01*
X08429Y-13153D01*
X08424Y-13161D01*
X08418Y-13169D01*
X08410Y-13175D01*
X08402Y-13180D01*
X08393Y-13182D01*
X08383Y-13183D01*
X08374Y-13183D01*
X08365Y-13180D01*
X08356Y-13175D01*
X08349Y-13169D01*
X08342Y-13162D01*
X08338Y-13153D01*
X08335Y-13144D01*
X08334Y-13134D01*
X08334Y-13125D01*
X08337Y-13116D01*
X08341Y-13107D01*
X08348Y-13100D01*
X08355Y-13093D01*
X08363Y-13089D01*
X08373Y-13086D01*
X08382Y-13085D01*
X08391Y-13085D01*
X08401Y-13088D01*
X08409Y-13092D01*
X08417Y-13098D01*
X08423Y-13106D01*
X08428Y-13114D01*
X08431Y-13123D01*
X08432Y-13133D01*
X08433Y-13134D01*
X07933Y-13134D02*
X08333Y-13134D01*
X08333Y-13134D02*
X08333Y-13734D01*
X08333Y-13734D02*
X07933Y-13734D01*
X07533Y-13734D02*
X07133Y-13734D01*
X07133Y-13734D02*
X07133Y-13134D01*
X07133Y-13134D02*
X07533Y-13134D01*
X10833Y-12184D02*
X10832Y-12193D01*
X10829Y-12203D01*
X10824Y-12211D01*
X10818Y-12219D01*
X10810Y-12225D01*
X10802Y-12230D01*
X10793Y-12232D01*
X10783Y-12233D01*
X10774Y-12233D01*
X10765Y-12230D01*
X10756Y-12225D01*
X10749Y-12219D01*
X10742Y-12212D01*
X10738Y-12203D01*
X10735Y-12194D01*
X10734Y-12184D01*
X10734Y-12175D01*
X10737Y-12166D01*
X10741Y-12157D01*
X10748Y-12150D01*
X10755Y-12143D01*
X10763Y-12139D01*
X10773Y-12136D01*
X10782Y-12135D01*
X10791Y-12135D01*
X10801Y-12138D01*
X10809Y-12142D01*
X10817Y-12148D01*
X10823Y-12156D01*
X10828Y-12164D01*
X10831Y-12173D01*
X10832Y-12183D01*
X10833Y-12184D01*
X10333Y-12184D02*
X10733Y-12184D01*
X10733Y-12184D02*
X10733Y-12784D01*
X10733Y-12784D02*
X10333Y-12784D01*
X09933Y-12784D02*
X09533Y-12784D01*
X09533Y-12784D02*
X09533Y-12184D01*
X09533Y-12184D02*
X09933Y-12184D01*
X07083Y-17034D02*
X07082Y-17043D01*
X07079Y-17053D01*
X07074Y-17061D01*
X07068Y-17069D01*
X07060Y-17075D01*
X07052Y-17080D01*
X07043Y-17082D01*
X07033Y-17083D01*
X07024Y-17083D01*
X07015Y-17080D01*
X07006Y-17075D01*
X06999Y-17069D01*
X06992Y-17062D01*
X06988Y-17053D01*
X06985Y-17044D01*
X06984Y-17034D01*
X06984Y-17025D01*
X06987Y-17016D01*
X06991Y-17007D01*
X06998Y-17000D01*
X07005Y-16993D01*
X07013Y-16989D01*
X07023Y-16986D01*
X07032Y-16985D01*
X07041Y-16985D01*
X07051Y-16988D01*
X07059Y-16992D01*
X07067Y-16998D01*
X07073Y-17006D01*
X07078Y-17014D01*
X07081Y-17023D01*
X07082Y-17033D01*
X07083Y-17034D01*
X07033Y-17484D02*
X07033Y-17084D01*
X07033Y-17084D02*
X07633Y-17084D01*
X07633Y-17084D02*
X07633Y-17484D01*
X07633Y-17884D02*
X07633Y-18284D01*
X07633Y-18284D02*
X07033Y-18284D01*
X07033Y-18284D02*
X07033Y-17884D01*
X07983Y-17034D02*
X07982Y-17043D01*
X07979Y-17053D01*
X07974Y-17061D01*
X07968Y-17069D01*
X07960Y-17075D01*
X07952Y-17080D01*
X07943Y-17082D01*
X07933Y-17083D01*
X07924Y-17083D01*
X07915Y-17080D01*
X07906Y-17075D01*
X07899Y-17069D01*
X07892Y-17062D01*
X07888Y-17053D01*
X07885Y-17044D01*
X07884Y-17034D01*
X07884Y-17025D01*
X07887Y-17016D01*
X07891Y-17007D01*
X07898Y-17000D01*
X07905Y-16993D01*
X07913Y-16989D01*
X07923Y-16986D01*
X07932Y-16985D01*
X07941Y-16985D01*
X07951Y-16988D01*
X07959Y-16992D01*
X07967Y-16998D01*
X07973Y-17006D01*
X07978Y-17014D01*
X07981Y-17023D01*
X07982Y-17033D01*
X07983Y-17034D01*
X07933Y-17484D02*
X07933Y-17084D01*
X07933Y-17084D02*
X08533Y-17084D01*
X08533Y-17084D02*
X08533Y-17484D01*
X08533Y-17884D02*
X08533Y-18284D01*
X08533Y-18284D02*
X07933Y-18284D01*
X07933Y-18284D02*
X07933Y-17884D01*
X12706Y-16374D02*
X12705Y-16383D01*
X12702Y-16393D01*
X12697Y-16401D01*
X12691Y-16409D01*
X12683Y-16415D01*
X12675Y-16420D01*
X12666Y-16422D01*
X12656Y-16423D01*
X12647Y-16423D01*
X12638Y-16420D01*
X12629Y-16415D01*
X12622Y-16409D01*
X12615Y-16402D01*
X12611Y-16393D01*
X12608Y-16384D01*
X12607Y-16374D01*
X12607Y-16365D01*
X12610Y-16356D01*
X12614Y-16347D01*
X12621Y-16340D01*
X12628Y-16333D01*
X12636Y-16329D01*
X12646Y-16326D01*
X12655Y-16325D01*
X12664Y-16325D01*
X12674Y-16328D01*
X12682Y-16332D01*
X12690Y-16338D01*
X12696Y-16346D01*
X12701Y-16354D01*
X12704Y-16363D01*
X12705Y-16373D01*
X12706Y-16374D01*
X12656Y-16824D02*
X12656Y-16424D01*
X12656Y-16424D02*
X13256Y-16424D01*
X13256Y-16424D02*
X13256Y-16824D01*
X13256Y-17224D02*
X13256Y-17624D01*
X13256Y-17624D02*
X12656Y-17624D01*
X12656Y-17624D02*
X12656Y-17224D01*
X20283Y-17284D02*
X20282Y-17293D01*
X20279Y-17303D01*
X20274Y-17311D01*
X20268Y-17319D01*
X20260Y-17325D01*
X20252Y-17330D01*
X20243Y-17332D01*
X20233Y-17333D01*
X20224Y-17333D01*
X20215Y-17330D01*
X20206Y-17325D01*
X20199Y-17319D01*
X20192Y-17312D01*
X20188Y-17303D01*
X20185Y-17294D01*
X20184Y-17284D01*
X20184Y-17275D01*
X20187Y-17266D01*
X20191Y-17257D01*
X20198Y-17250D01*
X20205Y-17243D01*
X20213Y-17239D01*
X20223Y-17236D01*
X20232Y-17235D01*
X20241Y-17235D01*
X20251Y-17238D01*
X20259Y-17242D01*
X20267Y-17248D01*
X20273Y-17256D01*
X20278Y-17264D01*
X20281Y-17273D01*
X20282Y-17283D01*
X20283Y-17284D01*
X19783Y-17284D02*
X20183Y-17284D01*
X20183Y-17284D02*
X20183Y-17884D01*
X20183Y-17884D02*
X19783Y-17884D01*
X19383Y-17884D02*
X18983Y-17884D01*
X18983Y-17884D02*
X18983Y-17284D01*
X18983Y-17284D02*
X19383Y-17284D01*
X10983Y-12934D02*
X10982Y-12943D01*
X10979Y-12953D01*
X10974Y-12961D01*
X10968Y-12969D01*
X10960Y-12975D01*
X10952Y-12980D01*
X10943Y-12982D01*
X10933Y-12983D01*
X10924Y-12983D01*
X10915Y-12980D01*
X10906Y-12975D01*
X10899Y-12969D01*
X10892Y-12962D01*
X10888Y-12953D01*
X10885Y-12944D01*
X10884Y-12934D01*
X10884Y-12925D01*
X10887Y-12916D01*
X10891Y-12907D01*
X10898Y-12900D01*
X10905Y-12893D01*
X10913Y-12889D01*
X10923Y-12886D01*
X10932Y-12885D01*
X10941Y-12885D01*
X10951Y-12888D01*
X10959Y-12892D01*
X10967Y-12898D01*
X10973Y-12906D01*
X10978Y-12914D01*
X10981Y-12923D01*
X10982Y-12933D01*
X10983Y-12934D01*
X10933Y-13384D02*
X10933Y-12984D01*
X10933Y-12984D02*
X11533Y-12984D01*
X11533Y-12984D02*
X11533Y-13384D01*
X11533Y-13784D02*
X11533Y-14184D01*
X11533Y-14184D02*
X10933Y-14184D01*
X10933Y-14184D02*
X10933Y-13784D01*
X06983Y-13434D02*
X06982Y-13443D01*
X06979Y-13453D01*
X06974Y-13461D01*
X06968Y-13469D01*
X06960Y-13475D01*
X06952Y-13480D01*
X06943Y-13482D01*
X06933Y-13483D01*
X06924Y-13483D01*
X06915Y-13480D01*
X06906Y-13475D01*
X06899Y-13469D01*
X06892Y-13462D01*
X06888Y-13453D01*
X06885Y-13444D01*
X06884Y-13434D01*
X06884Y-13425D01*
X06887Y-13416D01*
X06891Y-13407D01*
X06898Y-13400D01*
X06905Y-13393D01*
X06913Y-13389D01*
X06923Y-13386D01*
X06932Y-13385D01*
X06941Y-13385D01*
X06951Y-13388D01*
X06959Y-13392D01*
X06967Y-13398D01*
X06973Y-13406D01*
X06978Y-13414D01*
X06981Y-13423D01*
X06982Y-13433D01*
X06983Y-13434D01*
X06933Y-12984D02*
X06933Y-13384D01*
X06933Y-13384D02*
X06333Y-13384D01*
X06333Y-13384D02*
X06333Y-12984D01*
X06333Y-12584D02*
X06333Y-12184D01*
X06333Y-12184D02*
X06933Y-12184D01*
X06933Y-12184D02*
X06933Y-12584D01*
X17766Y-08332D02*
X17765Y-08341D01*
X17762Y-08351D01*
X17757Y-08359D01*
X17751Y-08367D01*
X17743Y-08373D01*
X17735Y-08378D01*
X17726Y-08380D01*
X17716Y-08381D01*
X17707Y-08381D01*
X17698Y-08378D01*
X17689Y-08373D01*
X17682Y-08367D01*
X17675Y-08360D01*
X17671Y-08351D01*
X17668Y-08342D01*
X17667Y-08332D01*
X17667Y-08323D01*
X17670Y-08314D01*
X17674Y-08305D01*
X17681Y-08298D01*
X17688Y-08291D01*
X17696Y-08287D01*
X17706Y-08284D01*
X17715Y-08283D01*
X17724Y-08283D01*
X17734Y-08286D01*
X17742Y-08290D01*
X17750Y-08296D01*
X17756Y-08304D01*
X17761Y-08312D01*
X17764Y-08321D01*
X17765Y-08331D01*
X17766Y-08332D01*
X18166Y-08332D02*
X17766Y-08332D01*
X17766Y-08332D02*
X17766Y-07732D01*
X17766Y-07732D02*
X18166Y-07732D01*
X18566Y-07732D02*
X18966Y-07732D01*
X18966Y-07732D02*
X18966Y-08332D01*
X18966Y-08332D02*
X18566Y-08332D01*
G54D15*
X06232Y-05783D02*
X07232Y-05783D01*
G54D10*
X07116Y-04703D02*
X07074Y-04671D01*
X07030Y-04643D01*
X06983Y-04619D01*
X06935Y-04599D01*
X06885Y-04583D01*
X06834Y-04572D01*
X06782Y-04566D01*
X06732Y-04563D01*
X06732Y-04564D02*
X06680Y-04567D01*
X06628Y-04574D01*
X06577Y-04585D01*
X06528Y-04601D01*
X06479Y-04621D01*
X06433Y-04645D01*
X06389Y-04673D01*
X06347Y-04705D01*
X06335Y-04716D01*
X06732Y-05762D02*
X06784Y-05759D01*
X06836Y-05752D01*
X06887Y-05741D01*
X06936Y-05725D01*
X06985Y-05705D01*
X07031Y-05681D01*
X07075Y-05653D01*
X07117Y-05621D01*
X07121Y-05617D01*
X06348Y-05623D02*
X06390Y-05655D01*
X06434Y-05683D01*
X06481Y-05707D01*
X06529Y-05727D01*
X06579Y-05743D01*
X06630Y-05754D01*
X06682Y-05760D01*
X06732Y-05763D01*
X07081Y-05650D02*
X07122Y-05618D01*
X07160Y-05582D01*
X07195Y-05543D01*
X07227Y-05501D01*
X07254Y-05457D01*
X07278Y-05410D01*
X07297Y-05362D01*
X07313Y-05312D01*
X07323Y-05260D01*
X07330Y-05209D01*
X07332Y-05163D01*
X07332Y-05163D02*
X07329Y-05111D01*
X07322Y-05059D01*
X07311Y-05008D01*
X07295Y-04958D01*
X07275Y-04910D01*
X07251Y-04864D01*
X07223Y-04819D01*
X07191Y-04778D01*
X07156Y-04739D01*
X07117Y-04704D01*
X07092Y-04684D01*
X06133Y-05163D02*
X06136Y-05215D01*
X06143Y-05267D01*
X06154Y-05318D01*
X06170Y-05367D01*
X06190Y-05416D01*
X06214Y-05462D01*
X06242Y-05506D01*
X06274Y-05548D01*
X06309Y-05586D01*
X06347Y-05621D01*
X06365Y-05635D01*
X06364Y-04690D02*
X06324Y-04724D01*
X06287Y-04761D01*
X06254Y-04802D01*
X06224Y-04845D01*
X06198Y-04890D01*
X06177Y-04938D01*
X06159Y-04987D01*
X06146Y-05038D01*
X06137Y-05089D01*
X06133Y-05142D01*
X06132Y-05163D01*
X06982Y-05163D02*
X06981Y-05142D01*
X06978Y-05120D01*
X06973Y-05099D01*
X06966Y-05078D01*
X06958Y-05058D01*
X06948Y-05039D01*
X06936Y-05020D01*
X06923Y-05003D01*
X06908Y-04987D01*
X06892Y-04972D01*
X06875Y-04959D01*
X06857Y-04947D01*
X06837Y-04937D01*
X06817Y-04929D01*
X06796Y-04922D01*
X06775Y-04917D01*
X06753Y-04914D01*
X06732Y-04913D01*
X07132Y-05163D02*
X07130Y-05129D01*
X07125Y-05094D01*
X07118Y-05060D01*
X07107Y-05027D01*
X07094Y-04994D01*
X07078Y-04964D01*
X07059Y-04934D01*
X07038Y-04906D01*
X07014Y-04881D01*
X06989Y-04857D01*
X06961Y-04836D01*
X06932Y-04817D01*
X06901Y-04801D01*
X06868Y-04788D01*
X06835Y-04777D01*
X06801Y-04770D01*
X06766Y-04765D01*
X06732Y-04763D01*
X06482Y-05163D02*
X06483Y-05184D01*
X06486Y-05206D01*
X06491Y-05227D01*
X06498Y-05248D01*
X06506Y-05268D01*
X06516Y-05287D01*
X06528Y-05306D01*
X06541Y-05323D01*
X06556Y-05339D01*
X06572Y-05354D01*
X06589Y-05367D01*
X06608Y-05379D01*
X06627Y-05389D01*
X06647Y-05397D01*
X06668Y-05404D01*
X06689Y-05409D01*
X06711Y-05412D01*
X06732Y-05413D01*
X06332Y-05163D02*
X06334Y-05197D01*
X06339Y-05232D01*
X06346Y-05266D01*
X06357Y-05299D01*
X06370Y-05332D01*
X06386Y-05362D01*
X06405Y-05392D01*
X06426Y-05420D01*
X06450Y-05445D01*
X06475Y-05469D01*
X06503Y-05490D01*
X06533Y-05509D01*
X06563Y-05525D01*
X06596Y-05538D01*
X06629Y-05549D01*
X06663Y-05556D01*
X06698Y-05561D01*
X06732Y-05563D01*
G54D15*
X07245Y-05776D02*
X07296Y-05729D01*
X07343Y-05678D01*
X07386Y-05623D01*
X07424Y-05564D01*
X07456Y-05502D01*
X07483Y-05437D01*
X07504Y-05371D01*
X07519Y-05303D01*
X07528Y-05234D01*
X07531Y-05164D01*
X07532Y-05163D01*
X07531Y-05163D02*
X07527Y-05094D01*
X07518Y-05025D01*
X07503Y-04957D01*
X07482Y-04890D01*
X07456Y-04826D01*
X07423Y-04764D01*
X07386Y-04705D01*
X07344Y-04650D01*
X07296Y-04599D01*
X07245Y-04551D01*
X07190Y-04509D01*
X07131Y-04472D01*
X07108Y-04459D01*
X05935Y-05164D02*
X05938Y-05233D01*
X05947Y-05302D01*
X05962Y-05370D01*
X05983Y-05437D01*
X06010Y-05501D01*
X06042Y-05563D01*
X06080Y-05621D01*
X06122Y-05677D01*
X06169Y-05728D01*
X06217Y-05772D01*
X06335Y-04469D02*
X06276Y-04507D01*
X06220Y-04549D01*
X06169Y-04596D01*
X06121Y-04647D01*
X06079Y-04702D01*
X06041Y-04761D01*
X06009Y-04823D01*
X05982Y-04887D01*
X05960Y-04954D01*
X05945Y-05022D01*
X05936Y-05091D01*
X05933Y-05161D01*
X05932Y-05163D01*
X07111Y-04459D02*
X07048Y-04429D01*
X06983Y-04404D01*
X06916Y-04385D01*
X06847Y-04372D01*
X06778Y-04365D01*
X06732Y-04363D01*
X06732Y-04364D02*
X06663Y-04368D01*
X06594Y-04377D01*
X06526Y-04392D01*
X06459Y-04413D01*
X06395Y-04439D01*
X06333Y-04472D01*
X06314Y-04483D01*
G54D12*
X01645Y-10208D02*
X01645Y-09208D01*
X01645Y-09208D02*
X03645Y-09208D01*
X03645Y-09208D02*
X03645Y-10208D01*
X03645Y-10208D02*
X01645Y-10208D01*
G54D16*
X22124Y-16725D02*
X20942Y-16725D01*
X20942Y-16725D02*
X20942Y-15543D01*
X20942Y-15543D02*
X22124Y-15543D01*
X22124Y-15543D02*
X22124Y-16725D01*
G54D17*
X08933Y-04582D02*
X15233Y-04582D01*
X08933Y-09386D02*
X08933Y-04582D01*
X15233Y-09386D02*
X08933Y-09386D01*
X15233Y-04582D02*
X15233Y-09386D01*
G54D14*
X16894Y-09034D02*
X15994Y-09034D01*
X15994Y-09034D02*
X15994Y-08534D01*
X15994Y-08534D02*
X16894Y-08534D01*
X16894Y-08534D02*
X16894Y-09034D01*
X16890Y-09636D02*
X15990Y-09636D01*
X15990Y-09636D02*
X15990Y-09136D01*
X15990Y-09136D02*
X16890Y-09136D01*
X16890Y-09136D02*
X16890Y-09636D01*
G54D15*
X11583Y-20484D02*
X11583Y-21484D01*
X18583Y-20484D02*
X10583Y-20484D01*
X10583Y-20484D02*
X10583Y-21484D01*
X10583Y-21484D02*
X18583Y-21484D01*
X18583Y-21484D02*
X18583Y-20484D01*
G54D14*
X12627Y-19230D02*
X12627Y-18330D01*
X12627Y-18330D02*
X13127Y-18330D01*
X13127Y-18330D02*
X13127Y-19230D01*
X13127Y-19230D02*
X12627Y-19230D01*
G54D10*
X00290Y-08779D02*
X01290Y-08779D01*
X01290Y-08779D02*
X01290Y-10779D01*
X01290Y-10779D02*
X00290Y-10779D01*
X00290Y-10779D02*
X00290Y-08779D01*
G54D14*
X21464Y-24024D02*
X21444Y-24218D01*
X21388Y-24405D01*
X21296Y-24577D01*
X21173Y-24728D01*
X21023Y-24853D01*
X20851Y-24945D01*
X20665Y-25003D01*
X20470Y-25023D01*
X20277Y-25006D01*
X20090Y-24951D01*
X19917Y-24860D01*
X19765Y-24738D01*
X19639Y-24588D01*
X19545Y-24417D01*
X19486Y-24231D01*
X19465Y-24037D01*
X19481Y-23844D01*
X19535Y-23656D01*
X19624Y-23483D01*
X19745Y-23330D01*
X19894Y-23203D01*
X20064Y-23108D01*
X20250Y-23048D01*
X20444Y-23025D01*
X20637Y-23040D01*
X20825Y-23092D01*
X20999Y-23180D01*
X21153Y-23300D01*
X21281Y-23448D01*
X21377Y-23618D01*
X21439Y-23803D01*
X21463Y-23997D01*
X21464Y-24024D01*
X21964Y-25524D02*
X18964Y-25524D01*
X18964Y-25524D02*
X18964Y-22524D01*
X18964Y-22524D02*
X21964Y-22524D01*
X21964Y-25524D02*
X21964Y-22524D01*
X09275Y-23945D02*
X09255Y-24139D01*
X09199Y-24326D01*
X09107Y-24498D01*
X08984Y-24649D01*
X08834Y-24774D01*
X08662Y-24866D01*
X08476Y-24924D01*
X08281Y-24944D01*
X08088Y-24927D01*
X07901Y-24872D01*
X07728Y-24781D01*
X07576Y-24659D01*
X07450Y-24509D01*
X07356Y-24338D01*
X07297Y-24152D01*
X07276Y-23958D01*
X07292Y-23765D01*
X07346Y-23577D01*
X07435Y-23404D01*
X07556Y-23251D01*
X07705Y-23124D01*
X07875Y-23029D01*
X08061Y-22969D01*
X08255Y-22946D01*
X08448Y-22961D01*
X08636Y-23013D01*
X08810Y-23101D01*
X08964Y-23221D01*
X09092Y-23369D01*
X09188Y-23539D01*
X09250Y-23724D01*
X09274Y-23918D01*
X09275Y-23945D01*
X09775Y-25445D02*
X06775Y-25445D01*
X06775Y-25445D02*
X06775Y-22445D01*
X06775Y-22445D02*
X09775Y-22445D01*
X09775Y-25445D02*
X09775Y-22445D01*
X10584Y-17016D02*
X10908Y-17016D01*
X10946Y-16994D01*
X10965Y-16973D01*
X10984Y-16930D01*
X10984Y-16844D01*
X10965Y-16802D01*
X10946Y-16780D01*
X10908Y-16759D01*
X10584Y-16759D01*
X10622Y-16566D02*
X10603Y-16545D01*
X10584Y-16502D01*
X10584Y-16395D01*
X10603Y-16352D01*
X10622Y-16331D01*
X10660Y-16309D01*
X10698Y-16309D01*
X10755Y-16331D01*
X10984Y-16588D01*
X10984Y-16309D01*
X07993Y-15996D02*
X07802Y-15996D01*
X07802Y-15596D01*
X08069Y-15596D02*
X08298Y-15596D01*
X08183Y-15996D02*
X08183Y-15596D01*
X08641Y-15996D02*
X08412Y-15996D01*
X08526Y-15996D02*
X08526Y-15596D01*
X08488Y-15653D01*
X08450Y-15691D01*
X08412Y-15710D01*
X08984Y-15729D02*
X08984Y-15996D01*
X08888Y-15577D02*
X08793Y-15863D01*
X09041Y-15863D01*
X09212Y-15996D02*
X09288Y-15996D01*
X09327Y-15977D01*
X09346Y-15958D01*
X09384Y-15901D01*
X09403Y-15824D01*
X09403Y-15672D01*
X09384Y-15634D01*
X09365Y-15615D01*
X09327Y-15596D01*
X09250Y-15596D01*
X09212Y-15615D01*
X09193Y-15634D01*
X09174Y-15672D01*
X09174Y-15767D01*
X09193Y-15805D01*
X09212Y-15824D01*
X09250Y-15844D01*
X09327Y-15844D01*
X09365Y-15824D01*
X09384Y-15805D01*
X09403Y-15767D01*
X09746Y-15596D02*
X09669Y-15596D01*
X09631Y-15615D01*
X09612Y-15634D01*
X09574Y-15691D01*
X09555Y-15767D01*
X09555Y-15920D01*
X09574Y-15958D01*
X09593Y-15977D01*
X09631Y-15996D01*
X09708Y-15996D01*
X09746Y-15977D01*
X09765Y-15958D01*
X09784Y-15920D01*
X09784Y-15824D01*
X09765Y-15786D01*
X09746Y-15767D01*
X09708Y-15748D01*
X09631Y-15748D01*
X09593Y-15767D01*
X09574Y-15786D01*
X09555Y-15824D01*
G54D18*
X09778Y-13219D02*
X09718Y-13124D01*
X09675Y-13219D02*
X09675Y-13019D01*
X09743Y-13019D01*
X09761Y-13028D01*
X09769Y-13038D01*
X09778Y-13057D01*
X09778Y-13086D01*
X09769Y-13105D01*
X09761Y-13114D01*
X09743Y-13124D01*
X09675Y-13124D01*
X09846Y-13038D02*
X09855Y-13028D01*
X09872Y-13019D01*
X09915Y-13019D01*
X09932Y-13028D01*
X09941Y-13038D01*
X09949Y-13057D01*
X09949Y-13076D01*
X09941Y-13105D01*
X09838Y-13219D01*
X09949Y-13219D01*
X10009Y-13019D02*
X10120Y-13019D01*
X10060Y-13095D01*
X10086Y-13095D01*
X10103Y-13105D01*
X10112Y-13114D01*
X10120Y-13133D01*
X10120Y-13181D01*
X10112Y-13200D01*
X10103Y-13209D01*
X10086Y-13219D01*
X10034Y-13219D01*
X10017Y-13209D01*
X10009Y-13200D01*
X07518Y-12115D02*
X07458Y-12020D01*
X07415Y-12115D02*
X07415Y-11915D01*
X07483Y-11915D01*
X07501Y-11924D01*
X07509Y-11934D01*
X07518Y-11953D01*
X07518Y-11982D01*
X07509Y-12001D01*
X07501Y-12010D01*
X07483Y-12020D01*
X07415Y-12020D01*
X07586Y-11934D02*
X07595Y-11924D01*
X07612Y-11915D01*
X07655Y-11915D01*
X07672Y-11924D01*
X07681Y-11934D01*
X07689Y-11953D01*
X07689Y-11972D01*
X07681Y-12001D01*
X07578Y-12115D01*
X07689Y-12115D01*
X07843Y-11982D02*
X07843Y-12115D01*
X07800Y-11905D02*
X07757Y-12048D01*
X07869Y-12048D01*
X06068Y-15315D02*
X06008Y-15220D01*
X05965Y-15315D02*
X05965Y-15115D01*
X06033Y-15115D01*
X06051Y-15124D01*
X06059Y-15134D01*
X06068Y-15153D01*
X06068Y-15182D01*
X06059Y-15201D01*
X06051Y-15210D01*
X06033Y-15220D01*
X05965Y-15220D01*
X06136Y-15134D02*
X06145Y-15124D01*
X06162Y-15115D01*
X06205Y-15115D01*
X06222Y-15124D01*
X06231Y-15134D01*
X06239Y-15153D01*
X06239Y-15172D01*
X06231Y-15201D01*
X06128Y-15315D01*
X06239Y-15315D01*
X06402Y-15115D02*
X06316Y-15115D01*
X06307Y-15210D01*
X06316Y-15201D01*
X06333Y-15191D01*
X06376Y-15191D01*
X06393Y-15201D01*
X06402Y-15210D01*
X06410Y-15229D01*
X06410Y-15277D01*
X06402Y-15296D01*
X06393Y-15305D01*
X06376Y-15315D01*
X06333Y-15315D01*
X06316Y-15305D01*
X06307Y-15296D01*
X08668Y-12115D02*
X08608Y-12020D01*
X08565Y-12115D02*
X08565Y-11915D01*
X08633Y-11915D01*
X08651Y-11924D01*
X08659Y-11934D01*
X08668Y-11953D01*
X08668Y-11982D01*
X08659Y-12001D01*
X08651Y-12010D01*
X08633Y-12020D01*
X08565Y-12020D01*
X08736Y-11934D02*
X08745Y-11924D01*
X08762Y-11915D01*
X08805Y-11915D01*
X08822Y-11924D01*
X08831Y-11934D01*
X08839Y-11953D01*
X08839Y-11972D01*
X08831Y-12001D01*
X08728Y-12115D01*
X08839Y-12115D01*
X08993Y-11915D02*
X08959Y-11915D01*
X08942Y-11924D01*
X08933Y-11934D01*
X08916Y-11963D01*
X08907Y-12001D01*
X08907Y-12077D01*
X08916Y-12096D01*
X08924Y-12105D01*
X08942Y-12115D01*
X08976Y-12115D01*
X08993Y-12105D01*
X09002Y-12096D01*
X09010Y-12077D01*
X09010Y-12029D01*
X09002Y-12010D01*
X08993Y-12001D01*
X08976Y-11991D01*
X08942Y-11991D01*
X08924Y-12001D01*
X08916Y-12010D01*
X08907Y-12029D01*
G54D13*
X13843Y-15936D02*
X13843Y-15436D01*
X14262Y-15889D02*
X14243Y-15913D01*
X14186Y-15936D01*
X14148Y-15936D01*
X14090Y-15913D01*
X14052Y-15865D01*
X14033Y-15817D01*
X14014Y-15722D01*
X14014Y-15651D01*
X14033Y-15555D01*
X14052Y-15508D01*
X14090Y-15460D01*
X14148Y-15436D01*
X14186Y-15436D01*
X14243Y-15460D01*
X14262Y-15484D01*
X14643Y-15936D02*
X14414Y-15936D01*
X14528Y-15936D02*
X14528Y-15436D01*
X14490Y-15508D01*
X14452Y-15555D01*
X14414Y-15579D01*
G54D19*
X14919Y-18157D02*
X15015Y-18157D01*
X14900Y-18213D02*
X14967Y-18016D01*
X15034Y-18213D01*
X15072Y-18016D02*
X15187Y-18016D01*
X15130Y-18213D02*
X15130Y-18016D01*
X15254Y-18213D02*
X15254Y-18016D01*
X15321Y-18157D01*
X15388Y-18016D01*
X15388Y-18213D01*
X15484Y-18110D02*
X15551Y-18110D01*
X15580Y-18213D02*
X15484Y-18213D01*
X15484Y-18016D01*
X15580Y-18016D01*
X15771Y-18026D02*
X15752Y-18016D01*
X15723Y-18016D01*
X15695Y-18026D01*
X15675Y-18044D01*
X15666Y-18063D01*
X15656Y-18101D01*
X15656Y-18129D01*
X15666Y-18166D01*
X15675Y-18185D01*
X15695Y-18204D01*
X15723Y-18213D01*
X15742Y-18213D01*
X15771Y-18204D01*
X15781Y-18194D01*
X15781Y-18129D01*
X15742Y-18129D01*
X15857Y-18157D02*
X15953Y-18157D01*
X15838Y-18213D02*
X15905Y-18016D01*
X15972Y-18213D01*
X16020Y-18016D02*
X16144Y-18016D01*
X16077Y-18091D01*
X16106Y-18091D01*
X16125Y-18101D01*
X16135Y-18110D01*
X16144Y-18129D01*
X16144Y-18176D01*
X16135Y-18194D01*
X16125Y-18204D01*
X16106Y-18213D01*
X16048Y-18213D01*
X16029Y-18204D01*
X16020Y-18194D01*
X16220Y-18035D02*
X16230Y-18026D01*
X16249Y-18016D01*
X16297Y-18016D01*
X16316Y-18026D01*
X16326Y-18035D01*
X16335Y-18054D01*
X16335Y-18073D01*
X16326Y-18101D01*
X16211Y-18213D01*
X16335Y-18213D01*
X16450Y-18101D02*
X16430Y-18091D01*
X16421Y-18082D01*
X16411Y-18063D01*
X16411Y-18054D01*
X16421Y-18035D01*
X16430Y-18026D01*
X16450Y-18016D01*
X16488Y-18016D01*
X16507Y-18026D01*
X16517Y-18035D01*
X16526Y-18054D01*
X16526Y-18063D01*
X16517Y-18082D01*
X16507Y-18091D01*
X16488Y-18101D01*
X16450Y-18101D01*
X16430Y-18110D01*
X16421Y-18119D01*
X16411Y-18138D01*
X16411Y-18176D01*
X16421Y-18194D01*
X16430Y-18204D01*
X16450Y-18213D01*
X16488Y-18213D01*
X16507Y-18204D01*
X16517Y-18194D01*
X16526Y-18176D01*
X16526Y-18138D01*
X16517Y-18119D01*
X16507Y-18110D01*
X16488Y-18101D01*
X16612Y-18213D02*
X16612Y-18016D01*
X16688Y-18016D01*
X16708Y-18026D01*
X16717Y-18035D01*
X16727Y-18054D01*
X16727Y-18082D01*
X16717Y-18101D01*
X16708Y-18110D01*
X16688Y-18119D01*
X16612Y-18119D01*
X16813Y-18138D02*
X16966Y-18138D01*
X17052Y-18157D02*
X17148Y-18157D01*
X17033Y-18213D02*
X17100Y-18016D01*
X17167Y-18213D01*
G54D18*
X07604Y-19215D02*
X07544Y-19120D01*
X07501Y-19215D02*
X07501Y-19015D01*
X07569Y-19015D01*
X07587Y-19024D01*
X07595Y-19034D01*
X07604Y-19053D01*
X07604Y-19082D01*
X07595Y-19101D01*
X07587Y-19110D01*
X07569Y-19120D01*
X07501Y-19120D01*
X07775Y-19215D02*
X07672Y-19215D01*
X07724Y-19215D02*
X07724Y-19015D01*
X07707Y-19044D01*
X07689Y-19063D01*
X07672Y-19072D01*
X12664Y-13363D02*
X12569Y-13423D01*
X12664Y-13466D02*
X12464Y-13466D01*
X12464Y-13398D01*
X12473Y-13380D01*
X12483Y-13372D01*
X12502Y-13363D01*
X12531Y-13363D01*
X12550Y-13372D01*
X12559Y-13380D01*
X12569Y-13398D01*
X12569Y-13466D01*
X12483Y-13295D02*
X12473Y-13286D01*
X12464Y-13269D01*
X12464Y-13226D01*
X12473Y-13209D01*
X12483Y-13200D01*
X12502Y-13192D01*
X12521Y-13192D01*
X12550Y-13200D01*
X12664Y-13303D01*
X12664Y-13192D01*
X08854Y-19215D02*
X08794Y-19120D01*
X08751Y-19215D02*
X08751Y-19015D01*
X08819Y-19015D01*
X08837Y-19024D01*
X08845Y-19034D01*
X08854Y-19053D01*
X08854Y-19082D01*
X08845Y-19101D01*
X08837Y-19110D01*
X08819Y-19120D01*
X08751Y-19120D01*
X08914Y-19015D02*
X09025Y-19015D01*
X08965Y-19091D01*
X08991Y-19091D01*
X09008Y-19101D01*
X09017Y-19110D01*
X09025Y-19129D01*
X09025Y-19177D01*
X09017Y-19196D01*
X09008Y-19205D01*
X08991Y-19215D01*
X08939Y-19215D01*
X08922Y-19205D01*
X08914Y-19196D01*
X06204Y-16715D02*
X06144Y-16620D01*
X06101Y-16715D02*
X06101Y-16515D01*
X06169Y-16515D01*
X06187Y-16524D01*
X06195Y-16534D01*
X06204Y-16553D01*
X06204Y-16582D01*
X06195Y-16601D01*
X06187Y-16610D01*
X06169Y-16620D01*
X06101Y-16620D01*
X06358Y-16582D02*
X06358Y-16715D01*
X06315Y-16505D02*
X06272Y-16648D01*
X06384Y-16648D01*
X11664Y-12113D02*
X11569Y-12173D01*
X11664Y-12216D02*
X11464Y-12216D01*
X11464Y-12148D01*
X11473Y-12130D01*
X11483Y-12122D01*
X11502Y-12113D01*
X11531Y-12113D01*
X11550Y-12122D01*
X11559Y-12130D01*
X11569Y-12148D01*
X11569Y-12216D01*
X11464Y-11950D02*
X11464Y-12036D01*
X11559Y-12045D01*
X11550Y-12036D01*
X11540Y-12019D01*
X11540Y-11976D01*
X11550Y-11959D01*
X11559Y-11950D01*
X11578Y-11942D01*
X11626Y-11942D01*
X11645Y-11950D01*
X11654Y-11959D01*
X11664Y-11976D01*
X11664Y-12019D01*
X11654Y-12036D01*
X11645Y-12045D01*
X12514Y-16613D02*
X12419Y-16673D01*
X12514Y-16716D02*
X12314Y-16716D01*
X12314Y-16648D01*
X12323Y-16630D01*
X12333Y-16622D01*
X12352Y-16613D01*
X12381Y-16613D01*
X12400Y-16622D01*
X12409Y-16630D01*
X12419Y-16648D01*
X12419Y-16716D01*
X12314Y-16553D02*
X12314Y-16433D01*
X12514Y-16510D01*
X11352Y-17270D02*
X11292Y-17175D01*
X11249Y-17270D02*
X11249Y-17070D01*
X11317Y-17070D01*
X11335Y-17079D01*
X11343Y-17089D01*
X11352Y-17108D01*
X11352Y-17137D01*
X11343Y-17156D01*
X11335Y-17165D01*
X11317Y-17175D01*
X11249Y-17175D01*
X11455Y-17156D02*
X11437Y-17146D01*
X11429Y-17137D01*
X11420Y-17118D01*
X11420Y-17108D01*
X11429Y-17089D01*
X11437Y-17079D01*
X11455Y-17070D01*
X11489Y-17070D01*
X11506Y-17079D01*
X11515Y-17089D01*
X11523Y-17108D01*
X11523Y-17118D01*
X11515Y-17137D01*
X11506Y-17146D01*
X11489Y-17156D01*
X11455Y-17156D01*
X11437Y-17165D01*
X11429Y-17175D01*
X11420Y-17194D01*
X11420Y-17232D01*
X11429Y-17251D01*
X11437Y-17260D01*
X11455Y-17270D01*
X11489Y-17270D01*
X11506Y-17260D01*
X11515Y-17251D01*
X11523Y-17232D01*
X11523Y-17194D01*
X11515Y-17175D01*
X11506Y-17165D01*
X11489Y-17156D01*
X17914Y-13649D02*
X17819Y-13709D01*
X17914Y-13752D02*
X17714Y-13752D01*
X17714Y-13684D01*
X17723Y-13666D01*
X17733Y-13658D01*
X17752Y-13649D01*
X17781Y-13649D01*
X17800Y-13658D01*
X17809Y-13666D01*
X17819Y-13684D01*
X17819Y-13752D01*
X17914Y-13478D02*
X17914Y-13581D01*
X17914Y-13529D02*
X17714Y-13529D01*
X17743Y-13546D01*
X17762Y-13564D01*
X17771Y-13581D01*
X17714Y-13367D02*
X17714Y-13350D01*
X17723Y-13333D01*
X17733Y-13324D01*
X17752Y-13315D01*
X17790Y-13307D01*
X17838Y-13307D01*
X17876Y-13315D01*
X17895Y-13324D01*
X17904Y-13333D01*
X17914Y-13350D01*
X17914Y-13367D01*
X17904Y-13384D01*
X17895Y-13393D01*
X17876Y-13401D01*
X17838Y-13410D01*
X17790Y-13410D01*
X17752Y-13401D01*
X17733Y-13393D01*
X17723Y-13384D01*
X17714Y-13367D01*
X14689Y-23224D02*
X14594Y-23284D01*
X14689Y-23327D02*
X14489Y-23327D01*
X14489Y-23259D01*
X14498Y-23241D01*
X14508Y-23233D01*
X14527Y-23224D01*
X14556Y-23224D01*
X14575Y-23233D01*
X14584Y-23241D01*
X14594Y-23259D01*
X14594Y-23327D01*
X14689Y-23053D02*
X14689Y-23156D01*
X14689Y-23104D02*
X14489Y-23104D01*
X14518Y-23121D01*
X14537Y-23139D01*
X14546Y-23156D01*
X14556Y-22899D02*
X14689Y-22899D01*
X14479Y-22942D02*
X14622Y-22985D01*
X14622Y-22873D01*
X14691Y-23229D02*
X14596Y-23289D01*
X14691Y-23332D02*
X14491Y-23332D01*
X14491Y-23264D01*
X14500Y-23246D01*
X14510Y-23238D01*
X14529Y-23229D01*
X14558Y-23229D01*
X14577Y-23238D01*
X14586Y-23246D01*
X14596Y-23264D01*
X14596Y-23332D01*
X14691Y-23058D02*
X14691Y-23161D01*
X14691Y-23109D02*
X14491Y-23109D01*
X14520Y-23126D01*
X14539Y-23144D01*
X14548Y-23161D01*
X14491Y-22895D02*
X14491Y-22981D01*
X14586Y-22990D01*
X14577Y-22981D01*
X14567Y-22964D01*
X14567Y-22921D01*
X14577Y-22904D01*
X14586Y-22895D01*
X14605Y-22887D01*
X14653Y-22887D01*
X14672Y-22895D01*
X14681Y-22904D01*
X14691Y-22921D01*
X14691Y-22964D01*
X14681Y-22981D01*
X14672Y-22990D01*
G54D20*
X15711Y-24105D02*
X15711Y-23805D01*
X15826Y-23805D01*
X15854Y-23820D01*
X15869Y-23834D01*
X15883Y-23863D01*
X15883Y-23905D01*
X15869Y-23934D01*
X15854Y-23948D01*
X15826Y-23963D01*
X15711Y-23963D01*
X15997Y-23834D02*
X16011Y-23820D01*
X16040Y-23805D01*
X16111Y-23805D01*
X16140Y-23820D01*
X16154Y-23834D01*
X16169Y-23863D01*
X16169Y-23891D01*
X16154Y-23934D01*
X15983Y-24105D01*
X16169Y-24105D01*
X15911Y-22225D02*
X16023Y-22225D01*
X15967Y-22422D02*
X15967Y-22225D01*
X16089Y-22422D02*
X16089Y-22225D01*
X16155Y-22366D01*
X16220Y-22225D01*
X16220Y-22422D01*
X16314Y-22422D02*
X16314Y-22225D01*
X16389Y-22225D01*
X16408Y-22235D01*
X16417Y-22244D01*
X16426Y-22263D01*
X16426Y-22291D01*
X16417Y-22310D01*
X16408Y-22319D01*
X16389Y-22328D01*
X16314Y-22328D01*
X16614Y-22422D02*
X16502Y-22422D01*
X16558Y-22422D02*
X16558Y-22225D01*
X16539Y-22253D01*
X16520Y-22272D01*
X16502Y-22282D01*
X16736Y-22225D02*
X16755Y-22225D01*
X16774Y-22235D01*
X16783Y-22244D01*
X16793Y-22263D01*
X16802Y-22300D01*
X16802Y-22347D01*
X16793Y-22385D01*
X16783Y-22403D01*
X16774Y-22413D01*
X16755Y-22422D01*
X16736Y-22422D01*
X16718Y-22413D01*
X16708Y-22403D01*
X16699Y-22385D01*
X16690Y-22347D01*
X16690Y-22300D01*
X16699Y-22263D01*
X16708Y-22244D01*
X16718Y-22235D01*
X16736Y-22225D01*
X16924Y-22225D02*
X16943Y-22225D01*
X16962Y-22235D01*
X16971Y-22244D01*
X16981Y-22263D01*
X16990Y-22300D01*
X16990Y-22347D01*
X16981Y-22385D01*
X16971Y-22403D01*
X16962Y-22413D01*
X16943Y-22422D01*
X16924Y-22422D01*
X16906Y-22413D01*
X16896Y-22403D01*
X16887Y-22385D01*
X16878Y-22347D01*
X16878Y-22300D01*
X16887Y-22263D01*
X16896Y-22244D01*
X16906Y-22235D01*
X16924Y-22225D01*
G54D21*
X20274Y-22036D02*
X20246Y-22022D01*
X20217Y-21993D01*
X20174Y-21950D01*
X20146Y-21936D01*
X20117Y-21936D01*
X20132Y-22007D02*
X20103Y-21993D01*
X20074Y-21965D01*
X20060Y-21907D01*
X20060Y-21807D01*
X20074Y-21750D01*
X20103Y-21722D01*
X20132Y-21707D01*
X20189Y-21707D01*
X20217Y-21722D01*
X20246Y-21750D01*
X20260Y-21807D01*
X20260Y-21907D01*
X20246Y-21965D01*
X20217Y-21993D01*
X20189Y-22007D01*
X20132Y-22007D01*
X20374Y-21736D02*
X20388Y-21722D01*
X20417Y-21707D01*
X20488Y-21707D01*
X20517Y-21722D01*
X20531Y-21736D01*
X20546Y-21765D01*
X20546Y-21793D01*
X20531Y-21836D01*
X20360Y-22007D01*
X20546Y-22007D01*
G54D22*
X19235Y-21794D02*
X19235Y-21730D01*
X19272Y-21794D01*
X19272Y-21730D01*
X19302Y-21794D02*
X19302Y-21730D01*
X19317Y-21730D01*
X19327Y-21733D01*
X19333Y-21739D01*
X19336Y-21745D01*
X19339Y-21757D01*
X19339Y-21766D01*
X19336Y-21779D01*
X19333Y-21785D01*
X19327Y-21791D01*
X19317Y-21794D01*
X19302Y-21794D01*
X19363Y-21791D02*
X19372Y-21794D01*
X19388Y-21794D01*
X19394Y-21791D01*
X19397Y-21788D01*
X19400Y-21782D01*
X19400Y-21776D01*
X19397Y-21770D01*
X19394Y-21766D01*
X19388Y-21763D01*
X19375Y-21760D01*
X19369Y-21757D01*
X19366Y-21754D01*
X19363Y-21748D01*
X19363Y-21742D01*
X19366Y-21736D01*
X19369Y-21733D01*
X19375Y-21730D01*
X19391Y-21730D01*
X19400Y-21733D01*
X19439Y-21730D02*
X19446Y-21730D01*
X19452Y-21733D01*
X19455Y-21736D01*
X19458Y-21742D01*
X19461Y-21754D01*
X19461Y-21770D01*
X19458Y-21782D01*
X19455Y-21788D01*
X19452Y-21791D01*
X19446Y-21794D01*
X19439Y-21794D01*
X19433Y-21791D01*
X19430Y-21788D01*
X19427Y-21782D01*
X19424Y-21770D01*
X19424Y-21754D01*
X19427Y-21742D01*
X19430Y-21736D01*
X19433Y-21733D01*
X19439Y-21730D01*
X19516Y-21730D02*
X19503Y-21730D01*
X19497Y-21733D01*
X19494Y-21736D01*
X19488Y-21745D01*
X19485Y-21757D01*
X19485Y-21782D01*
X19488Y-21788D01*
X19491Y-21791D01*
X19497Y-21794D01*
X19510Y-21794D01*
X19516Y-21791D01*
X19519Y-21788D01*
X19522Y-21782D01*
X19522Y-21766D01*
X19519Y-21760D01*
X19516Y-21757D01*
X19510Y-21754D01*
X19497Y-21754D01*
X19491Y-21757D01*
X19488Y-21760D01*
X19485Y-21766D01*
X19583Y-21794D02*
X19546Y-21794D01*
X19564Y-21794D02*
X19564Y-21730D01*
X19558Y-21739D01*
X19552Y-21745D01*
X19546Y-21748D01*
X19622Y-21730D02*
X19629Y-21730D01*
X19635Y-21733D01*
X19638Y-21736D01*
X19641Y-21742D01*
X19644Y-21754D01*
X19644Y-21770D01*
X19641Y-21782D01*
X19638Y-21788D01*
X19635Y-21791D01*
X19629Y-21794D01*
X19622Y-21794D01*
X19616Y-21791D01*
X19613Y-21788D01*
X19610Y-21782D01*
X19607Y-21770D01*
X19607Y-21754D01*
X19610Y-21742D01*
X19613Y-21736D01*
X19616Y-21733D01*
X19622Y-21730D01*
G54D20*
X06454Y-17206D02*
X06154Y-17206D01*
X06154Y-17134D01*
X06169Y-17091D01*
X06197Y-17063D01*
X06226Y-17048D01*
X06283Y-17034D01*
X06326Y-17034D01*
X06383Y-17048D01*
X06412Y-17063D01*
X06440Y-17091D01*
X06454Y-17134D01*
X06454Y-17206D01*
X06454Y-16748D02*
X06454Y-16920D01*
X06454Y-16834D02*
X06154Y-16834D01*
X06197Y-16863D01*
X06226Y-16891D01*
X06240Y-16920D01*
X05767Y-17660D02*
X05795Y-17669D01*
X05804Y-17679D01*
X05813Y-17698D01*
X05813Y-17726D01*
X05804Y-17744D01*
X05795Y-17754D01*
X05776Y-17763D01*
X05701Y-17763D01*
X05701Y-17566D01*
X05767Y-17566D01*
X05785Y-17576D01*
X05795Y-17585D01*
X05804Y-17604D01*
X05804Y-17623D01*
X05795Y-17641D01*
X05785Y-17651D01*
X05767Y-17660D01*
X05701Y-17660D01*
X05889Y-17707D02*
X05982Y-17707D01*
X05870Y-17763D02*
X05935Y-17566D01*
X06001Y-17763D01*
X06067Y-17763D02*
X06067Y-17566D01*
X06142Y-17566D01*
X06161Y-17576D01*
X06170Y-17585D01*
X06179Y-17604D01*
X06179Y-17632D01*
X06170Y-17651D01*
X06161Y-17660D01*
X06142Y-17669D01*
X06067Y-17669D01*
X06348Y-17566D02*
X06311Y-17566D01*
X06292Y-17576D01*
X06283Y-17585D01*
X06264Y-17613D01*
X06255Y-17651D01*
X06255Y-17726D01*
X06264Y-17744D01*
X06273Y-17754D01*
X06292Y-17763D01*
X06330Y-17763D01*
X06348Y-17754D01*
X06358Y-17744D01*
X06367Y-17726D01*
X06367Y-17679D01*
X06358Y-17660D01*
X06348Y-17651D01*
X06330Y-17641D01*
X06292Y-17641D01*
X06273Y-17651D01*
X06264Y-17660D01*
X06255Y-17679D01*
X06536Y-17632D02*
X06536Y-17763D01*
X06489Y-17557D02*
X06443Y-17698D01*
X06564Y-17698D01*
X06640Y-17688D02*
X06790Y-17688D01*
X06921Y-17566D02*
X06940Y-17566D01*
X06959Y-17576D01*
X06968Y-17585D01*
X06978Y-17604D01*
X06987Y-17641D01*
X06987Y-17688D01*
X06978Y-17726D01*
X06968Y-17744D01*
X06959Y-17754D01*
X06940Y-17763D01*
X06921Y-17763D01*
X06903Y-17754D01*
X06893Y-17744D01*
X06884Y-17726D01*
X06875Y-17688D01*
X06875Y-17641D01*
X06884Y-17604D01*
X06893Y-17585D01*
X06903Y-17576D01*
X06921Y-17566D01*
X07156Y-17632D02*
X07156Y-17763D01*
X07109Y-17557D02*
X07063Y-17698D01*
X07184Y-17698D01*
X10204Y-20856D02*
X09904Y-20856D01*
X09904Y-20784D01*
X09919Y-20741D01*
X09947Y-20713D01*
X09976Y-20698D01*
X10033Y-20684D01*
X10076Y-20684D01*
X10133Y-20698D01*
X10162Y-20713D01*
X10190Y-20741D01*
X10204Y-20784D01*
X10204Y-20856D01*
X09933Y-20570D02*
X09919Y-20556D01*
X09904Y-20527D01*
X09904Y-20456D01*
X09919Y-20427D01*
X09933Y-20413D01*
X09962Y-20398D01*
X09990Y-20398D01*
X10033Y-20413D01*
X10204Y-20584D01*
X10204Y-20398D01*
X08992Y-19960D02*
X09020Y-19969D01*
X09029Y-19979D01*
X09038Y-19998D01*
X09038Y-20026D01*
X09029Y-20044D01*
X09020Y-20054D01*
X09001Y-20063D01*
X08926Y-20063D01*
X08926Y-19866D01*
X08992Y-19866D01*
X09010Y-19876D01*
X09020Y-19885D01*
X09029Y-19904D01*
X09029Y-19923D01*
X09020Y-19941D01*
X09010Y-19951D01*
X08992Y-19960D01*
X08926Y-19960D01*
X09114Y-20007D02*
X09207Y-20007D01*
X09095Y-20063D02*
X09160Y-19866D01*
X09226Y-20063D01*
X09292Y-20063D02*
X09292Y-19866D01*
X09367Y-19866D01*
X09386Y-19876D01*
X09395Y-19885D01*
X09404Y-19904D01*
X09404Y-19932D01*
X09395Y-19951D01*
X09386Y-19960D01*
X09367Y-19969D01*
X09292Y-19969D01*
X09573Y-19866D02*
X09536Y-19866D01*
X09517Y-19876D01*
X09508Y-19885D01*
X09489Y-19913D01*
X09480Y-19951D01*
X09480Y-20026D01*
X09489Y-20044D01*
X09498Y-20054D01*
X09517Y-20063D01*
X09555Y-20063D01*
X09573Y-20054D01*
X09583Y-20044D01*
X09592Y-20026D01*
X09592Y-19979D01*
X09583Y-19960D01*
X09573Y-19951D01*
X09555Y-19941D01*
X09517Y-19941D01*
X09498Y-19951D01*
X09489Y-19960D01*
X09480Y-19979D01*
X09761Y-19932D02*
X09761Y-20063D01*
X09714Y-19857D02*
X09668Y-19998D01*
X09789Y-19998D01*
X09865Y-19988D02*
X10015Y-19988D01*
X10146Y-19866D02*
X10165Y-19866D01*
X10184Y-19876D01*
X10193Y-19885D01*
X10203Y-19904D01*
X10212Y-19941D01*
X10212Y-19988D01*
X10203Y-20026D01*
X10193Y-20044D01*
X10184Y-20054D01*
X10165Y-20063D01*
X10146Y-20063D01*
X10128Y-20054D01*
X10118Y-20044D01*
X10109Y-20026D01*
X10100Y-19988D01*
X10100Y-19941D01*
X10109Y-19904D01*
X10118Y-19885D01*
X10128Y-19876D01*
X10146Y-19866D01*
X10381Y-19932D02*
X10381Y-20063D01*
X10334Y-19857D02*
X10288Y-19998D01*
X10409Y-19998D01*
X08154Y-21106D02*
X07854Y-21106D01*
X07854Y-21034D01*
X07869Y-20991D01*
X07897Y-20963D01*
X07926Y-20948D01*
X07983Y-20934D01*
X08026Y-20934D01*
X08083Y-20948D01*
X08112Y-20963D01*
X08140Y-20991D01*
X08154Y-21034D01*
X08154Y-21106D01*
X07854Y-20834D02*
X07854Y-20648D01*
X07969Y-20748D01*
X07969Y-20706D01*
X07983Y-20677D01*
X07997Y-20663D01*
X08026Y-20648D01*
X08097Y-20648D01*
X08126Y-20663D01*
X08140Y-20677D01*
X08154Y-20706D01*
X08154Y-20791D01*
X08140Y-20820D01*
X08126Y-20834D01*
X06892Y-20210D02*
X06920Y-20219D01*
X06929Y-20229D01*
X06938Y-20248D01*
X06938Y-20276D01*
X06929Y-20294D01*
X06920Y-20304D01*
X06901Y-20313D01*
X06826Y-20313D01*
X06826Y-20116D01*
X06892Y-20116D01*
X06910Y-20126D01*
X06920Y-20135D01*
X06929Y-20154D01*
X06929Y-20173D01*
X06920Y-20191D01*
X06910Y-20201D01*
X06892Y-20210D01*
X06826Y-20210D01*
X07014Y-20257D02*
X07107Y-20257D01*
X06995Y-20313D02*
X07060Y-20116D01*
X07126Y-20313D01*
X07192Y-20313D02*
X07192Y-20116D01*
X07267Y-20116D01*
X07286Y-20126D01*
X07295Y-20135D01*
X07304Y-20154D01*
X07304Y-20182D01*
X07295Y-20201D01*
X07286Y-20210D01*
X07267Y-20219D01*
X07192Y-20219D01*
X07473Y-20116D02*
X07436Y-20116D01*
X07417Y-20126D01*
X07408Y-20135D01*
X07389Y-20163D01*
X07380Y-20201D01*
X07380Y-20276D01*
X07389Y-20294D01*
X07398Y-20304D01*
X07417Y-20313D01*
X07455Y-20313D01*
X07473Y-20304D01*
X07483Y-20294D01*
X07492Y-20276D01*
X07492Y-20229D01*
X07483Y-20210D01*
X07473Y-20201D01*
X07455Y-20191D01*
X07417Y-20191D01*
X07398Y-20201D01*
X07389Y-20210D01*
X07380Y-20229D01*
X07661Y-20182D02*
X07661Y-20313D01*
X07614Y-20107D02*
X07568Y-20248D01*
X07689Y-20248D01*
X07765Y-20238D02*
X07915Y-20238D01*
X08046Y-20116D02*
X08065Y-20116D01*
X08084Y-20126D01*
X08093Y-20135D01*
X08103Y-20154D01*
X08112Y-20191D01*
X08112Y-20238D01*
X08103Y-20276D01*
X08093Y-20294D01*
X08084Y-20304D01*
X08065Y-20313D01*
X08046Y-20313D01*
X08028Y-20304D01*
X08018Y-20294D01*
X08009Y-20276D01*
X08000Y-20238D01*
X08000Y-20191D01*
X08009Y-20154D01*
X08018Y-20135D01*
X08028Y-20126D01*
X08046Y-20116D01*
X08281Y-20182D02*
X08281Y-20313D01*
X08234Y-20107D02*
X08188Y-20248D01*
X08309Y-20248D01*
G54D18*
X10964Y-17699D02*
X10869Y-17759D01*
X10964Y-17802D02*
X10764Y-17802D01*
X10764Y-17734D01*
X10773Y-17716D01*
X10783Y-17708D01*
X10802Y-17699D01*
X10831Y-17699D01*
X10850Y-17708D01*
X10859Y-17716D01*
X10869Y-17734D01*
X10869Y-17802D01*
X10964Y-17528D02*
X10964Y-17631D01*
X10964Y-17579D02*
X10764Y-17579D01*
X10793Y-17596D01*
X10812Y-17614D01*
X10821Y-17631D01*
X10764Y-17374D02*
X10764Y-17408D01*
X10773Y-17425D01*
X10783Y-17434D01*
X10812Y-17451D01*
X10850Y-17460D01*
X10926Y-17460D01*
X10945Y-17451D01*
X10954Y-17443D01*
X10964Y-17425D01*
X10964Y-17391D01*
X10954Y-17374D01*
X10945Y-17365D01*
X10926Y-17357D01*
X10878Y-17357D01*
X10859Y-17365D01*
X10850Y-17374D01*
X10840Y-17391D01*
X10840Y-17425D01*
X10850Y-17443D01*
X10859Y-17451D01*
X10878Y-17460D01*
G54D23*
X05876Y-21311D02*
X05876Y-20630D01*
X06039Y-20630D01*
X06080Y-20663D01*
X06100Y-20695D01*
X06120Y-20760D01*
X06120Y-20857D01*
X06100Y-20922D01*
X06080Y-20954D01*
X06039Y-20987D01*
X05876Y-20987D01*
X06528Y-21311D02*
X06284Y-21311D01*
X06406Y-21311D02*
X06406Y-20630D01*
X06365Y-20727D01*
X06324Y-20792D01*
X06284Y-20825D01*
X22163Y-15009D02*
X22163Y-14328D01*
X22326Y-14328D01*
X22367Y-14361D01*
X22387Y-14393D01*
X22407Y-14458D01*
X22407Y-14555D01*
X22387Y-14620D01*
X22367Y-14652D01*
X22326Y-14685D01*
X22163Y-14685D01*
X22815Y-15009D02*
X22571Y-15009D01*
X22693Y-15009D02*
X22693Y-14328D01*
X22652Y-14425D01*
X22611Y-14490D01*
X22571Y-14523D01*
X23182Y-14328D02*
X23101Y-14328D01*
X23060Y-14361D01*
X23040Y-14393D01*
X22999Y-14490D01*
X22979Y-14620D01*
X22979Y-14879D01*
X22999Y-14944D01*
X23019Y-14977D01*
X23060Y-15009D01*
X23142Y-15009D01*
X23182Y-14977D01*
X23203Y-14944D01*
X23223Y-14879D01*
X23223Y-14717D01*
X23203Y-14652D01*
X23182Y-14620D01*
X23142Y-14588D01*
X23060Y-14588D01*
X23019Y-14620D01*
X22999Y-14652D01*
X22979Y-14717D01*
G54D18*
X18064Y-16049D02*
X17969Y-16109D01*
X18064Y-16152D02*
X17864Y-16152D01*
X17864Y-16084D01*
X17873Y-16066D01*
X17883Y-16058D01*
X17902Y-16049D01*
X17931Y-16049D01*
X17950Y-16058D01*
X17959Y-16066D01*
X17969Y-16084D01*
X17969Y-16152D01*
X18064Y-15878D02*
X18064Y-15981D01*
X18064Y-15929D02*
X17864Y-15929D01*
X17893Y-15946D01*
X17912Y-15964D01*
X17921Y-15981D01*
X18064Y-15707D02*
X18064Y-15810D01*
X18064Y-15758D02*
X17864Y-15758D01*
X17893Y-15775D01*
X17912Y-15793D01*
X17921Y-15810D01*
X18618Y-17015D02*
X18558Y-16920D01*
X18515Y-17015D02*
X18515Y-16815D01*
X18583Y-16815D01*
X18601Y-16824D01*
X18609Y-16834D01*
X18618Y-16853D01*
X18618Y-16882D01*
X18609Y-16901D01*
X18601Y-16910D01*
X18583Y-16920D01*
X18515Y-16920D01*
X18789Y-17015D02*
X18686Y-17015D01*
X18738Y-17015D02*
X18738Y-16815D01*
X18721Y-16844D01*
X18703Y-16863D01*
X18686Y-16872D01*
X18849Y-16815D02*
X18969Y-16815D01*
X18892Y-17015D01*
G54D14*
X15330Y-09861D02*
X15316Y-09875D01*
X15273Y-09889D01*
X15244Y-09889D01*
X15201Y-09875D01*
X15173Y-09847D01*
X15158Y-09818D01*
X15144Y-09761D01*
X15144Y-09718D01*
X15158Y-09661D01*
X15173Y-09632D01*
X15201Y-09604D01*
X15244Y-09589D01*
X15273Y-09589D01*
X15316Y-09604D01*
X15330Y-09618D01*
X15444Y-09618D02*
X15458Y-09604D01*
X15487Y-09589D01*
X15558Y-09589D01*
X15587Y-09604D01*
X15601Y-09618D01*
X15616Y-09647D01*
X15616Y-09675D01*
X15601Y-09718D01*
X15430Y-09889D01*
X15616Y-09889D01*
X15716Y-09589D02*
X15916Y-09589D01*
X15787Y-09889D01*
X21872Y-18561D02*
X21860Y-18573D01*
X21825Y-18585D01*
X21801Y-18585D01*
X21765Y-18573D01*
X21741Y-18549D01*
X21730Y-18526D01*
X21718Y-18478D01*
X21718Y-18442D01*
X21730Y-18395D01*
X21741Y-18371D01*
X21765Y-18347D01*
X21801Y-18335D01*
X21825Y-18335D01*
X21860Y-18347D01*
X21872Y-18359D01*
X21956Y-18335D02*
X22110Y-18335D01*
X22027Y-18430D01*
X22063Y-18430D01*
X22087Y-18442D01*
X22099Y-18454D01*
X22110Y-18478D01*
X22110Y-18538D01*
X22099Y-18561D01*
X22087Y-18573D01*
X22063Y-18585D01*
X21991Y-18585D01*
X21968Y-18573D01*
X21956Y-18561D01*
X22265Y-18335D02*
X22289Y-18335D01*
X22313Y-18347D01*
X22325Y-18359D01*
X22337Y-18383D01*
X22348Y-18430D01*
X22348Y-18490D01*
X22337Y-18538D01*
X22325Y-18561D01*
X22313Y-18573D01*
X22289Y-18585D01*
X22265Y-18585D01*
X22241Y-18573D01*
X22229Y-18561D01*
X22218Y-18538D01*
X22206Y-18490D01*
X22206Y-18430D01*
X22218Y-18383D01*
X22229Y-18359D01*
X22241Y-18347D01*
X22265Y-18335D01*
X14972Y-12011D02*
X14960Y-12023D01*
X14925Y-12035D01*
X14901Y-12035D01*
X14865Y-12023D01*
X14841Y-11999D01*
X14830Y-11976D01*
X14818Y-11928D01*
X14818Y-11892D01*
X14830Y-11845D01*
X14841Y-11821D01*
X14865Y-11797D01*
X14901Y-11785D01*
X14925Y-11785D01*
X14960Y-11797D01*
X14972Y-11809D01*
X15068Y-11809D02*
X15080Y-11797D01*
X15103Y-11785D01*
X15163Y-11785D01*
X15187Y-11797D01*
X15199Y-11809D01*
X15210Y-11833D01*
X15210Y-11857D01*
X15199Y-11892D01*
X15056Y-12035D01*
X15210Y-12035D01*
X15329Y-12035D02*
X15377Y-12035D01*
X15401Y-12023D01*
X15413Y-12011D01*
X15437Y-11976D01*
X15448Y-11928D01*
X15448Y-11833D01*
X15437Y-11809D01*
X15425Y-11797D01*
X15401Y-11785D01*
X15353Y-11785D01*
X15329Y-11797D01*
X15318Y-11809D01*
X15306Y-11833D01*
X15306Y-11892D01*
X15318Y-11916D01*
X15329Y-11928D01*
X15353Y-11940D01*
X15401Y-11940D01*
X15425Y-11928D01*
X15437Y-11916D01*
X15448Y-11892D01*
X17372Y-06661D02*
X17360Y-06673D01*
X17325Y-06685D01*
X17301Y-06685D01*
X17265Y-06673D01*
X17241Y-06649D01*
X17230Y-06626D01*
X17218Y-06578D01*
X17218Y-06542D01*
X17230Y-06495D01*
X17241Y-06471D01*
X17265Y-06447D01*
X17301Y-06435D01*
X17325Y-06435D01*
X17360Y-06447D01*
X17372Y-06459D01*
X17468Y-06459D02*
X17480Y-06447D01*
X17503Y-06435D01*
X17563Y-06435D01*
X17587Y-06447D01*
X17599Y-06459D01*
X17610Y-06483D01*
X17610Y-06507D01*
X17599Y-06542D01*
X17456Y-06685D01*
X17610Y-06685D01*
X17753Y-06542D02*
X17729Y-06530D01*
X17718Y-06519D01*
X17706Y-06495D01*
X17706Y-06483D01*
X17718Y-06459D01*
X17729Y-06447D01*
X17753Y-06435D01*
X17801Y-06435D01*
X17825Y-06447D01*
X17837Y-06459D01*
X17848Y-06483D01*
X17848Y-06495D01*
X17837Y-06519D01*
X17825Y-06530D01*
X17801Y-06542D01*
X17753Y-06542D01*
X17729Y-06554D01*
X17718Y-06566D01*
X17706Y-06590D01*
X17706Y-06638D01*
X17718Y-06661D01*
X17729Y-06673D01*
X17753Y-06685D01*
X17801Y-06685D01*
X17825Y-06673D01*
X17837Y-06661D01*
X17848Y-06638D01*
X17848Y-06590D01*
X17837Y-06566D01*
X17825Y-06554D01*
X17801Y-06542D01*
X12060Y-15295D02*
X12072Y-15307D01*
X12084Y-15342D01*
X12084Y-15366D01*
X12072Y-15402D01*
X12048Y-15426D01*
X12025Y-15437D01*
X11977Y-15449D01*
X11941Y-15449D01*
X11894Y-15437D01*
X11870Y-15426D01*
X11846Y-15402D01*
X11834Y-15366D01*
X11834Y-15342D01*
X11846Y-15307D01*
X11858Y-15295D01*
X11858Y-15199D02*
X11846Y-15187D01*
X11834Y-15164D01*
X11834Y-15104D01*
X11846Y-15080D01*
X11858Y-15068D01*
X11882Y-15057D01*
X11906Y-15057D01*
X11941Y-15068D01*
X12084Y-15211D01*
X12084Y-15057D01*
X11918Y-14842D02*
X12084Y-14842D01*
X11822Y-14902D02*
X12001Y-14961D01*
X12001Y-14807D01*
X09760Y-17845D02*
X09772Y-17857D01*
X09784Y-17892D01*
X09784Y-17916D01*
X09772Y-17952D01*
X09748Y-17976D01*
X09725Y-17987D01*
X09677Y-17999D01*
X09641Y-17999D01*
X09594Y-17987D01*
X09570Y-17976D01*
X09546Y-17952D01*
X09534Y-17916D01*
X09534Y-17892D01*
X09546Y-17857D01*
X09558Y-17845D01*
X09558Y-17749D02*
X09546Y-17737D01*
X09534Y-17714D01*
X09534Y-17654D01*
X09546Y-17630D01*
X09558Y-17618D01*
X09582Y-17607D01*
X09606Y-17607D01*
X09641Y-17618D01*
X09784Y-17761D01*
X09784Y-17607D01*
X09558Y-17511D02*
X09546Y-17499D01*
X09534Y-17476D01*
X09534Y-17416D01*
X09546Y-17392D01*
X09558Y-17380D01*
X09582Y-17369D01*
X09606Y-17369D01*
X09641Y-17380D01*
X09784Y-17523D01*
X09784Y-17369D01*
X18222Y-06611D02*
X18210Y-06623D01*
X18175Y-06635D01*
X18151Y-06635D01*
X18115Y-06623D01*
X18091Y-06599D01*
X18080Y-06576D01*
X18068Y-06528D01*
X18068Y-06492D01*
X18080Y-06445D01*
X18091Y-06421D01*
X18115Y-06397D01*
X18151Y-06385D01*
X18175Y-06385D01*
X18210Y-06397D01*
X18222Y-06409D01*
X18318Y-06409D02*
X18330Y-06397D01*
X18353Y-06385D01*
X18413Y-06385D01*
X18437Y-06397D01*
X18449Y-06409D01*
X18460Y-06433D01*
X18460Y-06457D01*
X18449Y-06492D01*
X18306Y-06635D01*
X18460Y-06635D01*
X18687Y-06385D02*
X18568Y-06385D01*
X18556Y-06504D01*
X18568Y-06492D01*
X18591Y-06480D01*
X18651Y-06480D01*
X18675Y-06492D01*
X18687Y-06504D01*
X18698Y-06528D01*
X18698Y-06588D01*
X18687Y-06611D01*
X18675Y-06623D01*
X18651Y-06635D01*
X18591Y-06635D01*
X18568Y-06623D01*
X18556Y-06611D01*
G54D18*
X18550Y-22443D02*
X18490Y-22348D01*
X18447Y-22443D02*
X18447Y-22243D01*
X18515Y-22243D01*
X18533Y-22252D01*
X18541Y-22262D01*
X18550Y-22281D01*
X18550Y-22310D01*
X18541Y-22329D01*
X18533Y-22338D01*
X18515Y-22348D01*
X18447Y-22348D01*
X18618Y-22262D02*
X18627Y-22252D01*
X18644Y-22243D01*
X18687Y-22243D01*
X18704Y-22252D01*
X18713Y-22262D01*
X18721Y-22281D01*
X18721Y-22300D01*
X18713Y-22329D01*
X18610Y-22443D01*
X18721Y-22443D01*
X18789Y-22262D02*
X18798Y-22252D01*
X18815Y-22243D01*
X18858Y-22243D01*
X18875Y-22252D01*
X18884Y-22262D01*
X18892Y-22281D01*
X18892Y-22300D01*
X18884Y-22329D01*
X18781Y-22443D01*
X18892Y-22443D01*
X13654Y-11915D02*
X13568Y-11915D01*
X13568Y-11715D01*
X13705Y-11734D02*
X13714Y-11724D01*
X13731Y-11715D01*
X13774Y-11715D01*
X13791Y-11724D01*
X13800Y-11734D01*
X13808Y-11753D01*
X13808Y-11772D01*
X13800Y-11801D01*
X13697Y-11915D01*
X13808Y-11915D01*
X16704Y-06515D02*
X16618Y-06515D01*
X16618Y-06315D01*
X16858Y-06515D02*
X16755Y-06515D01*
X16807Y-06515D02*
X16807Y-06315D01*
X16790Y-06344D01*
X16772Y-06363D01*
X16755Y-06372D01*
X12364Y-11416D02*
X12164Y-11416D01*
X12164Y-11373D01*
X12173Y-11348D01*
X12193Y-11330D01*
X12212Y-11322D01*
X12250Y-11313D01*
X12278Y-11313D01*
X12316Y-11322D01*
X12335Y-11330D01*
X12354Y-11348D01*
X12364Y-11373D01*
X12364Y-11416D01*
X12364Y-11228D02*
X12364Y-11193D01*
X12354Y-11176D01*
X12345Y-11168D01*
X12316Y-11150D01*
X12278Y-11142D01*
X12202Y-11142D01*
X12183Y-11150D01*
X12173Y-11159D01*
X12164Y-11176D01*
X12164Y-11210D01*
X12173Y-11228D01*
X12183Y-11236D01*
X12202Y-11245D01*
X12250Y-11245D01*
X12269Y-11236D01*
X12278Y-11228D01*
X12288Y-11210D01*
X12288Y-11176D01*
X12278Y-11159D01*
X12269Y-11150D01*
X12250Y-11142D01*
X13151Y-10215D02*
X13151Y-10015D01*
X13194Y-10015D01*
X13219Y-10024D01*
X13237Y-10044D01*
X13245Y-10063D01*
X13254Y-10101D01*
X13254Y-10129D01*
X13245Y-10167D01*
X13237Y-10186D01*
X13219Y-10205D01*
X13194Y-10215D01*
X13151Y-10215D01*
X13357Y-10101D02*
X13339Y-10091D01*
X13331Y-10082D01*
X13322Y-10063D01*
X13322Y-10053D01*
X13331Y-10034D01*
X13339Y-10024D01*
X13357Y-10015D01*
X13391Y-10015D01*
X13408Y-10024D01*
X13417Y-10034D01*
X13425Y-10053D01*
X13425Y-10063D01*
X13417Y-10082D01*
X13408Y-10091D01*
X13391Y-10101D01*
X13357Y-10101D01*
X13339Y-10110D01*
X13331Y-10120D01*
X13322Y-10139D01*
X13322Y-10177D01*
X13331Y-10196D01*
X13339Y-10205D01*
X13357Y-10215D01*
X13391Y-10215D01*
X13408Y-10205D01*
X13417Y-10196D01*
X13425Y-10177D01*
X13425Y-10139D01*
X13417Y-10120D01*
X13408Y-10110D01*
X13391Y-10101D01*
X19564Y-05612D02*
X19564Y-05412D01*
X19607Y-05412D01*
X19632Y-05421D01*
X19650Y-05441D01*
X19658Y-05460D01*
X19667Y-05498D01*
X19667Y-05526D01*
X19658Y-05564D01*
X19650Y-05583D01*
X19632Y-05602D01*
X19607Y-05612D01*
X19564Y-05612D01*
X19821Y-05479D02*
X19821Y-05612D01*
X19778Y-05402D02*
X19735Y-05545D01*
X19847Y-05545D01*
G54D13*
X02748Y-07729D02*
X02348Y-07729D01*
X02348Y-07634D01*
X02367Y-07576D01*
X02405Y-07538D01*
X02443Y-07519D01*
X02519Y-07500D01*
X02576Y-07500D01*
X02653Y-07519D01*
X02691Y-07538D01*
X02729Y-07576D01*
X02748Y-07634D01*
X02748Y-07729D01*
X02748Y-07119D02*
X02748Y-07348D01*
X02748Y-07234D02*
X02348Y-07234D01*
X02405Y-07272D01*
X02443Y-07310D01*
X02462Y-07348D01*
X02386Y-06967D02*
X02367Y-06948D01*
X02348Y-06910D01*
X02348Y-06814D01*
X02367Y-06776D01*
X02386Y-06757D01*
X02424Y-06738D01*
X02462Y-06738D01*
X02519Y-06757D01*
X02748Y-06986D01*
X02748Y-06738D01*
X01948Y-07729D02*
X01548Y-07729D01*
X01548Y-07634D01*
X01567Y-07576D01*
X01605Y-07538D01*
X01643Y-07519D01*
X01719Y-07500D01*
X01776Y-07500D01*
X01853Y-07519D01*
X01891Y-07538D01*
X01929Y-07576D01*
X01948Y-07634D01*
X01948Y-07729D01*
X01948Y-07119D02*
X01948Y-07348D01*
X01948Y-07234D02*
X01548Y-07234D01*
X01605Y-07272D01*
X01643Y-07310D01*
X01662Y-07348D01*
X01548Y-06986D02*
X01548Y-06738D01*
X01700Y-06872D01*
X01700Y-06814D01*
X01719Y-06776D01*
X01738Y-06757D01*
X01776Y-06738D01*
X01872Y-06738D01*
X01910Y-06757D01*
X01929Y-06776D01*
X01948Y-06814D01*
X01948Y-06929D01*
X01929Y-06967D01*
X01910Y-06986D01*
X02748Y-12718D02*
X02348Y-12718D01*
X02348Y-12623D01*
X02367Y-12565D01*
X02405Y-12527D01*
X02443Y-12508D01*
X02519Y-12489D01*
X02576Y-12489D01*
X02653Y-12508D01*
X02691Y-12527D01*
X02729Y-12565D01*
X02748Y-12623D01*
X02748Y-12718D01*
X02748Y-12108D02*
X02748Y-12337D01*
X02748Y-12223D02*
X02348Y-12223D01*
X02405Y-12261D01*
X02443Y-12299D01*
X02462Y-12337D01*
X02481Y-11765D02*
X02748Y-11765D01*
X02329Y-11861D02*
X02615Y-11956D01*
X02615Y-11708D01*
X01948Y-12668D02*
X01548Y-12668D01*
X01548Y-12573D01*
X01567Y-12515D01*
X01605Y-12477D01*
X01643Y-12458D01*
X01719Y-12439D01*
X01776Y-12439D01*
X01853Y-12458D01*
X01891Y-12477D01*
X01929Y-12515D01*
X01948Y-12573D01*
X01948Y-12668D01*
X01948Y-12058D02*
X01948Y-12287D01*
X01948Y-12173D02*
X01548Y-12173D01*
X01605Y-12211D01*
X01643Y-12249D01*
X01662Y-12287D01*
X01548Y-11696D02*
X01548Y-11887D01*
X01738Y-11906D01*
X01719Y-11887D01*
X01700Y-11849D01*
X01700Y-11753D01*
X01719Y-11715D01*
X01738Y-11696D01*
X01776Y-11677D01*
X01872Y-11677D01*
X01910Y-11696D01*
X01929Y-11715D01*
X01948Y-11753D01*
X01948Y-11849D01*
X01929Y-11887D01*
X01910Y-11906D01*
G54D14*
X08710Y-21061D02*
X08698Y-21073D01*
X08663Y-21085D01*
X08639Y-21085D01*
X08603Y-21073D01*
X08579Y-21049D01*
X08568Y-21026D01*
X08556Y-20978D01*
X08556Y-20942D01*
X08568Y-20895D01*
X08579Y-20871D01*
X08603Y-20847D01*
X08639Y-20835D01*
X08663Y-20835D01*
X08698Y-20847D01*
X08710Y-20859D01*
X08948Y-21085D02*
X08806Y-21085D01*
X08877Y-21085D02*
X08877Y-20835D01*
X08853Y-20871D01*
X08829Y-20895D01*
X08806Y-20907D01*
X07691Y-13011D02*
X07679Y-13023D01*
X07644Y-13035D01*
X07620Y-13035D01*
X07584Y-13023D01*
X07560Y-12999D01*
X07549Y-12976D01*
X07537Y-12928D01*
X07537Y-12892D01*
X07549Y-12845D01*
X07560Y-12821D01*
X07584Y-12797D01*
X07620Y-12785D01*
X07644Y-12785D01*
X07679Y-12797D01*
X07691Y-12809D01*
X07787Y-12809D02*
X07799Y-12797D01*
X07822Y-12785D01*
X07882Y-12785D01*
X07906Y-12797D01*
X07918Y-12809D01*
X07929Y-12833D01*
X07929Y-12857D01*
X07918Y-12892D01*
X07775Y-13035D01*
X07929Y-13035D01*
X10091Y-12061D02*
X10079Y-12073D01*
X10044Y-12085D01*
X10020Y-12085D01*
X09984Y-12073D01*
X09960Y-12049D01*
X09949Y-12026D01*
X09937Y-11978D01*
X09937Y-11942D01*
X09949Y-11895D01*
X09960Y-11871D01*
X09984Y-11847D01*
X10020Y-11835D01*
X10044Y-11835D01*
X10079Y-11847D01*
X10091Y-11859D01*
X10175Y-11835D02*
X10329Y-11835D01*
X10246Y-11930D01*
X10282Y-11930D01*
X10306Y-11942D01*
X10318Y-11954D01*
X10329Y-11978D01*
X10329Y-12038D01*
X10318Y-12061D01*
X10306Y-12073D01*
X10282Y-12085D01*
X10210Y-12085D01*
X10187Y-12073D01*
X10175Y-12061D01*
X07860Y-17726D02*
X07872Y-17738D01*
X07884Y-17773D01*
X07884Y-17797D01*
X07872Y-17833D01*
X07848Y-17857D01*
X07825Y-17868D01*
X07777Y-17880D01*
X07741Y-17880D01*
X07694Y-17868D01*
X07670Y-17857D01*
X07646Y-17833D01*
X07634Y-17797D01*
X07634Y-17773D01*
X07646Y-17738D01*
X07658Y-17726D01*
X07718Y-17511D02*
X07884Y-17511D01*
X07622Y-17571D02*
X07801Y-17630D01*
X07801Y-17476D01*
X08760Y-17726D02*
X08772Y-17738D01*
X08784Y-17773D01*
X08784Y-17797D01*
X08772Y-17833D01*
X08748Y-17857D01*
X08725Y-17868D01*
X08677Y-17880D01*
X08641Y-17880D01*
X08594Y-17868D01*
X08570Y-17857D01*
X08546Y-17833D01*
X08534Y-17797D01*
X08534Y-17773D01*
X08546Y-17738D01*
X08558Y-17726D01*
X08534Y-17642D02*
X08534Y-17476D01*
X08784Y-17583D01*
X13583Y-17366D02*
X13595Y-17378D01*
X13607Y-17413D01*
X13607Y-17437D01*
X13595Y-17473D01*
X13571Y-17497D01*
X13548Y-17508D01*
X13500Y-17520D01*
X13464Y-17520D01*
X13417Y-17508D01*
X13393Y-17497D01*
X13369Y-17473D01*
X13357Y-17437D01*
X13357Y-17413D01*
X13369Y-17378D01*
X13381Y-17366D01*
X13464Y-17223D02*
X13452Y-17247D01*
X13441Y-17258D01*
X13417Y-17270D01*
X13405Y-17270D01*
X13381Y-17258D01*
X13369Y-17247D01*
X13357Y-17223D01*
X13357Y-17175D01*
X13369Y-17151D01*
X13381Y-17139D01*
X13405Y-17128D01*
X13417Y-17128D01*
X13441Y-17139D01*
X13452Y-17151D01*
X13464Y-17175D01*
X13464Y-17223D01*
X13476Y-17247D01*
X13488Y-17258D01*
X13512Y-17270D01*
X13560Y-17270D01*
X13583Y-17258D01*
X13595Y-17247D01*
X13607Y-17223D01*
X13607Y-17175D01*
X13595Y-17151D01*
X13583Y-17139D01*
X13560Y-17128D01*
X13512Y-17128D01*
X13488Y-17139D01*
X13476Y-17151D01*
X13464Y-17175D01*
X18691Y-17861D02*
X18679Y-17873D01*
X18644Y-17885D01*
X18620Y-17885D01*
X18584Y-17873D01*
X18560Y-17849D01*
X18549Y-17826D01*
X18537Y-17778D01*
X18537Y-17742D01*
X18549Y-17695D01*
X18560Y-17671D01*
X18584Y-17647D01*
X18620Y-17635D01*
X18644Y-17635D01*
X18679Y-17647D01*
X18691Y-17659D01*
X18810Y-17885D02*
X18858Y-17885D01*
X18882Y-17873D01*
X18894Y-17861D01*
X18918Y-17826D01*
X18929Y-17778D01*
X18929Y-17683D01*
X18918Y-17659D01*
X18906Y-17647D01*
X18882Y-17635D01*
X18834Y-17635D01*
X18810Y-17647D01*
X18799Y-17659D01*
X18787Y-17683D01*
X18787Y-17742D01*
X18799Y-17766D01*
X18810Y-17778D01*
X18834Y-17790D01*
X18882Y-17790D01*
X18906Y-17778D01*
X18918Y-17766D01*
X18929Y-17742D01*
X10810Y-14395D02*
X10822Y-14407D01*
X10834Y-14442D01*
X10834Y-14466D01*
X10822Y-14502D01*
X10798Y-14526D01*
X10775Y-14537D01*
X10727Y-14549D01*
X10691Y-14549D01*
X10644Y-14537D01*
X10620Y-14526D01*
X10596Y-14502D01*
X10584Y-14466D01*
X10584Y-14442D01*
X10596Y-14407D01*
X10608Y-14395D01*
X10834Y-14157D02*
X10834Y-14299D01*
X10834Y-14228D02*
X10584Y-14228D01*
X10620Y-14252D01*
X10644Y-14276D01*
X10656Y-14299D01*
X10584Y-14002D02*
X10584Y-13978D01*
X10596Y-13954D01*
X10608Y-13942D01*
X10632Y-13930D01*
X10679Y-13919D01*
X10739Y-13919D01*
X10787Y-13930D01*
X10810Y-13942D01*
X10822Y-13954D01*
X10834Y-13978D01*
X10834Y-14002D01*
X10822Y-14026D01*
X10810Y-14038D01*
X10787Y-14049D01*
X10739Y-14061D01*
X10679Y-14061D01*
X10632Y-14049D01*
X10608Y-14038D01*
X10596Y-14026D01*
X10584Y-14002D01*
X06160Y-12945D02*
X06172Y-12957D01*
X06184Y-12992D01*
X06184Y-13016D01*
X06172Y-13052D01*
X06148Y-13076D01*
X06125Y-13087D01*
X06077Y-13099D01*
X06041Y-13099D01*
X05994Y-13087D01*
X05970Y-13076D01*
X05946Y-13052D01*
X05934Y-13016D01*
X05934Y-12992D01*
X05946Y-12957D01*
X05958Y-12945D01*
X06184Y-12707D02*
X06184Y-12849D01*
X06184Y-12778D02*
X05934Y-12778D01*
X05970Y-12802D01*
X05994Y-12826D01*
X06006Y-12849D01*
X06184Y-12469D02*
X06184Y-12611D01*
X06184Y-12540D02*
X05934Y-12540D01*
X05970Y-12564D01*
X05994Y-12588D01*
X06006Y-12611D01*
X18205Y-07559D02*
X18193Y-07571D01*
X18158Y-07583D01*
X18134Y-07583D01*
X18098Y-07571D01*
X18074Y-07547D01*
X18063Y-07524D01*
X18051Y-07476D01*
X18051Y-07440D01*
X18063Y-07393D01*
X18074Y-07369D01*
X18098Y-07345D01*
X18134Y-07333D01*
X18158Y-07333D01*
X18193Y-07345D01*
X18205Y-07357D01*
X18443Y-07583D02*
X18301Y-07583D01*
X18372Y-07583D02*
X18372Y-07333D01*
X18348Y-07369D01*
X18324Y-07393D01*
X18301Y-07405D01*
X18586Y-07440D02*
X18562Y-07428D01*
X18551Y-07417D01*
X18539Y-07393D01*
X18539Y-07381D01*
X18551Y-07357D01*
X18562Y-07345D01*
X18586Y-07333D01*
X18634Y-07333D01*
X18658Y-07345D01*
X18670Y-07357D01*
X18681Y-07381D01*
X18681Y-07393D01*
X18670Y-07417D01*
X18658Y-07428D01*
X18634Y-07440D01*
X18586Y-07440D01*
X18562Y-07452D01*
X18551Y-07464D01*
X18539Y-07488D01*
X18539Y-07536D01*
X18551Y-07559D01*
X18562Y-07571D01*
X18586Y-07583D01*
X18634Y-07583D01*
X18658Y-07571D01*
X18670Y-07559D01*
X18681Y-07536D01*
X18681Y-07488D01*
X18670Y-07464D01*
X18658Y-07452D01*
X18634Y-07440D01*
G54D24*
X07903Y-05285D02*
X07603Y-05285D01*
X07603Y-05213D01*
X07618Y-05170D01*
X07646Y-05142D01*
X07675Y-05127D01*
X07732Y-05113D01*
X07775Y-05113D01*
X07832Y-05127D01*
X07861Y-05142D01*
X07889Y-05170D01*
X07903Y-05213D01*
X07903Y-05285D01*
X07603Y-04842D02*
X07603Y-04985D01*
X07746Y-04999D01*
X07732Y-04985D01*
X07718Y-04956D01*
X07718Y-04885D01*
X07732Y-04856D01*
X07746Y-04842D01*
X07775Y-04827D01*
X07846Y-04827D01*
X07875Y-04842D01*
X07889Y-04856D01*
X07903Y-04885D01*
X07903Y-04956D01*
X07889Y-04985D01*
X07875Y-04999D01*
X06039Y-04082D02*
X06039Y-03882D01*
X06039Y-03940D02*
X06054Y-03911D01*
X06068Y-03897D01*
X06097Y-03882D01*
X06125Y-03882D01*
X06340Y-04068D02*
X06311Y-04082D01*
X06254Y-04082D01*
X06225Y-04068D01*
X06211Y-04040D01*
X06211Y-03925D01*
X06225Y-03897D01*
X06254Y-03882D01*
X06311Y-03882D01*
X06340Y-03897D01*
X06354Y-03925D01*
X06354Y-03954D01*
X06211Y-03982D01*
X06611Y-04082D02*
X06611Y-03782D01*
X06611Y-04068D02*
X06582Y-04082D01*
X06525Y-04082D01*
X06497Y-04068D01*
X06482Y-04054D01*
X06468Y-04025D01*
X06468Y-03940D01*
X06482Y-03911D01*
X06497Y-03897D01*
X06525Y-03882D01*
X06582Y-03882D01*
X06611Y-03897D01*
X06896Y-04082D02*
X06753Y-04082D01*
X06753Y-03782D01*
X06996Y-03925D02*
X07096Y-03925D01*
X07139Y-04082D02*
X06996Y-04082D01*
X06996Y-03782D01*
X07139Y-03782D01*
X07267Y-04082D02*
X07267Y-03782D01*
X07339Y-03782D01*
X07382Y-03797D01*
X07410Y-03825D01*
X07425Y-03854D01*
X07439Y-03911D01*
X07439Y-03954D01*
X07425Y-04011D01*
X07410Y-04040D01*
X07382Y-04068D01*
X07339Y-04082D01*
X07267Y-04082D01*
G54D23*
X03751Y-09001D02*
X03070Y-09001D01*
X03070Y-08838D01*
X03103Y-08797D01*
X03135Y-08777D01*
X03200Y-08757D01*
X03297Y-08757D01*
X03362Y-08777D01*
X03394Y-08797D01*
X03427Y-08838D01*
X03427Y-09001D01*
X03070Y-08614D02*
X03070Y-08349D01*
X03330Y-08492D01*
X03330Y-08430D01*
X03362Y-08390D01*
X03394Y-08369D01*
X03459Y-08349D01*
X03621Y-08349D01*
X03686Y-08369D01*
X03719Y-08390D01*
X03751Y-08430D01*
X03751Y-08553D01*
X03719Y-08593D01*
X03686Y-08614D01*
G54D12*
X20126Y-16891D02*
X20612Y-16891D01*
X20669Y-16863D01*
X20697Y-16834D01*
X20726Y-16777D01*
X20726Y-16663D01*
X20697Y-16605D01*
X20669Y-16577D01*
X20612Y-16548D01*
X20126Y-16548D01*
X20726Y-15948D02*
X20726Y-16291D01*
X20726Y-16119D02*
X20126Y-16119D01*
X20212Y-16176D01*
X20269Y-16234D01*
X20297Y-16291D01*
X15376Y-07541D02*
X15862Y-07541D01*
X15919Y-07513D01*
X15947Y-07484D01*
X15976Y-07427D01*
X15976Y-07313D01*
X15947Y-07255D01*
X15919Y-07227D01*
X15862Y-07198D01*
X15376Y-07198D01*
X15376Y-06655D02*
X15376Y-06769D01*
X15404Y-06826D01*
X15433Y-06855D01*
X15519Y-06912D01*
X15633Y-06941D01*
X15862Y-06941D01*
X15919Y-06912D01*
X15947Y-06884D01*
X15976Y-06826D01*
X15976Y-06712D01*
X15947Y-06655D01*
X15919Y-06626D01*
X15862Y-06598D01*
X15719Y-06598D01*
X15662Y-06626D01*
X15633Y-06655D01*
X15604Y-06712D01*
X15604Y-06826D01*
X15633Y-06884D01*
X15662Y-06912D01*
X15719Y-06941D01*
X10427Y-06913D02*
X10627Y-06913D01*
X10713Y-07227D02*
X10427Y-07227D01*
X10427Y-06627D01*
X10713Y-06627D01*
X11170Y-06913D02*
X11256Y-06941D01*
X11284Y-06970D01*
X11313Y-07027D01*
X11313Y-07113D01*
X11284Y-07170D01*
X11256Y-07198D01*
X11198Y-07227D01*
X10970Y-07227D01*
X10970Y-06627D01*
X11170Y-06627D01*
X11227Y-06655D01*
X11256Y-06684D01*
X11284Y-06741D01*
X11284Y-06798D01*
X11256Y-06855D01*
X11227Y-06884D01*
X11170Y-06913D01*
X10970Y-06913D01*
X11570Y-06998D02*
X12027Y-06998D01*
X12256Y-06627D02*
X12627Y-06627D01*
X12427Y-06855D01*
X12513Y-06855D01*
X12570Y-06884D01*
X12599Y-06913D01*
X12627Y-06970D01*
X12627Y-07113D01*
X12599Y-07170D01*
X12570Y-07198D01*
X12513Y-07227D01*
X12341Y-07227D01*
X12284Y-07198D01*
X12256Y-07170D01*
X13141Y-06627D02*
X13027Y-06627D01*
X12970Y-06655D01*
X12941Y-06684D01*
X12884Y-06770D01*
X12855Y-06884D01*
X12855Y-07113D01*
X12884Y-07170D01*
X12912Y-07198D01*
X12970Y-07227D01*
X13084Y-07227D01*
X13141Y-07198D01*
X13170Y-07170D01*
X13198Y-07113D01*
X13198Y-06970D01*
X13170Y-06913D01*
X13141Y-06884D01*
X13084Y-06855D01*
X12970Y-06855D01*
X12912Y-06884D01*
X12884Y-06913D01*
X12855Y-06970D01*
X13741Y-06627D02*
X13455Y-06627D01*
X13426Y-06913D01*
X13455Y-06884D01*
X13512Y-06855D01*
X13655Y-06855D01*
X13712Y-06884D01*
X13741Y-06913D01*
X13769Y-06970D01*
X13769Y-07113D01*
X13741Y-07170D01*
X13712Y-07198D01*
X13655Y-07227D01*
X13512Y-07227D01*
X13455Y-07198D01*
X13426Y-07170D01*
G54D25*
X15821Y-14487D02*
X15890Y-14487D01*
X15919Y-14595D02*
X15821Y-14595D01*
X15821Y-14389D01*
X15919Y-14389D01*
X16125Y-14576D02*
X16115Y-14586D01*
X16086Y-14595D01*
X16066Y-14595D01*
X16036Y-14586D01*
X16017Y-14566D01*
X16007Y-14546D01*
X15997Y-14507D01*
X15997Y-14478D01*
X16007Y-14438D01*
X16017Y-14419D01*
X16036Y-14399D01*
X16066Y-14389D01*
X16086Y-14389D01*
X16115Y-14399D01*
X16125Y-14409D01*
X16321Y-14399D02*
X16301Y-14389D01*
X16272Y-14389D01*
X16242Y-14399D01*
X16223Y-14419D01*
X16213Y-14438D01*
X16203Y-14478D01*
X16203Y-14507D01*
X16213Y-14546D01*
X16223Y-14566D01*
X16242Y-14586D01*
X16272Y-14595D01*
X16292Y-14595D01*
X16321Y-14586D01*
X16331Y-14576D01*
X16331Y-14507D01*
X16292Y-14507D01*
X16527Y-14595D02*
X16409Y-14595D01*
X16468Y-14595D02*
X16468Y-14389D01*
X16448Y-14419D01*
X16429Y-14438D01*
X16409Y-14448D01*
G54D12*
X15805Y-14027D02*
X15462Y-14027D01*
X15634Y-14027D02*
X15634Y-13427D01*
X15577Y-13513D01*
X15519Y-13570D01*
X15462Y-13598D01*
G54D25*
X17537Y-14499D02*
X17606Y-14499D01*
X17635Y-14607D02*
X17537Y-14607D01*
X17537Y-14401D01*
X17635Y-14401D01*
X17841Y-14588D02*
X17831Y-14598D01*
X17802Y-14607D01*
X17782Y-14607D01*
X17752Y-14598D01*
X17733Y-14578D01*
X17723Y-14558D01*
X17713Y-14519D01*
X17713Y-14490D01*
X17723Y-14450D01*
X17733Y-14431D01*
X17752Y-14411D01*
X17782Y-14401D01*
X17802Y-14401D01*
X17831Y-14411D01*
X17841Y-14421D01*
X18037Y-14411D02*
X18017Y-14401D01*
X17988Y-14401D01*
X17958Y-14411D01*
X17939Y-14431D01*
X17929Y-14450D01*
X17919Y-14490D01*
X17919Y-14519D01*
X17929Y-14558D01*
X17939Y-14578D01*
X17958Y-14598D01*
X17988Y-14607D01*
X18008Y-14607D01*
X18037Y-14598D01*
X18047Y-14588D01*
X18047Y-14519D01*
X18008Y-14519D01*
X18125Y-14421D02*
X18135Y-14411D01*
X18155Y-14401D01*
X18204Y-14401D01*
X18223Y-14411D01*
X18233Y-14421D01*
X18243Y-14441D01*
X18243Y-14460D01*
X18233Y-14490D01*
X18115Y-14607D01*
X18243Y-14607D01*
G54D19*
X22000Y-15331D02*
X21888Y-15331D01*
X21944Y-15331D02*
X21944Y-15134D01*
X21925Y-15162D01*
X21906Y-15181D01*
X21888Y-15191D01*
G54D18*
X15570Y-08845D02*
X15510Y-08750D01*
X15467Y-08845D02*
X15467Y-08645D01*
X15535Y-08645D01*
X15553Y-08654D01*
X15561Y-08664D01*
X15570Y-08683D01*
X15570Y-08712D01*
X15561Y-08731D01*
X15553Y-08740D01*
X15535Y-08750D01*
X15467Y-08750D01*
X15638Y-08664D02*
X15647Y-08654D01*
X15664Y-08645D01*
X15707Y-08645D01*
X15724Y-08654D01*
X15733Y-08664D01*
X15741Y-08683D01*
X15741Y-08702D01*
X15733Y-08731D01*
X15630Y-08845D01*
X15741Y-08845D01*
X15844Y-08731D02*
X15826Y-08721D01*
X15818Y-08712D01*
X15809Y-08693D01*
X15809Y-08683D01*
X15818Y-08664D01*
X15826Y-08654D01*
X15844Y-08645D01*
X15878Y-08645D01*
X15895Y-08654D01*
X15904Y-08664D01*
X15912Y-08683D01*
X15912Y-08693D01*
X15904Y-08712D01*
X15895Y-08721D01*
X15878Y-08731D01*
X15844Y-08731D01*
X15826Y-08740D01*
X15818Y-08750D01*
X15809Y-08769D01*
X15809Y-08807D01*
X15818Y-08826D01*
X15826Y-08835D01*
X15844Y-08845D01*
X15878Y-08845D01*
X15895Y-08835D01*
X15904Y-08826D01*
X15912Y-08807D01*
X15912Y-08769D01*
X15904Y-08750D01*
X15895Y-08740D01*
X15878Y-08731D01*
X15538Y-09424D02*
X15478Y-09329D01*
X15435Y-09424D02*
X15435Y-09224D01*
X15503Y-09224D01*
X15521Y-09233D01*
X15529Y-09243D01*
X15538Y-09262D01*
X15538Y-09291D01*
X15529Y-09310D01*
X15521Y-09319D01*
X15503Y-09329D01*
X15435Y-09329D01*
X15709Y-09424D02*
X15606Y-09424D01*
X15658Y-09424D02*
X15658Y-09224D01*
X15641Y-09253D01*
X15623Y-09272D01*
X15606Y-09281D01*
X15812Y-09310D02*
X15794Y-09300D01*
X15786Y-09291D01*
X15777Y-09272D01*
X15777Y-09262D01*
X15786Y-09243D01*
X15794Y-09233D01*
X15812Y-09224D01*
X15846Y-09224D01*
X15863Y-09233D01*
X15872Y-09243D01*
X15880Y-09262D01*
X15880Y-09272D01*
X15872Y-09291D01*
X15863Y-09300D01*
X15846Y-09310D01*
X15812Y-09310D01*
X15794Y-09319D01*
X15786Y-09329D01*
X15777Y-09348D01*
X15777Y-09386D01*
X15786Y-09405D01*
X15794Y-09414D01*
X15812Y-09424D01*
X15846Y-09424D01*
X15863Y-09414D01*
X15872Y-09405D01*
X15880Y-09386D01*
X15880Y-09348D01*
X15872Y-09329D01*
X15863Y-09319D01*
X15846Y-09310D01*
G54D13*
X13697Y-20296D02*
X13697Y-19896D01*
X13850Y-19896D01*
X13888Y-19915D01*
X13907Y-19934D01*
X13926Y-19972D01*
X13926Y-20029D01*
X13907Y-20067D01*
X13888Y-20086D01*
X13850Y-20105D01*
X13697Y-20105D01*
X14307Y-20296D02*
X14078Y-20296D01*
X14192Y-20296D02*
X14192Y-19896D01*
X14154Y-19953D01*
X14116Y-19991D01*
X14078Y-20010D01*
X14535Y-20067D02*
X14497Y-20048D01*
X14478Y-20029D01*
X14459Y-19991D01*
X14459Y-19972D01*
X14478Y-19934D01*
X14497Y-19915D01*
X14535Y-19896D01*
X14612Y-19896D01*
X14650Y-19915D01*
X14669Y-19934D01*
X14688Y-19972D01*
X14688Y-19991D01*
X14669Y-20029D01*
X14650Y-20048D01*
X14612Y-20067D01*
X14535Y-20067D01*
X14497Y-20086D01*
X14478Y-20105D01*
X14459Y-20144D01*
X14459Y-20220D01*
X14478Y-20258D01*
X14497Y-20277D01*
X14535Y-20296D01*
X14612Y-20296D01*
X14650Y-20277D01*
X14669Y-20258D01*
X14688Y-20220D01*
X14688Y-20144D01*
X14669Y-20105D01*
X14650Y-20086D01*
X14612Y-20067D01*
X18969Y-20746D02*
X18778Y-20746D01*
X18778Y-20346D01*
X19331Y-20708D02*
X19312Y-20727D01*
X19255Y-20746D01*
X19217Y-20746D01*
X19159Y-20727D01*
X19121Y-20689D01*
X19102Y-20651D01*
X19083Y-20574D01*
X19083Y-20517D01*
X19102Y-20441D01*
X19121Y-20403D01*
X19159Y-20365D01*
X19217Y-20346D01*
X19255Y-20346D01*
X19312Y-20365D01*
X19331Y-20384D01*
X19502Y-20746D02*
X19502Y-20346D01*
X19597Y-20346D01*
X19655Y-20365D01*
X19693Y-20403D01*
X19712Y-20441D01*
X19731Y-20517D01*
X19731Y-20574D01*
X19712Y-20651D01*
X19693Y-20689D01*
X19655Y-20727D01*
X19597Y-20746D01*
X19502Y-20746D01*
X19807Y-20784D02*
X20112Y-20784D01*
X20207Y-20746D02*
X20207Y-20346D01*
X20436Y-20746D01*
X20436Y-20346D01*
X20702Y-20346D02*
X20779Y-20346D01*
X20817Y-20365D01*
X20855Y-20403D01*
X20874Y-20479D01*
X20874Y-20613D01*
X20855Y-20689D01*
X20817Y-20727D01*
X20779Y-20746D01*
X20702Y-20746D01*
X20664Y-20727D01*
X20626Y-20689D01*
X20607Y-20613D01*
X20607Y-20479D01*
X20626Y-20403D01*
X20664Y-20365D01*
X20702Y-20346D01*
X21045Y-20746D02*
X21045Y-20346D01*
X21274Y-20746D02*
X21102Y-20517D01*
X21274Y-20346D02*
X21045Y-20574D01*
X21445Y-20746D02*
X21445Y-20346D01*
X21616Y-20632D02*
X21807Y-20632D01*
X21578Y-20746D02*
X21711Y-20346D01*
X21845Y-20746D01*
G54D12*
X14169Y-13127D02*
X13883Y-13127D01*
X13883Y-12527D01*
X14712Y-13070D02*
X14683Y-13098D01*
X14597Y-13127D01*
X14540Y-13127D01*
X14455Y-13098D01*
X14397Y-13041D01*
X14369Y-12984D01*
X14340Y-12870D01*
X14340Y-12784D01*
X14369Y-12670D01*
X14397Y-12613D01*
X14455Y-12555D01*
X14540Y-12527D01*
X14597Y-12527D01*
X14683Y-12555D01*
X14712Y-12584D01*
X14969Y-13127D02*
X14969Y-12527D01*
X15112Y-12527D01*
X15197Y-12555D01*
X15255Y-12613D01*
X15283Y-12670D01*
X15312Y-12784D01*
X15312Y-12870D01*
X15283Y-12984D01*
X15255Y-13041D01*
X15197Y-13098D01*
X15112Y-13127D01*
X14969Y-13127D01*
G54D18*
X12755Y-18175D02*
X12695Y-18080D01*
X12652Y-18175D02*
X12652Y-17975D01*
X12720Y-17975D01*
X12738Y-17984D01*
X12746Y-17994D01*
X12755Y-18013D01*
X12755Y-18042D01*
X12746Y-18061D01*
X12738Y-18070D01*
X12720Y-18080D01*
X12652Y-18080D01*
X12823Y-17994D02*
X12832Y-17984D01*
X12849Y-17975D01*
X12892Y-17975D01*
X12909Y-17984D01*
X12918Y-17994D01*
X12926Y-18013D01*
X12926Y-18032D01*
X12918Y-18061D01*
X12815Y-18175D01*
X12926Y-18175D01*
X13011Y-18175D02*
X13046Y-18175D01*
X13063Y-18165D01*
X13071Y-18156D01*
X13089Y-18127D01*
X13097Y-18089D01*
X13097Y-18013D01*
X13089Y-17994D01*
X13080Y-17984D01*
X13063Y-17975D01*
X13029Y-17975D01*
X13011Y-17984D01*
X13003Y-17994D01*
X12994Y-18013D01*
X12994Y-18061D01*
X13003Y-18080D01*
X13011Y-18089D01*
X13029Y-18099D01*
X13063Y-18099D01*
X13080Y-18089D01*
X13089Y-18080D01*
X13097Y-18061D01*
G54D10*
X00911Y-11152D02*
X00911Y-11295D01*
X00611Y-11295D01*
X00611Y-11080D02*
X00611Y-10894D01*
X00726Y-10994D01*
X00726Y-10952D01*
X00740Y-10923D01*
X00754Y-10909D01*
X00783Y-10894D01*
X00854Y-10894D01*
X00883Y-10909D01*
X00897Y-10923D01*
X00911Y-10952D01*
X00911Y-11037D01*
X00897Y-11066D01*
X00883Y-11080D01*
G54D12*
X21989Y-02828D02*
X21989Y-03256D01*
X21961Y-03342D01*
X21904Y-03399D01*
X21818Y-03428D01*
X21761Y-03428D01*
X22589Y-03428D02*
X22246Y-03428D01*
X22418Y-03428D02*
X22418Y-02828D01*
X22361Y-02914D01*
X22303Y-02971D01*
X22246Y-02999D01*
X21110Y-08375D02*
X21110Y-08861D01*
X21138Y-08918D01*
X21167Y-08946D01*
X21224Y-08975D01*
X21338Y-08975D01*
X21396Y-08946D01*
X21424Y-08918D01*
X21453Y-08861D01*
X21453Y-08375D01*
X21710Y-08946D02*
X21796Y-08975D01*
X21939Y-08975D01*
X21996Y-08946D01*
X22025Y-08918D01*
X22053Y-08861D01*
X22053Y-08803D01*
X22025Y-08746D01*
X21996Y-08718D01*
X21939Y-08689D01*
X21825Y-08661D01*
X21767Y-08632D01*
X21739Y-08603D01*
X21710Y-08546D01*
X21710Y-08489D01*
X21739Y-08432D01*
X21767Y-08403D01*
X21825Y-08375D01*
X21967Y-08375D01*
X22053Y-08403D01*
X22510Y-08661D02*
X22596Y-08689D01*
X22624Y-08718D01*
X22653Y-08775D01*
X22653Y-08861D01*
X22624Y-08918D01*
X22596Y-08946D01*
X22538Y-08975D01*
X22310Y-08975D01*
X22310Y-08375D01*
X22510Y-08375D01*
X22567Y-08403D01*
X22596Y-08432D01*
X22624Y-08489D01*
X22624Y-08546D01*
X22596Y-08603D01*
X22567Y-08632D01*
X22510Y-08661D01*
X22310Y-08661D01*
X22767Y-09032D02*
X23224Y-09032D01*
X23338Y-08432D02*
X23367Y-08403D01*
X23424Y-08375D01*
X23567Y-08375D01*
X23624Y-08403D01*
X23653Y-08432D01*
X23681Y-08489D01*
X23681Y-08546D01*
X23653Y-08632D01*
X23310Y-08975D01*
X23681Y-08975D01*
X20540Y-24285D02*
X20511Y-24313D01*
X20425Y-24342D01*
X20368Y-24342D01*
X20283Y-24313D01*
X20225Y-24256D01*
X20197Y-24199D01*
X20168Y-24085D01*
X20168Y-23999D01*
X20197Y-23885D01*
X20225Y-23828D01*
X20283Y-23770D01*
X20368Y-23742D01*
X20425Y-23742D01*
X20511Y-23770D01*
X20540Y-23799D01*
X21111Y-24342D02*
X20768Y-24342D01*
X20940Y-24342D02*
X20940Y-23742D01*
X20883Y-23828D01*
X20825Y-23885D01*
X20768Y-23913D01*
X21311Y-23742D02*
X21682Y-23742D01*
X21482Y-23970D01*
X21568Y-23970D01*
X21625Y-23999D01*
X21654Y-24028D01*
X21682Y-24085D01*
X21682Y-24228D01*
X21654Y-24285D01*
X21625Y-24313D01*
X21568Y-24342D01*
X21396Y-24342D01*
X21339Y-24313D01*
X21311Y-24285D01*
X20893Y-26321D02*
X20836Y-26293D01*
X20750Y-26293D01*
X20665Y-26321D01*
X20607Y-26379D01*
X20579Y-26436D01*
X20550Y-26550D01*
X20550Y-26636D01*
X20579Y-26750D01*
X20607Y-26807D01*
X20665Y-26864D01*
X20750Y-26893D01*
X20807Y-26893D01*
X20893Y-26864D01*
X20922Y-26836D01*
X20922Y-26636D01*
X20807Y-26636D01*
X21522Y-26893D02*
X21322Y-26607D01*
X21179Y-26893D02*
X21179Y-26293D01*
X21407Y-26293D01*
X21465Y-26321D01*
X21493Y-26350D01*
X21522Y-26407D01*
X21522Y-26493D01*
X21493Y-26550D01*
X21465Y-26579D01*
X21407Y-26607D01*
X21179Y-26607D01*
X21779Y-26579D02*
X21979Y-26579D01*
X22065Y-26893D02*
X21779Y-26893D01*
X21779Y-26293D01*
X22065Y-26293D01*
X22322Y-26579D02*
X22522Y-26579D01*
X22608Y-26893D02*
X22322Y-26893D01*
X22322Y-26293D01*
X22608Y-26293D01*
X22865Y-26893D02*
X22865Y-26293D01*
X23208Y-26893D01*
X23208Y-26293D01*
X08067Y-23273D02*
X08038Y-23301D01*
X07952Y-23330D01*
X07895Y-23330D01*
X07810Y-23301D01*
X07752Y-23244D01*
X07724Y-23187D01*
X07695Y-23073D01*
X07695Y-22987D01*
X07724Y-22873D01*
X07752Y-22816D01*
X07810Y-22758D01*
X07895Y-22730D01*
X07952Y-22730D01*
X08038Y-22758D01*
X08067Y-22787D01*
X08638Y-23330D02*
X08295Y-23330D01*
X08467Y-23330D02*
X08467Y-22730D01*
X08410Y-22816D01*
X08352Y-22873D01*
X08295Y-22901D01*
X09152Y-22930D02*
X09152Y-23330D01*
X09009Y-22701D02*
X08866Y-23130D01*
X09238Y-23130D01*
X06811Y-26979D02*
X06611Y-26693D01*
X06468Y-26979D02*
X06468Y-26379D01*
X06696Y-26379D01*
X06754Y-26407D01*
X06782Y-26436D01*
X06811Y-26493D01*
X06811Y-26579D01*
X06782Y-26636D01*
X06754Y-26665D01*
X06696Y-26693D01*
X06468Y-26693D01*
X07068Y-26665D02*
X07268Y-26665D01*
X07354Y-26979D02*
X07068Y-26979D01*
X07068Y-26379D01*
X07354Y-26379D01*
X07611Y-26979D02*
X07611Y-26379D01*
X07754Y-26379D01*
X07839Y-26407D01*
X07897Y-26465D01*
X07925Y-26522D01*
X07954Y-26636D01*
X07954Y-26722D01*
X07925Y-26836D01*
X07897Y-26893D01*
X07839Y-26950D01*
X07754Y-26979D01*
X07611Y-26979D01*
G54D13*
X18973Y-24852D02*
X19030Y-24871D01*
X19126Y-24871D01*
X19164Y-24852D01*
X19183Y-24833D01*
X19202Y-24795D01*
X19202Y-24757D01*
X19183Y-24719D01*
X19164Y-24699D01*
X19126Y-24680D01*
X19049Y-24661D01*
X19011Y-24642D01*
X18992Y-24623D01*
X18973Y-24585D01*
X18973Y-24547D01*
X18992Y-24509D01*
X19011Y-24490D01*
X19049Y-24471D01*
X19145Y-24471D01*
X19202Y-24490D01*
X19335Y-24471D02*
X19430Y-24871D01*
X19507Y-24585D01*
X19583Y-24871D01*
X19678Y-24471D01*
X19735Y-24909D02*
X20040Y-24909D01*
X20345Y-24490D02*
X20307Y-24471D01*
X20250Y-24471D01*
X20192Y-24490D01*
X20154Y-24528D01*
X20135Y-24566D01*
X20116Y-24642D01*
X20116Y-24699D01*
X20135Y-24776D01*
X20154Y-24814D01*
X20192Y-24852D01*
X20250Y-24871D01*
X20288Y-24871D01*
X20345Y-24852D01*
X20364Y-24833D01*
X20364Y-24699D01*
X20288Y-24699D01*
X20535Y-24871D02*
X20535Y-24604D01*
X20535Y-24680D02*
X20554Y-24642D01*
X20573Y-24623D01*
X20611Y-24604D01*
X20650Y-24604D01*
X20936Y-24852D02*
X20898Y-24871D01*
X20821Y-24871D01*
X20783Y-24852D01*
X20764Y-24814D01*
X20764Y-24661D01*
X20783Y-24623D01*
X20821Y-24604D01*
X20898Y-24604D01*
X20936Y-24623D01*
X20955Y-24661D01*
X20955Y-24699D01*
X20764Y-24738D01*
X21279Y-24852D02*
X21241Y-24871D01*
X21164Y-24871D01*
X21126Y-24852D01*
X21107Y-24814D01*
X21107Y-24661D01*
X21126Y-24623D01*
X21164Y-24604D01*
X21241Y-24604D01*
X21279Y-24623D01*
X21298Y-24661D01*
X21298Y-24699D01*
X21107Y-24738D01*
X21469Y-24604D02*
X21469Y-24871D01*
X21469Y-24642D02*
X21488Y-24623D01*
X21526Y-24604D01*
X21584Y-24604D01*
X21622Y-24623D01*
X21641Y-24661D01*
X21641Y-24871D01*
X22041Y-24871D02*
X21812Y-24871D01*
X21926Y-24871D02*
X21926Y-24471D01*
X21888Y-24528D01*
X21850Y-24566D01*
X21812Y-24585D01*
X19167Y-22997D02*
X19224Y-23016D01*
X19320Y-23016D01*
X19358Y-22997D01*
X19377Y-22978D01*
X19396Y-22940D01*
X19396Y-22902D01*
X19377Y-22864D01*
X19358Y-22844D01*
X19320Y-22825D01*
X19243Y-22806D01*
X19205Y-22787D01*
X19186Y-22768D01*
X19167Y-22730D01*
X19167Y-22692D01*
X19186Y-22654D01*
X19205Y-22635D01*
X19243Y-22616D01*
X19339Y-22616D01*
X19396Y-22635D01*
X19529Y-22616D02*
X19624Y-23016D01*
X19701Y-22730D01*
X19777Y-23016D01*
X19872Y-22616D01*
X19929Y-23054D02*
X20234Y-23054D01*
X20329Y-23016D02*
X20329Y-22616D01*
X20482Y-22616D01*
X20520Y-22635D01*
X20539Y-22654D01*
X20558Y-22692D01*
X20558Y-22749D01*
X20539Y-22787D01*
X20520Y-22806D01*
X20482Y-22825D01*
X20329Y-22825D01*
X20729Y-22616D02*
X20729Y-22940D01*
X20748Y-22978D01*
X20767Y-22997D01*
X20805Y-23016D01*
X20882Y-23016D01*
X20920Y-22997D01*
X20939Y-22978D01*
X20958Y-22940D01*
X20958Y-22616D01*
X21129Y-22997D02*
X21186Y-23016D01*
X21282Y-23016D01*
X21320Y-22997D01*
X21339Y-22978D01*
X21358Y-22940D01*
X21358Y-22902D01*
X21339Y-22864D01*
X21320Y-22844D01*
X21282Y-22825D01*
X21205Y-22806D01*
X21167Y-22787D01*
X21148Y-22768D01*
X21129Y-22730D01*
X21129Y-22692D01*
X21148Y-22654D01*
X21167Y-22635D01*
X21205Y-22616D01*
X21301Y-22616D01*
X21358Y-22635D01*
X21529Y-23016D02*
X21529Y-22616D01*
X21529Y-22806D02*
X21758Y-22806D01*
X21758Y-23016D02*
X21758Y-22616D01*
X07195Y-24257D02*
X07252Y-24276D01*
X07348Y-24276D01*
X07386Y-24257D01*
X07405Y-24238D01*
X07424Y-24200D01*
X07424Y-24162D01*
X07405Y-24124D01*
X07386Y-24104D01*
X07348Y-24085D01*
X07271Y-24066D01*
X07233Y-24047D01*
X07214Y-24028D01*
X07195Y-23990D01*
X07195Y-23952D01*
X07214Y-23914D01*
X07233Y-23895D01*
X07271Y-23876D01*
X07367Y-23876D01*
X07424Y-23895D01*
X07557Y-23876D02*
X07652Y-24276D01*
X07729Y-23990D01*
X07805Y-24276D01*
X07900Y-23876D01*
X07957Y-24314D02*
X08262Y-24314D01*
X08586Y-24276D02*
X08452Y-24085D01*
X08357Y-24276D02*
X08357Y-23876D01*
X08510Y-23876D01*
X08548Y-23895D01*
X08567Y-23914D01*
X08586Y-23952D01*
X08586Y-24009D01*
X08567Y-24047D01*
X08548Y-24066D01*
X08510Y-24085D01*
X08357Y-24085D01*
X08910Y-24257D02*
X08872Y-24276D01*
X08795Y-24276D01*
X08757Y-24257D01*
X08738Y-24219D01*
X08738Y-24066D01*
X08757Y-24028D01*
X08795Y-24009D01*
X08872Y-24009D01*
X08910Y-24028D01*
X08929Y-24066D01*
X08929Y-24104D01*
X08738Y-24143D01*
X09272Y-24276D02*
X09272Y-23876D01*
X09272Y-24257D02*
X09234Y-24276D01*
X09157Y-24276D01*
X09119Y-24257D01*
X09100Y-24238D01*
X09081Y-24200D01*
X09081Y-24085D01*
X09100Y-24047D01*
X09119Y-24028D01*
X09157Y-24009D01*
X09234Y-24009D01*
X09272Y-24028D01*
X09672Y-24276D02*
X09443Y-24276D01*
X09557Y-24276D02*
X09557Y-23876D01*
X09519Y-23933D01*
X09481Y-23971D01*
X09443Y-23990D01*
X07336Y-22261D02*
X07393Y-22280D01*
X07489Y-22280D01*
X07527Y-22261D01*
X07546Y-22242D01*
X07565Y-22204D01*
X07565Y-22166D01*
X07546Y-22128D01*
X07527Y-22108D01*
X07489Y-22089D01*
X07412Y-22070D01*
X07374Y-22051D01*
X07355Y-22032D01*
X07336Y-21994D01*
X07336Y-21956D01*
X07355Y-21918D01*
X07374Y-21899D01*
X07412Y-21880D01*
X07508Y-21880D01*
X07565Y-21899D01*
X07698Y-21880D02*
X07793Y-22280D01*
X07870Y-21994D01*
X07946Y-22280D01*
X08041Y-21880D01*
X08098Y-22318D02*
X08403Y-22318D01*
X08498Y-22280D02*
X08498Y-21880D01*
X08651Y-21880D01*
X08689Y-21899D01*
X08708Y-21918D01*
X08727Y-21956D01*
X08727Y-22013D01*
X08708Y-22051D01*
X08689Y-22070D01*
X08651Y-22089D01*
X08498Y-22089D01*
X08898Y-21880D02*
X08898Y-22204D01*
X08917Y-22242D01*
X08936Y-22261D01*
X08974Y-22280D01*
X09051Y-22280D01*
X09089Y-22261D01*
X09108Y-22242D01*
X09127Y-22204D01*
X09127Y-21880D01*
X09298Y-22261D02*
X09355Y-22280D01*
X09451Y-22280D01*
X09489Y-22261D01*
X09508Y-22242D01*
X09527Y-22204D01*
X09527Y-22166D01*
X09508Y-22128D01*
X09489Y-22108D01*
X09451Y-22089D01*
X09374Y-22070D01*
X09336Y-22051D01*
X09317Y-22032D01*
X09298Y-21994D01*
X09298Y-21956D01*
X09317Y-21918D01*
X09336Y-21899D01*
X09374Y-21880D01*
X09470Y-21880D01*
X09527Y-21899D01*
X09698Y-22280D02*
X09698Y-21880D01*
X09698Y-22070D02*
X09927Y-22070D01*
X09927Y-22280D02*
X09927Y-21880D01*
M02*
