M48
;DRILL file {Pcbnew (2012-jan-04)-stable} date lun 03 giu 2013 22:41:12 CEST
;FORMAT={-:-/ absolute / inch / decimal}
FMAT,2
INCH,TZ
T1C0.025
T2C0.032
T3C0.040
%
G90
G05
M72
T1
X0.578Y-1.156
X0.587Y-2.350
X0.638Y-1.373
X0.673Y-1.523
X0.673Y-1.763
X0.678Y-1.618
X0.678Y-1.853
X0.683Y-1.443
X0.747Y-1.044
X0.748Y-2.524
X0.783Y-1.158
X0.800Y-2.296
X0.823Y-1.918
X0.828Y-0.263
X0.861Y-0.460
X0.878Y-1.383
X0.883Y-1.318
X0.909Y-2.693
X0.913Y-0.643
X0.923Y-2.008
X0.928Y-1.368
X0.943Y-1.018
X0.978Y-1.838
X0.998Y-0.533
X1.012Y-2.365
X1.058Y-1.948
X1.058Y-2.003
X1.076Y-2.500
X1.113Y-1.253
X1.123Y-1.133
X1.138Y-1.753
X1.149Y-2.380
X1.172Y-2.287
X1.203Y-1.443
X1.217Y-1.794
X1.218Y-1.748
X1.263Y-1.288
X1.268Y-1.433
X1.268Y-1.539
X1.282Y-1.226
X1.283Y-1.790
X1.303Y-1.602
X1.303Y-1.358
X1.304Y-2.196
X1.328Y-1.303
X1.328Y-1.788
X1.348Y-1.638
X1.348Y-1.683
X1.353Y-2.258
X1.388Y-1.903
X1.433Y-1.189
X1.463Y-1.473
X1.583Y-1.868
X1.588Y-0.523
X1.593Y-1.633
X1.593Y-1.763
X1.608Y-0.603
X1.608Y-1.133
X1.616Y-2.404
X1.633Y-1.668
X1.633Y-1.863
X1.643Y-1.488
X1.648Y-2.273
X1.654Y-1.025
X1.665Y-0.467
X1.678Y-1.858
X1.693Y-2.018
X1.713Y-1.403
X1.718Y-1.323
X1.720Y-0.961
X1.733Y-1.103
X1.737Y-2.197
X1.741Y-0.769
X1.741Y-1.171
X1.744Y-2.239
X1.748Y-2.013
X1.767Y-1.135
X1.778Y-0.868
X1.783Y-1.093
X1.788Y-0.918
X1.802Y-2.504
X1.817Y-2.243
X1.823Y-1.428
X1.828Y-1.008
X1.829Y-1.158
X1.836Y-1.112
X1.853Y-1.913
X1.861Y-2.385
X1.863Y-1.038
X1.868Y-1.728
X1.878Y-1.863
X1.907Y-2.072
X1.911Y-1.147
X1.922Y-0.606
X1.933Y-1.110
X1.933Y-1.598
X1.935Y-0.837
X1.938Y-0.968
X1.938Y-1.643
X1.948Y-1.828
X1.965Y-0.456
X1.978Y-1.913
X1.984Y-0.749
X1.987Y-2.232
X1.995Y-1.169
X2.026Y-2.704
X2.048Y-1.583
X2.048Y-1.718
X2.048Y-1.773
X2.048Y-2.143
X2.049Y-0.545
X2.053Y-1.828
X2.083Y-1.478
X2.087Y-2.300
X2.097Y-1.152
X2.118Y-1.503
X2.123Y-1.708
X2.143Y-1.858
X2.169Y-2.532
X2.193Y-1.243
X2.323Y-2.348
T2
X0.179Y-0.574
X0.179Y-0.874
X0.179Y-1.068
X0.179Y-1.368
X0.215Y-0.971
X0.259Y-0.574
X0.259Y-0.874
X0.259Y-1.068
X0.259Y-1.368
X0.315Y-0.971
X0.633Y-1.898
X0.633Y-1.998
X0.673Y-0.456
X0.673Y-0.556
X1.908Y-1.363
X2.008Y-1.363
X2.108Y-1.363
X2.208Y-1.363
X2.308Y-1.363
T3
X0.079Y-0.928
X0.079Y-1.028
X0.638Y-0.728
X0.638Y-0.828
X1.108Y-2.098
X1.208Y-2.098
X1.308Y-2.098
X1.408Y-2.098
X1.508Y-2.098
X1.608Y-2.098
X1.708Y-2.098
X1.808Y-2.098
T0
M30
