G04 (created by PCBNEW-RS274X (2012-jan-04)-stable) date lun 03 giu 2013 23:00:55 CEST*
G01*
G70*
G90*
%MOIN*%
G04 Gerber Fmt 3.4, Leading zero omitted, Abs format*
%FSLAX34Y34*%
G04 APERTURE LIST*
%ADD10C,0.006000*%
%ADD11C,0.015000*%
%ADD12C,0.003900*%
G04 APERTURE END LIST*
G54D10*
G54D11*
X05354Y-14685D02*
X04484Y-14685D01*
X04433Y-13784D02*
X05314Y-13784D01*
X05318Y-05563D02*
X04444Y-05563D01*
X04590Y-04996D02*
X05456Y-04996D01*
X23826Y-26736D02*
X23826Y-27669D01*
X06192Y-28622D02*
X22980Y-28622D01*
X05409Y-27921D02*
X05409Y-26634D01*
X05411Y-27929D02*
X05417Y-27992D01*
X05429Y-28055D01*
X05445Y-28116D01*
X05467Y-28176D01*
X05495Y-28233D01*
X05527Y-28288D01*
X05563Y-28340D01*
X05604Y-28388D01*
X05649Y-28433D01*
X05698Y-28473D01*
X05751Y-28510D01*
X05806Y-28541D01*
X05863Y-28568D01*
X05923Y-28589D01*
X05985Y-28605D01*
X06047Y-28616D01*
X06111Y-28621D01*
X06173Y-28621D01*
X22976Y-28621D02*
X23053Y-28614D01*
X23130Y-28600D01*
X23205Y-28580D01*
X23278Y-28553D01*
X23348Y-28520D01*
X23415Y-28481D01*
X23479Y-28437D01*
X23538Y-28387D01*
X23593Y-28332D01*
X23643Y-28272D01*
X23687Y-28208D01*
X23726Y-28141D01*
X23758Y-28071D01*
X23785Y-27998D01*
X23805Y-27923D01*
X23818Y-27846D01*
X23825Y-27769D01*
X23825Y-27692D01*
X23822Y-07083D02*
X23822Y-26721D01*
X05409Y-14693D02*
X05409Y-26626D01*
X03510Y-12083D02*
X03503Y-12144D01*
X03486Y-12204D01*
X03456Y-12258D01*
X03417Y-12307D01*
X03369Y-12346D01*
X03315Y-12376D01*
X03255Y-12394D01*
X03194Y-12400D01*
X03133Y-12395D01*
X03073Y-12377D01*
X03018Y-12349D01*
X02970Y-12310D01*
X02930Y-12262D01*
X02900Y-12208D01*
X02881Y-12149D01*
X02875Y-12087D01*
X02880Y-12026D01*
X02897Y-11966D01*
X02925Y-11911D01*
X02964Y-11863D01*
X03011Y-11822D01*
X03065Y-11792D01*
X03124Y-11773D01*
X03186Y-11766D01*
X03247Y-11770D01*
X03306Y-11787D01*
X03362Y-11815D01*
X03411Y-11853D01*
X03451Y-11900D01*
X03482Y-11954D01*
X03502Y-12013D01*
X03509Y-12075D01*
X03510Y-12083D01*
X03542Y-07504D02*
X03536Y-07558D01*
X03520Y-07611D01*
X03494Y-07660D01*
X03459Y-07703D01*
X03417Y-07738D01*
X03368Y-07764D01*
X03315Y-07781D01*
X03260Y-07786D01*
X03206Y-07781D01*
X03153Y-07766D01*
X03105Y-07740D01*
X03061Y-07706D01*
X03026Y-07663D01*
X02999Y-07615D01*
X02983Y-07562D01*
X02977Y-07507D01*
X02981Y-07453D01*
X02996Y-07400D01*
X03022Y-07351D01*
X03056Y-07308D01*
X03098Y-07272D01*
X03146Y-07245D01*
X03199Y-07228D01*
X03254Y-07222D01*
X03308Y-07226D01*
X03361Y-07241D01*
X03410Y-07266D01*
X03454Y-07300D01*
X03490Y-07341D01*
X03517Y-07389D01*
X03534Y-07442D01*
X03541Y-07497D01*
X03542Y-07504D01*
X00932Y-05578D02*
X00926Y-05631D01*
X00911Y-05683D01*
X00885Y-05731D01*
X00851Y-05773D01*
X00809Y-05808D01*
X00761Y-05834D01*
X00709Y-05850D01*
X00655Y-05855D01*
X00602Y-05851D01*
X00550Y-05835D01*
X00502Y-05810D01*
X00460Y-05776D01*
X00425Y-05735D01*
X00399Y-05687D01*
X00383Y-05635D01*
X00377Y-05581D01*
X00381Y-05528D01*
X00396Y-05476D01*
X00421Y-05428D01*
X00455Y-05385D01*
X00496Y-05350D01*
X00543Y-05324D01*
X00595Y-05307D01*
X00649Y-05301D01*
X00702Y-05305D01*
X00754Y-05319D01*
X00802Y-05344D01*
X00845Y-05377D01*
X00881Y-05418D01*
X00907Y-05465D01*
X00925Y-05517D01*
X00931Y-05571D01*
X00932Y-05578D01*
X07029Y-20984D02*
X07023Y-21037D01*
X07008Y-21089D01*
X06982Y-21137D01*
X06948Y-21179D01*
X06906Y-21214D01*
X06858Y-21240D01*
X06806Y-21256D01*
X06752Y-21261D01*
X06699Y-21257D01*
X06647Y-21241D01*
X06599Y-21216D01*
X06557Y-21182D01*
X06522Y-21141D01*
X06496Y-21093D01*
X06480Y-21041D01*
X06474Y-20987D01*
X06478Y-20934D01*
X06493Y-20882D01*
X06518Y-20834D01*
X06552Y-20791D01*
X06593Y-20756D01*
X06640Y-20730D01*
X06692Y-20713D01*
X06746Y-20707D01*
X06799Y-20711D01*
X06851Y-20725D01*
X06899Y-20750D01*
X06942Y-20783D01*
X06978Y-20824D01*
X07004Y-20871D01*
X07022Y-20923D01*
X07028Y-20977D01*
X07029Y-20984D01*
X04436Y-13788D02*
X03944Y-13788D01*
X05318Y-05563D02*
X05318Y-13788D01*
X03944Y-05563D02*
X04436Y-05563D01*
X03944Y-13788D02*
X03944Y-05563D01*
X05362Y-14685D02*
X05417Y-14685D01*
X00066Y-14685D02*
X04480Y-14685D01*
X00066Y-05000D02*
X00066Y-14685D01*
X04582Y-05000D02*
X00066Y-05000D01*
X05464Y-03205D02*
X05464Y-05000D01*
X23814Y-03815D02*
X23814Y-03114D01*
X23791Y-03815D02*
X23814Y-03815D01*
X23779Y-03815D02*
X23791Y-03815D01*
X21539Y-03815D02*
X23779Y-03815D01*
X21539Y-07075D02*
X21539Y-03815D01*
X23814Y-07075D02*
X21539Y-07075D01*
X22711Y-22247D02*
X22705Y-22302D01*
X22689Y-22355D01*
X22663Y-22405D01*
X22627Y-22448D01*
X22584Y-22484D01*
X22535Y-22510D01*
X22482Y-22527D01*
X22426Y-22532D01*
X22372Y-22527D01*
X22318Y-22512D01*
X22269Y-22486D01*
X22225Y-22451D01*
X22190Y-22408D01*
X22163Y-22359D01*
X22146Y-22306D01*
X22140Y-22250D01*
X22144Y-22196D01*
X22160Y-22142D01*
X22185Y-22093D01*
X22220Y-22049D01*
X22262Y-22013D01*
X22311Y-21985D01*
X22364Y-21968D01*
X22420Y-21962D01*
X22474Y-21966D01*
X22528Y-21981D01*
X22578Y-22006D01*
X22622Y-22040D01*
X22658Y-22083D01*
X22686Y-22131D01*
X22703Y-22184D01*
X22710Y-22240D01*
X22711Y-22247D01*
X07040Y-22240D02*
X07034Y-22298D01*
X07017Y-22354D01*
X06989Y-22406D01*
X06952Y-22451D01*
X06907Y-22488D01*
X06856Y-22516D01*
X06800Y-22533D01*
X06742Y-22539D01*
X06684Y-22534D01*
X06628Y-22518D01*
X06576Y-22491D01*
X06531Y-22454D01*
X06493Y-22409D01*
X06465Y-22358D01*
X06447Y-22302D01*
X06441Y-22244D01*
X06445Y-22186D01*
X06462Y-22130D01*
X06488Y-22078D01*
X06525Y-22032D01*
X06569Y-21994D01*
X06620Y-21966D01*
X06676Y-21947D01*
X06734Y-21941D01*
X06792Y-21945D01*
X06848Y-21961D01*
X06900Y-21987D01*
X06946Y-22023D01*
X06985Y-22068D01*
X07014Y-22118D01*
X07032Y-22174D01*
X07039Y-22232D01*
X07040Y-22240D01*
X22690Y-20984D02*
X22684Y-21037D01*
X22669Y-21089D01*
X22643Y-21136D01*
X22609Y-21178D01*
X22568Y-21212D01*
X22520Y-21238D01*
X22469Y-21254D01*
X22415Y-21259D01*
X22363Y-21255D01*
X22311Y-21239D01*
X22263Y-21214D01*
X22221Y-21181D01*
X22187Y-21139D01*
X22161Y-21092D01*
X22145Y-21041D01*
X22139Y-20987D01*
X22143Y-20935D01*
X22158Y-20883D01*
X22183Y-20835D01*
X22216Y-20793D01*
X22257Y-20758D01*
X22304Y-20732D01*
X22355Y-20715D01*
X22409Y-20709D01*
X22461Y-20713D01*
X22513Y-20727D01*
X22561Y-20751D01*
X22604Y-20785D01*
X22639Y-20825D01*
X22666Y-20872D01*
X22683Y-20923D01*
X22689Y-20977D01*
X22690Y-20984D01*
X00932Y-14118D02*
X00926Y-14171D01*
X00911Y-14223D01*
X00885Y-14271D01*
X00851Y-14313D01*
X00809Y-14348D01*
X00761Y-14374D01*
X00709Y-14390D01*
X00655Y-14395D01*
X00602Y-14391D01*
X00550Y-14375D01*
X00502Y-14350D01*
X00460Y-14316D01*
X00425Y-14275D01*
X00399Y-14227D01*
X00383Y-14175D01*
X00377Y-14121D01*
X00381Y-14068D01*
X00396Y-14016D01*
X00421Y-13968D01*
X00455Y-13925D01*
X00496Y-13890D01*
X00543Y-13864D01*
X00595Y-13847D01*
X00649Y-13841D01*
X00702Y-13845D01*
X00754Y-13859D01*
X00802Y-13884D01*
X00845Y-13917D01*
X00881Y-13958D01*
X00907Y-14005D01*
X00925Y-14057D01*
X00931Y-14111D01*
X00932Y-14118D01*
X22737Y-02017D02*
X22727Y-02114D01*
X22699Y-02207D01*
X22653Y-02293D01*
X22591Y-02369D01*
X22516Y-02431D01*
X22430Y-02477D01*
X22337Y-02506D01*
X22240Y-02516D01*
X22144Y-02508D01*
X22050Y-02480D01*
X21964Y-02435D01*
X21888Y-02374D01*
X21825Y-02299D01*
X21778Y-02213D01*
X21748Y-02120D01*
X21738Y-02023D01*
X21746Y-01927D01*
X21773Y-01833D01*
X21817Y-01747D01*
X21878Y-01670D01*
X21952Y-01607D01*
X22037Y-01559D01*
X22130Y-01529D01*
X22227Y-01518D01*
X22323Y-01525D01*
X22417Y-01551D01*
X22504Y-01595D01*
X22581Y-01655D01*
X22645Y-01729D01*
X22693Y-01814D01*
X22724Y-01907D01*
X22736Y-02004D01*
X22737Y-02017D01*
X07547Y-02034D02*
X07537Y-02133D01*
X07508Y-02229D01*
X07461Y-02318D01*
X07397Y-02396D01*
X07320Y-02460D01*
X07232Y-02507D01*
X07136Y-02537D01*
X07036Y-02547D01*
X06937Y-02538D01*
X06841Y-02510D01*
X06752Y-02464D01*
X06674Y-02401D01*
X06609Y-02324D01*
X06561Y-02236D01*
X06531Y-02140D01*
X06520Y-02041D01*
X06528Y-01942D01*
X06556Y-01845D01*
X06601Y-01756D01*
X06664Y-01677D01*
X06740Y-01612D01*
X06828Y-01563D01*
X06923Y-01532D01*
X07023Y-01521D01*
X07122Y-01528D01*
X07218Y-01555D01*
X07308Y-01601D01*
X07387Y-01662D01*
X07453Y-01738D01*
X07502Y-01825D01*
X07534Y-01921D01*
X07546Y-02020D01*
X07547Y-02034D01*
X07547Y-02034D02*
X07537Y-02133D01*
X07508Y-02229D01*
X07461Y-02318D01*
X07397Y-02396D01*
X07320Y-02460D01*
X07232Y-02507D01*
X07136Y-02537D01*
X07036Y-02547D01*
X06937Y-02538D01*
X06841Y-02510D01*
X06752Y-02464D01*
X06674Y-02401D01*
X06609Y-02324D01*
X06561Y-02236D01*
X06531Y-02140D01*
X06520Y-02041D01*
X06528Y-01942D01*
X06556Y-01845D01*
X06601Y-01756D01*
X06664Y-01677D01*
X06740Y-01612D01*
X06828Y-01563D01*
X06923Y-01532D01*
X07023Y-01521D01*
X07122Y-01528D01*
X07218Y-01555D01*
X07308Y-01601D01*
X07387Y-01662D01*
X07453Y-01738D01*
X07502Y-01825D01*
X07534Y-01921D01*
X07546Y-02020D01*
X07547Y-02034D01*
X07547Y-02034D02*
X07537Y-02133D01*
X07508Y-02229D01*
X07461Y-02318D01*
X07397Y-02396D01*
X07320Y-02460D01*
X07232Y-02507D01*
X07136Y-02537D01*
X07036Y-02547D01*
X06937Y-02538D01*
X06841Y-02510D01*
X06752Y-02464D01*
X06674Y-02401D01*
X06609Y-02324D01*
X06561Y-02236D01*
X06531Y-02140D01*
X06520Y-02041D01*
X06528Y-01942D01*
X06556Y-01845D01*
X06601Y-01756D01*
X06664Y-01677D01*
X06740Y-01612D01*
X06828Y-01563D01*
X06923Y-01532D01*
X07023Y-01521D01*
X07122Y-01528D01*
X07218Y-01555D01*
X07308Y-01601D01*
X07387Y-01662D01*
X07453Y-01738D01*
X07502Y-01825D01*
X07534Y-01921D01*
X07546Y-02020D01*
X07547Y-02034D01*
X07547Y-02034D02*
X07537Y-02133D01*
X07508Y-02229D01*
X07461Y-02318D01*
X07397Y-02396D01*
X07320Y-02460D01*
X07232Y-02507D01*
X07136Y-02537D01*
X07036Y-02547D01*
X06937Y-02538D01*
X06841Y-02510D01*
X06752Y-02464D01*
X06674Y-02401D01*
X06609Y-02324D01*
X06561Y-02236D01*
X06531Y-02140D01*
X06520Y-02041D01*
X06528Y-01942D01*
X06556Y-01845D01*
X06601Y-01756D01*
X06664Y-01677D01*
X06740Y-01612D01*
X06828Y-01563D01*
X06923Y-01532D01*
X07023Y-01521D01*
X07122Y-01528D01*
X07218Y-01555D01*
X07308Y-01601D01*
X07387Y-01662D01*
X07453Y-01738D01*
X07502Y-01825D01*
X07534Y-01921D01*
X07546Y-02020D01*
X07547Y-02034D01*
X23812Y-03134D02*
X23812Y-02884D01*
X23811Y-02885D02*
X23791Y-02637D01*
X23750Y-02392D01*
X23688Y-02151D01*
X23605Y-01916D01*
X23502Y-01690D01*
X23379Y-01474D01*
X23238Y-01269D01*
X23080Y-01077D01*
X22906Y-00899D01*
X22717Y-00738D01*
X22514Y-00593D01*
X22300Y-00467D01*
X22075Y-00360D01*
X21843Y-00273D01*
X21603Y-00207D01*
X21358Y-00161D01*
X21111Y-00137D01*
X20863Y-00135D01*
X08515Y-00134D02*
X21001Y-00134D01*
X08515Y-00134D02*
X08250Y-00146D01*
X07986Y-00181D01*
X07726Y-00238D01*
X07472Y-00318D01*
X07227Y-00420D01*
X06991Y-00543D01*
X06766Y-00686D01*
X06555Y-00848D01*
X06359Y-01028D01*
X06179Y-01224D01*
X06017Y-01435D01*
X05874Y-01660D01*
X05751Y-01896D01*
X05649Y-02141D01*
X05569Y-02395D01*
X05512Y-02655D01*
X05477Y-02919D01*
X05465Y-03184D01*
X22694Y-20984D02*
X22688Y-21037D01*
X22673Y-21089D01*
X22647Y-21136D01*
X22613Y-21178D01*
X22572Y-21212D01*
X22524Y-21238D01*
X22473Y-21254D01*
X22419Y-21259D01*
X22367Y-21255D01*
X22315Y-21239D01*
X22267Y-21214D01*
X22225Y-21181D01*
X22191Y-21139D01*
X22165Y-21092D01*
X22149Y-21041D01*
X22143Y-20987D01*
X22147Y-20935D01*
X22162Y-20883D01*
X22187Y-20835D01*
X22220Y-20793D01*
X22261Y-20758D01*
X22308Y-20732D01*
X22359Y-20715D01*
X22413Y-20709D01*
X22465Y-20713D01*
X22517Y-20727D01*
X22565Y-20751D01*
X22608Y-20785D01*
X22643Y-20825D01*
X22670Y-20872D01*
X22687Y-20923D01*
X22693Y-20977D01*
X22694Y-20984D01*
X07023Y-20984D02*
X07017Y-21037D01*
X07002Y-21088D01*
X06977Y-21136D01*
X06943Y-21177D01*
X06901Y-21211D01*
X06854Y-21237D01*
X06803Y-21253D01*
X06749Y-21258D01*
X06697Y-21254D01*
X06645Y-21238D01*
X06598Y-21214D01*
X06556Y-21180D01*
X06522Y-21139D01*
X06496Y-21092D01*
X06480Y-21041D01*
X06474Y-20987D01*
X06478Y-20935D01*
X06493Y-20883D01*
X06517Y-20836D01*
X06551Y-20793D01*
X06592Y-20759D01*
X06638Y-20733D01*
X06689Y-20716D01*
X06743Y-20710D01*
X06795Y-20714D01*
X06847Y-20728D01*
X06895Y-20752D01*
X06937Y-20785D01*
X06972Y-20826D01*
X06999Y-20873D01*
X07016Y-20924D01*
X07022Y-20977D01*
X07023Y-20984D01*
G54D12*
X23795Y-03815D02*
X23677Y-03815D01*
X23677Y-03815D02*
X23716Y-03815D01*
X21551Y-06964D02*
X21551Y-07023D01*
X21551Y-07023D02*
X21630Y-07023D01*
X21551Y-03894D02*
X21551Y-03815D01*
X21551Y-03815D02*
X21630Y-03815D01*
X23795Y-07024D02*
X23795Y-07910D01*
X23795Y-07023D02*
X21630Y-07023D01*
X21551Y-06964D02*
X21551Y-03894D01*
X21630Y-03815D02*
X23677Y-03815D01*
X23795Y-03815D02*
X23795Y-02889D01*
M02*
